<svg xmlns="http://www.w3.org/2000/svg" width="488" height="488" viewBox="0 0 488 488">
  <defs>
    <linearGradient id="milspec-a" x1="50%" x2="50%" y1="100%" y2="0%">
      <stop offset="0%" stop-color="#0060FF" stop-opacity="0"/>
      <stop offset="100%" stop-color="#0060FF" stop-opacity=".6"/>
    </linearGradient>
    <linearGradient id="milspec-b" x1="50%" x2="50%" y1="100%" y2=".536%">
      <stop offset="0%" stop-color="#0060FF" stop-opacity="0"/>
      <stop offset="100%" stop-color="#0060FF"/>
    </linearGradient>
    <linearGradient id="milspec-c" x1="50%" x2="50%" y1="100%" y2="0%">
      <stop offset="0%" stop-color="#0060FF" stop-opacity=".2"/>
      <stop offset="100%" stop-color="#0060FF" stop-opacity=".6"/>
    </linearGradient>
    <linearGradient id="milspec-d" x1="50%" x2="50%" y1="100%" y2="0%">
      <stop offset="0%" stop-color="#0060FF" stop-opacity=".1"/>
      <stop offset="100%" stop-color="#0060FF" stop-opacity=".6"/>
    </linearGradient>
  </defs>
  <g fill="none" fill-rule="evenodd">
    <path stroke="url(#milspec-a)" stroke-width="6" d="M64.3965517 109C105.362069 54.6896552 170.37931 19.4655172 243.62069 19.4655172 367.293103 19.4655172 467.844828 120.017241 467.844828 243.689655 467.844828 327.637931 421.448276 400.87931 353.017241 439.362069M243.62069 467.913793C119.948276 467.913793 19.3965517 367.362069 19.3965517 243.689655"/>
    <circle cx="243.621" cy="243.69" r="210.414" stroke="url(#milspec-b)"/>
    <circle cx="243.621" cy="243.69" r="174.879" stroke="url(#milspec-c)"/>
    <path stroke="url(#milspec-d)" d="M243.62069,0.103448276 L243.62069,140.103448 L243.62069,0.103448276 Z M243.62069,347.913793 L243.62069,487.913793 L243.62069,347.913793 Z M227.482759,58.8793103 L230.741379,96.2758621 L227.482759,58.8793103 Z M256.5,391.103448 L259.758621,428.5 L256.5,391.103448 Z M211.344828,61.0517241 L217.862069,97.8275862 L211.344828,61.0517241 Z M269.224138,389.396552 L275.741379,426.327586 L269.224138,389.396552 Z M195.517241,64.4655172 L205.293103,100.62069 L195.517241,64.4655172 Z M281.948276,386.603448 L291.568966,422.913793 L281.948276,386.603448 Z M180.155172,69.4310345 L193.034483,104.5 L180.155172,69.4310345 Z M294.206897,382.724138 L307.086207,417.948276 L294.206897,382.724138 Z M165.258621,75.4827586 L181.086207,109.465517 L165.258621,75.4827586 Z M306.155172,377.913793 L321.982759,411.741379 L306.155172,377.913793 Z M150.827586,83.0862069 L169.603448,115.517241 L150.827586,83.0862069 Z M317.637931,371.862069 L336.413793,404.293103 L317.637931,371.862069 Z M137.172414,91.7758621 L158.741379,122.344828 L137.172414,91.7758621 Z M328.5,364.87931 L350.068966,395.603448 L328.5,364.87931 Z M124.293103,101.551724 L148.5,130.258621 L124.293103,101.551724 Z M338.741379,357.12069 L362.793103,385.827586 L338.741379,357.12069 Z M112.5,112.568966 L138.87931,138.948276 L112.5,112.568966 Z M348.206897,348.275862 L374.741379,374.810345 L348.206897,348.275862 Z M101.482759,124.517241 L130.189655,148.568966 L101.482759,124.517241 Z M357.051724,338.810345 L385.758621,362.862069 L357.051724,338.810345 Z M91.7068966,137.241379 L122.275862,158.810345 L91.7068966,137.241379 Z M364.810345,328.568966 L395.534483,350.137931 L364.810345,328.568966 Z M83.0172414,150.896552 L115.448276,169.672414 L83.0172414,150.896552 Z M371.793103,317.706897 L404.224138,336.482759 L371.793103,317.706897 Z M75.4137931,165.327586 L109.396552,181.155172 L75.4137931,165.327586 Z M377.689655,306.224138 L411.672414,322.051724 L377.689655,306.224138 Z M69.2068966,180.224138 L104.431034,193.103448 L69.2068966,180.224138 Z M382.655172,294.275862 L417.87931,307.155172 L382.655172,294.275862 Z M64.3965517,195.741379 L100.551724,205.362069 L64.3965517,195.741379 Z M386.534483,282.017241 L422.844828,291.637931 L386.534483,282.017241 Z M60.9827586,211.413793 L97.7586207,217.931034 L60.9827586,211.413793 Z M389.327586,269.448276 L426.258621,275.965517 L389.327586,269.448276 Z M58.8103448,227.551724 L96.0517241,230.810345 L58.8103448,227.551724 Z M391.034483,256.568966 L428.431034,259.827586 L391.034483,256.568966 Z M0.0344827586,243.689655 L140.034483,243.689655 L0.0344827586,243.689655 Z M347.844828,243.689655 L487.844828,243.689655 L347.844828,243.689655 Z M58.8103448,259.827586 L96.0517241,256.568966 L58.8103448,259.827586 Z M391.034483,230.810345 L428.431034,227.551724 L391.034483,230.810345 Z M60.9827586,275.965517 L97.7586207,269.448276 L60.9827586,275.965517 Z M389.327586,217.931034 L426.258621,211.413793 L389.327586,217.931034 Z M64.3965517,291.637931 L100.551724,282.017241 L64.3965517,291.637931 Z M386.534483,205.362069 L422.844828,195.741379 L386.534483,205.362069 Z M69.2068966,307.155172 L104.431034,294.275862 L69.2068966,307.155172 Z M382.655172,193.103448 L417.87931,180.224138 L382.655172,193.103448 Z M75.4137931,322.051724 L109.396552,306.224138 L75.4137931,322.051724 Z M377.689655,181.155172 L411.672414,165.327586 L377.689655,181.155172 Z M83.0172414,336.482759 L115.448276,317.706897 L83.0172414,336.482759 Z M371.793103,169.672414 L404.224138,150.896552 L371.793103,169.672414 Z M91.7068966,350.137931 L122.275862,328.568966 L91.7068966,350.137931 Z M364.810345,158.810345 L395.534483,137.241379 L364.810345,158.810345 Z M101.482759,362.862069 L130.189655,338.810345 L101.482759,362.862069 Z M357.051724,148.568966 L385.758621,124.517241 L357.051724,148.568966 Z M112.5,374.810345 L138.87931,348.275862 L112.5,374.810345 Z M348.206897,138.948276 L374.741379,112.568966 L348.206897,138.948276 Z M124.293103,385.827586 L148.5,357.12069 L124.293103,385.827586 Z M338.741379,130.258621 L362.793103,101.551724 L338.741379,130.258621 Z M137.172414,395.603448 L158.741379,364.87931 L137.172414,395.603448 Z M328.5,122.344828 L350.068966,91.7758621 L328.5,122.344828 Z M150.827586,404.293103 L169.603448,371.862069 L150.827586,404.293103 Z M317.637931,115.517241 L336.413793,83.0862069 L317.637931,115.517241 Z M165.258621,411.741379 L181.086207,377.913793 L165.258621,411.741379 Z M306.155172,109.465517 L321.982759,75.4827586 L306.155172,109.465517 Z M180.155172,417.948276 L193.034483,382.724138 L180.155172,417.948276 Z M294.206897,104.5 L307.086207,69.4310345 L294.206897,104.5 Z M195.517241,422.913793 L205.293103,386.603448 L195.517241,422.913793 Z M281.948276,100.62069 L291.568966,64.4655172 L281.948276,100.62069 Z M211.344828,426.327586 L217.862069,389.396552 L211.344828,426.327586 Z M269.224138,97.8275862 L275.741379,61.0517241 L269.224138,97.8275862 Z M227.482759,428.5 L230.741379,391.103448 L227.482759,428.5 Z M256.5,96.2758621 L259.758621,58.8793103 L256.5,96.2758621 Z"/>
    <path stroke="#0060FF" stroke-width="6" d="M351.310345,249.275862 C348.206897,308.706897 297.62069,354.482759 238.034483,351.37931 C178.603448,348.275862 132.827586,297.689655 135.931034,238.103448 C139.034483,178.672414 189.62069,132.896552 249.206897,136" transform="rotate(45 243.546 243.69)"/>
  </g>
</svg>
