<?xml version="1.0" encoding="UTF-8"?>
<svg width="222px" height="256px" viewBox="0 0 222 256" version="1.1" xmlns="http://www.w3.org/2000/svg" xmlns:xlink="http://www.w3.org/1999/xlink">
    <!-- Generator: Sketch 49.1 (51147) - http://www.bohemiancoding.com/sketch -->
    <title>Group 2</title>
    <desc>Created with Sketch.</desc>
    <defs>
        <polygon id="path-1" points="110 0 205.262794 55 205.262794 165 110 220 14.7372056 165 14.7372056 55"></polygon>
        <linearGradient x1="50%" y1="0%" x2="50%" y2="50%" id="linearGradient-3">
            <stop stop-color="#FFFFFF" offset="0%"></stop>
            <stop stop-color="#FFFFFF" stop-opacity="0.2" offset="100%"></stop>
        </linearGradient>
    </defs>
    <g id="Билет" stroke="none" stroke-width="1" fill="none" fill-rule="evenodd">
        <g id="Открытие-билета" transform="translate(-959.000000, -623.000000)">
            <g id="Билет" transform="translate(456.000000, 271.000000)">
                <g id="Предметы" transform="translate(40.000000, 370.000000)">
                    <g id="Group-2" transform="translate(464.000000, 0.000000)">
                        <path d="M110,-8.66025404 L212.762794,50.669873 L212.762794,169.330127 L110,228.660254 L7.23720558,169.330127 L7.23720558,50.669873 L110,-8.66025404 Z" id="Polygon" stroke="#000000" stroke-width="15" opacity="0.2"></path>
                        <g id="Polygon">
                            <mask id="mask-2" fill="white">
                                <use xlink:href="#path-1"></use>
                            </mask>
                            <g id="Mask"></g>
                            <polygon fill-opacity="0.1" fill="#000000" mask="url(#mask-2)" points="16.0627944 -54.2666667 111.325589 0.733333333 111.325589 110.733333 16.0627944 165.733333 -79.2 110.733333 -79.2 0.733333333"></polygon>
                            <polygon fill-opacity="0.05" fill="#000000" mask="url(#mask-2)" points="205.262794 55.7333333 300.525589 110.733333 300.525589 220.733333 205.262794 275.733333 110 220.733333 110 110.733333"></polygon>
                        </g>
                        <path d="M110,1.15470054 L15.7372056,55.5773503 L15.7372056,164.42265 L110,218.845299 L204.262794,164.42265 L204.262794,55.5773503 L110,1.15470054 Z" id="Polygon" stroke="url(#linearGradient-3)" stroke-width="2" opacity="0.5"></path>
                        <polygon id="Polygon" fill-opacity="0.2" fill="#000000" points="110.336561 49.0318116 163.136561 79.5159058 163.136561 140.484094 110.336561 170.968188 57.536561 140.484094 57.536561 79.5159058"></polygon>
                    </g>
                </g>
            </g>
        </g>
    </g>
</svg>