<?xml version="1.0" encoding="UTF-8"?>
<svg width="222px" height="256px" viewBox="0 0 222 256" version="1.1" xmlns="http://www.w3.org/2000/svg" xmlns:xlink="http://www.w3.org/1999/xlink">
    <!-- Generator: Sketch 49.1 (51147) - http://www.bohemiancoding.com/sketch -->
    <title>Group 2</title>
    <desc>Created with Sketch.</desc>
    <defs>
        <linearGradient x1="50%" y1="2.1225287%" x2="50%" y2="100%" id="linearGradient-1">
            <stop stop-color="#63ADF2" offset="0%"></stop>
            <stop stop-color="#63ADF2" stop-opacity="0.2" offset="96.9068878%"></stop>
        </linearGradient>
        <polygon id="path-2" points="110 0 205.262794 55 205.262794 165 110 220 14.7372056 165 14.7372056 55"></polygon>
        <linearGradient x1="50%" y1="-2.48949813e-15%" x2="50%" y2="100%" id="linearGradient-4">
            <stop stop-color="#63ADF2" offset="0%"></stop>
            <stop stop-color="#63ADF2" stop-opacity="0.2" offset="97.4728954%"></stop>
        </linearGradient>
        <linearGradient x1="50%" y1="100%" x2="50%" y2="-2.48949813e-15%" id="linearGradient-5">
            <stop stop-color="#63ADF2" offset="0%"></stop>
            <stop stop-color="#63ADF2" stop-opacity="0.2" offset="100%"></stop>
        </linearGradient>
        <linearGradient x1="50%" y1="100%" x2="50%" y2="3.061617e-15%" id="linearGradient-6">
            <stop stop-color="#62ABF0" stop-opacity="0" offset="2.15043048%"></stop>
            <stop stop-color="#62ACF0" offset="100%"></stop>
        </linearGradient>
    </defs>
    <g id="Билет" stroke="none" stroke-width="1" fill="none" fill-rule="evenodd">
        <g id="Открытие-билета" transform="translate(-959.000000, -1025.000000)">
            <g id="Билет" transform="translate(456.000000, 271.000000)">
                <g id="Group-2" transform="translate(504.000000, 772.000000)">
                    <path d="M110,-8.66025404 L212.762794,50.669873 L212.762794,169.330127 L110,228.660254 L7.23720558,169.330127 L7.23720558,50.669873 L110,-8.66025404 Z" id="Polygon" stroke="#000000" stroke-width="15" opacity="0.2"></path>
                    <polygon id="Polygon" fill="url(#linearGradient-1)" opacity="0.3" points="110 0 205.262794 55 205.262794 165 110 220 14.7372056 165 14.7372056 55"></polygon>
                    <g id="Polygon">
                        <mask id="mask-3" fill="white">
                            <use xlink:href="#path-2"></use>
                        </mask>
                        <g id="Mask"></g>
                        <polygon fill-opacity="0.1" fill="#000000" mask="url(#mask-3)" points="16.0627944 -54.2666667 111.325589 0.733333333 111.325589 110.733333 16.0627944 165.733333 -79.2 110.733333 -79.2 0.733333333"></polygon>
                        <polygon fill-opacity="0.05" fill="#000000" mask="url(#mask-3)" points="205.262794 55.7333333 300.525589 110.733333 300.525589 220.733333 205.262794 275.733333 110 220.733333 110 110.733333"></polygon>
                    </g>
                    <path d="M110,1.15470054 L15.7372056,55.5773503 L15.7372056,164.42265 L110,218.845299 L204.262794,164.42265 L204.262794,55.5773503 L110,1.15470054 Z" id="Polygon" stroke="url(#linearGradient-4)" stroke-width="2"></path>
                    <path d="M109.641771,9.57735027 L22.5,59.8886751 L22.5,160.511325 L109.641771,210.82265 L196.783542,160.511325 L196.783542,59.8886751 L109.641771,9.57735027 Z" id="Polygon" stroke="url(#linearGradient-5)"></path>
                    <path d="M111.782807,40 L113.700683,40 C114.299882,40.1957813 114.890588,40.423008 115.499376,40.5826955 C130.796902,44.5964859 146.09114,48.6223075 161.400447,52.5901604 C163.588196,53.1569965 164.791252,54.3393407 165.329901,56.570318 C168.981811,71.696612 172.69701,86.807867 176.453033,101.908731 C176.99497,104.087482 176.55742,105.719631 174.942021,107.318967 C164.341373,117.813776 153.796344,128.364365 143.258438,138.92179 C141.830442,140.352416 140.441352,141.701557 138.032226,141.014408 C138.032226,144.232769 137.975786,147.230192 138.050857,150.224333 C138.105927,152.417576 137.230828,153.876366 135.313226,154.992811 C121.056285,163.293283 106.836057,171.656371 92.6040481,180.000046 L90.6861722,180.000046 C88.7493915,178.903561 86.8095971,177.812272 84.8761042,176.710045 C72.2490835,169.510707 59.6404195,162.27965 46.9813428,155.13746 C44.8590762,153.940077 43.8387662,152.426053 44.0206905,149.974958 C44.1617913,148.072106 44.0552122,146.151207 44.0549382,144.238237 C44.0532944,131.030108 44.0617878,117.821705 44.0349375,104.613576 C44.0316498,102.860841 44.4278281,101.437598 46.0218569,100.421778 C55.7841191,94.2007991 65.5219969,87.9418127 75.2664502,81.6934903 C75.6448197,81.4509511 76.0083942,81.1859901 76.4032026,80.91474 C76.3166242,80.6508728 76.2758009,80.4261071 76.1744274,80.2330601 C74.7354725,77.4918483 75.6023524,75.4500898 77.7344824,73.3541907 C88.1386851,63.1270779 98.4179518,52.773637 108.764618,42.4882821 C109.685199,41.5730865 110.772908,40.8255081 111.782807,40 M166.741732,105.18424 C166.655701,105.046154 166.569123,104.908068 166.483092,104.769982 C166.229385,104.687404 165.979513,104.591154 165.721696,104.523888 C153.50784,101.347364 141.286039,98.2017379 129.088623,94.9639634 C127.501717,94.5425961 126.615659,95.05119 125.790972,96.4077139 C128.216811,97.8771675 130.574155,99.4242774 133.045201,100.762754 C134.873758,101.752872 135.575153,103.066193 135.552686,105.153342 C135.46008,113.71686 135.508849,122.281746 135.525014,130.846085 C135.526384,131.509991 135.201441,132.39128 136.278465,132.612218 C137.265897,132.814562 138.109489,133.485851 139.207062,132.375968 C147.990111,123.489793 156.860835,114.690025 165.714846,105.87385 C166.001432,105.588381 166.396788,105.41174 166.741732,105.18424 M83.6612669,79.4321614 C83.8399033,79.4893099 84.0185397,79.5467318 84.1971762,79.6041537 C85.8087399,78.6665362 87.4657846,77.7975515 89.0189901,76.7718871 C90.5491811,75.7612618 91.8727894,75.8411056 93.4353103,76.7997777 C102.253156,82.2097405 111.119222,87.5415 119.970219,92.8975955 C120.38722,93.1499784 120.81792,93.3791191 121.405886,93.7116192 C121.851655,93.1937285 122.214408,92.647947 122.696068,92.2427125 C123.349242,91.6933764 123.438834,91.1164231 123.219923,90.3231806 C119.917066,78.3567314 116.641334,66.3826259 113.345876,54.4139891 C112.943122,52.9508246 112.461461,51.5089882 111.995417,49.9894955 C111.747463,50.1631283 111.624445,50.2254721 111.531565,50.317894 C102.39453,59.4288345 93.2517421,68.5343063 84.1525171,77.6829812 C83.7790792,78.058411 83.8157929,78.8398956 83.6612669,79.4321614 M51.6193147,108.724984 C51.5708198,109.003616 51.5417777,109.092757 51.5417777,109.182445 C51.537394,122.169636 51.5250648,135.156828 51.5721897,148.143747 C51.5738336,148.626637 52.0401514,149.306677 52.4829068,149.560974 C64.3035977,156.348241 76.149221,163.092306 87.9932005,169.839652 C88.2967728,170.012465 88.6269215,170.138246 89.0121405,170.317894 C89.0600874,170.044457 89.1157058,169.873832 89.1157058,169.70348 C89.1170757,156.716015 89.1222814,143.72855 89.0748825,130.741631 C89.0735126,130.285264 88.6545937,129.63749 88.2441682,129.403701 C76.3262136,122.606316 64.3846965,115.849947 52.4448232,109.09057 C52.217418,108.962054 51.9656283,108.876741 51.6193147,108.724984 M94.2542433,170.259926 C94.7142595,170.034066 95.0383805,169.899535 95.3381171,169.723988 C106.742629,163.033517 118.138647,156.328554 129.561242,149.668708 C130.401546,149.178981 130.476069,148.576325 130.475247,147.768317 C130.462918,135.053742 130.46648,122.339441 130.46648,109.624867 L130.46648,108.134085 C129.983175,108.37471 129.699329,108.495296 129.43521,108.650062 C117.990697,115.36104 106.554677,122.086238 95.0915331,128.765498 C94.2539693,129.253311 94.1673909,129.847764 94.1682128,130.658506 C94.18109,143.373081 94.1764323,156.087655 94.1799941,168.801956 C94.180268,169.236722 94.2230093,169.670941 94.2542433,170.259926 M117.512324,48.8992998 C117.595615,49.3444562 117.618355,49.5601985 117.676713,49.7655501 C121.344788,62.6674293 125.025192,75.5654805 128.662854,88.4758363 C128.88889,89.2783756 129.331097,89.5589226 130.037423,89.7418523 C141.942775,92.8281424 153.845386,95.9270106 165.75019,99.0154882 C166.464188,99.2006054 167.193802,99.325293 168.055203,99.5074024 C167.933555,98.9345507 167.867799,98.5801755 167.782316,98.2309957 C164.735086,85.8207573 161.67169,73.4140735 158.661721,60.9948116 C158.404451,59.9336003 157.9606,59.4321158 156.881384,59.1562172 C148.892883,57.1144588 140.924109,54.9972315 132.946841,52.911723 C127.882005,51.5874648 122.813607,50.2768784 117.512324,48.8992998 M54.6007897,103.873927 C56.2238607,102.831583 57.7362428,101.823145 59.2842426,100.872129 C69.5717288,94.551893 79.8707222,88.2499768 90.1513588,81.9185294 C90.8508355,81.4878652 91.3807172,81.4148574 92.1182775,81.8630216 C103.72307,88.9163442 115.345124,95.9415028 126.962246,102.974591 C127.116772,103.06838 127.257051,103.185138 127.532951,103.384201 C127.223351,103.624279 126.981699,103.858068 126.700045,104.023498 C115.306219,110.71725 103.913762,117.412916 92.4947291,124.063465 C92.0533437,124.32077 91.229479,124.369715 90.796861,124.130731 C78.9917871,117.612252 67.2138374,111.044281 55.4345177,104.479045 C55.1687549,104.331115 54.9380619,104.120841 54.6007897,103.873927 Z M149.593033,75.2685261 C149.612849,77.6493136 147.918282,79.2626805 145.519966,79.1466224 C142.638291,79.0071398 140.065377,76.2866961 140.102064,73.4182517 C140.129914,71.2288535 141.710939,69.6692567 143.910824,69.6610048 C146.819009,69.6500911 149.568932,72.3638801 149.593033,75.2685261 Z M116.372855,125.109499 C116.516093,124.252167 116.575904,123.612535 116.733773,123.001765 C117.273354,120.915471 118.801223,119.518561 120.51751,119.491898 C122.307212,119.46441 123.833028,120.852524 124.421895,123.012485 C124.861619,124.624346 124.736864,126.182058 124.032997,127.668852 C123.329386,129.154821 122.231229,130.147941 120.62635,130.169106 C118.965767,130.191096 117.793938,129.205123 117.108553,127.65126 C116.7348,126.803548 116.578984,125.845887 116.372855,125.109499 Z M99.7639254,152.060326 C99.7639254,151.969272 99.7608038,151.877945 99.7644457,151.787166 C99.8737023,149.020186 101.646,146.832711 103.819685,146.780602 C105.966577,146.72959 107.755523,148.715486 108.03855,151.468205 C108.057019,151.649214 108.064824,151.831869 108.067165,152.013976 C108.106965,154.990489 106.171043,157.496376 103.864429,157.457157 C101.581747,157.418212 99.7433748,155.002282 99.7639254,152.060326 Z M108.067778,137.891325 C108.072713,134.960879 109.953642,132.540159 112.224473,132.54235 C114.481016,132.544267 116.373115,134.991555 116.372855,137.90858 C116.372595,140.85053 114.510629,143.226878 112.210965,143.220305 C109.9126,143.213731 108.062842,140.83437 108.067778,137.891325 Z M72.681337,153.346824 C72.6941168,153.074495 72.6900505,152.800253 72.7222906,152.529838 C73.0173891,150.046891 74.9143264,148.088915 77.1310505,147.971617 C79.3053688,147.85678 81.2255422,149.53942 81.8099302,152.058732 C82.1668948,153.597005 81.9066505,155.052432 81.0817688,156.397395 C79.2652865,159.360198 75.4109981,159.408868 73.611362,156.446611 C73.0554382,155.531467 72.8436992,154.431216 72.4745357,153.415726 C72.5433726,153.392759 72.6125,153.369791 72.681337,153.346824 Z M58.2372428,143.900056 C58.3669578,140.932884 60.2111656,138.495251 62.4496453,138.474684 C64.6878686,138.454117 66.6043681,140.874199 66.5407924,143.799962 C66.5205405,144.729328 66.3187902,145.71738 65.9596388,146.561461 C65.3059371,148.097699 64.1882354,149.138951 62.5021977,149.152388 C60.8143656,149.1661 59.6992274,148.135543 59.0098926,146.613016 C58.6294638,145.772226 58.4869312,144.808581 58.2372428,143.900056 Z M72.7313287,135.542617 C72.7440384,135.27049 72.7399944,134.996725 72.7717685,134.726782 C73.0594692,132.265902 74.9714075,130.28568 77.1600699,130.174591 C79.325335,130.064321 81.241895,131.743484 81.8089195,134.260317 C82.1881875,135.942482 81.8845998,137.520928 80.8582942,138.935879 C79.0341681,141.450256 75.678816,141.507575 73.9061063,138.968906 C73.2215174,137.988484 72.9398828,136.756953 72.4745357,135.640058 L72.7313287,135.542617 Z M66.5423265,127.225489 C66.5394692,130.137721 64.623572,132.572205 62.3580548,132.542072 C60.1405908,132.512761 58.2784613,130.135803 58.2379407,127.28329 C58.1963811,124.347499 60.0161718,121.919589 62.2985726,121.86535 C64.6552612,121.809193 66.5454434,124.19656 66.5423265,127.225489 Z M102.135671,70.6126788 C102.115911,67.7284255 104.797155,64.9881329 107.708845,64.9165502 C110.522269,64.8476187 112.328457,67.4439504 111.366082,70.260863 C110.606917,72.4823134 109.012751,73.8627994 106.696536,74.3230498 C104.225711,74.813524 102.152761,73.0926224 102.135671,70.6126788 Z M141.288884,113.178852 C141.341408,110.034893 144.44941,107.304205 147.57242,107.658055 C149.286939,107.852109 150.575911,109.169542 150.754116,110.909345 C151.069525,113.986923 148.417353,117.001869 145.294343,117.11509 C142.854409,117.203418 141.247884,115.624747 141.288884,113.178852 Z" id="Fill-1" fill="url(#linearGradient-6)" opacity="0.15"></path>
                </g>
            </g>
        </g>
    </g>
</svg>