<svg xmlns="http://www.w3.org/2000/svg" width="26" height="30" viewBox="0 0 26 30">
  <g fill="none" transform="translate(.608 .69)">
    <path fill="#000" fill-opacity=".4" d="M12.3923048,1.04805054e-13 L24.7846097,7.15470054 L24.7846097,21.4641016 L12.3923048,28.6188022 L-6.83897383e-13,21.4641016 L-6.83897383e-13,7.15470054 L12.3923048,1.04805054e-13 Z M12.3923048,2.30940108 L2,8.30940108 L2,20.3094011 L12.3923048,26.3094011 L22.7846097,20.3094011 L22.7846097,8.30940108 L12.3923048,2.30940108 Z"/>
    <path fill="#FFDF2C" d="M12.3923048,2.30940108 L22.7846097,8.30940108 L22.7846097,20.3094011 L12.3923048,26.3094011 L2,20.3094011 L2,8.30940108 L12.3923048,2.30940108 Z M5,10.0414519 L5,18.5773503 L12.3923048,22.8452995 L19.7846097,18.5773503 L19.7846097,10.0414519 L12.3923048,5.77350269 L5,10.0414519 Z"/>
    <g transform="translate(5 5.774)">
      <polygon fill="#000" fill-opacity=".4" points="0 4.268 0 12.804 7.392 17.072 14.785 12.804 14.785 4.268 7.392 0"/>
      <polygon fill="#FFF" points="3.053 7.428 1.732 8.93 5.589 12.32 12.988 6.839 11.797 5.232 5.696 9.752"/>
    </g>
  </g>
</svg>
