<svg xmlns="http://www.w3.org/2000/svg" width="32" height="32" viewBox="0 0 32 32">
  <g fill="none" fill-rule="evenodd">
    <circle cx="16" cy="16" r="16" fill="#FF3B3B"/>
    <g fill="#FFF" fill-rule="nonzero" transform="translate(7 7)">
      <path d="M17.5712863,5.96020332 L16.2277469,4.62745643 C15.8297676,5.02539834 15.3462697,5.22451867 14.7777386,5.22451867 C14.2090207,5.22451867 13.7258216,5.02539834 13.3278797,4.62745643 C12.929639,4.22936515 12.7308174,3.74609129 12.7308174,3.17737344 C12.7308174,2.60861826 12.9299004,2.1253444 13.3278797,1.72721577 L11.9949461,0.39446888 C11.731668,0.131564315 11.4101328,3.73443983e-05 11.0300415,3.73443983e-05 C10.6497261,3.73443983e-05 10.3281909,0.13160166 10.0651743,0.39446888 L0.394580913,10.0543444 C0.131489627,10.317473 0,10.6392697 0,11.0192116 C0,11.3994523 0.131489627,11.7209502 0.394580913,11.9841162 L1.7273278,13.3276556 C2.12541909,12.9297137 2.60880498,12.7305934 3.17744813,12.7305934 C3.74605394,12.7305934 4.2293278,12.9294523 4.62738174,13.3276556 C5.025361,13.7256349 5.22440664,14.2089834 5.22440664,14.7776639 C5.22440664,15.3463444 5.02547303,15.8294315 4.62738174,16.2276722 L5.97088382,17.5710996 C6.23393776,17.8341162 6.55562241,17.9656058 6.93590041,17.9656058 C7.31621577,17.9656058 7.63790041,17.8341162 7.90076763,17.5710996 L17.5712863,7.88993776 C17.8343029,7.62695851 17.9656805,7.30538589 17.9656805,6.92507054 C17.9656805,6.54479253 17.8342656,6.22325726 17.5712863,5.96020332 Z M14.6817635,8.09256846 L8.09260581,14.6815394 C7.96481328,14.8097427 7.80486722,14.873639 7.61284232,14.873639 C7.42100415,14.873639 7.26109544,14.8097427 7.13315353,14.6815394 L3.27334855,10.8221452 C3.13827386,10.6869212 3.07079253,10.5270498 3.07079253,10.3423817 C3.07079253,10.1575643 3.13827386,9.99746888 3.27334855,9.86235685 L9.86246888,3.27327386 C9.99052282,3.14529461 10.1505436,3.08124896 10.3424938,3.08124896 C10.5342199,3.08124896 10.6942033,3.14529461 10.8222573,3.27327386 L14.6818008,7.13292946 C14.8170249,7.26807884 14.8845062,7.4280249 14.8845062,7.61280498 C14.8845062,7.79754772 14.8169876,7.95745643 14.6817635,8.09256846 Z"/>
      <polygon points="10.343 4.244 13.712 7.613 7.613 13.712 4.244 10.342"/>
    </g>
  </g>
</svg>
