<svg xmlns="http://www.w3.org/2000/svg" width="52" height="60" viewBox="0 0 52 60">
  <g fill="#FFDF2C" transform="translate(.617 .69)">
    <path fill-opacity=".6" d="M25.3826859,10 L42.1051178,19.6547005 L42.1051178,38.9641016 L25.3826859,48.6188022 L8.66025404,38.9641016 L8.66025404,19.6547005 L25.3826859,10 Z M25.3826859,12.3094011 L10.660254,20.8094011 L10.660254,37.8094011 L25.3826859,46.3094011 L40.1051178,37.8094011 L40.1051178,20.8094011 L25.3826859,12.3094011 Z"/>
    <path fill-opacity=".25" d="M25.3826859,5 L46.4352448,17.1547005 L46.4352448,41.4641016 L25.3826859,53.6188022 L4.33012702,41.4641016 L4.33012702,17.1547005 L25.3826859,5 Z M25.3826859,7.30940108 L6.33012702,18.3094011 L6.33012702,40.3094011 L25.3826859,51.3094011 L44.4352448,40.3094011 L44.4352448,18.3094011 L25.3826859,7.30940108 Z"/>
    <path fill-opacity=".1" d="M25.3826859,1.03028697e-13 L50.7653718,14.6547005 L50.7653718,43.9641016 L25.3826859,58.6188022 L-6.32383035e-13,43.9641016 L-6.32383035e-13,14.6547005 L25.3826859,1.03028697e-13 Z M25.3826859,2.30940108 L2,15.8094011 L2,42.8094011 L25.3826859,56.3094011 L48.7653718,42.8094011 L48.7653718,15.8094011 L25.3826859,2.30940108 Z"/>
  </g>
</svg>
