<svg xmlns="http://www.w3.org/2000/svg" width="26" height="30" viewBox="0 0 26 30">
  <g fill="none" transform="translate(.608 .69)">
    <path fill="#000" fill-opacity=".4" d="M12.3923048,-8.8817842e-15 L24.7846097,7.15470054 L24.7846097,21.4641016 L12.3923048,28.6188022 L-1.77635684e-15,21.4641016 L-1.77635684e-15,7.15470054 L12.3923048,-8.8817842e-15 Z M12.3923048,2.30940108 L2,8.30940108 L2,20.3094011 L12.3923048,26.3094011 L22.7846097,20.3094011 L22.7846097,8.30940108 L12.3923048,2.30940108 Z"/>
    <path fill="#75CD40" d="M12.3923048,2.30940108 L22.7846097,8.30940108 L22.7846097,20.3094011 L12.3923048,26.3094011 L2,20.3094011 L2,8.30940108 L12.3923048,2.30940108 Z M5,10.0414519 L5,18.5773503 L12.3923048,22.8452995 L19.7846097,18.5773503 L19.7846097,10.0414519 L12.3923048,5.77350269 L5,10.0414519 Z"/>
    <polygon fill="#000" fill-opacity=".4" points="5 10.041 5 18.577 12.392 22.845 19.785 18.577 19.785 10.041 12.392 5.774"/>
    <polygon fill="#8CEF50" points="8.053 13.201 6.732 14.703 10.589 18.094 17.988 12.613 16.797 11.006 10.696 15.525"/>
  </g>
</svg>
