<svg xmlns="http://www.w3.org/2000/svg" width="26" height="30" viewBox="0 0 26 30">
  <g fill="none">
    <path fill="#000" fill-opacity=".4" d="M13,0.690598923 L25.3923048,7.84529946 L25.3923048,22.1547005 L13,29.3094011 L0.607695155,22.1547005 L0.607695155,7.84529946 L13,0.690598923 Z M13,3 L2.60769515,9 L2.60769515,21 L13,27 L23.3923048,21 L23.3923048,9 L13,3 Z"/>
    <path fill="#919191" d="M13,3 L23.3923048,9 L23.3923048,21 L13,27 L2.60769515,21 L2.60769515,9 L13,3 Z M5.60769515,10.7320508 L5.60769515,19.2679492 L13,23.5358984 L20.3923048,19.2679492 L20.3923048,10.7320508 L13,6.46410162 L5.60769515,10.7320508 Z"/>
    <polygon fill="#000" fill-opacity=".4" points="5.608 10.732 5.608 19.268 13 23.536 20.392 19.268 20.392 10.732 13 6.464"/>
  </g>
</svg>
