<svg xmlns="http://www.w3.org/2000/svg" width="276" height="42" viewBox="0 0 276 42">
  <path fill="#B1BBCA" d="M11.9584927 57.7282043L14.4924321 64.7473521 21.9584927 64.9855586 16.0584927 69.5618369 18.1388326 76.7282043 11.9584927 72.5373521 5.77815284 76.7282043 7.85849273 69.5618369 1.95849273 64.9855586 9.42455337 64.7473521 11.9584927 57.7282043zM13.2474541 66.4590138L11.9584927 62.8895249 10.6695314 66.4590138 6.871168 66.5804337 9.87290949 68.9080403 8.81374446 72.5539818 11.9584927 70.4216219 15.1023648 72.5539818 14.044076 68.9080403 17.0449412 66.5804337 13.2474541 66.4590138zM37.9404332 75.2238422C38.3513921 75.2238422 38.6185154 75.0095565 38.762351 74.6881279L44.9267346 60.7595565C45.0585839 60.4649136 44.9487095 60.2603005 44.6920742 60.2282445L44.6185154 60.2238422 44.6185154 60.2238422 43.282899 60.2238422C42.8719401 60.2238422 42.6048168 60.4381279 42.4609811 60.7595565L36.2965976 74.6881279C36.152762 75.0095565 36.2965976 75.2238422 36.6048168 75.2238422L37.9404332 75.2238422zM36.7075565 67.2952707C38.4541318 67.2952707 39.2760496 66.4381279 39.2760496 64.6166993L39.2760496 62.9024136C39.2760496 61.080985 38.4541318 60.2238422 36.7075565 60.2238422L35.6801592 60.2238422C33.9335839 60.2238422 33.1116661 61.080985 33.1116661 62.9024136L33.1116661 64.6166993C33.1116661 66.4381279 33.9335839 67.2952707 35.6801592 67.2952707L36.7075565 67.2952707zM36.3993373 65.4738422L35.9883784 65.4738422C35.3719401 65.4738422 35.0637209 65.1524136 35.0637209 64.5095565L35.0637209 63.0095565C35.0637209 62.3666993 35.3719401 62.0452707 35.9883784 62.0452707L36.3993373 62.0452707C37.0157757 62.0452707 37.3239948 62.3666993 37.3239948 63.0095565L37.3239948 64.5095565C37.3239948 65.1524136 37.0157757 65.4738422 36.3993373 65.4738422zM45.5431729 75.2238422C47.2897483 75.2238422 48.1116661 74.3666993 48.1116661 72.5452707L48.1116661 70.830985C48.1116661 69.0095565 47.2897483 68.1524136 45.5431729 68.1524136L44.5157757 68.1524136C42.7692003 68.1524136 41.9472825 69.0095565 41.9472825 70.830985L41.9472825 72.5452707C41.9472825 74.3666993 42.7692003 75.2238422 44.5157757 75.2238422L45.5431729 75.2238422zM45.2349538 73.4024136L44.8239948 73.4024136C44.2075565 73.4024136 43.8993373 73.080985 43.8993373 72.4381279L43.8993373 70.9381279C43.8993373 70.2952707 44.2075565 69.9738422 44.8239948 69.9738422L45.2349538 69.9738422C45.8513921 69.9738422 46.1596113 70.2952707 46.1596113 70.9381279L46.1596113 72.4381279C46.1596113 73.080985 45.8513921 73.4024136 45.2349538 73.4024136zM70.3792549 57.8488032L72.9131943 64.867951 80.3792549 65.1061574 74.4792549 69.6824358 76.5595948 76.8488032 70.3792549 72.657951 64.198915 76.8488032 66.2792549 69.6824358 60.3792549 65.1061574 67.8453156 64.867951 70.3792549 57.8488032zM71.6682163 66.5796126L70.3792549 63.0101238 69.0902936 66.5796126 65.2919302 66.7010326 68.2936717 69.0286392 67.2345067 72.6745806 70.3792549 70.5422208 73.523127 72.6745806 72.4648382 69.0286392 75.4657034 66.7010326 71.6682163 66.5796126zM96.3611954 75.344441C96.7721543 75.344441 97.0392776 75.1301553 97.1831132 74.8087267L103.347497 60.8801553C103.479346 60.5855125 103.369472 60.3808994 103.112836 60.3488433L103.039278 60.344441 103.039278 60.344441 101.703661 60.344441C101.292702 60.344441 101.025579 60.5587267 100.881743 60.8801553L94.7173598 74.8087267C94.5735242 75.1301553 94.7173598 75.344441 95.025579 75.344441L96.3611954 75.344441zM95.1283187 67.4158696C96.874894 67.4158696 97.6968118 66.5587267 97.6968118 64.7372982L97.6968118 63.0230125C97.6968118 61.2015839 96.874894 60.344441 95.1283187 60.344441L94.1009214 60.344441C92.3543461 60.344441 91.5324283 61.2015839 91.5324283 63.0230125L91.5324283 64.7372982C91.5324283 66.5587267 92.3543461 67.4158696 94.1009214 67.4158696L95.1283187 67.4158696zM94.8200995 65.594441L94.4091406 65.594441C93.7927023 65.594441 93.4844831 65.2730125 93.4844831 64.6301553L93.4844831 63.1301553C93.4844831 62.4872982 93.7927023 62.1658696 94.4091406 62.1658696L94.8200995 62.1658696C95.4365379 62.1658696 95.744757 62.4872982 95.744757 63.1301553L95.744757 64.6301553C95.744757 65.2730125 95.4365379 65.594441 94.8200995 65.594441zM103.963935 75.344441C105.71051 75.344441 106.532428 74.4872982 106.532428 72.6658696L106.532428 70.9515839C106.532428 69.1301553 105.71051 68.2730125 103.963935 68.2730125L102.936538 68.2730125C101.189963 68.2730125 100.368045 69.1301553 100.368045 70.9515839L100.368045 72.6658696C100.368045 74.4872982 101.189963 75.344441 102.936538 75.344441L103.963935 75.344441zM103.655716 73.5230125L103.244757 73.5230125C102.628319 73.5230125 102.3201 73.2015839 102.3201 72.5587267L102.3201 71.0587267C102.3201 70.4158696 102.628319 70.094441 103.244757 70.094441L103.655716 70.094441C104.272154 70.094441 104.580373 70.4158696 104.580373 71.0587267L104.580373 72.5587267C104.580373 73.2015839 104.272154 73.5230125 103.655716 73.5230125zM129.914433 57.0987253L132.448372 64.117873 139.914433 64.3560795 134.014433 68.9323578 136.094773 76.0987253 129.914433 71.907873 123.734093 76.0987253 125.814433 68.9323578 119.914433 64.3560795 127.380493 64.117873 129.914433 57.0987253zM131.203394 65.8295347L129.914433 62.2600458 128.625471 65.8295347 124.827108 65.9509546 127.828849 68.2785612 126.769684 71.9245027 129.914433 69.7921429 133.058305 71.9245027 132.000016 68.2785612 135.000881 65.9509546 131.203394 65.8295347zM154.781958 75.4650399C155.192917 75.4650399 155.46004 75.2507542 155.603875 74.9293256L161.768259 61.0007542C161.900108 60.7061113 161.790234 60.5014982 161.533599 60.4694422L161.46004 60.4650399 161.46004 60.4650399 160.124423 60.4650399C159.713464 60.4650399 159.446341 60.6793256 159.302506 61.0007542L153.138122 74.9293256C152.994286 75.2507542 153.138122 75.4650399 153.446341 75.4650399L154.781958 75.4650399zM153.549081 67.5364685C155.295656 67.5364685 156.117574 66.6793256 156.117574 64.857897L156.117574 63.1436113C156.117574 61.3221827 155.295656 60.4650399 153.549081 60.4650399L152.521684 60.4650399C150.775108 60.4650399 149.95319 61.3221827 149.95319 63.1436113L149.95319 64.857897C149.95319 66.6793256 150.775108 67.5364685 152.521684 67.5364685L153.549081 67.5364685zM153.240862 65.7150399L152.829903 65.7150399C152.213464 65.7150399 151.905245 65.3936113 151.905245 64.7507542L151.905245 63.2507542C151.905245 62.607897 152.213464 62.2864685 152.829903 62.2864685L153.240862 62.2864685C153.8573 62.2864685 154.165519 62.607897 154.165519 63.2507542L154.165519 64.7507542C154.165519 65.3936113 153.8573 65.7150399 153.240862 65.7150399zM162.384697 75.4650399C164.131273 75.4650399 164.95319 74.607897 164.95319 72.7864685L164.95319 71.0721827C164.95319 69.2507542 164.131273 68.3936113 162.384697 68.3936113L161.3573 68.3936113C159.610725 68.3936113 158.788807 69.2507542 158.788807 71.0721827L158.788807 72.7864685C158.788807 74.607897 159.610725 75.4650399 161.3573 75.4650399L162.384697 75.4650399zM162.076478 73.6436113L161.665519 73.6436113C161.049081 73.6436113 160.740862 73.3221827 160.740862 72.6793256L160.740862 71.1793256C160.740862 70.5364685 161.049081 70.2150399 161.665519 70.2150399L162.076478 70.2150399C162.692917 70.2150399 163.001136 70.5364685 163.001136 71.1793256L163.001136 72.6793256C163.001136 73.3221827 162.692917 73.6436113 162.076478 73.6436113zM188.213325 58.2118703L190.747265 65.231018 198.213325 65.4692245 192.313325 70.0455028 194.393665 77.2118703 188.213325 73.021018 182.032986 77.2118703 184.113325 70.0455028 178.213325 65.4692245 185.679386 65.231018 188.213325 58.2118703zM189.502287 66.9426797L188.213325 63.3731909 186.924364 66.9426797 183.126001 67.0640996 186.127742 69.3917062 185.068577 73.0376477 188.213325 70.9052879 191.357198 73.0376477 190.298909 69.3917062 193.299774 67.0640996 189.502287 66.9426797zM214.195266 75.7075081C214.606225 75.7075081 214.873348 75.4932224 215.017184 75.1717938L221.181567 61.2432224C221.313417 60.9485795 221.203542 60.7439664 220.946907 60.7119104L220.873348 60.7075081 220.873348 60.7075081 219.537732 60.7075081C219.126773 60.7075081 218.85965 60.9217938 218.715814 61.2432224L212.55143 75.1717938C212.407595 75.4932224 212.55143 75.7075081 212.85965 75.7075081L214.195266 75.7075081zM212.962389 67.7789367C214.708965 67.7789367 215.530882 66.9217938 215.530882 65.1003652L215.530882 63.3860795C215.530882 61.5646509 214.708965 60.7075081 212.962389 60.7075081L211.934992 60.7075081C210.188417 60.7075081 209.366499 61.5646509 209.366499 63.3860795L209.366499 65.1003652C209.366499 66.9217938 210.188417 67.7789367 211.934992 67.7789367L212.962389 67.7789367zM212.65417 65.9575081L212.243211 65.9575081C211.626773 65.9575081 211.318554 65.6360795 211.318554 64.9932224L211.318554 63.4932224C211.318554 62.8503652 211.626773 62.5289367 212.243211 62.5289367L212.65417 62.5289367C213.270608 62.5289367 213.578828 62.8503652 213.578828 63.4932224L213.578828 64.9932224C213.578828 65.6360795 213.270608 65.9575081 212.65417 65.9575081zM221.798006 75.7075081C223.544581 75.7075081 224.366499 74.8503652 224.366499 73.0289367L224.366499 71.3146509C224.366499 69.4932224 223.544581 68.6360795 221.798006 68.6360795L220.770608 68.6360795C219.024033 68.6360795 218.202115 69.4932224 218.202115 71.3146509L218.202115 73.0289367C218.202115 74.8503652 219.024033 75.7075081 220.770608 75.7075081L221.798006 75.7075081zM221.489786 73.8860795L221.078828 73.8860795C220.462389 73.8860795 220.15417 73.5646509 220.15417 72.9217938L220.15417 71.4217938C220.15417 70.7789367 220.462389 70.4575081 221.078828 70.4575081L221.489786 70.4575081C222.106225 70.4575081 222.414444 70.7789367 222.414444 71.4217938L222.414444 72.9217938C222.414444 73.5646509 222.106225 73.8860795 221.489786 73.8860795zM246.634088 58.3324691L249.168027 65.3516169 256.634088 65.5898233 250.734088 70.1661017 252.814428 77.3324691 246.634088 73.1416169 240.453748 77.3324691 242.534088 70.1661017 236.634088 65.5898233 244.100148 65.3516169 246.634088 58.3324691zM247.923049 67.0632786L246.634088 63.4937897 245.345126 67.0632786 241.546763 67.1846985 244.548504 69.5123051 243.489339 73.1582465 246.634088 71.0258867 249.77796 73.1582465 248.719671 69.5123051 251.720536 67.1846985 247.923049 67.0632786zM273.608574 75.9499763C274.019533 75.9499763 274.286656 75.7356906 274.430492 75.414262L280.594876 61.4856906C280.726725 61.1910477 280.616851 60.9864346 280.360215 60.9543786L280.286656 60.9499763 280.286656 60.9499763 278.95104 60.9499763C278.540081 60.9499763 278.272958 61.164262 278.129122 61.4856906L271.964739 75.414262C271.820903 75.7356906 271.964739 75.9499763 272.272958 75.9499763L273.608574 75.9499763zM272.375698 68.0214049C274.122273 68.0214049 274.944191 67.164262 274.944191 65.3428334L274.944191 63.6285477C274.944191 61.8071191 274.122273 60.9499763 272.375698 60.9499763L271.3483 60.9499763C269.601725 60.9499763 268.779807 61.8071191 268.779807 63.6285477L268.779807 65.3428334C268.779807 67.164262 269.601725 68.0214049 271.3483 68.0214049L272.375698 68.0214049zM272.067478 66.1999763L271.65652 66.1999763C271.040081 66.1999763 270.731862 65.8785477 270.731862 65.2356906L270.731862 63.7356906C270.731862 63.0928334 271.040081 62.7714049 271.65652 62.7714049L272.067478 62.7714049C272.683917 62.7714049 272.992136 63.0928334 272.992136 63.7356906L272.992136 65.2356906C272.992136 65.8785477 272.683917 66.1999763 272.067478 66.1999763zM281.211314 75.9499763C282.957889 75.9499763 283.779807 75.0928334 283.779807 73.2714049L283.779807 71.5571191C283.779807 69.7356906 282.957889 68.8785477 281.211314 68.8785477L280.183917 68.8785477C278.437341 68.8785477 277.615424 69.7356906 277.615424 71.5571191L277.615424 73.2714049C277.615424 75.0928334 278.437341 75.9499763 280.183917 75.9499763L281.211314 75.9499763zM280.903095 74.1285477L280.492136 74.1285477C279.875698 74.1285477 279.567478 73.8071191 279.567478 73.164262L279.567478 71.664262C279.567478 71.0214049 279.875698 70.6999763 280.492136 70.6999763L280.903095 70.6999763C281.519533 70.6999763 281.827752 71.0214049 281.827752 71.664262L281.827752 73.164262C281.827752 73.8071191 281.519533 74.1285477 280.903095 74.1285477zM188.649299 87.483186L191.183238 94.5023338 198.649299 94.7405402 192.749299 99.3168186 194.829639 106.483186 188.649299 102.292334 182.468959 106.483186 184.549299 99.3168186 178.649299 94.7405402 186.11536 94.5023338 188.649299 87.483186zM189.93826 96.2139955L188.649299 92.6445066 187.360338 96.2139955 183.561974 96.3354154 186.563716 98.663022 185.504551 102.308963 188.649299 100.176604 191.793171 102.308963 190.734882 98.663022 193.735748 96.3354154 189.93826 96.2139955zM213.760563 103.864408C214.171522 103.864408 214.438645 103.650123 214.582481 103.328694L220.746864 89.4001227C220.878713 89.1054798 220.768839 88.9008667 220.512204 88.8688106L220.438645 88.8644084 220.438645 88.8644084 219.103029 88.8644084C218.69207 88.8644084 218.424946 89.0786941 218.281111 89.4001227L212.116727 103.328694C211.972892 103.650123 212.116727 103.864408 212.424946 103.864408L213.760563 103.864408zM212.527686 95.9358369C214.274261 95.9358369 215.096179 95.0786941 215.096179 93.2572655L215.096179 91.5429798C215.096179 89.7215512 214.274261 88.8644084 212.527686 88.8644084L211.500289 88.8644084C209.753713 88.8644084 208.931796 89.7215512 208.931796 91.5429798L208.931796 93.2572655C208.931796 95.0786941 209.753713 95.9358369 211.500289 95.9358369L212.527686 95.9358369zM212.219467 94.1144084L211.808508 94.1144084C211.19207 94.1144084 210.88385 93.7929798 210.88385 93.1501227L210.88385 91.6501227C210.88385 91.0072655 211.19207 90.6858369 211.808508 90.6858369L212.219467 90.6858369C212.835905 90.6858369 213.144124 91.0072655 213.144124 91.6501227L213.144124 93.1501227C213.144124 93.7929798 212.835905 94.1144084 212.219467 94.1144084zM221.363303 103.864408C223.109878 103.864408 223.931796 103.007266 223.931796 101.185837L223.931796 99.4715512C223.931796 97.6501227 223.109878 96.7929798 221.363303 96.7929798L220.335905 96.7929798C218.58933 96.7929798 217.767412 97.6501227 217.767412 99.4715512L217.767412 101.185837C217.767412 103.007266 218.58933 103.864408 220.335905 103.864408L221.363303 103.864408zM221.055083 102.04298L220.644124 102.04298C220.027686 102.04298 219.719467 101.721551 219.719467 101.078694L219.719467 99.5786941C219.719467 98.9358369 220.027686 98.6144084 220.644124 98.6144084L221.055083 98.6144084C221.671522 98.6144084 221.979741 98.9358369 221.979741 99.5786941L221.979741 101.078694C221.979741 101.721551 221.671522 102.04298 221.055083 102.04298zM247.191931 86.6112387L249.72587 93.6303865 257.191931 93.8685929 251.291931 98.4448713 253.372271 105.611239 247.191931 101.420387 241.011591 105.611239 243.091931 98.4448713 237.191931 93.8685929 244.657991 93.6303865 247.191931 86.6112387zM248.480892 95.3420482L247.191931 91.7725593 245.902969 95.3420482 242.104606 95.4634681 245.106347 97.7910747 244.047182 101.437016 247.191931 99.3046563 250.335803 101.437016 249.277514 97.7910747 252.278379 95.4634681 248.480892 95.3420482zM273.173871 104.106877C273.58483 104.106877 273.851953 103.892591 273.995789 103.571162L280.160173 89.6425909C280.292022 89.347948 280.182147 89.1433349 279.925512 89.1112788L279.851953 89.1068766 279.851953 89.1068766 278.516337 89.1068766C278.105378 89.1068766 277.838255 89.3211623 277.694419 89.6425909L271.530036 103.571162C271.3862 103.892591 271.530036 104.106877 271.838255 104.106877L273.173871 104.106877zM271.940994 96.1783051C273.68757 96.1783051 274.509488 95.3211623 274.509488 93.4997337L274.509488 91.785448C274.509488 89.9640194 273.68757 89.1068766 271.940994 89.1068766L270.913597 89.1068766C269.167022 89.1068766 268.345104 89.9640194 268.345104 91.785448L268.345104 93.4997337C268.345104 95.3211623 269.167022 96.1783051 270.913597 96.1783051L271.940994 96.1783051zM271.632775 94.3568766L271.221816 94.3568766C270.605378 94.3568766 270.297159 94.035448 270.297159 93.3925909L270.297159 91.8925909C270.297159 91.2497337 270.605378 90.9283051 271.221816 90.9283051L271.632775 90.9283051C272.249214 90.9283051 272.557433 91.2497337 272.557433 91.8925909L272.557433 93.3925909C272.557433 94.035448 272.249214 94.3568766 271.632775 94.3568766zM280.776611 104.106877C282.523186 104.106877 283.345104 103.249734 283.345104 101.428305L283.345104 99.7140194C283.345104 97.8925909 282.523186 97.035448 280.776611 97.035448L279.749214 97.035448C278.002638 97.035448 277.18072 97.8925909 277.18072 99.7140194L277.18072 101.428305C277.18072 103.249734 278.002638 104.106877 279.749214 104.106877L280.776611 104.106877zM280.468392 102.285448L280.057433 102.285448C279.440994 102.285448 279.132775 101.964019 279.132775 101.321162L279.132775 99.8211623C279.132775 99.1783051 279.440994 98.8568766 280.057433 98.8568766L280.468392 98.8568766C281.08483 98.8568766 281.393049 99.1783051 281.393049 99.8211623L281.393049 101.321162C281.393049 101.964019 281.08483 102.285448 280.468392 102.285448zM158.506036 29.3765281L161.039975 36.3956759 168.506036 36.6338823 162.606036 41.2101607 164.686376 48.3765281 158.506036 44.1856759 152.325696 48.3765281 154.406036 41.2101607 148.506036 36.6338823 155.972097 36.3956759 158.506036 29.3765281zM159.794997 38.1073376L158.506036 34.5378487 157.217075 38.1073376 153.418711 38.2287575 156.420453 40.5563641 155.361288 44.2023056 158.506036 42.0699457 161.649908 44.2023056 160.591619 40.5563641 163.592485 38.2287575 159.794997 38.1073376zM9.10382059 47.5029156C9.5147795 47.5029156 9.78190278 47.2886298 9.9257384 46.9672013L16.090122 33.0386298C16.2219713 32.743987 16.1120968 32.5393739 15.8554616 32.5073178L15.7819028 32.5029156 15.7819028 32.5029156 14.4462863 32.5029156C14.0353274 32.5029156 13.7682042 32.7172013 13.6243685 33.0386298L7.45998497 46.9672013C7.31614936 47.2886298 7.45998497 47.5029156 7.76820415 47.5029156L9.10382059 47.5029156zM7.87094388 39.5743441C9.61751922 39.5743441 10.439437 38.7172013 10.439437 36.8957727L10.439437 35.181487C10.439437 33.3600584 9.61751922 32.5029156 7.87094388 32.5029156L6.84354662 32.5029156C5.09697128 32.5029156 4.27505347 33.3600584 4.27505347 35.181487L4.27505347 36.8957727C4.27505347 38.7172013 5.09697128 39.5743441 6.84354662 39.5743441L7.87094388 39.5743441zM7.5627247 37.7529156L7.1517658 37.7529156C6.53532744 37.7529156 6.22710826 37.431487 6.22710826 36.7886298L6.22710826 35.2886298C6.22710826 34.6457727 6.53532744 34.3243441 7.1517658 34.3243441L7.5627247 34.3243441C8.17916306 34.3243441 8.48738224 34.6457727 8.48738224 35.2886298L8.48738224 36.7886298C8.48738224 37.431487 8.17916306 37.7529156 7.5627247 37.7529156zM16.7065603 47.5029156C18.4531357 47.5029156 19.2750535 46.6457727 19.2750535 44.8243441L19.2750535 43.1100584C19.2750535 41.2886298 18.4531357 40.431487 16.7065603 40.431487L15.6791631 40.431487C13.9325877 40.431487 13.1106699 41.2886298 13.1106699 43.1100584L13.1106699 44.8243441C13.1106699 46.6457727 13.9325877 47.5029156 15.6791631 47.5029156L16.7065603 47.5029156zM16.3983411 45.681487L15.9873822 45.681487C15.3709439 45.681487 15.0627247 45.3600584 15.0627247 44.7172013L15.0627247 43.2172013C15.0627247 42.5743441 15.3709439 42.2529156 15.9873822 42.2529156L16.3983411 42.2529156C17.0147795 42.2529156 17.3229987 42.5743441 17.3229987 43.2172013L17.3229987 44.7172013C17.3229987 45.3600584 17.0147795 45.681487 16.3983411 45.681487zM40.5500962 30.0060072L43.0840355 37.025155 50.5500962 37.2633614 44.6500962 41.8396398 46.7304361 49.0060072 40.5500962 44.815155 34.3697563 49.0060072 36.4500962 41.8396398 30.5500962 37.2633614 38.0161568 37.025155 40.5500962 30.0060072zM41.8390575 38.7368167L40.5500962 35.1673278 39.2611348 38.7368167 35.4627714 38.8582366 38.4645129 41.1858432 37.4053479 44.8317847 40.5500962 42.6994248 43.6939682 44.8317847 42.6356794 41.1858432 45.6365447 38.8582366 41.8390575 38.7368167zM67.5245828 47.6235144C67.9355417 47.6235144 68.202665 47.4092287 68.3465006 47.0878001L74.5108842 33.1592287C74.6427335 32.8645858 74.532859 32.6599727 74.2762238 32.6279167L74.202665 32.6235144 74.202665 32.6235144 72.8670485 32.6235144C72.4560896 32.6235144 72.1889664 32.8378001 72.0451307 33.1592287L65.8807472 47.0878001C65.7369116 47.4092287 65.8807472 47.6235144 66.1889664 47.6235144L67.5245828 47.6235144zM66.2917061 39.694943C68.0382814 39.694943 68.8601992 38.8378001 68.8601992 37.0163715L68.8601992 35.3020858C68.8601992 33.4806573 68.0382814 32.6235144 66.2917061 32.6235144L65.2643088 32.6235144C63.5177335 32.6235144 62.6958157 33.4806573 62.6958157 35.3020858L62.6958157 37.0163715C62.6958157 38.8378001 63.5177335 39.694943 65.2643088 39.694943L66.2917061 39.694943zM65.9834869 37.8735144L65.572528 37.8735144C64.9560896 37.8735144 64.6478705 37.5520858 64.6478705 36.9092287L64.6478705 35.4092287C64.6478705 34.7663715 64.9560896 34.444943 65.572528 34.444943L65.9834869 34.444943C66.5999253 34.444943 66.9081444 34.7663715 66.9081444 35.4092287L66.9081444 36.9092287C66.9081444 37.5520858 66.5999253 37.8735144 65.9834869 37.8735144zM75.1273225 47.6235144C76.8738979 47.6235144 77.6958157 46.7663715 77.6958157 44.944943L77.6958157 43.2306573C77.6958157 41.4092287 76.8738979 40.5520858 75.1273225 40.5520858L74.0999253 40.5520858C72.3533499 40.5520858 71.5314321 41.4092287 71.5314321 43.2306573L71.5314321 44.944943C71.5314321 46.7663715 72.3533499 47.6235144 74.0999253 47.6235144L75.1273225 47.6235144zM74.8191033 45.8020858L74.4081444 45.8020858C73.7917061 45.8020858 73.4834869 45.4806573 73.4834869 44.8378001L73.4834869 43.3378001C73.4834869 42.694943 73.7917061 42.3735144 74.4081444 42.3735144L74.8191033 42.3735144C75.4355417 42.3735144 75.7437609 42.694943 75.7437609 43.3378001L75.7437609 44.8378001C75.7437609 45.4806573 75.4355417 45.8020858 74.8191033 45.8020858zM99.0927277 29.1340599L101.626667 36.1532077 109.092728 36.3914141 103.192728 40.9676925 105.273068 48.1340599 99.0927277 43.9432077 92.9123878 48.1340599 94.9927277 40.9676925 89.0927277 36.3914141 96.5587884 36.1532077 99.0927277 29.1340599zM100.381689 37.8648694L99.0927277 34.2953805 97.8037664 37.8648694 94.005403 37.9862893 97.0071445 40.3138959 95.9479794 43.9598374 99.0927277 41.8274775 102.2366 43.9598374 101.178311 40.3138959 104.179176 37.9862893 100.381689 37.8648694zM125.945345 47.7441133C126.356304 47.7441133 126.623427 47.5298275 126.767263 47.208399L132.931646 33.2798275C133.063496 32.9851847 132.953621 32.7805716 132.696986 32.7485155L132.623427 32.7441133 132.623427 32.7441133 131.287811 32.7441133C130.876852 32.7441133 130.609729 32.958399 130.465893 33.2798275L124.301509 47.208399C124.157674 47.5298275 124.301509 47.7441133 124.609729 47.7441133L125.945345 47.7441133zM124.712468 39.8155418C126.459044 39.8155418 127.280961 38.958399 127.280961 37.1369704L127.280961 35.4226847C127.280961 33.6012561 126.459044 32.7441133 124.712468 32.7441133L123.685071 32.7441133C121.938496 32.7441133 121.116578 33.6012561 121.116578 35.4226847L121.116578 37.1369704C121.116578 38.958399 121.938496 39.8155418 123.685071 39.8155418L124.712468 39.8155418zM124.404249 37.9941133L123.99329 37.9941133C123.376852 37.9941133 123.068633 37.6726847 123.068633 37.0298275L123.068633 35.5298275C123.068633 34.8869704 123.376852 34.5655418 123.99329 34.5655418L124.404249 34.5655418C125.020687 34.5655418 125.328907 34.8869704 125.328907 35.5298275L125.328907 37.0298275C125.328907 37.6726847 125.020687 37.9941133 124.404249 37.9941133zM133.548085 47.7441133C135.29466 47.7441133 136.116578 46.8869704 136.116578 45.0655418L136.116578 43.3512561C136.116578 41.5298275 135.29466 40.6726847 133.548085 40.6726847L132.520687 40.6726847C130.774112 40.6726847 129.952194 41.5298275 129.952194 43.3512561L129.952194 45.0655418C129.952194 46.8869704 130.774112 47.7441133 132.520687 47.7441133L133.548085 47.7441133zM133.239866 45.9226847L132.828907 45.9226847C132.212468 45.9226847 131.904249 45.6012561 131.904249 44.958399L131.904249 43.458399C131.904249 42.8155418 132.212468 42.4941133 132.828907 42.4941133L133.239866 42.4941133C133.856304 42.4941133 134.164523 42.8155418 134.164523 43.458399L134.164523 44.958399C134.164523 45.6012561 133.856304 45.9226847 133.239866 45.9226847zM185.480523 46.9940353C185.891482 46.9940353 186.158605 46.7797496 186.30244 46.458321L192.466824 32.5297496C192.598673 32.2351067 192.488799 32.0304936 192.232164 31.9984376L192.158605 31.9940353 192.158605 31.9940353 190.822988 31.9940353C190.41203 31.9940353 190.144906 32.208321 190.001071 32.5297496L183.836687 46.458321C183.692851 46.7797496 183.836687 46.9940353 184.144906 46.9940353L185.480523 46.9940353zM184.247646 39.0654639C185.994221 39.0654639 186.816139 38.208321 186.816139 36.3868925L186.816139 34.6726067C186.816139 32.8511782 185.994221 31.9940353 184.247646 31.9940353L183.220249 31.9940353C181.473673 31.9940353 180.651756 32.8511782 180.651756 34.6726067L180.651756 36.3868925C180.651756 38.208321 181.473673 39.0654639 183.220249 39.0654639L184.247646 39.0654639zM183.939427 37.2440353L183.528468 37.2440353C182.91203 37.2440353 182.60381 36.9226067 182.60381 36.2797496L182.60381 34.7797496C182.60381 34.1368925 182.91203 33.8154639 183.528468 33.8154639L183.939427 33.8154639C184.555865 33.8154639 184.864084 34.1368925 184.864084 34.7797496L184.864084 36.2797496C184.864084 36.9226067 184.555865 37.2440353 183.939427 37.2440353zM193.083262 46.9940353C194.829838 46.9940353 195.651756 46.1368925 195.651756 44.3154639L195.651756 42.6011782C195.651756 40.7797496 194.829838 39.9226067 193.083262 39.9226067L192.055865 39.9226067C190.30929 39.9226067 189.487372 40.7797496 189.487372 42.6011782L189.487372 44.3154639C189.487372 46.1368925 190.30929 46.9940353 192.055865 46.9940353L193.083262 46.9940353zM192.775043 45.1726067L192.364084 45.1726067C191.747646 45.1726067 191.439427 44.8511782 191.439427 44.208321L191.439427 42.708321C191.439427 42.0654639 191.747646 41.7440353 192.364084 41.7440353L192.775043 41.7440353C193.391482 41.7440353 193.699701 42.0654639 193.699701 42.708321L193.699701 44.208321C193.699701 44.8511782 193.391482 45.1726067 192.775043 45.1726067z" opacity=".241" transform="rotate(-8 -158.228 87.104)"/>
</svg>
