<svg xmlns="http://www.w3.org/2000/svg" width="31" height="23" viewBox="0 0 31 23">
  <g fill="none" fill-rule="evenodd" transform="translate(1.643 1.664)">
    <path stroke="#B1BBCA" stroke-width="1.5" d="M0.000445576278,6.41042211 C1.95275287,6.5591671 3.49056374,8.19040151 3.49056374,10.1808109 C3.49056374,12.1712203 1.95275287,13.8024547 0.000445575115,13.9511996 L0,17.743699 C0,19.1895378 1.17208396,20.3616218 2.61792281,20.3616218 L25.8883477,20.3616218 C27.3341865,20.3616218 28.5062705,19.1895378 28.5062705,17.7436053 L28.5066774,13.9512645 C26.5539653,13.8029294 25.0157068,12.17151 25.0157068,10.1808109 C25.0157068,8.19011184 26.5539653,6.55869231 28.5066774,6.41035727 L28.5062705,2.6179228 C28.5062705,1.17208396 27.3341865,0 25.8883477,0 L2.61792281,0 C1.17208396,0 0,1.17208396 0,2.61782028 L0.000445576278,6.41042211 Z"/>
    <rect width="3.491" height="1.745" x="6.108" y="9.599" fill="#B1BBCA" fill-rule="nonzero" rx=".75"/>
    <rect width="3.491" height="1.745" x="12.508" y="9.599" fill="#B1BBCA" fill-rule="nonzero" rx=".75"/>
    <rect width="3.491" height="1.745" x="18.907" y="9.599" fill="#B1BBCA" fill-rule="nonzero" rx=".75"/>
  </g>
</svg>
