<?xml version="1.0" encoding="UTF-8"?>
<svg width="24px" height="24px" viewBox="0 0 24 24" version="1.1" xmlns="http://www.w3.org/2000/svg" xmlns:xlink="http://www.w3.org/1999/xlink">
    <!-- Generator: Sketch 61.2 (89653) - https://sketch.com -->
    <title>Group 26</title>
    <desc>Created with Sketch.</desc>
    <g id="Пополнение-баланса-" stroke="none" stroke-width="1" fill="none" fill-rule="evenodd">
        <g id="Пополнеие-баланса" transform="translate(-860.000000, -282.000000)" fill="#FFFFFF">
            <g id="История-платежей" transform="translate(556.000000, 282.000000)">
                <g id="Заголовок" transform="translate(20.000000, 0.000000)">
                    <g id="История-платежей" transform="translate(284.000000, 0.000000)">
                        <g id="Group-26">
                            <path d="M12,0 C18.627417,0 24,5.372583 24,12 C24,18.627417 18.627417,24 12,24 C5.372583,24 0,18.627417 0,12 C0,5.372583 5.372583,0 12,0 Z M12,2 C6.4771525,2 2,6.4771525 2,12 C2,17.5228475 6.4771525,22 12,22 C17.5228475,22 22,17.5228475 22,12 C22,6.4771525 17.5228475,2 12,2 Z M12,6 C12.5522847,6 13,6.44771525 13,7 L13,12 L16,12 C16.5522847,12 17,12.4477153 17,13 C17,13.5522847 16.5522847,14 16,14 L12,14 C11.4477153,14 11,13.5522847 11,13 L11,7 C11,6.44771525 11.4477153,6 12,6 Z" id="Rectangle-19"></path>
                        </g>
                    </g>
                </g>
            </g>
        </g>
    </g>
</svg>