<?xml version="1.0" encoding="UTF-8"?>
<svg width="26px" height="26px" viewBox="0 0 26 26" version="1.1" xmlns="http://www.w3.org/2000/svg" xmlns:xlink="http://www.w3.org/1999/xlink">
    <title>music-and-multimedia</title>
    <g id="Пополнение-баланса-" stroke="none" stroke-width="1" fill="none" fill-rule="evenodd">
        <g id="Пополнеие-баланса" transform="translate(-600.000000, -598.000000)">
            <g id="Пополнение-баланса" transform="translate(576.000000, 282.000000)">
                <g id="G2A-Pay" transform="translate(0.000000, 68.000000)">
                    <g id="Табы" transform="translate(0.000000, 42.000000)">
                        <g id="Group-2-Copy-2">
                            <g transform="translate(0.000000, 192.000000)">
                                <g id="music-and-multimedia" transform="translate(24.000000, 14.000000)">
                                    <rect id="Rectangle" x="0" y="0" width="26" height="26"></rect>
                                    <path d="M0,10.7397031 L0.39365625,11.0020898 C1.35591016,11.6436094 1.6566875,12.9164922 1.10885937,14.0287031 C0.383449219,15.5013594 0,17.1474844 0,18.7891406 L0,21.7578125 L7.66796875,21.7578125 L7.66796875,17.1875 L9.953125,17.1875 C12.0531836,17.1875 13.7617188,15.4789648 13.7617188,13.3789062 L13.7617188,12.6171875 L22.953125,12.6171875 L22.953125,9.5703125 L26,9.5703125 L26,5 L0,5 L0,10.7397031 Z M12.2382812,13.3789063 C12.2382812,14.6389414 11.2131602,15.6640625 9.953125,15.6640625 L7.66796875,15.6640625 L7.66796875,14.9023438 C7.66796875,13.6423086 8.69308984,12.6171875 9.953125,12.6171875 L12.2382812,12.6171875 L12.2382812,13.3789063 Z M21.4296875,11.09375 L9.953125,11.09375 C7.85306641,11.09375 6.14453125,12.8022852 6.14453125,14.9023438 L6.14453125,20.234375 L1.5234375,20.234375 L1.5234375,18.7891406 C1.5234375,17.3796563 1.85265234,15.9663125 2.47548438,14.7019102 C3.31073438,13.0062227 2.90428125,11.0622656 1.5234375,9.94401172 L1.5234375,9.5703125 L21.4296875,9.5703125 L21.4296875,11.09375 Z M1.5234375,6.5234375 L24.5234375,6.5234375 L24.5234375,8.046875 L1.5234375,8.046875 L1.5234375,6.5234375 Z" id="Shape" fill="#FFFFFF" fill-rule="nonzero"></path>
                                </g>
                            </g>
                        </g>
                    </g>
                </g>
            </g>
        </g>
    </g>
</svg>