<svg xmlns="http://www.w3.org/2000/svg" width="26" height="16" viewBox="0 0 26 16">
  <path fill="#FFF" fill-rule="evenodd" d="M47.0628339,31.8931345 C46.8824284,32.0147529 46.244435,32.3673323 45.600147,31.7973297 L38.8114432,25.793988 L42.8716646,22.20341 C43.1755243,21.9346198 43.5749821,21.8394157 43.967246,21.9418291 C44.3595299,22.0442226 44.6615712,22.3229257 44.7958361,22.7064253 L47.5243185,30.4990582 C47.8086949,31.311717 47.2429396,31.771496 47.0628339,31.8931345 M49.7865204,29.7035217 L47.0577383,21.9108888 C46.6609782,20.7777925 45.7316943,19.9200951 44.5722677,19.6170803 C43.4125612,19.3140455 42.1839139,19.6074678 41.2852038,20.4021031 L36.9999552,24.1918006 L32.7146866,20.4021031 C31.8159765,19.6074678 30.5873292,19.3140455 29.4276028,19.6170803 C28.2681961,19.9200951 27.3389122,20.7777925 26.9421522,21.9108888 L24.21337,29.7035217 C23.9277947,30.5194648 23.9289737,31.3618823 24.2163475,32.1399761 C24.4749859,32.839127 24.9655256,33.459275 25.5981436,33.886031 C26.2307417,34.312787 26.9886124,34.5353169 27.7320754,34.5124872 C28.5597663,34.4869539 29.3392185,34.1710223 29.9858845,33.5989369 L34.7778989,29.3611556 L33.9232312,26.9126655 L28.3997434,31.7973297 C27.7554554,32.3673323 27.117462,32.0147529 26.9370565,31.8931345 C26.7569508,31.771496 26.1911756,31.311717 26.4755719,30.4990582 L29.2040543,22.7064253 C29.3383193,22.3229257 29.6403805,22.0442226 30.0326444,21.9418291 C30.1360358,21.9147939 30.239707,21.9015767 30.3421992,21.9015767 C30.6286738,21.9015767 30.9043775,22.0054921 31.1282258,22.20341 L35.1884472,25.793988 L36.9999552,27.3961755 L44.0136862,33.5989369 C44.6606719,34.1710223 45.4401241,34.4869539 46.267815,34.5124872 C46.3025652,34.5133884 46.3373155,34.5140845 46.3723854,34.5140845 C47.0819975,34.5140845 47.7988034,34.2929612 48.4017468,33.886031 C49.0343448,33.459275 49.5249045,32.839127 49.783523,32.1399761 C50.0711965,31.3618823 50.0721157,30.5194648 49.7865204,29.7035217" transform="translate(-24 -19)"/>
</svg>
