<svg xmlns="http://www.w3.org/2000/svg" width="100%" height="100%" viewBox="0 0 480 153" preserveAspectRatio="none">
  <path fill="#63ADF2" fill-opacity=".1" fill-rule="evenodd" d="M8,0 L16,8 L24,0 L32,8 L40,0 L48,8 L56,0 L64,8 L72,0 L80,8 L88,0 L96,8 L104,0 L112,8 L120,0 L128,8 L136,0 L144,8 L152,0 L160,8 L168,0 L176,8 L184,0 L192,8 L200,0 L208,8 L216,0 L224,8 L232,0 L240,8 L248,0 L256,8 L264,0 L272,8 L280,0 L288,8 L296,0 L304,8 L312,0 L320,8 L328,0 L336,8 L344,0 L352,8 L360,0 L368,8 L376,0 L384,8 L392,0 L400,8 L408,0 L416,8 L424,0 L432,8 L440,0 L448,8 L456,0 L464,8 L472,0 L480,8 L480,103 L480,103 C469.50659,103 461,111.50659 461,122 C461,132.49341 469.50659,141 480,141 L480,153 L0,153 L0,141 L0,141 C10.4934102,141 19,132.49341 19,122 C19,111.50659 10.4934102,103 0,103 L0,8 L8,0 Z M34,121 L24,121 L24,123 L34,123 L34,121 Z M51,121 L41,121 L41,123 L51,123 L51,121 Z M68,121 L58,121 L58,123 L68,123 L68,121 Z M85,121 L75,121 L75,123 L85,123 L85,121 Z M102,121 L92,121 L92,123 L102,123 L102,121 Z M119,121 L109,121 L109,123 L119,123 L119,121 Z M136,121 L126,121 L126,123 L136,123 L136,121 Z M153,121 L143,121 L143,123 L153,123 L153,121 Z M170,121 L160,121 L160,123 L170,123 L170,121 Z M187,121 L177,121 L177,123 L187,123 L187,121 Z M204,121 L194,121 L194,123 L204,123 L204,121 Z M221,121 L211,121 L211,123 L221,123 L221,121 Z M238,121 L228,121 L228,123 L238,123 L238,121 Z M255,121 L245,121 L245,123 L255,123 L255,121 Z M272,121 L262,121 L262,123 L272,123 L272,121 Z M289,121 L279,121 L279,123 L289,123 L289,121 Z M306,121 L296,121 L296,123 L306,123 L306,121 Z M323,121 L313,121 L313,123 L323,123 L323,121 Z M340,121 L330,121 L330,123 L340,123 L340,121 Z M357,121 L347,121 L347,123 L357,123 L357,121 Z M374,121 L364,121 L364,123 L374,123 L374,121 Z M391,121 L381,121 L381,123 L391,123 L391,121 Z M408,121 L398,121 L398,123 L408,123 L408,121 Z M425,121 L415,121 L415,123 L425,123 L425,121 Z M442,121 L432,121 L432,123 L442,123 L442,121 Z M456,121 L449,121 L449,123 L456,123 L456,121 Z"/>
</svg>
