<svg xmlns="http://www.w3.org/2000/svg" width="129" height="112" viewBox="0 0 129 112">
  <defs>
    <linearGradient id="payment-overlay-a" x1="50%" x2="50%" y1="0%" y2="100%">
      <stop offset="0%" stop-color="#63ADF2"/>
      <stop offset="100%" stop-color="#5798D5" stop-opacity="0"/>
    </linearGradient>
  </defs>
  <path fill="url(#payment-overlay-a)" fill-rule="evenodd" d="M157,34 L157,95.2757659 L102.26341,126 L48,95.5412517 C54.664631,91.7792279 61.325252,88.0172041 67.989883,84.2551803 L67.989883,84.2551803 L102.26341,103.490233 L136.949967,84.0212721 L136.949967,45.3211577 C143.634648,41.5474385 150.315319,37.7737192 157,34 L157,34 Z M82.7365904,14 L137,44.4587483 L137,44.4587483 L117.010117,55.7448197 L82.7365904,36.5097674 L48.0500331,55.9787279 L48.0500331,94.6788423 L48.0500331,94.6788423 L28,106 L28,44.7238442 L82.7365904,14 Z" opacity=".2" transform="translate(-28 -14)"/>
</svg>
