<svg xmlns="http://www.w3.org/2000/svg" width="76" height="94" viewBox="0 0 76 94">
  <g fill="none" fill-rule="evenodd">
    <path fill="#63ADF2" fill-rule="nonzero" d="M38.5057272,42.1659091 C41.7663968,45.6531818 46.2727952,47.7945455 51.0843062,47.9854545 C54.4893278,48.1220455 57.8466755,46.8138636 60.2895723,44.3993182 C62.6901169,42.0268182 64.0079108,38.8554545 63.9999643,35.4697727 C63.983963,28.5938636 58.5130007,23 51.8042922,23 L25.3787881,23 C22.0604664,23 18.8188664,24.3995455 16.4852868,26.8397727 C14.1745464,29.2561364 12.9374655,32.4218182 13.0024349,35.7534091 C13.0665175,39.0393182 14.3632462,42.1179545 16.6538084,44.4220455 C18.9476966,46.7290909 21.9813056,48 25.1956318,48 C30.3049381,48 35.084297,45.8447727 38.5057272,42.1659091 L38.5057272,42.1659091 Z M19.6532696,35.6170455 C19.6242218,34.1320455 20.1863298,32.7097727 21.2358197,31.6125 C22.3261095,30.4720455 23.8363728,29.8181818 25.3787881,29.8181818 L51.8042922,29.8181818 C54.8536447,29.8181818 57.3404457,32.3609091 57.3477789,35.4861364 C57.3513109,36.9972727 56.7561639,38.4197727 55.6720827,39.4911364 C54.5265799,40.6234091 52.9489081,41.2354545 51.3419667,41.1725 C47.1932331,41.0075 43.3992816,38.5695455 41.4408842,34.8097727 C40.8630328,33.7004545 39.7288386,33.0020455 38.499962,33.0020455 C37.2710854,33.0020455 36.137113,33.7004545 35.5592616,34.8097727 C33.5117251,38.7402273 29.5408261,41.1818182 25.1956318,41.1818182 C22.1992749,41.1818182 19.7131391,38.6854545 19.6532696,35.6170455 L19.6532696,35.6170455 Z"/>
    <path fill="#63ADF2" fill-rule="nonzero" d="M76,77.6805556 L76,38.0787037 C76,17.0821065 58.9532,0 38,0 C17.0468,0 0,17.0821065 0,38.0787037 L0,77.6805556 C0,79.101 0.907222857,80.3062454 2.17142857,80.7547037 L2.17142857,90.7361111 C2.17142857,92.5386481 3.62976,94 5.42857143,94 L70.5714286,94 C72.37024,94 73.8285714,92.5386481 73.8285714,90.7361111 L73.8285714,80.7547037 C75.0927771,80.3062454 76,79.101 76,77.6805556 Z M6.51428571,38.0787037 C6.51428571,20.6815231 20.6387771,6.52777778 38,6.52777778 C55.3612229,6.52777778 69.4857143,20.6815231 69.4857143,38.0787037 L69.4857143,74.4166667 L6.51428571,74.4166667 L6.51428571,38.0787037 Z M8.68571429,80.9444444 L15.2,80.9444444 L15.2,87.4722222 L8.68571429,87.4722222 L8.68571429,80.9444444 Z M21.7142857,80.9444444 L28.2285714,80.9444444 L28.2285714,87.4722222 L21.7142857,87.4722222 L21.7142857,80.9444444 Z M34.7428571,80.9444444 L41.2571429,80.9444444 L41.2571429,87.4722222 L34.7428571,87.4722222 L34.7428571,80.9444444 Z M47.7714286,80.9444444 L54.2857143,80.9444444 L54.2857143,87.4722222 L47.7714286,87.4722222 L47.7714286,80.9444444 Z M67.3142857,87.4722222 L60.8,87.4722222 L60.8,80.9444444 L67.3142857,80.9444444 L67.3142857,87.4722222 Z"/>
    <path stroke="#63ADF2" stroke-linecap="round" stroke-width="6.8" d="M27,61 C34.6666667,55.6666667 42.3333333,55.6666667 50,61"/>
  </g>
</svg>
