<svg xmlns="http://www.w3.org/2000/svg" width="48" height="48" viewBox="0 0 48 48">
  <defs>
    <linearGradient id="icon-bonus-a" x1="50.65%" x2="50.65%" y1="1.612%" y2="98.388%">
      <stop offset="0%" stop-color="#FFBA43"/>
      <stop offset="100%" stop-color="#FF9A30"/>
    </linearGradient>
  </defs>
  <g fill="none" fill-rule="evenodd">
    <circle cx="24" cy="24" r="24" fill="url(#icon-bonus-a)"/>
    <path fill="#FFF" d="M16.9420073 26.1095328L29.3937508 18.8981099 29.3937508 4.5157997C27.8730873 5.40154629 26.3533361 6.28729287 24.8326726 7.17303946L24.8326726 16.2565171 16.9420073 20.8261643 9.14530014 16.3114187C7.62919774 17.1944202 6.11400755 18.0774217 4.59790515 18.9604233L16.9420073 26.1095328zM12.4517435 0L0 7.21133144 0 21.5937331C1.52066348 20.708078 3.04041474 19.82224 4.56107822 18.9364934L4.56107822 9.85301573 12.4517435 5.28336858 20.2484507 9.79811409C21.7645531 8.91511258 23.2797432 8.03211108 24.7958456 7.14910958L12.4517435 0z" transform="translate(9 11)"/>
  </g>
</svg>
