<svg xmlns="http://www.w3.org/2000/svg" width="112" height="112" viewBox="0 0 112 112">
  <path fill="#63ADF2" d="M108.666667 92C106.825778 92 105.333333 93.4924444 105.333333 95.3333333L105.333333 105.333333 95.3333333 105.333333C93.4924444 105.333333 92 106.825778 92 108.666667 92 110.507556 93.4924444 112 95.3333333 112L108.666667 112C110.507556 112 112 110.507556 112 108.666667L112 95.3333333C112 93.4924444 110.507556 92 108.666667 92zM16.6666667 105.333333L6.66666667 105.333333 6.66666667 95.3333333C6.66666667 93.4924444 5.17422222 92 3.33333333 92 1.49244444 92 0 93.4924444 0 95.3333333L0 108.666667C0 110.507556 1.49244444 112 3.33333333 112L16.6666667 112C18.5075556 112 20 110.507556 20 108.666667 20 106.825778 18.5075556 105.333333 16.6666667 105.333333zM108.666667 0L95.3333333 0C93.4924444 0 92 1.49244444 92 3.33333333 92 5.17422222 93.4924444 6.66666667 95.3333333 6.66666667L105.333333 6.66666667 105.333333 16.6666667C105.333333 18.5075556 106.825778 20 108.666667 20 110.507556 20 112 18.5075556 112 16.6666667L112 3.33333333C112 1.49244444 110.507556 0 108.666667 0zM3.33333333 20C5.17422222 20 6.66666667 18.5075556 6.66666667 16.6666667L6.66666667 6.66666667 16.6666667 6.66666667C18.5075556 6.66666667 20 5.17422222 20 3.33333333 20 1.49244444 18.5075556 0 16.6666667 0L3.33333333 0C1.49244444 0 0 1.49244444 0 3.33333333L0 16.6666667C0 18.5075556 1.49244444 20 3.33333333 20z"/>
</svg>
