<svg xmlns="http://www.w3.org/2000/svg" width="442" height="90" viewBox="0 0 442 90">
  <defs>
    <linearGradient id="scammer-steam-ru-a" x1="50%" x2="50%" y1="0%" y2="100%">
      <stop offset="0%" stop-color="#1F222A"/>
      <stop offset="100%" stop-color="#11151A" stop-opacity="0"/>
    </linearGradient>
    <linearGradient id="scammer-steam-ru-b" x1="50%" x2="50%" y1="0%" y2="100%">
      <stop offset="0%" stop-color="#6DB9EE" stop-opacity=".209"/>
      <stop offset="99.522%" stop-color="#6DB9EE" stop-opacity="0"/>
    </linearGradient>
    <linearGradient id="scammer-steam-ru-c" x1="95.302%" x2="4.698%" y1="45.302%" y2="45.302%">
      <stop offset="0%" stop-color="#FE3B3B" stop-opacity="0"/>
      <stop offset="100%" stop-color="#FE3B3B"/>
    </linearGradient>
    <linearGradient id="scammer-steam-ru-d" x1="100%" x2="0%" y1="50%" y2="50%">
      <stop offset="0%" stop-color="#FE3B3B" stop-opacity="0"/>
      <stop offset="100%" stop-color="#FE3B3B"/>
    </linearGradient>
  </defs>
  <g fill="none" fill-rule="evenodd">
    <rect width="269" height="89" x=".5" y=".5" fill="url(#scammer-steam-ru-a)" stroke="url(#scammer-steam-ru-b)"/>
    <g transform="translate(20 20)">
      <rect width="41" height="41" x=".5" y=".5" fill="#222" stroke="#64696D"/>
      <g transform="translate(10 11)">
        <path fill="#63ADF2" d="M12.6921111,19.8048296 L21.9799053,14.3443187 L21.9799053,3.45393107 C20.8456277,4.12459646 19.7120538,4.79535064 18.5777761,5.46601603 L18.5777761,12.3441322 L12.6921111,15.8042791 L6.87655217,12.3855993 C5.74561711,13.0543112 4.61547372,13.7229343 3.48462662,14.3914687 L12.6921111,19.8048296 Z"/>
        <path fill="#DB324D" d="M9.38948858,-1.04212935e-15 L1.04212935e-15,5.43521545 L1.04212935e-15,16.2752425 C1.14669712,15.6076839 2.29268283,14.940037 3.43937995,14.27239 L3.43937995,7.4262246 L9.38948858,3.98210668 L15.2687234,7.38486124 C16.4120414,6.71933548 17.554559,6.05380972 18.697788,5.38828395 L9.38948858,-1.04212935e-15 Z"/>
      </g>
    </g>
    <path fill="#6DB9EE" fill-rule="nonzero" d="M80.66,31 C80.87,31 81.01,30.86 81.01,30.65 L81.01,24.35 L81.08,24.35 L84.02,30.65 C84.118,30.86 84.23,31 84.51,31 L85.28,31 C85.56,31 85.672,30.86 85.77,30.65 L88.71,24.35 L88.78,24.35 L88.78,30.65 C88.78,30.86 88.92,31 89.13,31 L90.18,31 C90.39,31 90.53,30.86 90.53,30.65 L90.53,21.55 C90.53,21.34 90.39,21.2 90.18,21.2 L88.71,21.2 C88.43,21.2 88.318,21.34 88.22,21.55 L84.93,28.55 L84.86,28.55 L81.57,21.55 C81.472,21.34 81.36,21.2 81.08,21.2 L79.61,21.2 C79.4,21.2 79.26,21.34 79.26,21.55 L79.26,30.65 C79.26,30.86 79.4,31 79.61,31 L80.66,31 Z M96.886,31 C97.096,31 97.236,30.86 97.236,30.65 L97.236,27.64 L100.946,21.55 C101.03,21.41 101.016,21.2 100.736,21.2 L99.476,21.2 C99.196,21.2 99.042,21.34 98.916,21.55 L96.396,25.75 L93.876,21.55 C93.75,21.34 93.596,21.2 93.316,21.2 L92.056,21.2 C91.776,21.2 91.762,21.41 91.846,21.55 L95.556,27.64 L95.556,30.65 C95.556,30.86 95.696,31 95.906,31 L96.886,31 Z M108.212,31.14 C109.892,31.14 110.732,30.3 110.732,28.62 L110.732,28.13 C110.732,27.92 110.592,27.78 110.382,27.78 L109.332,27.78 C109.122,27.78 108.982,27.92 108.982,28.13 L108.982,28.55 C108.982,29.18 108.632,29.53 108.002,29.53 L104.852,29.53 C104.222,29.53 103.872,29.18 103.872,28.55 L103.872,23.65 C103.872,23.02 104.222,22.67 104.852,22.67 L108.002,22.67 C108.632,22.67 108.982,23.02 108.982,23.65 L108.982,24.07 C108.982,24.28 109.122,24.42 109.332,24.42 L110.382,24.42 C110.592,24.42 110.732,24.28 110.732,24.07 L110.732,23.58 C110.732,21.9 109.892,21.06 108.212,21.06 L104.642,21.06 C102.962,21.06 102.122,21.9 102.122,23.58 L102.122,28.62 C102.122,30.3 102.962,31.14 104.642,31.14 L108.212,31.14 Z M118.222,31.14 C119.902,31.14 120.742,30.3 120.742,28.62 L120.742,27.92 C120.742,26.87 120.112,26.254 119.202,25.96 L115.212,24.7 C114.792,24.56 114.512,24.28 114.512,23.86 L114.512,23.65 C114.512,23.02 114.862,22.67 115.492,22.67 L117.872,22.67 C118.502,22.67 118.852,23.02 118.852,23.65 L118.852,24.07 C118.852,24.28 118.992,24.42 119.202,24.42 L120.252,24.42 C120.462,24.42 120.602,24.28 120.602,24.07 L120.602,23.58 C120.602,21.9 119.762,21.06 118.082,21.06 L115.282,21.06 C113.602,21.06 112.762,21.9 112.762,23.58 L112.762,24.14 C112.762,25.19 113.392,25.82 114.302,26.1 L118.292,27.36 C118.712,27.486 118.992,27.78 118.992,28.2 L118.992,28.55 C118.992,29.18 118.642,29.53 118.012,29.53 L115.282,29.53 C114.652,29.53 114.302,29.18 114.302,28.55 L114.302,28.13 C114.302,27.92 114.162,27.78 113.952,27.78 L112.902,27.78 C112.692,27.78 112.552,27.92 112.552,28.13 L112.552,28.62 C112.552,30.3 113.392,31.14 115.072,31.14 L118.222,31.14 Z M128.792,31.14 C130.472,31.14 131.312,30.3 131.312,28.62 L131.312,26.03 C131.312,25.82 131.172,25.68 130.962,25.68 L127.672,25.68 C127.462,25.68 127.322,25.82 127.322,26.03 L127.322,26.94 C127.322,27.15 127.462,27.29 127.672,27.29 L129.562,27.29 L129.562,28.55 C129.562,29.18 129.212,29.53 128.582,29.53 L125.432,29.53 C124.802,29.53 124.452,29.18 124.452,28.55 L124.452,23.65 C124.452,23.02 124.802,22.67 125.432,22.67 L128.582,22.67 C129.212,22.67 129.562,23.02 129.562,23.65 L129.562,24.07 C129.562,24.28 129.702,24.42 129.912,24.42 L130.962,24.42 C131.172,24.42 131.312,24.28 131.312,24.07 L131.312,23.58 C131.312,21.9 130.472,21.06 128.792,21.06 L125.222,21.06 C123.542,21.06 122.702,21.9 122.702,23.58 L122.702,28.62 C122.702,30.3 123.542,31.14 125.222,31.14 L128.792,31.14 Z M139.852,31.14 C141.532,31.14 142.372,30.3 142.372,28.62 L142.372,23.58 C142.372,21.9 141.532,21.06 139.852,21.06 L136.072,21.06 C134.392,21.06 133.552,21.9 133.552,23.58 L133.552,28.62 C133.552,30.3 134.392,31.14 136.072,31.14 L139.852,31.14 Z M139.642,29.53 L136.282,29.53 C135.652,29.53 135.302,29.18 135.302,28.55 L135.302,23.65 C135.302,23.02 135.652,22.67 136.282,22.67 L139.642,22.67 C140.272,22.67 140.622,23.02 140.622,23.65 L140.622,28.55 C140.622,29.18 140.272,29.53 139.642,29.53 Z M150.702,33.38 C150.912,33.38 151.052,33.24 151.052,33.03 L151.052,32.19 C151.052,31.98 150.912,31.84 150.702,31.84 L149.302,31.84 L149.302,22.32 L150.702,22.32 C150.912,22.32 151.052,22.18 151.052,21.97 L151.052,21.13 C151.052,20.92 150.912,20.78 150.702,20.78 L147.902,20.78 C147.692,20.78 147.552,20.92 147.552,21.13 L147.552,33.03 C147.552,33.24 147.692,33.38 147.902,33.38 L150.702,33.38 Z M154.185867,31.1572266 C154.445633,31.1572266 154.891108,30.8997396 155.522293,30.3847656 C156.153478,29.8697917 156.917964,29.140625 157.81575,28.1972656 L157.81575,28.1972656 L162.040359,23.7470703 L162.115555,23.671875 C162.598628,23.1660156 162.840164,22.6464844 162.840164,22.1132812 L162.840164,22.1132812 L162.840164,21.8876953 C162.840164,21.6188151 162.808263,21.4274089 162.744461,21.3134766 C162.680659,21.1995443 162.573563,21.1425781 162.423172,21.1425781 C162.222651,21.1425781 161.978836,21.2360026 161.691727,21.4228516 C161.404617,21.6097005 161.078771,21.8854167 160.714188,22.25 L160.714188,22.25 L156.373367,26.5498047 C156.113602,26.805013 155.890294,27.0066732 155.703445,27.1547852 C155.516596,27.3028971 155.388992,27.3769531 155.320633,27.3769531 C155.15657,27.3769531 155.026688,27.2516276 154.930984,27.0009766 C154.835281,26.7503255 154.750971,26.3082682 154.678055,25.6748047 C154.673497,25.6292318 154.666661,25.5585938 154.657547,25.4628906 C154.570958,24.6380208 154.302078,24.2255859 153.850906,24.2255859 C153.376948,24.2255859 152.944005,24.4249674 152.552078,24.8237305 C152.160151,25.2224935 151.964188,25.6565755 151.964188,26.1259766 C151.964188,26.9873047 152.008621,27.7871094 152.097488,28.5253906 C152.186355,29.2636719 152.280919,29.7467448 152.38118,29.9746094 C152.499669,30.2480469 152.761714,30.5135091 153.167313,30.7709961 C153.572911,31.0284831 153.91243,31.1572266 154.185867,31.1572266 Z M166.88868,33.38 C167.09868,33.38 167.23868,33.24 167.23868,33.03 L167.23868,21.13 C167.23868,20.92 167.09868,20.78 166.88868,20.78 L164.08868,20.78 C163.87868,20.78 163.73868,20.92 163.73868,21.13 L163.73868,21.97 C163.73868,22.18 163.87868,22.32 164.08868,22.32 L165.48868,22.32 L165.48868,31.84 L164.08868,31.84 C163.87868,31.84 163.73868,31.98 163.73868,32.19 L163.73868,33.03 C163.73868,33.24 163.87868,33.38 164.08868,33.38 L166.88868,33.38 Z"/>
    <path fill="#7F8587" fill-rule="nonzero" d="M78.91,49.43 C79.04,49.43 79.105,49.365 79.105,49.235 L79.105,48 L83.785,48 L83.785,49.235 C83.785,49.365 83.85,49.43 83.98,49.43 L84.695,49.43 C84.825,49.43 84.89,49.365 84.89,49.235 L84.89,47.155 C84.89,47.025 84.825,46.96 84.695,46.96 L84.045,46.96 L84.045,41.565 C84.045,41.435 83.98,41.37 83.85,41.37 L80.21,41.37 C80.015,41.37 79.911,41.435 79.885,41.565 L78.78,46.96 L78.195,46.96 C78.065,46.96 78,47.025 78,47.155 L78,49.235 C78,49.365 78.065,49.43 78.195,49.43 L78.91,49.43 Z M82.94,46.96 L79.885,46.96 L80.795,42.41 L82.94,42.41 L82.94,46.96 Z M89.895,48.13 C91.26,48.13 91.975,47.415 91.975,46.115 L91.975,43.255 C91.975,41.955 91.26,41.24 89.895,41.24 L88.27,41.24 C86.905,41.24 86.19,41.955 86.19,43.255 L86.19,46.115 C86.19,47.415 86.905,48.13 88.27,48.13 L89.895,48.13 Z M89.895,47.09 L88.27,47.09 C87.685,47.09 87.295,46.7 87.295,46.115 L87.295,43.255 C87.295,42.67 87.685,42.28 88.27,42.28 L89.895,42.28 C90.48,42.28 90.87,42.67 90.87,43.255 L90.87,46.115 C90.87,46.7 90.48,47.09 89.895,47.09 Z M97.305,48.13 C98.67,48.13 99.385,47.415 99.385,46.115 L99.385,44.425 C99.385,43.125 98.67,42.41 97.305,42.41 L94.9,42.41 L94.9,41.89 C94.9,41.305 95.29,40.902 95.875,40.85 L97.435,40.72 C98.605,40.629 99.125,40.135 99.125,39.03 L99.125,38.965 C99.125,38.835 99.06,38.77 98.93,38.77 L98.215,38.77 C98.085,38.77 98.02,38.835 98.02,38.965 L98.02,39.03 C98.02,39.355 97.825,39.576 97.435,39.615 L95.875,39.745 C94.51,39.862 93.795,40.59 93.795,41.89 L93.795,46.115 C93.795,47.415 94.51,48.13 95.875,48.13 L97.305,48.13 Z M97.305,47.09 L95.875,47.09 C95.29,47.09 94.9,46.7 94.9,46.115 L94.9,43.45 L97.305,43.45 C97.89,43.45 98.28,43.84 98.28,44.425 L98.28,46.115 C98.28,46.7 97.89,47.09 97.305,47.09 Z M103.805,48.13 C104.91,48.13 105.235,47.35 105.235,47.35 L105.3,47.35 L105.3,47.805 C105.3,47.935 105.365,48 105.495,48 L106.21,48 C106.34,48 106.405,47.935 106.405,47.805 L106.405,43.255 C106.405,41.955 105.69,41.24 104.325,41.24 L103.415,41.24 C102.05,41.24 101.335,41.955 101.335,43.255 C101.335,43.385 101.4,43.45 101.53,43.45 L102.245,43.45 C102.375,43.45 102.44,43.385 102.44,43.255 C102.44,42.67 102.83,42.28 103.415,42.28 L104.325,42.28 C104.91,42.28 105.3,42.67 105.3,43.255 L105.3,44.1 L102.895,44.1 C101.595,44.1 100.945,44.75 100.945,45.985 L100.945,46.245 C100.945,47.48 101.595,48.13 102.895,48.13 L103.805,48.13 Z M103.935,47.09 L102.895,47.09 C102.375,47.09 102.05,46.765 102.05,46.245 L102.05,45.985 C102.05,45.465 102.375,45.14 102.895,45.14 L105.3,45.14 L105.3,45.725 C105.3,46.505 104.715,47.09 103.935,47.09 Z M112.06,48 C113.36,48 114.01,47.35 114.01,46.115 L114.01,45.985 C114.01,44.75 112.775,44.555 112.775,44.555 L112.775,44.49 C112.775,44.49 113.62,44.295 113.62,43.255 C113.62,42.02 112.97,41.37 111.67,41.37 L108.68,41.37 C108.55,41.37 108.485,41.435 108.485,41.565 L108.485,47.805 C108.485,47.935 108.55,48 108.68,48 L112.06,48 Z M111.67,44.1 L109.59,44.1 L109.59,42.41 L111.67,42.41 C112.19,42.41 112.515,42.735 112.515,43.255 C112.515,43.775 112.19,44.1 111.67,44.1 Z M112.06,46.96 L109.59,46.96 L109.59,45.14 L112.06,45.14 C112.58,45.14 112.905,45.465 112.905,45.985 L112.905,46.115 C112.905,46.635 112.58,46.96 112.06,46.96 Z M116.675,48 C116.935,48 116.987,47.935 117.065,47.805 L120.185,43.06 L120.25,43.06 L120.25,47.805 C120.25,47.935 120.315,48 120.445,48 L121.16,48 C121.29,48 121.355,47.935 121.355,47.805 L121.355,41.565 C121.355,41.435 121.29,41.37 121.16,41.37 L120.38,41.37 C120.12,41.37 120.068,41.435 119.99,41.565 L116.87,46.31 L116.805,46.31 L116.805,41.565 C116.805,41.435 116.74,41.37 116.61,41.37 L115.895,41.37 C115.765,41.37 115.7,41.435 115.7,41.565 L115.7,47.805 C115.7,47.935 115.765,48 115.895,48 L116.675,48 Z M122.785,48.13 C123.955,48.13 124.54,47.545 124.8,46.245 L125.58,42.41 L127.725,42.41 L127.725,47.805 C127.725,47.935 127.79,48 127.92,48 L128.635,48 C128.765,48 128.83,47.935 128.83,47.805 L128.83,41.565 C128.83,41.435 128.765,41.37 128.635,41.37 L124.995,41.37 C124.8,41.37 124.696,41.435 124.67,41.565 L123.695,46.245 C123.578,46.778 123.24,47.09 122.785,47.09 L122.59,47.09 C122.46,47.09 122.395,47.155 122.395,47.285 L122.395,47.935 C122.395,48.065 122.46,48.13 122.59,48.13 L122.785,48.13 Z M137.085,48 C138.385,48 139.035,47.35 139.035,46.115 L139.035,45.985 C139.035,44.75 137.8,44.555 137.8,44.555 L137.8,44.49 C137.8,44.49 138.645,44.295 138.645,43.255 C138.645,42.02 137.995,41.37 136.695,41.37 L133.705,41.37 C133.575,41.37 133.51,41.435 133.51,41.565 L133.51,47.805 C133.51,47.935 133.575,48 133.705,48 L137.085,48 Z M136.695,44.1 L134.615,44.1 L134.615,42.41 L136.695,42.41 C137.215,42.41 137.54,42.735 137.54,43.255 C137.54,43.775 137.215,44.1 136.695,44.1 Z M137.085,46.96 L134.615,46.96 L134.615,45.14 L137.085,45.14 C137.605,45.14 137.93,45.465 137.93,45.985 L137.93,46.115 C137.93,46.635 137.605,46.96 137.085,46.96 Z M143.325,48.13 C144.43,48.13 144.755,47.35 144.755,47.35 L144.82,47.35 L144.82,47.805 C144.82,47.935 144.885,48 145.015,48 L145.73,48 C145.86,48 145.925,47.935 145.925,47.805 L145.925,43.255 C145.925,41.955 145.21,41.24 143.845,41.24 L142.935,41.24 C141.57,41.24 140.855,41.955 140.855,43.255 C140.855,43.385 140.92,43.45 141.05,43.45 L141.765,43.45 C141.895,43.45 141.96,43.385 141.96,43.255 C141.96,42.67 142.35,42.28 142.935,42.28 L143.845,42.28 C144.43,42.28 144.82,42.67 144.82,43.255 L144.82,44.1 L142.415,44.1 C141.115,44.1 140.465,44.75 140.465,45.985 L140.465,46.245 C140.465,47.48 141.115,48.13 142.415,48.13 L143.325,48.13 Z M143.455,47.09 L142.415,47.09 C141.895,47.09 141.57,46.765 141.57,46.245 L141.57,45.985 C141.57,45.465 141.895,45.14 142.415,45.14 L144.82,45.14 L144.82,45.725 C144.82,46.505 144.235,47.09 143.455,47.09 Z M151.45,48.13 C152.815,48.13 153.53,47.415 153.53,46.115 L153.53,45.79 C153.53,45.66 153.465,45.595 153.335,45.595 L152.62,45.595 C152.49,45.595 152.425,45.66 152.425,45.79 L152.425,46.115 C152.425,46.7 152.035,47.09 151.45,47.09 L149.955,47.09 C149.37,47.09 148.98,46.7 148.98,46.115 L148.98,43.255 C148.98,42.67 149.37,42.28 149.955,42.28 L151.45,42.28 C152.035,42.28 152.425,42.67 152.425,43.255 L152.425,43.58 C152.425,43.71 152.49,43.775 152.62,43.775 L153.335,43.775 C153.465,43.775 153.53,43.71 153.53,43.58 L153.53,43.255 C153.53,41.955 152.815,41.24 151.45,41.24 L149.955,41.24 C148.59,41.24 147.875,41.955 147.875,43.255 L147.875,46.115 C147.875,47.415 148.59,48.13 149.955,48.13 L151.45,48.13 Z M161.525,48 C162.825,48 163.475,47.35 163.475,46.115 L163.475,45.985 C163.475,44.75 162.24,44.555 162.24,44.555 L162.24,44.49 C162.24,44.49 163.085,44.295 163.085,43.255 C163.085,42.02 162.435,41.37 161.135,41.37 L158.145,41.37 C158.015,41.37 157.95,41.435 157.95,41.565 L157.95,47.805 C157.95,47.935 158.015,48 158.145,48 L161.525,48 Z M161.135,44.1 L159.055,44.1 L159.055,42.41 L161.135,42.41 C161.655,42.41 161.98,42.735 161.98,43.255 C161.98,43.775 161.655,44.1 161.135,44.1 Z M161.525,46.96 L159.055,46.96 L159.055,45.14 L161.525,45.14 C162.045,45.14 162.37,45.465 162.37,45.985 L162.37,46.115 C162.37,46.635 162.045,46.96 161.525,46.96 Z M171.21,48.13 C172.575,48.13 173.29,47.415 173.29,46.115 L173.29,45.79 C173.29,45.66 173.225,45.595 173.095,45.595 L172.38,45.595 C172.25,45.595 172.185,45.66 172.185,45.79 L172.185,46.115 C172.185,46.7 171.795,47.09 171.21,47.09 L169.715,47.09 C169.13,47.09 168.74,46.7 168.74,46.115 L168.74,43.255 C168.74,42.67 169.13,42.28 169.715,42.28 L171.21,42.28 C171.795,42.28 172.185,42.67 172.185,43.255 L172.185,43.58 C172.185,43.71 172.25,43.775 172.38,43.775 L173.095,43.775 C173.225,43.775 173.29,43.71 173.29,43.58 L173.29,43.255 C173.29,41.955 172.575,41.24 171.21,41.24 L169.715,41.24 C168.35,41.24 167.635,41.955 167.635,43.255 L167.635,46.115 C167.635,47.415 168.35,48.13 169.715,48.13 L171.21,48.13 Z M178.685,48 C179.985,48 180.635,47.35 180.635,46.115 L180.635,45.985 C180.635,44.75 179.4,44.555 179.4,44.555 L179.4,44.49 C179.4,44.49 180.245,44.295 180.245,43.255 C180.245,42.02 179.595,41.37 178.295,41.37 L175.305,41.37 C175.175,41.37 175.11,41.435 175.11,41.565 L175.11,47.805 C175.11,47.935 175.175,48 175.305,48 L178.685,48 Z M178.295,44.1 L176.215,44.1 L176.215,42.41 L178.295,42.41 C178.815,42.41 179.14,42.735 179.14,43.255 C179.14,43.775 178.815,44.1 178.295,44.1 Z M178.685,46.96 L176.215,46.96 L176.215,45.14 L178.685,45.14 C179.205,45.14 179.53,45.465 179.53,45.985 L179.53,46.115 C179.53,46.635 179.205,46.96 178.685,46.96 Z M185.9,48.13 C187.265,48.13 187.98,47.415 187.98,46.115 L187.98,43.255 C187.98,41.955 187.265,41.24 185.9,41.24 L184.275,41.24 C182.91,41.24 182.195,41.955 182.195,43.255 L182.195,46.115 C182.195,47.415 182.91,48.13 184.275,48.13 L185.9,48.13 Z M185.9,47.09 L184.275,47.09 C183.69,47.09 183.3,46.7 183.3,46.115 L183.3,43.255 C183.3,42.67 183.69,42.28 184.275,42.28 L185.9,42.28 C186.485,42.28 186.875,42.67 186.875,43.255 L186.875,46.115 C186.875,46.7 186.485,47.09 185.9,47.09 Z M193.115,40.33 C194.09,40.33 194.61,39.81 194.61,38.9 L194.61,38.575 C194.61,38.445 194.545,38.38 194.415,38.38 L193.83,38.38 C193.7,38.38 193.635,38.445 193.635,38.575 L193.635,38.9 C193.635,39.225 193.44,39.42 193.115,39.42 L192.4,39.42 C192.075,39.42 191.88,39.225 191.88,38.9 L191.88,38.575 C191.88,38.445 191.815,38.38 191.685,38.38 L191.1,38.38 C190.97,38.38 190.905,38.445 190.905,38.575 L190.905,38.9 C190.905,39.81 191.425,40.33 192.4,40.33 L193.115,40.33 Z M190.905,48 C191.165,48 191.217,47.935 191.295,47.805 L194.415,43.06 L194.48,43.06 L194.48,47.805 C194.48,47.935 194.545,48 194.675,48 L195.39,48 C195.52,48 195.585,47.935 195.585,47.805 L195.585,41.565 C195.585,41.435 195.52,41.37 195.39,41.37 L194.61,41.37 C194.35,41.37 194.298,41.435 194.22,41.565 L191.1,46.31 L191.035,46.31 L191.035,41.565 C191.035,41.435 190.97,41.37 190.84,41.37 L190.125,41.37 C189.995,41.37 189.93,41.435 189.93,41.565 L189.93,47.805 C189.93,47.935 189.995,48 190.125,48 L190.905,48 Z"/>
    <path fill="#A7ADB9" fill-rule="nonzero" d="M84.695,66.13 C86.255,66.13 87.035,65.35 87.035,63.79 L87.035,63.335 C87.035,63.14 86.905,63.01 86.71,63.01 L85.735,63.01 C85.54,63.01 85.41,63.14 85.41,63.335 L85.41,63.725 C85.41,64.31 85.085,64.635 84.5,64.635 L81.575,64.635 C80.99,64.635 80.665,64.31 80.665,63.725 L80.665,59.175 C80.665,58.59 80.99,58.265 81.575,58.265 L84.5,58.265 C85.085,58.265 85.41,58.59 85.41,59.175 L85.41,59.565 C85.41,59.76 85.54,59.89 85.735,59.89 L86.71,59.89 C86.905,59.89 87.035,59.76 87.035,59.565 L87.035,59.11 C87.035,57.55 86.255,56.77 84.695,56.77 L81.38,56.77 C79.82,56.77 79.04,57.55 79.04,59.11 L79.04,63.79 C79.04,65.35 79.82,66.13 81.38,66.13 L84.695,66.13 Z M89.96,66 C90.155,66 90.285,65.87 90.285,65.675 L90.285,60.67 L93.21,60.67 L93.21,65.675 C93.21,65.87 93.34,66 93.535,66 L94.315,66 C94.51,66 94.64,65.87 94.64,65.675 L94.64,59.695 C94.64,59.5 94.51,59.37 94.315,59.37 L89.18,59.37 C88.985,59.37 88.855,59.5 88.855,59.695 L88.855,65.675 C88.855,65.87 88.985,66 89.18,66 L89.96,66 Z M97.695,66 C97.955,66 98.085,65.87 98.215,65.675 L100.88,61.645 L100.945,61.645 L100.945,65.675 C100.945,65.87 101.075,66 101.27,66 L102.05,66 C102.245,66 102.375,65.87 102.375,65.675 L102.375,59.695 C102.375,59.5 102.245,59.37 102.05,59.37 L101.14,59.37 C100.88,59.37 100.75,59.5 100.62,59.695 L97.955,63.725 L97.89,63.725 L97.89,59.695 C97.89,59.5 97.76,59.37 97.565,59.37 L96.785,59.37 C96.59,59.37 96.46,59.5 96.46,59.695 L96.46,65.675 C96.46,65.87 96.59,66 96.785,66 L97.695,66 Z M107.965,66.13 C109.33,66.13 110.045,65.415 110.045,64.05 L110.045,63.79 C110.045,63.595 109.915,63.465 109.72,63.465 L108.94,63.465 C108.745,63.465 108.615,63.595 108.615,63.79 L108.615,63.985 C108.615,64.505 108.29,64.83 107.77,64.83 L106.405,64.83 C105.885,64.83 105.56,64.505 105.56,63.985 L105.56,61.385 C105.56,60.865 105.885,60.54 106.405,60.54 L107.77,60.54 C108.29,60.54 108.615,60.865 108.615,61.385 L108.615,61.58 C108.615,61.775 108.745,61.905 108.94,61.905 L109.72,61.905 C109.915,61.905 110.045,61.775 110.045,61.58 L110.045,61.32 C110.045,59.955 109.33,59.24 107.965,59.24 L106.21,59.24 C104.845,59.24 104.13,59.955 104.13,61.32 L104.13,64.05 C104.13,65.415 104.845,66.13 106.21,66.13 L107.965,66.13 Z M115.57,66.13 C116.935,66.13 117.65,65.415 117.65,64.05 L117.65,61.32 C117.65,59.955 116.935,59.24 115.57,59.24 L113.685,59.24 C112.32,59.24 111.605,59.955 111.605,61.32 L111.605,64.05 C111.605,65.415 112.32,66.13 113.685,66.13 L115.57,66.13 Z M115.375,64.83 L113.88,64.83 C113.36,64.83 113.035,64.505 113.035,63.985 L113.035,61.385 C113.035,60.865 113.36,60.54 113.88,60.54 L115.375,60.54 C115.895,60.54 116.22,60.865 116.22,61.385 L116.22,63.985 C116.22,64.505 115.895,64.83 115.375,64.83 Z M120.51,66 C120.705,66 120.835,65.87 120.835,65.675 L120.835,63.14 L122.2,63.14 L123.5,65.675 C123.604,65.87 123.76,66 124.02,66 L124.93,66 C125.19,66 125.19,65.805 125.125,65.675 L123.37,62.49 L124.93,59.695 C124.995,59.565 124.995,59.37 124.735,59.37 L123.825,59.37 C123.565,59.37 123.409,59.5 123.305,59.695 L122.2,61.84 L120.835,61.84 L120.835,59.695 C120.835,59.5 120.705,59.37 120.51,59.37 L119.73,59.37 C119.535,59.37 119.405,59.5 119.405,59.695 L119.405,65.675 C119.405,65.87 119.535,66 119.73,66 L120.51,66 Z M129.129,67.43 C129.324,67.43 129.454,67.3 129.454,67.105 L129.454,66 L133.744,66 L133.744,67.105 C133.744,67.3 133.874,67.43 134.069,67.43 L134.849,67.43 C135.044,67.43 135.174,67.3 135.174,67.105 L135.174,65.025 C135.174,64.83 135.044,64.7 134.849,64.7 L134.329,64.7 L134.329,59.695 C134.329,59.5 134.199,59.37 134.004,59.37 L130.234,59.37 C130.039,59.37 129.883,59.5 129.844,59.695 L128.804,64.7 L128.349,64.7 C128.154,64.7 128.024,64.83 128.024,65.025 L128.024,67.105 C128.024,67.3 128.154,67.43 128.349,67.43 L129.129,67.43 Z M132.899,64.7 L130.234,64.7 L131.079,60.67 L132.899,60.67 L132.899,64.7 Z M137.449,68.47 C137.644,68.47 137.774,68.34 137.774,68.145 L137.774,66 L140.179,66 C141.544,66 142.259,65.285 142.259,63.92 L142.259,61.32 C142.259,59.955 141.544,59.24 140.179,59.24 L139.139,59.24 C138.164,59.24 137.839,60.02 137.839,60.02 L137.774,60.02 L137.774,59.695 C137.774,59.5 137.644,59.37 137.449,59.37 L136.669,59.37 C136.474,59.37 136.344,59.5 136.344,59.695 L136.344,68.145 C136.344,68.34 136.474,68.47 136.669,68.47 L137.449,68.47 Z M139.984,64.7 L137.774,64.7 L137.774,61.645 C137.774,60.995 138.229,60.54 138.879,60.54 L139.984,60.54 C140.504,60.54 140.829,60.865 140.829,61.385 L140.829,63.855 C140.829,64.375 140.504,64.7 139.984,64.7 Z M144.573,68.47 C145.808,68.47 146.588,67.69 147.173,66.195 L149.708,59.695 C149.786,59.5 149.708,59.37 149.513,59.37 L148.473,59.37 C148.278,59.37 148.148,59.5 148.083,59.695 L146.523,63.92 L146.458,63.92 L144.898,59.695 C144.833,59.5 144.703,59.37 144.508,59.37 L143.468,59.37 C143.273,59.37 143.195,59.5 143.273,59.695 L145.743,66 C145.483,66.715 145.093,67.105 144.573,67.105 L144.248,67.105 C144.053,67.105 143.923,67.235 143.923,67.43 L143.923,68.145 C143.923,68.34 144.053,68.47 144.248,68.47 L144.573,68.47 Z M154.492,66.13 C155.792,66.13 156.442,65.48 156.442,64.18 C156.442,62.815 155.402,62.555 155.402,62.555 L155.402,62.49 C155.402,62.49 156.312,62.23 156.312,61.125 C156.312,59.89 155.662,59.24 154.362,59.24 L152.672,59.24 C151.307,59.24 150.592,59.955 150.592,61.32 L150.592,61.58 C150.592,61.775 150.722,61.905 150.917,61.905 L151.697,61.905 C151.892,61.905 152.022,61.775 152.022,61.58 L152.022,61.385 C152.022,60.865 152.347,60.54 152.867,60.54 L154.167,60.54 C154.622,60.54 154.882,60.8 154.882,61.255 C154.882,61.71 154.622,61.97 154.167,61.97 L153.322,61.97 C153.127,61.97 152.997,62.1 152.997,62.295 L152.997,62.945 C152.997,63.14 153.127,63.27 153.322,63.27 L154.297,63.27 C154.752,63.27 155.012,63.53 155.012,63.985 L155.012,64.115 C155.012,64.57 154.752,64.83 154.297,64.83 L152.737,64.83 C152.217,64.83 151.892,64.505 151.892,63.985 L151.892,63.79 C151.892,63.595 151.762,63.465 151.567,63.465 L150.787,63.465 C150.592,63.465 150.462,63.595 150.462,63.79 L150.462,64.05 C150.462,65.415 151.177,66.13 152.542,66.13 L154.492,66.13 Z M161.707,66.13 C163.072,66.13 163.787,65.415 163.787,64.115 C163.787,63.92 163.657,63.79 163.462,63.79 L162.682,63.79 C162.487,63.79 162.357,63.92 162.357,64.115 C162.357,64.57 162.097,64.83 161.642,64.83 L160.147,64.83 C159.627,64.83 159.302,64.505 159.302,63.985 L159.302,63.205 L163.462,63.205 C163.657,63.205 163.787,63.075 163.787,62.88 L163.787,61.32 C163.787,59.955 163.072,59.24 161.707,59.24 L159.952,59.24 C158.587,59.24 157.872,59.955 157.872,61.32 L157.872,64.05 C157.872,65.415 158.587,66.13 159.952,66.13 L161.707,66.13 Z M162.357,61.97 L159.302,61.97 L159.302,61.385 C159.302,60.865 159.627,60.54 160.147,60.54 L161.512,60.54 C162.032,60.54 162.357,60.865 162.357,61.385 L162.357,61.97 Z M168.922,58.395 C170.027,58.395 170.547,57.875 170.547,56.77 L170.547,56.64 C170.547,56.445 170.417,56.315 170.222,56.315 L169.572,56.315 C169.377,56.315 169.247,56.445 169.247,56.64 L169.247,56.835 C169.247,57.095 169.052,57.29 168.792,57.29 L168.207,57.29 C167.947,57.29 167.752,57.095 167.752,56.835 L167.752,56.64 C167.752,56.445 167.622,56.315 167.427,56.315 L166.777,56.315 C166.582,56.315 166.452,56.445 166.452,56.64 L166.452,56.77 C166.452,57.875 166.972,58.395 168.077,58.395 L168.922,58.395 Z M166.777,66 C167.037,66 167.167,65.87 167.297,65.675 L169.962,61.645 L170.027,61.645 L170.027,65.675 C170.027,65.87 170.157,66 170.352,66 L171.132,66 C171.327,66 171.457,65.87 171.457,65.675 L171.457,59.695 C171.457,59.5 171.327,59.37 171.132,59.37 L170.222,59.37 C169.962,59.37 169.832,59.5 169.702,59.695 L167.037,63.725 L166.972,63.725 L166.972,59.695 C166.972,59.5 166.842,59.37 166.647,59.37 L165.867,59.37 C165.672,59.37 165.542,59.5 165.542,59.695 L165.542,65.675 C165.542,65.87 165.672,66 165.867,66 L166.777,66 Z"/>
    <g transform="translate(286 23)">
      <rect width="155" height="43" x=".5" y=".5" fill="url(#scammer-steam-ru-c)" fill-opacity=".3" stroke="url(#scammer-steam-ru-d)"/>
      <path fill="#FFF" fill-rule="nonzero" d="M39.225,27 C39.45,27 39.6,26.85 39.6,26.625 L39.6,20.7 L39.75,20.7 L42.45,26.625 C42.555,26.85 42.75,27 43.05,27 L43.95,27 C44.25,27 44.445,26.85 44.55,26.625 L47.25,20.7 L47.4,20.7 L47.4,26.625 C47.4,26.85 47.55,27 47.775,27 L49.425,27 C49.65,27 49.8,26.85 49.8,26.625 L49.8,16.875 C49.8,16.65 49.65,16.5 49.425,16.5 L47.25,16.5 C46.95,16.5 46.755,16.65 46.65,16.875 L43.575,23.625 L43.425,23.625 L40.35,16.875 C40.245,16.65 40.05,16.5 39.75,16.5 L37.575,16.5 C37.35,16.5 37.2,16.65 37.2,16.875 L37.2,26.625 C37.2,26.85 37.35,27 37.575,27 L39.225,27 Z M59.25,27.15 C60.975,27.15 61.875,26.25 61.875,24.525 L61.875,18.975 C61.875,17.25 60.975,16.35 59.25,16.35 L54.675,16.35 C52.95,16.35 52.05,17.25 52.05,18.975 L52.05,24.525 C52.05,26.25 52.95,27.15 54.675,27.15 L59.25,27.15 Z M58.65,25.05 L55.275,25.05 C54.75,25.05 54.45,24.75 54.45,24.225 L54.45,19.275 C54.45,18.75 54.75,18.45 55.275,18.45 L58.65,18.45 C59.175,18.45 59.475,18.75 59.475,19.275 L59.475,24.225 C59.475,24.75 59.175,25.05 58.65,25.05 Z M76.95,27 C77.175,27 77.325,26.85 77.325,26.625 L77.325,16.875 C77.325,16.65 77.175,16.5 76.95,16.5 L75.3,16.5 C75.075,16.5 74.925,16.65 74.925,16.875 L74.925,24.9 L71.925,24.9 L71.925,16.875 C71.925,16.65 71.775,16.5 71.55,16.5 L69.9,16.5 C69.675,16.5 69.525,16.65 69.525,16.875 L69.525,24.9 L66.525,24.9 L66.525,16.875 C66.525,16.65 66.375,16.5 66.15,16.5 L64.5,16.5 C64.275,16.5 64.125,16.65 64.125,16.875 L64.125,26.625 C64.125,26.85 64.275,27 64.5,27 L76.95,27 Z M88.05,27 C88.275,27 88.425,26.85 88.425,26.625 L88.425,25.275 C88.425,25.05 88.275,24.9 88.05,24.9 L82.125,24.9 L82.125,22.725 L86.55,22.725 C86.775,22.725 86.925,22.575 86.925,22.35 L86.925,21 C86.925,20.775 86.775,20.625 86.55,20.625 L82.125,20.625 L82.125,18.6 L87.9,18.6 C88.125,18.6 88.275,18.45 88.275,18.225 L88.275,16.875 C88.275,16.65 88.125,16.5 87.9,16.5 L80.1,16.5 C79.875,16.5 79.725,16.65 79.725,16.875 L79.725,26.625 C79.725,26.85 79.875,27 80.1,27 L88.05,27 Z M92.1,27 C92.325,27 92.475,26.85 92.475,26.625 L92.475,22.8 L97.05,22.8 L97.05,26.625 C97.05,26.85 97.2,27 97.425,27 L99.075,27 C99.3,27 99.45,26.85 99.45,26.625 L99.45,16.875 C99.45,16.65 99.3,16.5 99.075,16.5 L97.425,16.5 C97.2,16.5 97.05,16.65 97.05,16.875 L97.05,20.7 L92.475,20.7 L92.475,16.875 C92.475,16.65 92.325,16.5 92.1,16.5 L90.45,16.5 C90.225,16.5 90.075,16.65 90.075,16.875 L90.075,26.625 C90.075,26.85 90.225,27 90.45,27 L92.1,27 Z M103.875,27 C104.1,27 104.25,26.85 104.25,26.625 L104.25,22.8 L108.825,22.8 L108.825,26.625 C108.825,26.85 108.975,27 109.2,27 L110.85,27 C111.075,27 111.225,26.85 111.225,26.625 L111.225,16.875 C111.225,16.65 111.075,16.5 110.85,16.5 L109.2,16.5 C108.975,16.5 108.825,16.65 108.825,16.875 L108.825,20.7 L104.25,20.7 L104.25,16.875 C104.25,16.65 104.1,16.5 103.875,16.5 L102.225,16.5 C102,16.5 101.85,16.65 101.85,16.875 L101.85,26.625 C101.85,26.85 102,27 102.225,27 L103.875,27 Z M116.025,27 C116.325,27 116.475,26.85 116.625,26.625 L120.675,20.175 L120.825,20.175 L120.825,26.625 C120.825,26.85 120.975,27 121.2,27 L122.85,27 C123.075,27 123.225,26.85 123.225,26.625 L123.225,16.875 C123.225,16.65 123.075,16.5 122.85,16.5 L120.825,16.5 C120.525,16.5 120.375,16.65 120.225,16.875 L116.175,23.325 L116.025,23.325 L116.025,16.875 C116.025,16.65 115.875,16.5 115.65,16.5 L114,16.5 C113.775,16.5 113.625,16.65 113.625,16.875 L113.625,26.625 C113.625,26.85 113.775,27 114,27 L116.025,27 Z M127.65,27 C127.875,27 128.025,26.85 128.025,26.625 L128.025,22.575 L130.125,22.575 L132.3,26.625 C132.42,26.85 132.6,27 132.9,27 L134.775,27 C135,27 135.12,26.85 135,26.625 L132.15,21.45 L134.7,16.875 C134.82,16.65 134.7,16.5 134.475,16.5 L132.6,16.5 C132.3,16.5 132.12,16.65 132,16.875 L130.05,20.475 L128.025,20.475 L128.025,16.875 C128.025,16.65 127.875,16.5 127.65,16.5 L126,16.5 C125.775,16.5 125.625,16.65 125.625,16.875 L125.625,26.625 C125.625,26.85 125.775,27 126,27 L127.65,27 Z M137.835,23.775 C138.135,23.775 138.255,23.625 138.285,23.4 L138.66,20.85 L138.66,16.875 C138.66,16.65 138.51,16.5 138.285,16.5 L136.635,16.5 C136.41,16.5 136.26,16.65 136.26,16.875 L136.26,20.85 L136.635,23.4 C136.665,23.625 136.785,23.775 137.085,23.775 L137.835,23.775 Z M138.135,27 C138.36,27 138.51,26.85 138.51,26.625 L138.51,25.35 C138.51,25.125 138.36,24.975 138.135,24.975 L136.785,24.975 C136.56,24.975 136.41,25.125 136.41,25.35 L136.41,26.625 C136.41,26.85 136.56,27 136.785,27 L138.135,27 Z"/>
      <path fill="#FC3B3B" fill-rule="nonzero" d="M0.366116524,0.366116524 C0.854271888,-0.122038841 1.64572811,-0.122038841 2.13388348,0.366116524 L2.13388348,0.366116524 L5.535,3.768 L8.93754509,0.366116524 C9.42570046,-0.122038841 10.2171567,-0.122038841 10.705312,0.366116524 C11.1609237,0.821728197 11.1912978,1.54154862 10.7964344,2.03238813 L10.705312,2.13388348 L7.303,5.535 L10.705312,8.93754509 L10.7964344,9.03904045 C11.1912978,9.52987995 11.1609237,10.2497004 10.705312,10.705312 C10.2171567,11.1934674 9.42570046,11.1934674 8.93754509,10.705312 L8.93754509,10.705312 L5.535,7.303 L2.13388348,10.705312 C1.64572811,11.1934674 0.854271888,11.1934674 0.366116524,10.705312 C-0.0894951502,10.2497004 -0.119869262,9.52987995 0.274994189,9.03904045 L0.366116524,8.93754509 L3.768,5.535 L0.366116524,2.13388348 L0.274994189,2.03238813 C-0.119869262,1.54154862 -0.0894951502,0.821728197 0.366116524,0.366116524 Z" transform="translate(16 16)"/>
    </g>
  </g>
</svg>
