<svg xmlns="http://www.w3.org/2000/svg" width="442" height="90" viewBox="0 0 442 90">
  <defs>
    <linearGradient id="scammer-steam-a" x1="50%" x2="50%" y1="0%" y2="100%">
      <stop offset="0%" stop-color="#1F222A"/>
      <stop offset="100%" stop-color="#11151A" stop-opacity="0"/>
    </linearGradient>
    <linearGradient id="scammer-steam-b" x1="50%" x2="50%" y1="0%" y2="100%">
      <stop offset="0%" stop-color="#6DB9EE" stop-opacity=".209"/>
      <stop offset="99.522%" stop-color="#6DB9EE" stop-opacity="0"/>
    </linearGradient>
    <linearGradient id="scammer-steam-c" x1="95.302%" x2="4.698%" y1="45.302%" y2="45.302%">
      <stop offset="0%" stop-color="#FE3B3B" stop-opacity="0"/>
      <stop offset="100%" stop-color="#FE3B3B"/>
    </linearGradient>
    <linearGradient id="scammer-steam-d" x1="100%" x2="0%" y1="50%" y2="50%">
      <stop offset="0%" stop-color="#FE3B3B" stop-opacity="0"/>
      <stop offset="100%" stop-color="#FE3B3B"/>
    </linearGradient>
  </defs>
  <g fill="none" fill-rule="evenodd">
    <rect width="269" height="89" x=".5" y=".5" fill="url(#scammer-steam-a)" stroke="url(#scammer-steam-b)"/>
    <g transform="translate(20 20)">
      <rect width="41" height="41" x=".5" y=".5" fill="#222" stroke="#64696D"/>
      <g transform="translate(10 11)">
        <path fill="#63ADF2" d="M12.6921111,19.8048296 L21.9799053,14.3443187 L21.9799053,3.45393107 C20.8456277,4.12459646 19.7120538,4.79535064 18.5777761,5.46601603 L18.5777761,12.3441322 L12.6921111,15.8042791 L6.87655217,12.3855993 C5.74561711,13.0543112 4.61547372,13.7229343 3.48462662,14.3914687 L12.6921111,19.8048296 Z"/>
        <path fill="#DB324D" d="M9.38948858,-1.04212935e-15 L1.04212935e-15,5.43521545 L1.04212935e-15,16.2752425 C1.14669712,15.6076839 2.29268283,14.940037 3.43937995,14.27239 L3.43937995,7.4262246 L9.38948858,3.98210668 L15.2687234,7.38486124 C16.4120414,6.71933548 17.554559,6.05380972 18.697788,5.38828395 L9.38948858,-1.04212935e-15 Z"/>
      </g>
    </g>
    <path fill="#6DB9EE" fill-rule="nonzero" d="M80.66,31 C80.87,31 81.01,30.86 81.01,30.65 L81.01,24.35 L81.08,24.35 L84.02,30.65 C84.118,30.86 84.23,31 84.51,31 L85.28,31 C85.56,31 85.672,30.86 85.77,30.65 L88.71,24.35 L88.78,24.35 L88.78,30.65 C88.78,30.86 88.92,31 89.13,31 L90.18,31 C90.39,31 90.53,30.86 90.53,30.65 L90.53,21.55 C90.53,21.34 90.39,21.2 90.18,21.2 L88.71,21.2 C88.43,21.2 88.318,21.34 88.22,21.55 L84.93,28.55 L84.86,28.55 L81.57,21.55 C81.472,21.34 81.36,21.2 81.08,21.2 L79.61,21.2 C79.4,21.2 79.26,21.34 79.26,21.55 L79.26,30.65 C79.26,30.86 79.4,31 79.61,31 L80.66,31 Z M96.886,31 C97.096,31 97.236,30.86 97.236,30.65 L97.236,27.64 L100.946,21.55 C101.03,21.41 101.016,21.2 100.736,21.2 L99.476,21.2 C99.196,21.2 99.042,21.34 98.916,21.55 L96.396,25.75 L93.876,21.55 C93.75,21.34 93.596,21.2 93.316,21.2 L92.056,21.2 C91.776,21.2 91.762,21.41 91.846,21.55 L95.556,27.64 L95.556,30.65 C95.556,30.86 95.696,31 95.906,31 L96.886,31 Z M108.212,31.14 C109.892,31.14 110.732,30.3 110.732,28.62 L110.732,28.13 C110.732,27.92 110.592,27.78 110.382,27.78 L109.332,27.78 C109.122,27.78 108.982,27.92 108.982,28.13 L108.982,28.55 C108.982,29.18 108.632,29.53 108.002,29.53 L104.852,29.53 C104.222,29.53 103.872,29.18 103.872,28.55 L103.872,23.65 C103.872,23.02 104.222,22.67 104.852,22.67 L108.002,22.67 C108.632,22.67 108.982,23.02 108.982,23.65 L108.982,24.07 C108.982,24.28 109.122,24.42 109.332,24.42 L110.382,24.42 C110.592,24.42 110.732,24.28 110.732,24.07 L110.732,23.58 C110.732,21.9 109.892,21.06 108.212,21.06 L104.642,21.06 C102.962,21.06 102.122,21.9 102.122,23.58 L102.122,28.62 C102.122,30.3 102.962,31.14 104.642,31.14 L108.212,31.14 Z M118.222,31.14 C119.902,31.14 120.742,30.3 120.742,28.62 L120.742,27.92 C120.742,26.87 120.112,26.254 119.202,25.96 L115.212,24.7 C114.792,24.56 114.512,24.28 114.512,23.86 L114.512,23.65 C114.512,23.02 114.862,22.67 115.492,22.67 L117.872,22.67 C118.502,22.67 118.852,23.02 118.852,23.65 L118.852,24.07 C118.852,24.28 118.992,24.42 119.202,24.42 L120.252,24.42 C120.462,24.42 120.602,24.28 120.602,24.07 L120.602,23.58 C120.602,21.9 119.762,21.06 118.082,21.06 L115.282,21.06 C113.602,21.06 112.762,21.9 112.762,23.58 L112.762,24.14 C112.762,25.19 113.392,25.82 114.302,26.1 L118.292,27.36 C118.712,27.486 118.992,27.78 118.992,28.2 L118.992,28.55 C118.992,29.18 118.642,29.53 118.012,29.53 L115.282,29.53 C114.652,29.53 114.302,29.18 114.302,28.55 L114.302,28.13 C114.302,27.92 114.162,27.78 113.952,27.78 L112.902,27.78 C112.692,27.78 112.552,27.92 112.552,28.13 L112.552,28.62 C112.552,30.3 113.392,31.14 115.072,31.14 L118.222,31.14 Z M128.792,31.14 C130.472,31.14 131.312,30.3 131.312,28.62 L131.312,26.03 C131.312,25.82 131.172,25.68 130.962,25.68 L127.672,25.68 C127.462,25.68 127.322,25.82 127.322,26.03 L127.322,26.94 C127.322,27.15 127.462,27.29 127.672,27.29 L129.562,27.29 L129.562,28.55 C129.562,29.18 129.212,29.53 128.582,29.53 L125.432,29.53 C124.802,29.53 124.452,29.18 124.452,28.55 L124.452,23.65 C124.452,23.02 124.802,22.67 125.432,22.67 L128.582,22.67 C129.212,22.67 129.562,23.02 129.562,23.65 L129.562,24.07 C129.562,24.28 129.702,24.42 129.912,24.42 L130.962,24.42 C131.172,24.42 131.312,24.28 131.312,24.07 L131.312,23.58 C131.312,21.9 130.472,21.06 128.792,21.06 L125.222,21.06 C123.542,21.06 122.702,21.9 122.702,23.58 L122.702,28.62 C122.702,30.3 123.542,31.14 125.222,31.14 L128.792,31.14 Z M139.852,31.14 C141.532,31.14 142.372,30.3 142.372,28.62 L142.372,23.58 C142.372,21.9 141.532,21.06 139.852,21.06 L136.072,21.06 C134.392,21.06 133.552,21.9 133.552,23.58 L133.552,28.62 C133.552,30.3 134.392,31.14 136.072,31.14 L139.852,31.14 Z M139.642,29.53 L136.282,29.53 C135.652,29.53 135.302,29.18 135.302,28.55 L135.302,23.65 C135.302,23.02 135.652,22.67 136.282,22.67 L139.642,22.67 C140.272,22.67 140.622,23.02 140.622,23.65 L140.622,28.55 C140.622,29.18 140.272,29.53 139.642,29.53 Z M150.702,33.38 C150.912,33.38 151.052,33.24 151.052,33.03 L151.052,32.19 C151.052,31.98 150.912,31.84 150.702,31.84 L149.302,31.84 L149.302,22.32 L150.702,22.32 C150.912,22.32 151.052,22.18 151.052,21.97 L151.052,21.13 C151.052,20.92 150.912,20.78 150.702,20.78 L147.902,20.78 C147.692,20.78 147.552,20.92 147.552,21.13 L147.552,33.03 C147.552,33.24 147.692,33.38 147.902,33.38 L150.702,33.38 Z M154.185867,31.1572266 C154.445633,31.1572266 154.891108,30.8997396 155.522293,30.3847656 C156.153478,29.8697917 156.917964,29.140625 157.81575,28.1972656 L157.81575,28.1972656 L162.040359,23.7470703 L162.115555,23.671875 C162.598628,23.1660156 162.840164,22.6464844 162.840164,22.1132812 L162.840164,22.1132812 L162.840164,21.8876953 C162.840164,21.6188151 162.808263,21.4274089 162.744461,21.3134766 C162.680659,21.1995443 162.573563,21.1425781 162.423172,21.1425781 C162.222651,21.1425781 161.978836,21.2360026 161.691727,21.4228516 C161.404617,21.6097005 161.078771,21.8854167 160.714188,22.25 L160.714188,22.25 L156.373367,26.5498047 C156.113602,26.805013 155.890294,27.0066732 155.703445,27.1547852 C155.516596,27.3028971 155.388992,27.3769531 155.320633,27.3769531 C155.15657,27.3769531 155.026688,27.2516276 154.930984,27.0009766 C154.835281,26.7503255 154.750971,26.3082682 154.678055,25.6748047 C154.673497,25.6292318 154.666661,25.5585938 154.657547,25.4628906 C154.570958,24.6380208 154.302078,24.2255859 153.850906,24.2255859 C153.376948,24.2255859 152.944005,24.4249674 152.552078,24.8237305 C152.160151,25.2224935 151.964188,25.6565755 151.964188,26.1259766 C151.964188,26.9873047 152.008621,27.7871094 152.097488,28.5253906 C152.186355,29.2636719 152.280919,29.7467448 152.38118,29.9746094 C152.499669,30.2480469 152.761714,30.5135091 153.167313,30.7709961 C153.572911,31.0284831 153.91243,31.1572266 154.185867,31.1572266 Z M166.88868,33.38 C167.09868,33.38 167.23868,33.24 167.23868,33.03 L167.23868,21.13 C167.23868,20.92 167.09868,20.78 166.88868,20.78 L164.08868,20.78 C163.87868,20.78 163.73868,20.92 163.73868,21.13 L163.73868,21.97 C163.73868,22.18 163.87868,22.32 164.08868,22.32 L165.48868,22.32 L165.48868,31.84 L164.08868,31.84 C163.87868,31.84 163.73868,31.98 163.73868,32.19 L163.73868,33.03 C163.73868,33.24 163.87868,33.38 164.08868,33.38 L166.88868,33.38 Z"/>
    <path fill="#7F8587" fill-rule="nonzero" d="M79.95,48 C80.08,48 80.145,47.935 80.145,47.805 L80.145,42.41 L82.615,42.41 C83.2,42.41 83.59,42.8 83.59,43.385 L83.59,47.805 C83.59,47.935 83.655,48 83.785,48 L84.5,48 C84.63,48 84.695,47.935 84.695,47.805 L84.695,43.385 C84.695,42.085 83.98,41.37 82.615,41.37 L80.145,41.37 L80.145,39.095 C80.145,38.965 80.08,38.9 79.95,38.9 L79.235,38.9 C79.105,38.9 79.04,38.965 79.04,39.095 L79.04,47.805 C79.04,47.935 79.105,48 79.235,48 L79.95,48 Z M89.375,48.13 C90.48,48.13 90.805,47.35 90.805,47.35 L90.87,47.35 L90.87,47.805 C90.87,47.935 90.935,48 91.065,48 L91.78,48 C91.91,48 91.975,47.935 91.975,47.805 L91.975,43.255 C91.975,41.955 91.26,41.24 89.895,41.24 L88.985,41.24 C87.62,41.24 86.905,41.955 86.905,43.255 C86.905,43.385 86.97,43.45 87.1,43.45 L87.815,43.45 C87.945,43.45 88.01,43.385 88.01,43.255 C88.01,42.67 88.4,42.28 88.985,42.28 L89.895,42.28 C90.48,42.28 90.87,42.67 90.87,43.255 L90.87,44.1 L88.465,44.1 C87.165,44.1 86.515,44.75 86.515,45.985 L86.515,46.245 C86.515,47.48 87.165,48.13 88.465,48.13 L89.375,48.13 Z M89.505,47.09 L88.465,47.09 C87.945,47.09 87.62,46.765 87.62,46.245 L87.62,45.985 C87.62,45.465 87.945,45.14 88.465,45.14 L90.87,45.14 L90.87,45.725 C90.87,46.505 90.285,47.09 89.505,47.09 Z M97.305,48.13 C98.605,48.13 99.255,47.48 99.255,46.245 L99.255,46.05 L99.255,46.05 C99.255,45.27 98.8,44.802 98.215,44.62 L95.355,43.71 C95.095,43.632 94.9,43.45 94.9,43.19 L94.9,43.125 L94.9,43.125 C94.9,42.605 95.225,42.28 95.745,42.28 L97.045,42.28 C97.63,42.28 98.02,42.67 98.02,43.255 L98.02,43.385 C98.02,43.515 98.085,43.58 98.215,43.58 L98.93,43.58 C99.06,43.58 99.125,43.515 99.125,43.385 L99.125,43.255 C99.125,41.955 98.41,41.24 97.045,41.24 L95.745,41.24 C94.445,41.24 93.795,41.89 93.795,43.125 L93.795,43.255 C93.795,44.035 94.25,44.503 94.835,44.685 L97.695,45.595 C97.955,45.673 98.15,45.855 98.15,46.115 L98.15,46.245 L98.15,46.245 C98.15,46.765 97.825,47.09 97.305,47.09 L95.745,47.09 C95.16,47.09 94.77,46.7 94.77,46.115 L94.77,45.985 C94.77,45.855 94.705,45.79 94.575,45.79 L93.86,45.79 C93.73,45.79 93.665,45.855 93.665,45.985 L93.665,46.115 C93.665,47.415 94.38,48.13 95.745,48.13 L97.305,48.13 Z M106.275,48.13 C107.38,48.13 107.705,47.35 107.705,47.35 L107.77,47.35 L107.77,47.805 C107.77,47.935 107.835,48 107.965,48 L108.68,48 C108.81,48 108.875,47.935 108.875,47.805 L108.875,43.255 C108.875,41.955 108.16,41.24 106.795,41.24 L105.885,41.24 C104.52,41.24 103.805,41.955 103.805,43.255 C103.805,43.385 103.87,43.45 104,43.45 L104.715,43.45 C104.845,43.45 104.91,43.385 104.91,43.255 C104.91,42.67 105.3,42.28 105.885,42.28 L106.795,42.28 C107.38,42.28 107.77,42.67 107.77,43.255 L107.77,44.1 L105.365,44.1 C104.065,44.1 103.415,44.75 103.415,45.985 L103.415,46.245 C103.415,47.48 104.065,48.13 105.365,48.13 L106.275,48.13 Z M106.405,47.09 L105.365,47.09 C104.845,47.09 104.52,46.765 104.52,46.245 L104.52,45.985 C104.52,45.465 104.845,45.14 105.365,45.14 L107.77,45.14 L107.77,45.725 C107.77,46.505 107.185,47.09 106.405,47.09 Z M113.88,48.13 C114.985,48.13 115.31,47.35 115.31,47.35 L115.375,47.35 L115.375,47.805 C115.375,47.935 115.44,48 115.57,48 L116.285,48 C116.415,48 116.48,47.935 116.48,47.805 L116.48,39.095 C116.48,38.965 116.415,38.9 116.285,38.9 L115.57,38.9 C115.44,38.9 115.375,38.965 115.375,39.095 L115.375,41.37 L112.905,41.37 C111.54,41.37 110.825,42.085 110.825,43.385 L110.825,46.115 C110.825,47.415 111.54,48.13 112.905,48.13 L113.88,48.13 Z M114.01,47.09 L112.905,47.09 L112.905,47.09 C112.32,47.09 111.93,46.7 111.93,46.115 L111.93,43.385 C111.93,42.8 112.32,42.41 112.905,42.41 L115.375,42.41 L115.375,45.725 C115.375,46.505 114.79,47.09 114.01,47.09 Z M121.485,48.13 C122.59,48.13 122.915,47.35 122.915,47.35 L122.98,47.35 L122.98,47.805 C122.98,47.935 123.045,48 123.175,48 L123.89,48 C124.02,48 124.085,47.935 124.085,47.805 L124.085,39.095 C124.085,38.965 124.02,38.9 123.89,38.9 L123.175,38.9 C123.045,38.9 122.98,38.965 122.98,39.095 L122.98,41.37 L120.51,41.37 C119.145,41.37 118.43,42.085 118.43,43.385 L118.43,46.115 C118.43,47.415 119.145,48.13 120.51,48.13 L121.485,48.13 Z M121.615,47.09 L120.51,47.09 L120.51,47.09 C119.925,47.09 119.535,46.7 119.535,46.115 L119.535,43.385 C119.535,42.8 119.925,42.41 120.51,42.41 L122.98,42.41 L122.98,45.725 C122.98,46.505 122.395,47.09 121.615,47.09 Z M129.675,48.13 C131.04,48.13 131.755,47.415 131.755,46.115 L131.755,46.05 C131.755,45.92 131.69,45.855 131.56,45.855 L130.845,45.855 C130.715,45.855 130.65,45.92 130.65,46.05 L130.65,46.115 C130.65,46.7 130.26,47.09 129.675,47.09 L128.115,47.09 C127.53,47.09 127.14,46.7 127.14,46.115 L127.14,45.14 L131.56,45.14 C131.69,45.14 131.755,45.075 131.755,44.945 L131.755,43.255 C131.755,41.955 131.04,41.24 129.675,41.24 L128.115,41.24 C126.75,41.24 126.035,41.955 126.035,43.255 L126.035,46.115 C126.035,47.415 126.75,48.13 128.115,48.13 L129.675,48.13 Z M130.65,44.1 L127.14,44.1 L127.14,43.255 C127.14,42.67 127.53,42.28 128.115,42.28 L129.675,42.28 C130.26,42.28 130.65,42.67 130.65,43.255 L130.65,44.1 Z M136.63,48.13 C137.735,48.13 138.06,47.35 138.06,47.35 L138.125,47.35 L138.125,47.805 C138.125,47.935 138.19,48 138.32,48 L139.035,48 C139.165,48 139.23,47.935 139.23,47.805 L139.23,39.095 C139.23,38.965 139.165,38.9 139.035,38.9 L138.32,38.9 C138.19,38.9 138.125,38.965 138.125,39.095 L138.125,41.37 L135.655,41.37 C134.29,41.37 133.575,42.085 133.575,43.385 L133.575,46.115 C133.575,47.415 134.29,48.13 135.655,48.13 L136.63,48.13 Z M136.76,47.09 L135.655,47.09 L135.655,47.09 C135.07,47.09 134.68,46.7 134.68,46.115 L134.68,43.385 C134.68,42.8 135.07,42.41 135.655,42.41 L138.125,42.41 L138.125,45.725 C138.125,46.505 137.54,47.09 136.76,47.09 Z M144.196,50.47 C145.366,50.47 146.016,49.82 146.731,48 L149.266,41.565 C149.318,41.435 149.266,41.37 149.136,41.37 L148.356,41.37 C148.161,41.37 148.083,41.435 148.031,41.565 L146.211,46.44 L146.146,46.44 L144.326,41.565 C144.274,41.435 144.196,41.37 144.001,41.37 L143.221,41.37 C143.091,41.37 143.039,41.435 143.091,41.565 L145.626,48 C145.236,49.04 144.846,49.43 144.196,49.43 L143.936,49.43 C143.806,49.43 143.741,49.495 143.741,49.625 L143.741,50.275 C143.741,50.405 143.806,50.47 143.936,50.47 L144.196,50.47 Z M154.102,48.13 C155.467,48.13 156.182,47.415 156.182,46.115 L156.182,43.255 C156.182,41.955 155.467,41.24 154.102,41.24 L152.477,41.24 C151.112,41.24 150.397,41.955 150.397,43.255 L150.397,46.115 C150.397,47.415 151.112,48.13 152.477,48.13 L154.102,48.13 Z M154.102,47.09 L152.477,47.09 C151.892,47.09 151.502,46.7 151.502,46.115 L151.502,43.255 C151.502,42.67 151.892,42.28 152.477,42.28 L154.102,42.28 C154.687,42.28 155.077,42.67 155.077,43.255 L155.077,46.115 C155.077,46.7 154.687,47.09 154.102,47.09 Z M161.187,48.13 C162.292,48.13 162.617,47.35 162.617,47.35 L162.682,47.35 L162.682,47.805 C162.682,47.935 162.747,48 162.877,48 L163.592,48 C163.722,48 163.787,47.935 163.787,47.805 L163.787,41.565 C163.787,41.435 163.722,41.37 163.592,41.37 L162.877,41.37 C162.747,41.37 162.682,41.435 162.682,41.565 L162.682,45.725 C162.682,46.505 162.097,47.09 161.317,47.09 L160.212,47.09 C159.627,47.09 159.237,46.7 159.237,46.115 L159.237,41.565 C159.237,41.435 159.172,41.37 159.042,41.37 L158.327,41.37 C158.197,41.37 158.132,41.435 158.132,41.565 L158.132,46.115 C158.132,47.415 158.847,48.13 160.212,48.13 L161.187,48.13 Z M171.782,48 C171.912,48 171.977,47.935 171.977,47.805 L171.977,47.155 C171.977,47.025 171.912,46.96 171.782,46.96 L171.002,46.96 C170.482,46.96 170.092,46.57 170.092,46.05 L170.092,42.41 L171.392,42.41 C171.522,42.41 171.587,42.345 171.587,42.215 L171.587,41.565 C171.587,41.435 171.522,41.37 171.392,41.37 L170.092,41.37 L170.092,40.005 C170.092,39.875 170.027,39.81 169.897,39.81 L169.182,39.81 C169.052,39.81 168.987,39.875 168.987,40.005 L168.987,41.37 L168.012,41.37 C167.882,41.37 167.817,41.435 167.817,41.565 L167.817,42.215 C167.817,42.345 167.882,42.41 168.012,42.41 L168.987,42.41 L168.987,46.05 C168.987,47.285 169.702,48 171.002,48 L171.782,48 Z M177.242,48.13 C178.607,48.13 179.322,47.415 179.322,46.115 L179.322,43.255 C179.322,41.955 178.607,41.24 177.242,41.24 L175.617,41.24 C174.252,41.24 173.537,41.955 173.537,43.255 L173.537,46.115 C173.537,47.415 174.252,48.13 175.617,48.13 L177.242,48.13 Z M177.242,47.09 L175.617,47.09 C175.032,47.09 174.642,46.7 174.642,46.115 L174.642,43.255 C174.642,42.67 175.032,42.28 175.617,42.28 L177.242,42.28 C177.827,42.28 178.217,42.67 178.217,43.255 L178.217,46.115 C178.217,46.7 177.827,47.09 177.242,47.09 Z M187.382,48 C187.512,48 187.577,47.935 187.577,47.805 L187.577,42.41 L190.047,42.41 C190.632,42.41 191.022,42.8 191.022,43.385 L191.022,47.805 C191.022,47.935 191.087,48 191.217,48 L191.932,48 C192.062,48 192.127,47.935 192.127,47.805 L192.127,43.385 C192.127,42.085 191.412,41.37 190.047,41.37 L187.577,41.37 L187.577,39.095 C187.577,38.965 187.512,38.9 187.382,38.9 L186.667,38.9 C186.537,38.9 186.472,38.965 186.472,39.095 L186.472,47.805 C186.472,47.935 186.537,48 186.667,48 L187.382,48 Z M195.117,40.005 C195.247,40.005 195.312,39.94 195.312,39.81 L195.312,39.095 C195.312,38.965 195.247,38.9 195.117,38.9 L194.402,38.9 C194.272,38.9 194.207,38.965 194.207,39.095 L194.207,39.81 C194.207,39.94 194.272,40.005 194.402,40.005 L195.117,40.005 Z M195.117,48 C195.247,48 195.312,47.935 195.312,47.805 L195.312,41.565 C195.312,41.435 195.247,41.37 195.117,41.37 L194.402,41.37 C194.272,41.37 194.207,41.435 194.207,41.565 L194.207,47.805 C194.207,47.935 194.272,48 194.402,48 L195.117,48 Z M200.642,48.13 C201.942,48.13 202.592,47.48 202.592,46.245 L202.592,46.05 L202.592,46.05 C202.592,45.27 202.137,44.802 201.552,44.62 L198.692,43.71 C198.432,43.632 198.237,43.45 198.237,43.19 L198.237,43.125 L198.237,43.125 C198.237,42.605 198.562,42.28 199.082,42.28 L200.382,42.28 C200.967,42.28 201.357,42.67 201.357,43.255 L201.357,43.385 C201.357,43.515 201.422,43.58 201.552,43.58 L202.267,43.58 C202.397,43.58 202.462,43.515 202.462,43.385 L202.462,43.255 C202.462,41.955 201.747,41.24 200.382,41.24 L199.082,41.24 C197.782,41.24 197.132,41.89 197.132,43.125 L197.132,43.255 C197.132,44.035 197.587,44.503 198.172,44.685 L201.032,45.595 C201.292,45.673 201.487,45.855 201.487,46.115 L201.487,46.245 L201.487,46.245 C201.487,46.765 201.162,47.09 200.642,47.09 L199.082,47.09 C198.497,47.09 198.107,46.7 198.107,46.115 L198.107,45.985 C198.107,45.855 198.042,45.79 197.912,45.79 L197.197,45.79 C197.067,45.79 197.002,45.855 197.002,45.985 L197.002,46.115 C197.002,47.415 197.717,48.13 199.082,48.13 L200.642,48.13 Z M210.587,48.13 C211.952,48.13 212.667,47.415 212.667,46.115 L212.667,43.255 C212.667,41.955 211.952,41.24 210.587,41.24 L208.962,41.24 C207.597,41.24 206.882,41.955 206.882,43.255 L206.882,46.115 C206.882,47.415 207.597,48.13 208.962,48.13 L210.587,48.13 Z M210.587,47.09 L208.962,47.09 C208.377,47.09 207.987,46.7 207.987,46.115 L207.987,43.255 C207.987,42.67 208.377,42.28 208.962,42.28 L210.587,42.28 C211.172,42.28 211.562,42.67 211.562,43.255 L211.562,46.115 C211.562,46.7 211.172,47.09 210.587,47.09 Z M215.527,48 C215.657,48 215.722,47.935 215.722,47.805 L215.722,43.645 C215.722,42.865 216.307,42.28 217.087,42.28 L217.932,42.28 C218.062,42.28 218.127,42.215 218.127,42.085 L218.127,41.435 C218.127,41.305 218.062,41.24 217.932,41.24 L217.217,41.24 C216.112,41.24 215.787,42.02 215.787,42.02 L215.722,42.02 L215.722,41.565 C215.722,41.435 215.657,41.37 215.527,41.37 L214.812,41.37 C214.682,41.37 214.617,41.435 214.617,41.565 L214.617,47.805 C214.617,47.935 214.682,48 214.812,48 L215.527,48 Z M222.807,48 C222.937,48 223.002,47.935 223.002,47.805 L223.002,42.41 L225.472,42.41 C226.057,42.41 226.447,42.8 226.447,43.385 L226.447,47.805 C226.447,47.935 226.512,48 226.642,48 L227.357,48 C227.487,48 227.552,47.935 227.552,47.805 L227.552,43.385 C227.552,42.085 226.837,41.37 225.472,41.37 L223.002,41.37 L223.002,39.095 C223.002,38.965 222.937,38.9 222.807,38.9 L222.092,38.9 C221.962,38.9 221.897,38.965 221.897,39.095 L221.897,47.805 C221.897,47.935 221.962,48 222.092,48 L222.807,48 Z M233.142,48.13 C234.507,48.13 235.222,47.415 235.222,46.115 L235.222,46.05 C235.222,45.92 235.157,45.855 235.027,45.855 L234.312,45.855 C234.182,45.855 234.117,45.92 234.117,46.05 L234.117,46.115 C234.117,46.7 233.727,47.09 233.142,47.09 L231.582,47.09 C230.997,47.09 230.607,46.7 230.607,46.115 L230.607,45.14 L235.027,45.14 C235.157,45.14 235.222,45.075 235.222,44.945 L235.222,43.255 C235.222,41.955 234.507,41.24 233.142,41.24 L231.582,41.24 C230.217,41.24 229.502,41.955 229.502,43.255 L229.502,46.115 C229.502,47.415 230.217,48.13 231.582,48.13 L233.142,48.13 Z M234.117,44.1 L230.607,44.1 L230.607,43.255 C230.607,42.67 230.997,42.28 231.582,42.28 L233.142,42.28 C233.727,42.28 234.117,42.67 234.117,43.255 L234.117,44.1 Z M238.082,48 C238.212,48 238.277,47.935 238.277,47.805 L238.277,43.645 C238.277,42.865 238.862,42.28 239.642,42.28 L240.487,42.28 C240.617,42.28 240.682,42.215 240.682,42.085 L240.682,41.435 C240.682,41.305 240.617,41.24 240.487,41.24 L239.772,41.24 C238.667,41.24 238.342,42.02 238.342,42.02 L238.277,42.02 L238.277,41.565 C238.277,41.435 238.212,41.37 238.082,41.37 L237.367,41.37 C237.237,41.37 237.172,41.435 237.172,41.565 L237.172,47.805 C237.172,47.935 237.237,48 237.367,48 L238.082,48 Z"/>
    <path fill="#A7ADB9" fill-rule="nonzero" d="M80.47,66 C80.665,66 80.795,65.87 80.795,65.675 L80.795,62.49 L84.305,62.49 C84.5,62.49 84.63,62.36 84.63,62.165 L84.63,61.32 C84.63,61.125 84.5,60.995 84.305,60.995 L80.795,60.995 L80.795,58.395 L85.995,58.395 C86.19,58.395 86.32,58.265 86.32,58.07 L86.32,57.225 C86.32,57.03 86.19,56.9 85.995,56.9 L79.495,56.9 C79.3,56.9 79.17,57.03 79.17,57.225 L79.17,65.675 C79.17,65.87 79.3,66 79.495,66 L80.47,66 Z M88.595,66 C88.79,66 88.92,65.87 88.92,65.675 L88.92,61.71 C88.92,61.06 89.375,60.605 90.025,60.605 L90.935,60.605 C91.13,60.605 91.26,60.475 91.26,60.28 L91.26,59.565 C91.26,59.37 91.13,59.24 90.935,59.24 L90.285,59.24 C89.31,59.24 88.985,60.02 88.985,60.02 L88.92,60.02 L88.92,59.695 C88.92,59.5 88.79,59.37 88.595,59.37 L87.815,59.37 C87.62,59.37 87.49,59.5 87.49,59.695 L87.49,65.675 C87.49,65.87 87.62,66 87.815,66 L88.595,66 Z M93.405,58.33 C93.6,58.33 93.73,58.2 93.73,58.005 L93.73,57.225 C93.73,57.03 93.6,56.9 93.405,56.9 L92.625,56.9 C92.43,56.9 92.3,57.03 92.3,57.225 L92.3,58.005 C92.3,58.2 92.43,58.33 92.625,58.33 L93.405,58.33 Z M93.405,66 C93.6,66 93.73,65.87 93.73,65.675 L93.73,59.695 C93.73,59.5 93.6,59.37 93.405,59.37 L92.625,59.37 C92.43,59.37 92.3,59.5 92.3,59.695 L92.3,65.675 C92.3,65.87 92.43,66 92.625,66 L93.405,66 Z M99.32,66.13 C100.685,66.13 101.4,65.415 101.4,64.115 C101.4,63.92 101.27,63.79 101.075,63.79 L100.295,63.79 C100.1,63.79 99.97,63.92 99.97,64.115 C99.97,64.57 99.71,64.83 99.255,64.83 L97.76,64.83 C97.24,64.83 96.915,64.505 96.915,63.985 L96.915,63.205 L101.075,63.205 C101.27,63.205 101.4,63.075 101.4,62.88 L101.4,61.32 C101.4,59.955 100.685,59.24 99.32,59.24 L97.565,59.24 C96.2,59.24 95.485,59.955 95.485,61.32 L95.485,64.05 C95.485,65.415 96.2,66.13 97.565,66.13 L99.32,66.13 Z M99.97,61.97 L96.915,61.97 L96.915,61.385 C96.915,60.865 97.24,60.54 97.76,60.54 L99.125,60.54 C99.645,60.54 99.97,60.865 99.97,61.385 L99.97,61.97 Z M104.26,66 C104.455,66 104.585,65.87 104.585,65.675 L104.585,61.645 C104.585,60.995 105.04,60.54 105.69,60.54 L106.795,60.54 C107.315,60.54 107.64,60.865 107.64,61.385 L107.64,65.675 C107.64,65.87 107.77,66 107.965,66 L108.745,66 C108.94,66 109.07,65.87 109.07,65.675 L109.07,61.32 C109.07,59.955 108.355,59.24 106.99,59.24 L105.95,59.24 C104.975,59.24 104.65,60.02 104.65,60.02 L104.585,60.02 L104.585,59.695 C104.585,59.5 104.455,59.37 104.26,59.37 L103.48,59.37 C103.285,59.37 103.155,59.5 103.155,59.695 L103.155,65.675 C103.155,65.87 103.285,66 103.48,66 L104.26,66 Z M113.945,66.13 C114.92,66.13 115.245,65.35 115.245,65.35 L115.31,65.35 L115.31,65.675 C115.31,65.87 115.44,66 115.635,66 L116.415,66 C116.61,66 116.74,65.87 116.74,65.675 L116.74,57.225 C116.74,57.03 116.61,56.9 116.415,56.9 L115.635,56.9 C115.44,56.9 115.31,57.03 115.31,57.225 L115.31,59.37 L112.905,59.37 C111.54,59.37 110.825,60.085 110.825,61.45 L110.825,64.05 C110.825,65.415 111.54,66.13 112.905,66.13 L113.945,66.13 Z M114.205,64.83 L113.1,64.83 C112.58,64.83 112.255,64.505 112.255,63.985 L112.255,61.515 C112.255,60.995 112.58,60.67 113.1,60.67 L115.31,60.67 L115.31,63.725 C115.31,64.375 114.855,64.83 114.205,64.83 Z M122.2,66.13 C123.5,66.13 124.15,65.48 124.15,64.18 L124.15,64.05 C124.15,63.205 123.63,62.698 122.98,62.49 L120.315,61.645 C120.055,61.567 119.925,61.385 119.925,61.125 C119.925,60.8 120.185,60.54 120.51,60.54 L121.875,60.54 C122.33,60.54 122.59,60.8 122.59,61.255 L122.59,61.32 C122.59,61.515 122.72,61.645 122.915,61.645 L123.695,61.645 C123.89,61.645 124.02,61.515 124.02,61.32 L124.02,61.19 C124.02,59.89 123.37,59.24 122.07,59.24 L120.445,59.24 C119.145,59.24 118.495,59.89 118.495,61.19 L118.495,61.255 C118.495,62.1 119.015,62.607 119.665,62.815 L122.33,63.66 C122.59,63.738 122.72,63.92 122.72,64.18 C122.72,64.57 122.46,64.83 122.07,64.83 L120.51,64.83 C120.055,64.83 119.795,64.57 119.795,64.115 L119.795,64.05 C119.795,63.855 119.665,63.725 119.47,63.725 L118.69,63.725 C118.495,63.725 118.365,63.855 118.365,64.05 L118.365,64.18 C118.365,65.48 119.015,66.13 120.315,66.13 L122.2,66.13 Z M135.265,66 C135.46,66 135.59,65.87 135.59,65.675 L135.59,64.83 C135.59,64.635 135.46,64.505 135.265,64.505 L130.195,64.505 L130.195,57.225 C130.195,57.03 130.065,56.9 129.87,56.9 L128.895,56.9 C128.7,56.9 128.57,57.03 128.57,57.225 L128.57,65.675 C128.57,65.87 128.7,66 128.895,66 L135.265,66 Z M137.865,58.33 C138.06,58.33 138.19,58.2 138.19,58.005 L138.19,57.225 C138.19,57.03 138.06,56.9 137.865,56.9 L137.085,56.9 C136.89,56.9 136.76,57.03 136.76,57.225 L136.76,58.005 C136.76,58.2 136.89,58.33 137.085,58.33 L137.865,58.33 Z M137.865,66 C138.06,66 138.19,65.87 138.19,65.675 L138.19,59.695 C138.19,59.5 138.06,59.37 137.865,59.37 L137.085,59.37 C136.89,59.37 136.76,59.5 136.76,59.695 L136.76,65.675 C136.76,65.87 136.89,66 137.085,66 L137.865,66 Z M143.585,66.13 C144.885,66.13 145.535,65.48 145.535,64.18 L145.535,64.05 C145.535,63.205 145.015,62.698 144.365,62.49 L141.7,61.645 C141.44,61.567 141.31,61.385 141.31,61.125 C141.31,60.8 141.57,60.54 141.895,60.54 L143.26,60.54 C143.715,60.54 143.975,60.8 143.975,61.255 L143.975,61.32 C143.975,61.515 144.105,61.645 144.3,61.645 L145.08,61.645 C145.275,61.645 145.405,61.515 145.405,61.32 L145.405,61.19 C145.405,59.89 144.755,59.24 143.455,59.24 L141.83,59.24 C140.53,59.24 139.88,59.89 139.88,61.19 L139.88,61.255 C139.88,62.1 140.4,62.607 141.05,62.815 L143.715,63.66 C143.975,63.738 144.105,63.92 144.105,64.18 C144.105,64.57 143.845,64.83 143.455,64.83 L141.895,64.83 C141.44,64.83 141.18,64.57 141.18,64.115 L141.18,64.05 C141.18,63.855 141.05,63.725 140.855,63.725 L140.075,63.725 C139.88,63.725 139.75,63.855 139.75,64.05 L139.75,64.18 C139.75,65.48 140.4,66.13 141.7,66.13 L143.585,66.13 Z M150.54,66 C150.735,66 150.865,65.87 150.865,65.675 L150.865,64.96 C150.865,64.765 150.735,64.635 150.54,64.635 L149.825,64.635 C149.37,64.635 149.11,64.375 149.11,63.92 L149.11,60.67 L150.215,60.67 C150.41,60.67 150.54,60.54 150.54,60.345 L150.54,59.695 C150.54,59.5 150.41,59.37 150.215,59.37 L149.11,59.37 L149.11,58.135 C149.11,57.94 148.98,57.81 148.785,57.81 L148.005,57.81 C147.81,57.81 147.68,57.94 147.68,58.135 L147.68,59.37 L146.9,59.37 C146.705,59.37 146.575,59.5 146.575,59.695 L146.575,60.345 C146.575,60.54 146.705,60.67 146.9,60.67 L147.68,60.67 L147.68,64.05 C147.68,65.35 148.33,66 149.63,66 L150.54,66 Z"/>
    <g transform="translate(286 23)">
      <rect width="155" height="43" x=".5" y=".5" fill="url(#scammer-steam-c)" fill-opacity=".3" stroke="url(#scammer-steam-d)"/>
      <path fill="#FFF" fill-rule="nonzero" d="M43.35,27.15 C45.075,27.15 45.975,26.25 45.975,24.525 L45.975,23.7 C45.975,22.425 45.375,21.825 44.175,21.45 L40.05,20.175 C39.6,20.04 39.375,19.8 39.375,19.425 L39.375,19.275 C39.375,18.75 39.675,18.45 40.2,18.45 L42.6,18.45 C43.125,18.45 43.425,18.75 43.425,19.275 L43.425,19.725 C43.425,19.95 43.575,20.1 43.8,20.1 L45.45,20.1 C45.675,20.1 45.825,19.95 45.825,19.725 L45.825,18.975 C45.825,17.25 44.925,16.35 43.2,16.35 L39.6,16.35 C37.875,16.35 36.975,17.25 36.975,18.975 L36.975,19.65 C36.975,20.925 37.575,21.525 38.775,21.9 L42.9,23.175 C43.35,23.31 43.575,23.55 43.575,23.925 L43.575,24.225 C43.575,24.75 43.275,25.05 42.75,25.05 L39.975,25.05 C39.45,25.05 39.15,24.75 39.15,24.225 L39.15,23.775 C39.15,23.55 39,23.4 38.775,23.4 L37.125,23.4 C36.9,23.4 36.75,23.55 36.75,23.775 L36.75,24.525 C36.75,26.25 37.65,27.15 39.375,27.15 L43.35,27.15 Z M54.75,27.15 C56.475,27.15 57.375,26.25 57.375,24.525 L57.375,23.775 C57.375,23.55 57.225,23.4 57,23.4 L55.35,23.4 C55.125,23.4 54.975,23.55 54.975,23.775 L54.975,24.225 C54.975,24.75 54.675,25.05 54.15,25.05 L51,25.05 C50.475,25.05 50.175,24.75 50.175,24.225 L50.175,19.275 C50.175,18.75 50.475,18.45 51,18.45 L54.15,18.45 C54.675,18.45 54.975,18.75 54.975,19.275 L54.975,19.725 C54.975,19.95 55.125,20.1 55.35,20.1 L57,20.1 C57.225,20.1 57.375,19.95 57.375,19.725 L57.375,18.975 C57.375,17.25 56.475,16.35 54.75,16.35 L50.4,16.35 C48.675,16.35 47.775,17.25 47.775,18.975 L47.775,24.525 C47.775,26.25 48.675,27.15 50.4,27.15 L54.75,27.15 Z M60.57,27 C60.87,27 61.005,26.85 61.095,26.625 L61.77,24.825 L65.82,24.825 L66.495,26.625 C66.585,26.85 66.72,27 67.02,27 L68.895,27 C69.12,27 69.21,26.85 69.12,26.625 L65.445,16.875 C65.355,16.65 65.22,16.5 64.92,16.5 L62.745,16.5 C62.445,16.5 62.235,16.65 62.145,16.875 L58.47,26.625 C58.38,26.85 58.47,27 58.695,27 L60.57,27 Z M65.07,22.725 L62.52,22.725 L63.72,19.5 L63.87,19.5 L65.07,22.725 Z M72.54,27 C72.765,27 72.915,26.85 72.915,26.625 L72.915,20.7 L73.065,20.7 L75.765,26.625 C75.87,26.85 76.065,27 76.365,27 L77.265,27 C77.565,27 77.76,26.85 77.865,26.625 L80.565,20.7 L80.715,20.7 L80.715,26.625 C80.715,26.85 80.865,27 81.09,27 L82.74,27 C82.965,27 83.115,26.85 83.115,26.625 L83.115,16.875 C83.115,16.65 82.965,16.5 82.74,16.5 L80.565,16.5 C80.265,16.5 80.07,16.65 79.965,16.875 L76.89,23.625 L76.74,23.625 L73.665,16.875 C73.56,16.65 73.365,16.5 73.065,16.5 L70.89,16.5 C70.665,16.5 70.515,16.65 70.515,16.875 L70.515,26.625 C70.515,26.85 70.665,27 70.89,27 L72.54,27 Z M87.54,27 C87.765,27 87.915,26.85 87.915,26.625 L87.915,20.7 L88.065,20.7 L90.765,26.625 C90.87,26.85 91.065,27 91.365,27 L92.265,27 C92.565,27 92.76,26.85 92.865,26.625 L95.565,20.7 L95.715,20.7 L95.715,26.625 C95.715,26.85 95.865,27 96.09,27 L97.74,27 C97.965,27 98.115,26.85 98.115,26.625 L98.115,16.875 C98.115,16.65 97.965,16.5 97.74,16.5 L95.565,16.5 C95.265,16.5 95.07,16.65 94.965,16.875 L91.89,23.625 L91.74,23.625 L88.665,16.875 C88.56,16.65 88.365,16.5 88.065,16.5 L85.89,16.5 C85.665,16.5 85.515,16.65 85.515,16.875 L85.515,26.625 C85.515,26.85 85.665,27 85.89,27 L87.54,27 Z M108.84,27 C109.065,27 109.215,26.85 109.215,26.625 L109.215,25.275 C109.215,25.05 109.065,24.9 108.84,24.9 L102.915,24.9 L102.915,22.725 L107.34,22.725 C107.565,22.725 107.715,22.575 107.715,22.35 L107.715,21 C107.715,20.775 107.565,20.625 107.34,20.625 L102.915,20.625 L102.915,18.6 L108.69,18.6 C108.915,18.6 109.065,18.45 109.065,18.225 L109.065,16.875 C109.065,16.65 108.915,16.5 108.69,16.5 L100.89,16.5 C100.665,16.5 100.515,16.65 100.515,16.875 L100.515,26.625 C100.515,26.85 100.665,27 100.89,27 L108.84,27 Z M112.89,27 C113.115,27 113.265,26.85 113.265,26.625 L113.265,23.7 L115.89,23.7 L117.465,26.625 C117.585,26.85 117.765,27 118.065,27 L119.865,27 C120.09,27 120.21,26.85 120.09,26.625 L118.365,23.55 C118.365,23.55 120.015,23.325 120.015,21.075 L120.015,19.125 C120.015,17.4 119.115,16.5 117.39,16.5 L111.24,16.5 C111.015,16.5 110.865,16.65 110.865,16.875 L110.865,26.625 C110.865,26.85 111.015,27 111.24,27 L112.89,27 Z M116.79,21.6 L113.265,21.6 L113.265,18.6 L116.79,18.6 C117.315,18.6 117.615,18.9 117.615,19.425 L117.615,20.775 C117.615,21.3 117.315,21.6 116.79,21.6 Z M123.525,23.775 C123.825,23.775 123.945,23.625 123.975,23.4 L124.35,20.85 L124.35,16.875 C124.35,16.65 124.2,16.5 123.975,16.5 L122.325,16.5 C122.1,16.5 121.95,16.65 121.95,16.875 L121.95,20.85 L122.325,23.4 C122.355,23.625 122.475,23.775 122.775,23.775 L123.525,23.775 Z M123.825,27 C124.05,27 124.2,26.85 124.2,26.625 L124.2,25.35 C124.2,25.125 124.05,24.975 123.825,24.975 L122.475,24.975 C122.25,24.975 122.1,25.125 122.1,25.35 L122.1,26.625 C122.1,26.85 122.25,27 122.475,27 L123.825,27 Z"/>
      <path fill="#FC3B3B" fill-rule="nonzero" d="M0.366116524,0.366116524 C0.854271888,-0.122038841 1.64572811,-0.122038841 2.13388348,0.366116524 L2.13388348,0.366116524 L5.535,3.768 L8.93754509,0.366116524 C9.42570046,-0.122038841 10.2171567,-0.122038841 10.705312,0.366116524 C11.1609237,0.821728197 11.1912978,1.54154862 10.7964344,2.03238813 L10.705312,2.13388348 L7.303,5.535 L10.705312,8.93754509 L10.7964344,9.03904045 C11.1912978,9.52987995 11.1609237,10.2497004 10.705312,10.705312 C10.2171567,11.1934674 9.42570046,11.1934674 8.93754509,10.705312 L8.93754509,10.705312 L5.535,7.303 L2.13388348,10.705312 C1.64572811,11.1934674 0.854271888,11.1934674 0.366116524,10.705312 C-0.0894951502,10.2497004 -0.119869262,9.52987995 0.274994189,9.03904045 L0.366116524,8.93754509 L3.768,5.535 L0.366116524,2.13388348 L0.274994189,2.03238813 C-0.119869262,1.54154862 -0.0894951502,0.821728197 0.366116524,0.366116524 Z" transform="translate(16 16)"/>
    </g>
  </g>
</svg>
