<?xml version="1.0" encoding="UTF-8"?>
<svg width="37px" height="42px" viewBox="0 0 37 42" version="1.1" xmlns="http://www.w3.org/2000/svg" xmlns:xlink="http://www.w3.org/1999/xlink">
    <title>sales-icon</title>
    <defs>
        <linearGradient x1="50%" y1="13.796%" x2="50%" y2="98.385%" id="linearGradient-1">
            <stop stop-color="#DB324D" stop-opacity="0" offset="0%"></stop>
            <stop stop-color="#DB324D" offset="99.392%"></stop>
        </linearGradient>
        <linearGradient x1="50%" y1="100%" x2="50%" y2="43.0285557%" id="linearGradient-2">
            <stop stop-color="#FF294B" offset="0%"></stop>
            <stop stop-color="#FF3A5A" offset="100%"></stop>
        </linearGradient>
    </defs>
    <g id="Page-1" stroke="none" stroke-width="1" fill="none" fill-rule="evenodd">
        <g id="sales-icon">
            <polygon id="Path" fill-opacity="0.52" fill="url(#linearGradient-1)" fill-rule="nonzero" points="18.187 0 36.373 10.5 36.373 31.5 18.187 42 0 31.5 0 10.5"></polygon>
            <path d="M10.0579015,19.3556008 L17.5852605,19.3556008 L17.5852605,17.1296861 L19.1094898,17.1296861 L19.1094898,19.3556008 L26.6368489,19.3556008 L26.6368489,14.8704532 L23.7081276,14.8704532 C24.2633248,13.7712717 24.1788278,12.5127073 23.3948881,11.7287676 C22.9589478,11.2927472 22.3536131,11.0526316 21.6906121,11.0526316 C20.8433998,11.0526316 19.9745627,11.4356311 19.3068363,12.1033575 C18.6813985,12.7288754 18.4364774,13.7450016 18.3474152,14.6014245 C18.258353,13.7450016 18.0134319,12.7287953 17.387914,12.1033575 C16.7202678,11.4356311 15.8513505,11.0526316 15.0042183,11.0526316 C14.3412174,11.0526316 13.7359627,11.2927472 13.2998622,11.7287676 C12.7837499,12.2448799 12.5457167,12.9984648 12.6467927,13.7961803 C12.6934062,14.1638022 12.8083381,14.5274195 12.9830186,14.8704532 L10.0579015,14.8704532 L10.0579015,19.3556008 Z M20.4395763,13.2360975 C20.8036742,12.8719195 21.271411,12.65447 21.6906121,12.65447 C21.8569631,12.65447 22.0912319,12.6904313 22.2623083,12.8615076 C22.6481911,13.2473104 22.4731903,14.0992481 21.8877984,14.6845599 C21.6009092,14.9714491 20.8458827,15.1683952 19.9121711,15.2095624 C19.948693,14.442442 20.105593,13.5700808 20.4395763,13.2360975 Z M14.4325222,12.8615076 C14.6035985,12.6904313 14.8378674,12.65447 15.0042183,12.65447 C15.4234194,12.65447 15.8911562,12.8719195 16.2552541,13.2360975 C16.5922008,13.5730442 16.7481398,14.4370758 16.7833001,15.2095624 C15.8493482,15.1684753 15.0939212,14.9715292 14.807032,14.6845599 C14.4918703,14.3693982 14.2837114,13.9723024 14.2358965,13.5948292 C14.2133106,13.4169451 14.2089055,13.0851242 14.4325222,12.8615076 Z M17.5852605,20.7772323 L17.5852605,28.9466082 L11.1992113,28.9466082 L11.1992113,20.7772323 L17.5852605,20.7772323 Z M19.1095699,28.9466082 L19.1095699,20.7772323 L25.4956191,20.7772323 L25.4956191,28.9466082 L19.1095699,28.9466082 Z" id="Shape" fill="#FFFFFF" fill-rule="nonzero"></path>
            <polygon id="Path" stroke="url(#linearGradient-2)" stroke-width="2" points="18.1865335 1.15470054 1 11.0773503 1 30.9226497 18.1865335 40.8452995 35.373067 30.9226497 35.373067 11.0773503"></polygon>
        </g>
    </g>
</svg>