<svg xmlns="http://www.w3.org/2000/svg" width="172" height="172" viewBox="0 0 172 172">
  <g fill="none" fill-rule="evenodd" stroke="#FFA800">
    <path stroke-opacity=".3" stroke-width="6" d="M22.6971453 38.4180328C37.1358112 19.2758621 60.0517241 6.86079706 85.8663086 6.86079706 129.455766 6.86079706 164.896128 42.3011588 164.896128 85.8906162 164.896128 115.478943 148.543245 141.293527 124.42411 154.857123M85.8663086 164.920435C42.2768513 164.920435 6.83648954 129.480073 6.83648954 85.8906162"/>
    <circle cx="85.866" cy="85.891" r="74.162"/>
    <circle cx="85.866" cy="85.891" r="61.638" stroke-opacity=".5"/>
    <path stroke-opacity=".5" d="M85.8663086,0.0364612776 L85.8663086,49.3807236 L85.8663086,0.0364612776 Z M85.8663086,122.625353 L85.8663086,171.969616 L85.8663086,122.625353 Z M80.1783493,20.7525438 L81.3268796,33.9332956 L80.1783493,20.7525438 Z M90.4057377,137.847937 L91.5542679,151.028689 L90.4057377,137.847937 Z M74.4903901,21.5182306 L76.7874505,34.4802148 L74.4903901,21.5182306 Z M94.8904748,137.246326 L97.1875353,150.263002 L94.8904748,137.246326 Z M68.9118146,22.7214528 L72.3574053,35.4646693 L68.9118146,22.7214528 Z M99.375212,136.261871 L102.766111,149.05978 L99.375212,136.261871 Z M63.4973149,24.4715941 L68.0367439,36.8319672 L63.4973149,24.4715941 Z M103.695873,134.894573 L108.235302,147.309638 L103.695873,134.894573 Z M58.2468909,26.6045789 L63.8254664,38.5821085 L58.2468909,26.6045789 Z M107.907151,133.199124 L113.485726,145.121962 L107.907151,133.199124 Z M53.1605427,29.2844828 L59.7782646,40.7150933 L53.1605427,29.2844828 Z M111.954353,131.066139 L118.572075,142.49675 L111.954353,131.066139 Z M48.347654,32.3472301 L55.9498304,43.1215376 L48.347654,32.3472301 Z M115.782787,128.605003 L123.384963,139.434002 L115.782787,128.605003 Z M43.808225,35.7928208 L52.3401639,45.9108253 L43.808225,35.7928208 Z M119.392453,125.870407 L127.8697,135.988412 L119.392453,125.870407 Z M39.6516393,39.6759469 L48.9492651,48.9735726 L39.6516393,39.6759469 Z M122.72866,122.752968 L132.080978,132.105285 L122.72866,122.752968 Z M35.7685133,43.8872244 L45.8865178,52.3644715 L35.7685133,43.8872244 Z M125.846099,119.416761 L135.964104,127.894008 L125.846099,119.416761 Z M32.3229226,48.3719616 L43.0972301,55.9741379 L32.3229226,48.3719616 Z M128.580695,115.807094 L139.409695,123.409271 L128.580695,115.807094 Z M29.2601752,53.1848502 L40.6907858,59.8025721 L29.2601752,53.1848502 Z M131.041832,111.97866 L142.472442,118.596382 L131.041832,111.97866 Z M26.5802713,58.2711984 L38.557801,63.8497739 L26.5802713,58.2711984 Z M133.120124,107.931458 L145.097654,113.510034 L133.120124,107.931458 Z M24.3925947,63.5216224 L36.8076597,68.0610514 L24.3925947,63.5216224 Z M134.870266,103.720181 L147.285331,108.25961 L134.870266,103.720181 Z M22.6971453,68.990814 L35.4403618,72.3817128 L22.6971453,68.990814 Z M136.237564,99.3995195 L149.035472,102.790418 L136.237564,99.3995195 Z M21.4939231,74.5146976 L34.4559073,76.8117581 L21.4939231,74.5146976 Z M137.222018,94.9694743 L150.238694,97.2665348 L137.222018,94.9694743 Z M20.7282363,80.2026569 L33.8542962,81.3511871 L20.7282363,80.2026569 Z M137.823629,90.4300452 L151.004381,91.5785755 L137.823629,90.4300452 Z M0.0121537592,85.8906162 L49.3564161,85.8906162 L0.0121537592,85.8906162 Z M122.601046,85.8906162 L171.945308,85.8906162 L122.601046,85.8906162 Z M20.7282363,91.5785755 L33.8542962,90.4300452 L20.7282363,91.5785755 Z M137.823629,81.3511871 L151.004381,80.2026569 L137.823629,81.3511871 Z M21.4939231,97.2665348 L34.4559073,94.9694743 L21.4939231,97.2665348 Z M137.222018,76.8117581 L150.238694,74.5146976 L137.222018,76.8117581 Z M22.6971453,102.790418 L35.4403618,99.3995195 L22.6971453,102.790418 Z M136.237564,72.3817128 L149.035472,68.990814 L136.237564,72.3817128 Z M24.3925947,108.25961 L36.8076597,103.720181 L24.3925947,108.25961 Z M134.870266,68.0610514 L147.285331,63.5216224 L134.870266,68.0610514 Z M26.5802713,113.510034 L38.557801,107.931458 L26.5802713,113.510034 Z M133.120124,63.8497739 L145.097654,58.2711984 L133.120124,63.8497739 Z M29.2601752,118.596382 L40.6907858,111.97866 L29.2601752,118.596382 Z M131.041832,59.8025721 L142.472442,53.1848502 L131.041832,59.8025721 Z M32.3229226,123.409271 L43.0972301,115.807094 L32.3229226,123.409271 Z M128.580695,55.9741379 L139.409695,48.3719616 L128.580695,55.9741379 Z M35.7685133,127.894008 L45.8865178,119.416761 L35.7685133,127.894008 Z M125.846099,52.3644715 L135.964104,43.8872244 L125.846099,52.3644715 Z M39.6516393,132.105285 L48.9492651,122.752968 L39.6516393,132.105285 Z M122.72866,48.9735726 L132.080978,39.6759469 L122.72866,48.9735726 Z M43.808225,135.988412 L52.3401639,125.870407 L43.808225,135.988412 Z M119.392453,45.9108253 L127.8697,35.7928208 L119.392453,45.9108253 Z M48.347654,139.434002 L55.9498304,128.605003 L48.347654,139.434002 Z M115.782787,43.1215376 L123.384963,32.3472301 L115.782787,43.1215376 Z M53.1605427,142.49675 L59.7782646,131.066139 L53.1605427,142.49675 Z M111.954353,40.7150933 L118.572075,29.2844828 L111.954353,40.7150933 Z M58.2468909,145.121962 L63.8254664,133.199124 L58.2468909,145.121962 Z M107.907151,38.5821085 L113.485726,26.6045789 L107.907151,38.5821085 Z M63.4973149,147.309638 L68.0367439,134.894573 L63.4973149,147.309638 Z M103.695873,36.8319672 L108.235302,24.4715941 L103.695873,36.8319672 Z M68.9118146,149.05978 L72.3574053,136.261871 L68.9118146,149.05978 Z M99.375212,35.4646693 L102.766111,22.7214528 L99.375212,35.4646693 Z M74.4903901,150.263002 L76.7874505,137.246326 L74.4903901,150.263002 Z M94.8904748,34.4802148 L97.1875353,21.5182306 L94.8904748,34.4802148 Z M80.1783493,151.028689 L81.3268796,137.847937 L80.1783493,151.028689 Z M90.4057377,33.9332956 L91.5542679,20.7525438 L90.4057377,33.9332956 Z"/>
    <path stroke-opacity=".5" stroke-width="6" d="M123.822499,87.8595252 C122.72866,108.806529 104.899096,124.940644 83.8973997,123.846806 C62.9503957,122.752968 46.8162804,104.923403 47.9101187,83.9217072 C49.003957,62.9747032 66.8335218,46.8405879 87.8352176,47.9344262" transform="rotate(45 85.84 85.89)"/>
  </g>
</svg>
