<svg xmlns="http://www.w3.org/2000/svg" width="22" height="22" viewBox="0 0 22 22">
  <path fill="#1877F2" fill-rule="evenodd" d="M22,11 C22,4.92486328 17.0751367,0 11,0 C4.92486328,0 0,4.92486328 0,11 C0,16.490418 4.02254102,21.0411523 9.28125,21.8663672 L9.28125,14.1796875 L6.48828125,14.1796875 L6.48828125,11 L9.28125,11 L9.28125,8.5765625 C9.28125,5.8196875 10.9234727,4.296875 13.4361133,4.296875 C14.6396035,4.296875 15.8984375,4.51171875 15.8984375,4.51171875 L15.8984375,7.21875 L14.5113633,7.21875 C13.1448926,7.21875 12.71875,8.06667383 12.71875,8.93657617 L12.71875,11 L15.7695312,11 L15.2818359,14.1796875 L12.71875,14.1796875 L12.71875,21.8663672 C17.977459,21.0411523 22,16.490418 22,11"/>
</svg>
