<?xml version="1.0" encoding="UTF-8"?>
<svg width="20px" height="20px" viewBox="0 0 20 20" version="1.1" xmlns="http://www.w3.org/2000/svg" xmlns:xlink="http://www.w3.org/1999/xlink">
    <title>icon_tiktok_nocolor</title>
    <g id="Page-1" stroke="none" stroke-width="1" fill="none" fill-rule="evenodd">
        <g id="icon_tiktok_nocolor" fill="#01F6EF">
            <path d="M20,10 C20,15.5228 15.5228,20 10,20 C4.47715,20 0,15.5228 0,10 C0,4.47715 4.47715,0 10,0 C15.5228,0 20,4.47715 20,10 Z M15.9999962,8.63958 L15.9999962,7.0202 L15.9999962,6.41936 L15.9936,6.41988 C15.2129,6.41988 14.4926,6.16125 13.9141,5.72495 C13.2507,5.22479 12.774,4.49114 12.6057,3.6455 C12.5641,3.43658 12.5416,3.22097 12.5395,3 L10.3094,3 L10.3094,9.09386 L10.3067,12.4317 C10.3067,13.3241 9.72558,14.0807 8.92002,14.3468 C8.68625,14.424 8.43378,14.4607 8.17086,14.4462 C7.83528,14.4278 7.52083,14.3265 7.24748,14.163 C6.66585,13.8152 6.2715,13.1841 6.2608,12.4622 C6.24394,11.3338 7.1561,10.414 8.28359,10.414 C8.50615,10.414 8.71988,10.4503 8.92002,10.5163 L8.92002,8.85069 L8.92002,8.25196 C8.70895,8.22071 8.49414,8.2044 8.27691,8.2044 C7.04281,8.2044 5.8886,8.71736 5.06357,9.64153 C4.43998,10.3399 4.06591,11.231 4.00821,12.1653 C3.93258,13.3927 4.38172,14.5594 5.25273,15.4203 C5.38069,15.5467 5.5151,15.664 5.65562,15.7722 C6.4024,16.3469 7.31532,16.6584 8.27691,16.6584 C8.49414,16.6584 8.70895,16.6424 8.92002,16.6111 C9.81831,16.478 10.6471,16.0669 11.3011,15.4203 C12.1048,14.6259 12.5489,13.5714 12.5537,12.449 L12.5422,7.46453 C12.9256,7.7603 13.3448,8.00506 13.7947,8.19501 C14.4945,8.49022 15.2364,8.63986 15.9999962,8.63958 Z" id="Shape"></path>
        </g>
    </g>
</svg>