<svg xmlns="http://www.w3.org/2000/svg" width="21" height="20" viewBox="0 0 21 20">
  <path fill="#FFF" d="M76.6666667,20 C71.1438192,20 66.6666667,15.5228475 66.6666667,10 C66.6666667,4.4771525 71.1438192,0 76.6666667,0 C82.1895142,0 86.6666667,4.4771525 86.6666667,10 C86.6666667,15.5228475 82.1895142,20 76.6666667,20 Z M82.7941088,13.4040783 C82.757153,13.3408151 82.5285424,12.8329529 81.4284617,11.7891115 C80.2768146,10.6960655 80.4315135,10.8735537 81.8186466,8.98356816 C82.6634742,7.83253094 83.0012334,7.12960745 82.8955225,6.82910766 C82.7949682,6.54266634 82.1735945,6.61823061 82.1735945,6.61823061 L80.1075053,6.63053177 C80.1075053,6.63053177 79.9545254,6.60944407 79.8402201,6.67885776 C79.7293526,6.7473928 79.6580192,6.90555059 79.6580192,6.90555059 C79.6580192,6.90555059 79.3305733,7.79650611 78.8939788,8.55390617 C77.9735206,10.1521785 77.6048216,10.2365293 77.45442,10.1372413 C77.1046287,9.90615524 77.1922914,9.20762502 77.1922914,8.71206396 C77.1922914,7.16299632 77.4217613,6.51718536 76.7445241,6.35024103 C76.5193513,6.29488581 76.3543392,6.25798232 75.7793752,6.25183174 C75.0419773,6.24392385 74.4171658,6.2544677 74.0639367,6.43107723 C73.8284507,6.54881692 73.6471093,6.81153457 73.7579768,6.8264717 C73.8946274,6.84492344 74.2040251,6.91170117 74.3681778,7.1401513 C74.580459,7.43450051 74.5727241,8.0970059 74.5727241,8.0970059 C74.5727241,8.0970059 74.6947643,9.92021371 74.2882501,10.1469065 C74.0089327,10.3024284 73.6264828,9.98523413 72.8057194,8.53457578 C72.3854542,7.79211284 72.0674621,6.97057101 72.0674621,6.97057101 C72.0674621,6.97057101 72.006442,6.81768515 71.8972933,6.7359703 C71.7649399,6.63668235 71.5793012,6.6050508 71.5793012,6.6050508 L69.6146258,6.61735196 C69.6146258,6.61735196 69.3198385,6.6261385 69.2115493,6.757058 C69.1152923,6.87391903 69.2038144,7.11467033 69.2038144,7.11467033 C69.2038144,7.11467033 70.7422085,10.7935961 72.4834301,12.6484355 C74.0811255,14.3486317 75.8945399,14.2370426 75.8945399,14.2370426 L76.7161627,14.2370426 C76.7161627,14.2370426 76.9645403,14.2089257 77.0908777,14.0692196 C77.2077613,13.9409361 77.2034641,13.7001848 77.2034641,13.7001848 C77.2034641,13.7001848 77.1871347,12.5728712 77.6993598,12.4068056 C78.20385,12.2433758 78.8518663,13.496337 79.5385573,13.9787182 C80.0576579,14.3433598 80.45214,14.2634022 80.45214,14.2634022 L82.2887592,14.2370426 C82.2887592,14.2370426 83.249611,14.1764154 82.7941088,13.4040783 Z" transform="translate(-66)"/>
</svg>
