<svg xmlns="http://www.w3.org/2000/svg" width="20" height="20" viewBox="0 0 20 20">
  <g fill="none" fill-rule="evenodd">
    <circle cx="10" cy="10" r="10" fill="#FFF" fill-rule="nonzero"/>
    <path fill="#130F27" d="M13.6689109,3.00293853 L11.7575101,3 C9.61011694,3 8.22237713,4.36421101 8.22237713,6.47568936 L8.22237713,8.07821488 L6.30054917,8.07821488 C6.13448042,8.07821488 6,8.2072162 6,8.36633742 L6,10.6882143 C6,10.8473355 6.13463376,10.9761899 6.30054917,10.9761899 L8.22237713,10.9761899 L8.22237713,16.8350244 C8.22237713,16.9941456 8.35685755,17.123 8.5229263,17.123 L11.0303651,17.123 C11.1964339,17.123 11.3309143,16.9939987 11.3309143,16.8350244 L11.3309143,10.9761899 L13.5779794,10.9761899 C13.7440481,10.9761899 13.8785286,10.8473355 13.8785286,10.6882143 L13.8794486,8.36633742 C13.8794486,8.28993573 13.8477069,8.21676641 13.7914306,8.16269752 C13.7351543,8.10862863 13.6584836,8.07821488 13.5787461,8.07821488 L11.3309143,8.07821488 L11.3309143,6.719734 C11.3309143,6.06679337 11.4933029,5.73532756 12.3809963,5.73532756 L13.6686042,5.73488678 C13.8345196,5.73488678 13.969,5.60588546 13.969,5.44691117 L13.969,3.29091414 C13.969,3.13208677 13.8346729,3.00323238 13.6689109,3.00293853 Z"/>
  </g>
</svg>
