<svg xmlns="http://www.w3.org/2000/svg" width="20" height="20" viewBox="0 0 20 20">
  <g fill="none" fill-rule="evenodd">
    <circle cx="10" cy="10" r="10" fill="#FFF" fill-rule="nonzero"/>
    <path fill="#131027" d="M6.66673607,0 C4.85631253,0 4.62910688,0.0079160894 3.91804762,0.0402748408 C3.20837715,0.072772471 2.72396803,0.185125389 2.30011005,0.349974479 C1.8616698,0.52023984 1.48975247,0.748001009 1.11922394,1.11866842 C0.748417646,1.48919696 0.520656477,1.86111428 0.3498356,2.29941565 C0.184569874,2.72341251 0.0720780772,3.20796051 0.0401359621,3.91735322 C0.00833272569,4.62841248 0,4.85575702 0,6.66618055 C0,8.47660408 0.00805496817,8.70311534 0.0402748408,9.4141746 C0.0729113498,10.1238451 0.185264268,10.6082542 0.349974479,11.0321122 C0.520378719,11.4705524 0.748139888,11.8424697 1.1188073,12.2129983 C1.48919696,12.5838046 1.86111428,12.8121213 2.29927677,12.9823866 C2.72341251,13.1472357 3.20796051,13.2595886 3.9174921,13.2920863 C4.62855136,13.324445 4.85561814,13.3323611 6.66590279,13.3323611 C8.47646521,13.3323611 8.70297647,13.324445 9.41403572,13.2920863 C10.1237062,13.2595886 10.6086708,13.1472357 11.0328066,12.9823866 C11.4711079,12.8121213 11.8424697,12.5838046 12.2128594,12.2129983 C12.5836657,11.8424697 12.8114269,11.4705524 12.9822477,11.0322511 C13.1461247,10.6082542 13.2586165,10.1237062 13.2919474,9.41431348 C13.3238895,8.70325422 13.3322222,8.47660408 13.3322222,6.66618055 C13.3322222,4.85575702 13.3238895,4.62855136 13.2919474,3.9174921 C13.2586165,3.20782163 13.1461247,2.72341251 12.9822477,2.29955453 C12.8114269,1.86111428 12.5836657,1.48919696 12.2128594,1.11866842 C11.8420531,0.747862131 11.4712468,0.520100962 11.0323899,0.349974479 C10.6074209,0.185125389 10.122734,0.072772471 9.41306357,0.0402748408 C8.70200431,0.0079160894 8.47563193,1.9735859e-15 6.66465288,1.9735859e-15 L6.66673607,0 Z M10.6666667,1.55594136 C10.0532407,1.55594136 9.55555556,2.05304784 9.55555556,2.66666667 C9.55555556,3.28009259 10.0532407,3.77777778 10.6666667,3.77777778 C11.2800926,3.77777778 11.7777778,3.28009259 11.7777778,2.66666667 C11.7777778,2.05324074 11.2800926,1.55555556 10.6666667,1.55555556 L10.6666667,1.55594136 Z M6.66673607,3.24281908 C4.77617949,3.24281908 3.2433746,4.77562397 3.2433746,6.66618055 C3.2433746,8.55673713 4.77617949,10.0888476 6.66673607,10.0888476 C8.55729265,10.0888476 10.089542,8.55673713 10.089542,6.66618055 C10.089542,4.77562397 8.55715377,3.24281908 6.66659719,3.24281908 L6.66673607,3.24281908 Z M6.66673607,4.44412037 C7.8938688,4.44412037 8.88879625,5.43890894 8.88879625,6.66618055 C8.88879625,7.89331329 7.8938688,8.88824073 6.66673607,8.88824073 C5.43946445,8.88824073 4.44467588,7.89331329 4.44467588,6.66618055 C4.44467588,5.43890894 5.43946445,4.44412037 6.66673607,4.44412037 Z" transform="translate(3.333 3.333)"/>
  </g>
</svg>
