<svg xmlns="http://www.w3.org/2000/svg" width="21" height="20" viewBox="0 0 21 20">
  <g fill="none">
    <circle cx="10.667" cy="10" r="10" fill="#4A76A8"/>
    <path fill="#FFF" d="M16.7941088,13.4040783 C16.757153,13.3408151 16.5285424,12.8329529 15.4284617,11.7891115 C14.2768146,10.6960655 14.4315135,10.8735537 15.8186466,8.98356816 C16.6634742,7.83253094 17.0012334,7.12960745 16.8955225,6.82910766 C16.7949682,6.54266634 16.1735945,6.61823061 16.1735945,6.61823061 L14.1075053,6.63053177 C14.1075053,6.63053177 13.9545254,6.60944407 13.8402201,6.67885776 C13.7293526,6.7473928 13.6580192,6.90555059 13.6580192,6.90555059 C13.6580192,6.90555059 13.3305733,7.79650611 12.8939788,8.55390617 C11.9735206,10.1521785 11.6048216,10.2365293 11.45442,10.1372413 C11.1046287,9.90615524 11.1922914,9.20762502 11.1922914,8.71206396 C11.1922914,7.16299632 11.4217613,6.51718536 10.7445241,6.35024103 C10.5193513,6.29488581 10.3543392,6.25798232 9.77937516,6.25183174 C9.04197728,6.24392385 8.41716579,6.2544677 8.06393674,6.43107723 C7.8284507,6.54881692 7.64710927,6.81153457 7.75797678,6.8264717 C7.89462744,6.84492344 8.20402515,6.91170117 8.36817782,7.1401513 C8.58045903,7.43450051 8.57272409,8.0970059 8.57272409,8.0970059 C8.57272409,8.0970059 8.69476429,9.92021371 8.28825008,10.1469065 C8.0089327,10.3024284 7.62648275,9.98523413 6.80571938,8.53457578 C6.38545416,7.79211284 6.06746207,6.97057101 6.06746207,6.97057101 C6.06746207,6.97057101 6.00644197,6.81768515 5.89729333,6.7359703 C5.76493986,6.63668235 5.57930124,6.6050508 5.57930124,6.6050508 L3.61462578,6.61735196 C3.61462578,6.61735196 3.31983852,6.6261385 3.21154932,6.757058 C3.11529225,6.87391903 3.20381437,7.11467033 3.20381437,7.11467033 C3.20381437,7.11467033 4.74220854,10.7935961 6.4834301,12.6484355 C8.0811255,14.3486317 9.89453986,14.2370426 9.89453986,14.2370426 L10.7161627,14.2370426 C10.7161627,14.2370426 10.9645403,14.2089257 11.0908777,14.0692196 C11.2077613,13.9409361 11.2034641,13.7001848 11.2034641,13.7001848 C11.2034641,13.7001848 11.1871347,12.5728712 11.6993598,12.4068056 C12.20385,12.2433758 12.8518663,13.496337 13.5385573,13.9787182 C14.0576579,14.3433598 14.45214,14.2634022 14.45214,14.2634022 L16.2887592,14.2370426 C16.2887592,14.2370426 17.249611,14.1764154 16.7941088,13.4040783 Z"/>
  </g>
</svg>
