<svg xmlns="http://www.w3.org/2000/svg" width="22" height="22" viewBox="0 0 22 22">
  <g fill="none">
    <circle cx="11" cy="11" r="11" fill="#FF5700"/>
    <path fill="#FFF" d="M18,10.8674 C18,9.99200002 17.3046666,9.28040001 16.4500834,9.28040001 C16.033,9.28040001 15.655,9.45200002 15.37675,9.72800001 C14.3209166,9.01340001 12.8923334,8.55860001 11.3103334,8.50040001 L12.1754166,5.69900001 L14.5180834,6.2636 L14.5145834,6.29840001 C14.5145834,7.01420001 15.0833334,7.59620001 15.78275,7.59620001 C16.4815834,7.59620001 17.04975,7.01420001 17.04975,6.29840001 C17.04975,5.5826 16.481,5 15.78275,5 C15.2460834,5 14.78875,5.3444 14.6038334,5.8274 L12.0785834,5.2184 C11.9683334,5.1908 11.8563334,5.2562 11.8219166,5.3678 L10.8570834,8.49200001 C9.20158334,8.51240001 7.70183334,8.97080001 6.59875,9.70700001 C6.32225,9.44420001 5.95533334,9.27980001 5.54933334,9.27980001 C4.69475,9.27980001 4,9.99200002 4,10.8674 C4,11.4494 4.31091666,11.9540001 4.76825,12.23 C4.73791666,12.3992 4.71808334,12.5702 4.71808334,12.7442001 C4.71808334,15.0908 7.52275,17 10.9708334,17 C14.4189166,17 17.2241666,15.0908 17.2241666,12.7442001 C17.2241666,12.5798 17.20725,12.4178 17.1804166,12.2582001 C17.66575,11.9900001 18,11.471 18,10.8674 Z M7.95266666,11.957 C7.95266666,11.4362 8.36683334,11.012 8.8755,11.012 C9.38416666,11.012 9.79775,11.4362 9.79775,11.957 C9.79775,12.4778001 9.38416666,12.9014 8.8755,12.9014 C8.36683334,12.9014 7.95266666,12.4778001 7.95266666,11.957 L7.95266666,11.957 Z M13.23825,14.7584001 C12.7733334,15.2342 12.0435834,15.4658001 11.0075834,15.4658001 L11,15.4640001 L10.9924166,15.4658001 C9.95583334,15.4658001 9.22608334,15.2342 8.76175,14.7584001 C8.67716666,14.6720001 8.67716666,14.531 8.76175,14.4446 C8.84633334,14.3576 8.984,14.3576 9.06858334,14.4446 C9.44775,14.8328 10.0771667,15.0212001 10.9924166,15.0212001 L11,15.0230001 L11.0075834,15.0212001 C11.9228334,15.0212001 12.55225,14.8322001 12.9314166,14.444 C13.016,14.3570001 13.1536666,14.3576 13.23825,14.444 C13.3228334,14.531 13.3228334,14.6714 13.23825,14.7584001 Z M13.128,12.9014 C12.6193334,12.9014 12.20575,12.4778001 12.20575,11.957 C12.20575,11.4362 12.6193334,11.012 13.128,11.012 C13.6366666,11.012 14.05025,11.4362 14.05025,11.957 C14.05025,12.4778001 13.6366666,12.9014 13.128,12.9014 Z"/>
  </g>
</svg>
