<svg xmlns="http://www.w3.org/2000/svg" width="21" height="20" viewBox="0 0 21 20">
  <g fill="none" fill-rule="evenodd">
    <circle cx="10.333" cy="10" r="10" fill="#FFF"/>
    <path fill="#131027" d="M15.8250523,6.27964112 C15.5806495,6.40992986 15.3269405,6.51271642 15.0666071,6.58713028 C15.3534646,6.25942557 15.5691441,5.84953675 15.6908225,5.39202692 C15.7255533,5.26141576 15.6075491,5.14847306 15.5094447,5.21840533 C15.1472791,5.4766614 14.7571679,5.67040182 14.3499193,5.7943067 C14.3262917,5.8014966 14.3019131,5.80513991 14.277454,5.80513991 C14.2032723,5.80513991 14.1311557,5.77202768 14.0744332,5.71192914 C13.6411432,5.25283947 13.0838684,5 12.5052991,5 C12.2549425,5 12.0021721,5.04691168 11.7539879,5.13944538 C10.9850296,5.42617089 10.3917098,6.18871951 10.2055582,7.12953252 C10.1357212,7.48241801 10.1168137,7.83562591 10.1493185,8.17932251 C10.1530463,8.21881861 10.137518,8.24638526 10.1279436,8.25931419 C10.111128,8.28198011 10.0872858,8.29497352 10.0625317,8.29497352 C10.0597694,8.29497352 10.0569265,8.29481231 10.0541105,8.29448989 C8.37088788,8.1064885 6.85303203,7.13159599 5.78013247,5.54943093 C5.72542143,5.46872994 5.62050497,5.47862814 5.57689706,5.56855027 C5.36679594,6.00187881 5.25576472,6.49749834 5.25576472,7.00182312 C5.25576472,7.77472133 5.51405982,8.50309374 5.96271715,9.03408242 C5.77404453,8.98030325 5.59143303,8.89560428 5.42180199,8.78233917 C5.33973543,8.72752826 5.23876138,8.79797639 5.23760816,8.91082237 C5.22586138,10.059014 5.78504038,11.0806893 6.62270928,11.5407462 C6.60584005,11.5412298 6.58897081,11.5414555 6.57207475,11.5414555 C6.43929321,11.5414555 6.30484888,11.526044 6.17252326,11.49564 C6.08010452,11.474425 6.00246311,11.5798231 6.03115959,11.6875427 C6.303052,12.708025 7.0339271,13.460224 7.90855278,13.6310083 C7.18266604,14.2168079 6.33735367,14.5258124 5.4575519,14.5258124 L5.18327259,14.525619 C5.09876549,14.525619 5.02729249,14.5918434 5.00575673,14.6902451 C4.98454279,14.7871637 5.02361827,14.8894022 5.09568129,14.9397959 C6.08707749,15.6334118 7.21790638,16 8.36640908,16 C9.37172441,16 10.3121106,15.7601539 11.1614727,15.2871681 C11.9401127,14.8535494 12.6281844,14.2337025 13.2065659,13.4448447 C13.7453624,12.7099917 14.166691,11.8616801 14.458805,10.9235109 C14.7372681,10.0292227 14.8844516,9.07499714 14.8844516,8.16397546 L14.8844516,8.12057812 C14.8844247,7.9742975 14.9394576,7.83665765 15.0354701,7.74296325 C15.3998081,7.38733722 15.7170785,6.96871089 15.978431,6.49872352 C16.0474366,6.37462519 15.9386045,6.21909119 15.8250523,6.27964112 Z"/>
  </g>
</svg>
