<svg xmlns="http://www.w3.org/2000/svg" width="21" height="20" viewBox="0 0 21 20">
  <g fill="none" transform="translate(.333)">
    <circle cx="10" cy="10" r="10" fill="#FFF"/>
    <path fill="#131027" d="M16.8625,5.99375 C16.455625,5.27 16.0140625,5.136875 15.115,5.08625 C14.216875,5.0253125 11.9584375,5 10.001875,5 C8.0415625,5 5.7821875,5.0253125 4.885,5.0853125 C3.9878125,5.136875 3.5453125,5.2690625 3.1346875,5.99375 C2.715625,6.7165625 2.5,7.9615625 2.5,10.1534375 C2.5,10.1553125 2.5,10.15625 2.5,10.15625 C2.5,10.158125 2.5,10.1590625 2.5,10.1590625 L2.5,10.1609375 C2.5,12.3434375 2.715625,13.5978125 3.1346875,14.313125 C3.5453125,15.036875 3.986875,15.168125 4.8840625,15.2290625 C5.7821875,15.2815625 8.0415625,15.3125 10.001875,15.3125 C11.9584375,15.3125 14.216875,15.2815625 15.1159375,15.23 C16.015,15.1690625 16.4565625,15.0378125 16.8634375,14.3140625 C17.28625,13.59875 17.5,12.344375 17.5,10.161875 C17.5,10.161875 17.5,10.1590625 17.5,10.1571875 C17.5,10.1571875 17.5,10.1553125 17.5,10.154375 C17.5,7.9615625 17.28625,6.7165625 16.8625,5.99375 Z M8.125,12.96875 L8.125,7.34375 L12.8125,10.15625 L8.125,12.96875 Z"/>
  </g>
</svg>
