<svg xmlns="http://www.w3.org/2000/svg" width="22" height="18" viewBox="0 0 22 18">
  <path fill="#1DA1F2" d="M6.91856,17.91592 C15.22048,17.91592 19.76128,11.03784 19.76128,5.0732 C19.76128,4.87784 19.76128,4.68336 19.74808,4.48976 C20.6314516,3.85080155 21.3939928,3.05965387 22,2.15336 C21.1762136,2.51838556 20.3023298,2.75776921 19.40752,2.86352 C20.3497747,2.29942421 21.0549887,1.41219935 21.39192,0.36696 C20.5058986,0.892720677 19.5365686,1.26325058 18.52576,1.46256 C17.1266328,-0.0251730346 14.903433,-0.389300926 13.1028034,0.574358336 C11.3021737,1.5380176 10.371922,3.58980664 10.83368,5.5792 C7.20446825,5.39725959 3.82313869,3.68308448 1.5312,0.86328 C0.333188026,2.92568736 0.945109338,5.56411634 2.92864,6.88864 C2.21033226,6.86735064 1.50768585,6.6735796 0.88,6.32368 C0.88,6.34216 0.88,6.36152 0.88,6.38088 C0.880587957,8.52948182 2.39514131,10.3800709 4.5012,10.80552 C3.83668524,10.9867472 3.13947092,11.013239 2.46312,10.88296 C3.05443418,12.7216521 4.74898561,13.9812498 6.68008,14.01752 C5.08176683,15.2736601 3.10733237,15.9555684 1.07448,15.95352 C0.715355141,15.9528306 0.356579577,15.9310866 0,15.8884 C2.06415964,17.2130434 4.46592379,17.9156709 6.91856,17.9124"/>
</svg>
