<svg xmlns="http://www.w3.org/2000/svg" width="488" height="488" viewBox="0 0 488 488">
  <g fill="none" fill-rule="evenodd" stroke="#63ADF2" transform="translate(-1 -1)">
    <path stroke-opacity=".2" stroke-width="6" d="M65.3965517 110C106.362069 55.6896552 171.37931 20.4655172 244.62069 20.4655172 368.293103 20.4655172 468.844828 121.017241 468.844828 244.689655 468.844828 328.637931 422.448276 401.87931 354.017241 440.362069M244.62069 468.913793C120.948276 468.913793 20.3965517 368.362069 20.3965517 244.689655"/>
    <circle cx="244.621" cy="244.69" r="210.414"/>
    <circle cx="244.621" cy="244.69" r="174.879" stroke-opacity=".4"/>
    <path stroke-opacity=".4" d="M244.62069,1.10344828 L244.62069,141.103448 L244.62069,1.10344828 Z M244.62069,348.913793 L244.62069,488.913793 L244.62069,348.913793 Z M228.482759,59.8793103 L231.741379,97.2758621 L228.482759,59.8793103 Z M257.5,392.103448 L260.758621,429.5 L257.5,392.103448 Z M212.344828,62.0517241 L218.862069,98.8275862 L212.344828,62.0517241 Z M270.224138,390.396552 L276.741379,427.327586 L270.224138,390.396552 Z M196.517241,65.4655172 L206.293103,101.62069 L196.517241,65.4655172 Z M282.948276,387.603448 L292.568966,423.913793 L282.948276,387.603448 Z M181.155172,70.4310345 L194.034483,105.5 L181.155172,70.4310345 Z M295.206897,383.724138 L308.086207,418.948276 L295.206897,383.724138 Z M166.258621,76.4827586 L182.086207,110.465517 L166.258621,76.4827586 Z M307.155172,378.913793 L322.982759,412.741379 L307.155172,378.913793 Z M151.827586,84.0862069 L170.603448,116.517241 L151.827586,84.0862069 Z M318.637931,372.862069 L337.413793,405.293103 L318.637931,372.862069 Z M138.172414,92.7758621 L159.741379,123.344828 L138.172414,92.7758621 Z M329.5,365.87931 L351.068966,396.603448 L329.5,365.87931 Z M125.293103,102.551724 L149.5,131.258621 L125.293103,102.551724 Z M339.741379,358.12069 L363.793103,386.827586 L339.741379,358.12069 Z M113.5,113.568966 L139.87931,139.948276 L113.5,113.568966 Z M349.206897,349.275862 L375.741379,375.810345 L349.206897,349.275862 Z M102.482759,125.517241 L131.189655,149.568966 L102.482759,125.517241 Z M358.051724,339.810345 L386.758621,363.862069 L358.051724,339.810345 Z M92.7068966,138.241379 L123.275862,159.810345 L92.7068966,138.241379 Z M365.810345,329.568966 L396.534483,351.137931 L365.810345,329.568966 Z M84.0172414,151.896552 L116.448276,170.672414 L84.0172414,151.896552 Z M372.793103,318.706897 L405.224138,337.482759 L372.793103,318.706897 Z M76.4137931,166.327586 L110.396552,182.155172 L76.4137931,166.327586 Z M378.689655,307.224138 L412.672414,323.051724 L378.689655,307.224138 Z M70.2068966,181.224138 L105.431034,194.103448 L70.2068966,181.224138 Z M383.655172,295.275862 L418.87931,308.155172 L383.655172,295.275862 Z M65.3965517,196.741379 L101.551724,206.362069 L65.3965517,196.741379 Z M387.534483,283.017241 L423.844828,292.637931 L387.534483,283.017241 Z M61.9827586,212.413793 L98.7586207,218.931034 L61.9827586,212.413793 Z M390.327586,270.448276 L427.258621,276.965517 L390.327586,270.448276 Z M59.8103448,228.551724 L97.0517241,231.810345 L59.8103448,228.551724 Z M392.034483,257.568966 L429.431034,260.827586 L392.034483,257.568966 Z M1.03448276,244.689655 L141.034483,244.689655 L1.03448276,244.689655 Z M348.844828,244.689655 L488.844828,244.689655 L348.844828,244.689655 Z M59.8103448,260.827586 L97.0517241,257.568966 L59.8103448,260.827586 Z M392.034483,231.810345 L429.431034,228.551724 L392.034483,231.810345 Z M61.9827586,276.965517 L98.7586207,270.448276 L61.9827586,276.965517 Z M390.327586,218.931034 L427.258621,212.413793 L390.327586,218.931034 Z M65.3965517,292.637931 L101.551724,283.017241 L65.3965517,292.637931 Z M387.534483,206.362069 L423.844828,196.741379 L387.534483,206.362069 Z M70.2068966,308.155172 L105.431034,295.275862 L70.2068966,308.155172 Z M383.655172,194.103448 L418.87931,181.224138 L383.655172,194.103448 Z M76.4137931,323.051724 L110.396552,307.224138 L76.4137931,323.051724 Z M378.689655,182.155172 L412.672414,166.327586 L378.689655,182.155172 Z M84.0172414,337.482759 L116.448276,318.706897 L84.0172414,337.482759 Z M372.793103,170.672414 L405.224138,151.896552 L372.793103,170.672414 Z M92.7068966,351.137931 L123.275862,329.568966 L92.7068966,351.137931 Z M365.810345,159.810345 L396.534483,138.241379 L365.810345,159.810345 Z M102.482759,363.862069 L131.189655,339.810345 L102.482759,363.862069 Z M358.051724,149.568966 L386.758621,125.517241 L358.051724,149.568966 Z M113.5,375.810345 L139.87931,349.275862 L113.5,375.810345 Z M349.206897,139.948276 L375.741379,113.568966 L349.206897,139.948276 Z M125.293103,386.827586 L149.5,358.12069 L125.293103,386.827586 Z M339.741379,131.258621 L363.793103,102.551724 L339.741379,131.258621 Z M138.172414,396.603448 L159.741379,365.87931 L138.172414,396.603448 Z M329.5,123.344828 L351.068966,92.7758621 L329.5,123.344828 Z M151.827586,405.293103 L170.603448,372.862069 L151.827586,405.293103 Z M318.637931,116.517241 L337.413793,84.0862069 L318.637931,116.517241 Z M166.258621,412.741379 L182.086207,378.913793 L166.258621,412.741379 Z M307.155172,110.465517 L322.982759,76.4827586 L307.155172,110.465517 Z M181.155172,418.948276 L194.034483,383.724138 L181.155172,418.948276 Z M295.206897,105.5 L308.086207,70.4310345 L295.206897,105.5 Z M196.517241,423.913793 L206.293103,387.603448 L196.517241,423.913793 Z M282.948276,101.62069 L292.568966,65.4655172 L282.948276,101.62069 Z M212.344828,427.327586 L218.862069,390.396552 L212.344828,427.327586 Z M270.224138,98.8275862 L276.741379,62.0517241 L270.224138,98.8275862 Z M228.482759,429.5 L231.741379,392.103448 L228.482759,429.5 Z M257.5,97.2758621 L260.758621,59.8793103 L257.5,97.2758621 Z"/>
    <path stroke-width="6" d="M352.310345,250.275862 C349.206897,309.706897 298.62069,355.482759 239.034483,352.37931 C179.603448,349.275862 133.827586,298.689655 136.931034,239.103448 C140.034483,179.672414 190.62069,133.896552 250.206897,137"/>
  </g>
</svg>
