<svg xmlns="http://www.w3.org/2000/svg" width="12" height="18" viewBox="0 0 12 18">
  <path fill="#FFF" d="M10.3390105,8.58315789 L1.93591579,0.180442105 C1.81566316,0.0603157895 1.67728421,0 1.52109474,0 C1.36484211,0 1.22652632,0.0603157895 1.10633684,0.180442105 L0.204884211,1.08208421 C0.0845052632,1.20227368 0.0245684211,1.34033684 0.0245684211,1.49684211 C0.0245684211,1.65334737 0.0845052632,1.79141053 0.204884211,1.9116 L7.29145263,8.99816842 L0.204884211,16.0848632 C0.0845052632,16.2050526 0.0245684211,16.3433684 0.0245684211,16.4994316 C0.0245684211,16.6558737 0.0845052632,16.7941895 0.204884211,16.9143789 L1.1064,17.8157053 C1.22658947,17.9360211 1.36490526,17.9959579 1.52115789,17.9959579 C1.67734737,17.9959579 1.81566316,17.9358947 1.93591579,17.8157053 L10.3385684,9.41292632 C10.4586947,9.2928 10.5188211,9.15442105 10.5188211,8.99816842 C10.5188211,8.84191579 10.4591368,8.7036 10.3390105,8.58315789 Z" transform="matrix(-1 0 0 1 11.25 0)"/>
</svg>
