<svg xmlns="http://www.w3.org/2000/svg" width="12" height="14" viewBox="0 0 12 14">
  <path fill="#FFF" d="M0.280816327,11.8942857 C-0.0848979592,11.5285714 -0.0848979592,10.94 0.280816327,10.5742857 C0.463673469,10.3914286 0.700816327,10.3 0.940816327,10.3 C1.18081633,10.3 1.41795918,10.3914286 1.60081633,10.5742857 L4.84081633,13.8142857 L4.84081633,3.93428571 C4.84081633,3.42 5.25795918,3 5.77510204,3 C6.28938776,3 6.70938776,3.41714286 6.70938776,3.93428571 L6.70938776,13.8142857 L9.94367347,10.5742857 C10.3093878,10.2085714 10.8979592,10.2085714 11.2636735,10.5742857 C11.6293878,10.94 11.6293878,11.5285714 11.2636735,11.8942857 L6.4322449,16.7257143 C6.25795918,16.9 6.02081633,17 5.7722449,17 C5.52367347,17 5.28653061,16.9028571 5.1122449,16.7257143 L0.280816327,11.8942857 Z" transform="translate(0 -3)"/>
</svg>
