<svg xmlns="http://www.w3.org/2000/svg" width="17" height="17" viewBox="0 0 17 17">
  <path fill="#86B71D" fill-rule="evenodd" d="M16.9116112,10.1227699 C17.204016,11.4670229 16.7599077,12.8643677 15.7427149,13.8034193 L12.1364428,17.1318797 C11.5215174,17.6990508 10.514564,17.3875524 10.3379647,16.5757232 L9.28222367,11.7219429 C9.01909149,10.5121231 9.41846775,9.25456033 10.3343508,8.40897416 L14.1468562,4.89073031 C14.7431901,4.3405565 15.7196261,4.642744 15.890925,5.43028576 L16.9116112,10.1227699 Z M1.64590544,6.97598256 C0.79246255,6.65117161 0.592814575,5.54793167 1.28078094,4.95223361 C2.38121392,3.9996714 3.48164689,3.04706958 4.58207987,2.09446775 C5.7784017,1.05846424 7.44404886,0.729057275 8.95321408,1.23053718 C10.38456,1.7066598 11.8165885,2.18262393 13.248617,2.65858807 C14.1086051,2.94635362 14.3350762,4.04186751 13.6579114,4.63938812 C12.6417225,5.55423137 11.6262162,6.46895575 10.6100273,7.383799 C9.17538871,8.67606956 7.12333518,9.05710237 5.30995977,8.36829553 C4.08834063,7.90401952 2.86736396,7.43958502 1.64590544,6.97598256 Z M8.66748298,11.8521446 L9.72322404,16.7059249 C9.89982336,17.5177145 9.11110945,18.2094929 8.31448512,17.9412604 L3.64154998,16.3660977 C2.32343968,15.9215528 1.33732645,14.827069 1.04496183,13.482816 L0.0242756056,8.79033186 C-0.147023321,8.0027901 0.617718371,7.33189185 1.39037049,7.59216059 L6.33029263,9.25690588 C7.51713801,9.65719437 8.4043508,10.6422852 8.66748298,11.8521446 Z M15.1692289,7.35696386 C15.0044752,7.92278787 14.5685182,8.29633235 14.1958848,8.19074304 C13.8232112,8.08511411 13.6540405,7.54064568 13.8187541,6.97482167 C13.9835079,6.40903728 14.4188224,6.03561166 14.7921384,6.14108211 C15.1647718,6.24667143 15.3333,6.79129833 15.1692289,7.35696386 M12.6642732,14.9787294 C12.4995596,15.5445138 12.0641247,15.9173054 11.6914511,15.8116765 C11.3181753,15.7062061 11.1497674,15.1622527 11.3145212,14.5964683 C11.4791143,14.0299708 11.9145493,13.6572187 12.2872228,13.7628476 C12.6598562,13.8684369 12.829027,14.4129054 12.6642732,14.9787294 Z M8.17382404,16.5051665 C7.87792583,16.7523604 7.325802,16.5887267 6.94027903,16.1394669 C6.55471591,15.6901676 6.48191587,15.1252945 6.77849671,14.8779421 C7.07439493,14.6307878 7.62651875,14.7944215 8.01220234,15.2443152 C8.39772531,15.6936146 8.46972226,16.2579726 8.17382404,16.5051665 Z M6.00323455,11.5534041 C5.61771158,11.1041444 5.54555402,10.5391128 5.84145223,10.2919189 C6.13735045,10.044725 6.6901569,10.2082398 7.07584049,10.6581731 C7.46068083,11.1075914 7.53336041,11.6718305 7.23742204,11.9189848 C6.94084119,12.1663372 6.38875752,12.0027035 6.00323455,11.5534041 Z M3.74037011,15.017843 C3.44378927,15.2651954 2.89154498,15.1008881 2.50602201,14.6516283 C2.12049904,14.202329 2.04834147,13.6372974 2.34423969,13.3901035 C2.64017806,13.1429492 3.19306482,13.307098 3.57862795,13.7563577 C3.96346829,14.205776 4.03626833,14.7706491 3.74037011,15.017843 Z M1.50589487,10.0535604 C1.12033175,9.60430066 1.04817418,9.03926907 1.34411255,8.79207517 C1.64001077,8.54488128 2.19281722,8.70839614 2.57850081,9.15832944 C2.96334115,9.60774767 3.03602073,10.1719868 2.74008236,10.4191411 C2.44350151,10.6664539 1.89141784,10.5028598 1.50589487,10.0535604 Z M6.86666788,1.88435889 C7.43923032,1.78094871 7.95898965,1.9939499 8.0278144,2.36147202 C8.09659899,2.72895453 7.68758566,3.11121558 7.1145012,3.21541817 C6.5418986,3.31882834 6.02213927,3.10582716 5.95331453,2.73834465 C5.88517241,2.37070366 6.29358342,1.98856147 6.86666788,1.88435889 Z M8.51151502,4.6653001 C8.58033977,5.03278261 8.17132644,5.41504366 7.59820183,5.51928586 C7.02575985,5.62336959 6.50588005,5.40969485 6.43705531,5.04217272 C6.36891319,4.67453173 6.77744467,4.2930631 7.35052912,4.18886051 C7.9229711,4.08477679 8.44289105,4.29845152 8.51151502,4.6653001 Z M8.89739938,6.86437089 C8.9655415,7.23197226 8.55717064,7.61411445 7.98404604,7.71831704 C7.41164421,7.82240076 6.89172426,7.60872603 6.82293967,7.24124352 C6.75411492,6.87372139 7.16328887,6.49213389 7.73573085,6.38805017 C8.30885546,6.28384758 8.82873526,6.49752232 8.89739938,6.86437089 Z" transform="translate(0 -1)"/>
</svg>
