<svg xmlns="http://www.w3.org/2000/svg" width="12" height="11" viewBox="0 0 12 11">
  <path fill="#63ADF2" d="M11.7820347,4.98023886 L7.01971649,0.217920702 C6.72915556,-0.0726402341 6.25792417,-0.0726402341 5.96736324,0.217920702 C5.67674277,0.508541168 5.67674277,0.979653492 5.96736324,1.27027396 L9.45939256,4.76230328 L0.744112212,4.76230328 C0.333183684,4.76230328 0,5.09548696 0,5.50641549 C0,5.91728449 0.333183684,6.2505277 0.744112212,6.2505277 L9.45939256,6.2505277 L5.9674823,9.74255702 C5.67686183,10.0331775 5.67686183,10.5042898 5.9674823,10.7949103 C6.112733,10.9401014 6.30322573,11.0128459 6.49365892,11.0128459 C6.68409212,11.0128459 6.87452532,10.9401014 7.01983555,10.7949103 L11.7820347,6.03259211 C12.0726551,5.74197165 12.0726551,5.27085933 11.7820347,4.98023886 Z"/>
</svg>
