<svg xmlns="http://www.w3.org/2000/svg" width="84" height="77" viewBox="0 0 84 77">
  <defs>
    <filter id="bomb-a" width="132.8%" height="135.7%" x="-15.5%" y="-10.9%" filterUnits="objectBoundingBox">
      <feOffset dy="4" in="SourceAlpha" result="shadowOffsetOuter1"/>
      <feGaussianBlur in="shadowOffsetOuter1" result="shadowBlurOuter1" stdDeviation="3"/>
      <feColorMatrix in="shadowBlurOuter1" result="shadowMatrixOuter1" values="0 0 0 0 0   0 0 0 0 0   0 0 0 0 0  0 0 0 0.2 0"/>
      <feMerge>
        <feMergeNode in="shadowMatrixOuter1"/>
        <feMergeNode in="SourceGraphic"/>
      </feMerge>
    </filter>
    <linearGradient id="bomb-b" x1="50%" x2="50%" y1="0%" y2="100%">
      <stop offset="0%" stop-color="#FE3417"/>
      <stop offset="96.933%" stop-color="#FF2931"/>
    </linearGradient>
    <linearGradient id="bomb-c" x1="50%" x2="50%" y1="0%" y2="100%">
      <stop offset="0%" stop-color="#2A2D36"/>
      <stop offset="100%" stop-color="#0D151F"/>
    </linearGradient>
    <linearGradient id="bomb-d" x1="50%" x2="50%" y1="0%" y2="100%">
      <stop offset="0%" stop-color="#D2D2D2"/>
      <stop offset="100%" stop-color="#A6A6A6"/>
    </linearGradient>
  </defs>
  <g fill="none" fill-rule="evenodd" filter="url(#bomb-a)" transform="translate(6.615 2.385)">
    <g fill="#292D36" fill-rule="nonzero" transform="translate(9.744)">
      <path d="M2.37591155,7.170458 L2.37591155,14.3680035 C2.37591155,17.0351638 4.57018813,19.1973244 7.27696546,19.1973244 C9.98374279,19.1973244 12.1780194,17.0351638 12.1780194,14.3680035 L12.1780194,7.170458 C12.1780194,4.50329773 9.98374279,2.34113712 7.27696546,2.34113712 C4.57018813,2.34113712 2.37591155,4.50329773 2.37591155,7.170458 Z M7.27696546,0 C11.2959225,-7.27464925e-16 14.5539309,3.2103234 14.5539309,7.170458 L14.5539309,14.3680035 C14.5539309,18.3281381 11.2959225,21.5384615 7.27696546,21.5384615 C3.25800841,21.5384615 -1.28417655e-15,18.3281381 -1.77635684e-15,14.3680035 L-9.32263493e-16,7.170458 C-1.42444378e-15,3.2103234 3.25800841,7.27464925e-16 7.27696546,0 Z"/>
      <path d="M19.6906124,2.34113712 C16.9838351,2.34113712 14.7895585,4.50329773 14.7895585,7.170458 L14.7895585,14.3680035 C14.7895585,17.0351638 16.9838351,19.1973244 19.6906124,19.1973244 C22.3973897,19.1973244 24.5916663,17.0351638 24.5916663,14.3680035 L24.5916663,7.170458 C24.5916663,4.50329773 22.3973897,2.34113712 19.6906124,2.34113712 Z M19.6906124,0 C23.7095695,-7.27464925e-16 26.9675779,3.2103234 26.9675779,7.170458 L26.9675779,14.3680035 C26.9675779,18.3281381 23.7095695,21.5384615 19.6906124,21.5384615 C15.6716554,21.5384615 12.413647,18.3281381 12.413647,14.3680035 L12.413647,7.170458 C12.413647,3.2103234 15.6716554,7.27464925e-16 19.6906124,0 Z"/>
      <path d="M32.1042594,2.34113712 C29.397482,2.34113712 27.2032055,4.50329773 27.2032055,7.170458 L27.2032055,14.3680035 C27.2032055,17.0351638 29.397482,19.1973244 32.1042594,19.1973244 C34.8110367,19.1973244 37.0053133,17.0351638 37.0053133,14.3680035 L37.0053133,7.170458 C37.0053133,4.50329773 34.8110367,2.34113712 32.1042594,2.34113712 Z M32.1042594,0 C36.1232164,-7.27464925e-16 39.3812248,3.2103234 39.3812248,7.170458 L39.3812248,14.3680035 C39.3812248,18.3281381 36.1232164,21.5384615 32.1042594,21.5384615 C28.0853023,21.5384615 24.8272939,18.3281381 24.8272939,14.3680035 L24.8272939,7.170458 C24.8272939,3.2103234 28.0853023,7.27464925e-16 32.1042594,0 Z"/>
      <path d="M44.5179063,2.34113712 C41.811129,2.34113712 39.6168524,4.50329773 39.6168524,7.170458 L39.6168524,14.3680035 C39.6168524,17.0351638 41.811129,19.1973244 44.5179063,19.1973244 C47.2246837,19.1973244 49.4189602,17.0351638 49.4189602,14.3680035 L49.4189602,7.170458 C49.4189602,4.50329773 47.2246837,2.34113712 44.5179063,2.34113712 Z M44.5179063,0 C48.5368634,-7.27464925e-16 51.7948718,3.2103234 51.7948718,7.170458 L51.7948718,14.3680035 C51.7948718,18.3281381 48.5368634,21.5384615 44.5179063,21.5384615 C40.4989493,21.5384615 37.2409409,18.3281381 37.2409409,14.3680035 L37.2409409,7.170458 C37.2409409,3.2103234 40.4989493,7.27464925e-16 44.5179063,0 Z"/>
    </g>
    <g transform="translate(3.077 6.667)">
      <rect width="14.646" height="57.436" fill="url(#bomb-b)" rx="7.323"/>
      <rect width="14.646" height="57.436" x="12.492" fill="url(#bomb-b)" rx="7.323"/>
      <rect width="14.646" height="57.436" x="24.985" fill="url(#bomb-b)" rx="7.323"/>
      <rect width="14.646" height="57.436" x="37.477" fill="url(#bomb-b)" rx="7.323"/>
      <rect width="14.646" height="57.436" x="49.969" fill="url(#bomb-b)" rx="7.323"/>
      <rect width="10.769" height="2.564" x="2.051" y="52.821" fill="#000" fill-opacity=".1"/>
      <rect width="10.769" height="2.564" x="14.872" y="52.821" fill="#000" fill-opacity=".1"/>
      <rect width="10.769" height="2.564" x="27.179" y="52.821" fill="#000" fill-opacity=".1"/>
      <rect width="10.769" height="2.564" x="39.487" y="52.821" fill="#000" fill-opacity=".1"/>
      <rect width="10.769" height="2.564" x="51.795" y="52.821" fill="#000" fill-opacity=".1"/>
      <path fill="url(#bomb-c)" fill-rule="nonzero" d="M3.80090498,2.37338419 C3.01371178,2.37338419 2.37556561,3.01094437 2.37556561,3.79741471 L2.37556561,53.6384827 C2.37556561,54.4249531 3.01371178,55.0625132 3.80090498,55.0625132 L10.8452489,55.0625132 C11.6324421,55.0625132 12.2705882,54.4249531 12.2705882,53.6384827 L12.2705882,3.79741471 C12.2705882,3.01094437 11.6324421,2.37338419 10.8452489,2.37338419 L3.80090498,2.37338419 Z M3.80090498,-4.66580696e-16 L10.8452489,-4.66580696e-16 C12.9444307,-1.27343777e-15 14.6461538,1.70016048 14.6461538,3.79741471 L14.6461538,53.6384827 C14.6461538,55.735737 12.9444307,57.4358974 10.8452489,57.4358974 L3.80090498,57.4358974 C1.70172312,57.4358974 6.8266893e-15,55.735737 -8.8817842e-16,53.6384827 L-4.66193198e-16,3.79741471 C-1.14525405e-15,1.70016048 1.70172312,-5.02919068e-16 3.80090498,-4.66580696e-16 Z"/>
      <path fill="url(#bomb-c)" fill-rule="nonzero" d="M16.2932127,2.37338419 C15.5060195,2.37338419 14.8678733,3.01094437 14.8678733,3.79741471 L14.8678733,53.6384827 C14.8678733,54.4249531 15.5060195,55.0625132 16.2932127,55.0625132 L23.3375566,55.0625132 C24.1247498,55.0625132 24.7628959,54.4249531 24.7628959,53.6384827 L24.7628959,3.79741471 C24.7628959,3.01094437 24.1247498,2.37338419 23.3375566,2.37338419 L16.2932127,2.37338419 Z M16.2932127,0 L23.3375566,0 C25.4367384,-3.85259352e-16 27.1384615,1.70016048 27.1384615,3.79741471 L27.1384615,53.6384827 C27.1384615,55.735737 25.4367384,57.4358974 23.3375566,57.4358974 L16.2932127,57.4358974 C14.1940308,57.4358974 12.4923077,55.735737 12.4923077,53.6384827 L12.4923077,3.79741471 C12.4923077,1.70016048 14.1940308,3.85259352e-16 16.2932127,0 Z"/>
      <path fill="url(#bomb-c)" fill-rule="nonzero" d="M28.7855204,2.37338419 C27.9983272,2.37338419 27.360181,3.01094437 27.360181,3.79741471 L27.360181,53.6384827 C27.360181,54.4249531 27.9983272,55.0625132 28.7855204,55.0625132 L35.8298643,55.0625132 C36.6170574,55.0625132 37.2552036,54.4249531 37.2552036,53.6384827 L37.2552036,3.79741471 C37.2552036,3.01094437 36.6170574,2.37338419 35.8298643,2.37338419 L28.7855204,2.37338419 Z M28.7855204,0 L35.8298643,0 C37.9290461,-3.85259352e-16 39.6307692,1.70016048 39.6307692,3.79741471 L39.6307692,53.6384827 C39.6307692,55.735737 37.9290461,57.4358974 35.8298643,57.4358974 L28.7855204,57.4358974 C26.6863385,57.4358974 24.9846154,55.735737 24.9846154,53.6384827 L24.9846154,3.79741471 C24.9846154,1.70016048 26.6863385,3.85259352e-16 28.7855204,0 Z"/>
      <path fill="url(#bomb-c)" fill-rule="nonzero" d="M41.2778281,2.37338419 C40.4906349,2.37338419 39.8524887,3.01094437 39.8524887,3.79741471 L39.8524887,53.6384827 C39.8524887,54.4249531 40.4906349,55.0625132 41.2778281,55.0625132 L48.3221719,55.0625132 C49.1093651,55.0625132 49.7475113,54.4249531 49.7475113,53.6384827 L49.7475113,3.79741471 C49.7475113,3.01094437 49.1093651,2.37338419 48.3221719,2.37338419 L41.2778281,2.37338419 Z M41.2778281,0 L48.3221719,0 C50.4213538,-3.85259352e-16 52.1230769,1.70016048 52.1230769,3.79741471 L52.1230769,53.6384827 C52.1230769,55.735737 50.4213538,57.4358974 48.3221719,57.4358974 L41.2778281,57.4358974 C39.1786462,57.4358974 37.4769231,55.735737 37.4769231,53.6384827 L37.4769231,3.79741471 C37.4769231,1.70016048 39.1786462,3.85259352e-16 41.2778281,0 Z"/>
      <path fill="url(#bomb-c)" fill-rule="nonzero" d="M53.7701357,2.37338419 C52.9829426,2.37338419 52.3447964,3.01094437 52.3447964,3.79741471 L52.3447964,53.6384827 C52.3447964,54.4249531 52.9829426,55.0625132 53.7701357,55.0625132 L60.8144796,55.0625132 C61.6016728,55.0625132 62.239819,54.4249531 62.239819,53.6384827 L62.239819,3.79741471 C62.239819,3.01094437 61.6016728,2.37338419 60.8144796,2.37338419 L53.7701357,2.37338419 Z M53.7701357,0 L60.8144796,0 C62.9136615,-3.85259352e-16 64.6153846,1.70016048 64.6153846,3.79741471 L64.6153846,53.6384827 C64.6153846,55.735737 62.9136615,57.4358974 60.8144796,57.4358974 L53.7701357,57.4358974 C51.6709539,57.4358974 49.9692308,55.735737 49.9692308,53.6384827 L49.9692308,3.79741471 C49.9692308,1.70016048 51.6709539,3.85259352e-16 53.7701357,0 Z"/>
      <g fill="#000" fill-opacity=".388" transform="translate(7.897 4.318)">
        <rect width="2.154" height="2.159" x=".287"/>
        <rect width="2.154" height="2.159" x=".287" y="4.318"/>
        <rect width="2.154" height="2.159" x=".287" y="8.637"/>
        <rect width="2.154" height="2.159" x="12.779"/>
        <rect width="2.154" height="2.159" x="12.779" y="4.318"/>
        <rect width="2.154" height="2.159" x="12.779" y="8.637"/>
        <rect width="2.154" height="2.159" x="25.272"/>
        <rect width="2.154" height="2.159" x="25.272" y="4.318"/>
        <rect width="2.154" height="2.159" x="25.272" y="8.637"/>
        <rect width="2.154" height="2.159" x="37.764"/>
        <rect width="2.154" height="2.159" x="37.764" y="4.318"/>
        <rect width="2.154" height="2.159" x="37.764" y="8.637"/>
        <rect width="2.154" height="2.159" x="50.256"/>
        <rect width="2.154" height="2.159" x="50.256" y="4.318"/>
        <rect width="2.154" height="2.159" x="50.256" y="8.637"/>
      </g>
    </g>
    <g transform="translate(62.051 27.692)">
      <rect width="8.718" height="10.651" fill="url(#bomb-d)"/>
      <rect width="8.718" height="10.651" y="12.426" fill="url(#bomb-d)"/>
      <path fill="url(#bomb-c)" fill-rule="nonzero" d="M2.42165242 2.40384615L2.42165242 8.24704142 6.2962963 8.24704142 6.2962963 2.40384615 2.42165242 2.40384615zM0 0L8.71794872 0 8.71794872 10.6508876 0 10.6508876 0 0zM2.42165242 20.6730769L6.2962963 20.6730769 6.2962963 14.8298817 2.42165242 14.8298817 2.42165242 20.6730769zM0 12.4260355L8.71794872 12.4260355 8.71794872 23.0769231 0 23.0769231 0 12.4260355z"/>
    </g>
    <g transform="translate(0 27.692)">
      <rect width="8.718" height="10.651" fill="url(#bomb-d)"/>
      <rect width="8.718" height="10.651" y="12.426" fill="url(#bomb-d)"/>
      <path fill="url(#bomb-c)" fill-rule="nonzero" d="M2.42165242 2.40384615L2.42165242 8.24704142 6.2962963 8.24704142 6.2962963 2.40384615 2.42165242 2.40384615zM0 0L8.71794872 0 8.71794872 10.6508876 0 10.6508876 0 0zM2.42165242 14.8298817L2.42165242 20.6730769 6.2962963 20.6730769 6.2962963 14.8298817 2.42165242 14.8298817zM0 12.4260355L8.71794872 12.4260355 8.71794872 23.0769231 0 23.0769231 0 12.4260355z"/>
    </g>
    <g transform="translate(6.667 23.59)">
      <rect width="57.751" height="30.594" fill="url(#bomb-d)"/>
      <path fill="url(#bomb-c)" fill-rule="nonzero" d="M2.36686391,2.35335441 L2.36686391,28.2402529 L55.3846154,28.2402529 L55.3846154,2.35335441 L2.36686391,2.35335441 Z M0,0 L57.7514793,0 L57.7514793,30.5936073 L0,30.5936073 L0,0 Z"/>
      <rect width="47.408" height="20.396" x="5.128" y="5.128" fill="#ADDFFF"/>
      <g fill="url(#bomb-c)" transform="translate(3.59 4.103)">
        <path d="M1.07745297,0 L34.0475139,0 L34.0475139,2.12455606 L2.15490594,2.12455606 L2.15490594,22.0953831 L0,22.0953831 L0,0 L1.07745297,0 Z M44.8220436,0 L49.1318555,0 L49.1318555,2.12455606 L44.8220436,2.12455606 L44.8220436,0 Z M40.5122317,0 L42.6671377,0 L42.6671377,2.12455606 L40.5122317,2.12455606 L40.5122317,0 Z M36.2024199,0 L38.3573258,0 L38.3573258,2.12455606 L36.2024199,2.12455606 L36.2024199,0 Z" transform="translate(.562 .49)"/>
        <path d="M2.15490594,19.970827 L34.0475139,19.970827 L34.0475139,22.0953831 L0,22.0953831 L0,21.033105 L0,0 L2.15490594,0 L2.15490594,19.970827 Z M44.8220436,19.970827 L49.1318555,19.970827 L49.1318555,22.0953831 L44.8220436,22.0953831 L44.8220436,19.970827 Z M40.5122317,19.970827 L42.6671377,19.970827 L42.6671377,22.0953831 L40.5122317,22.0953831 L40.5122317,19.970827 Z M36.2024199,19.970827 L38.3573258,19.970827 L38.3573258,22.0953831 L36.2024199,22.0953831 L36.2024199,19.970827 Z" transform="matrix(-1 0 0 1 49.694 .49)"/>
      </g>
    </g>
  </g>
</svg>
