<svg xmlns="http://www.w3.org/2000/svg" width="28" height="28" viewBox="0 0 28 28">
  <path fill="#63ADF2" d="M26.7650407,5.78495935 L20.504878,5.78495935 C20.9146341,5.18739837 21.1308943,4.49308943 21.1308943,3.7703252 C21.1308943,2.06300813 19.7308943,0.031300813 17.2154472,0.031300813 C16.2081301,0.031300813 15.200813,0.389837398 14.4837398,1.10121951 C14.295935,1.27764228 14.1195122,1.48252033 13.9487805,1.70447154 C13.7837398,1.48252033 13.601626,1.27764228 13.4138211,1.10121951 C12.702439,0.389837398 11.695122,0.031300813 10.6821138,0.031300813 C8.21788618,0.031300813 6.76666667,2.19390244 6.76666667,3.7703252 C6.76666667,4.49308943 6.98292683,5.18739837 7.39268293,5.78495935 L1.18943089,5.78495935 C0.53495935,5.78495935 -2.84217094e-14,6.3199187 -2.84217094e-14,6.97439024 L-2.84217094e-14,12.6085366 C-2.84217094e-14,13.2630081 0.53495935,13.7979675 1.18943089,13.7979675 L2.19674797,13.7979675 L2.19674797,26.7337398 C2.19674797,27.3882114 2.73170732,27.9231707 3.38617886,27.9231707 L24.5056911,27.9231707 C25.1601626,27.9231707 25.6325203,27.3882114 25.695122,26.7963415 L25.695122,13.7979675 L26.7650407,13.7979675 C27.4195122,13.7979675 27.9544715,13.2630081 27.9544715,12.6085366 L27.9544715,6.97439024 C27.9487805,6.3199187 27.4138211,5.78495935 26.7650407,5.78495935 Z M15.900813,3.09308943 C17.4715447,0.873577236 20.0154472,3.28658537 18.4560976,4.72073171 C17.9837398,5.19308943 15.3089431,5.67113821 15.2520325,5.60853659 C15.2292683,5.56300813 14.7512195,4.71504065 15.900813,3.09308943 Z M12.1276423,3.10447154 C13.0439024,4.36219512 12.7081301,5.40934959 12.7252033,5.52317073 C12.7195122,5.53455285 12.7138211,5.5402439 12.702439,5.55162602 C12.6455285,5.60853659 10.0333333,5.13617886 9.49837398,4.66382114 C8.17235772,3.40609756 10.5910569,0.998780488 12.1276423,3.10447154 Z M12.7593496,25.6012195 L4.57560976,25.6012195 L4.57560976,13.7979675 L12.7650407,13.7979675 L12.7650407,25.6012195 L12.7593496,25.6012195 Z M23.3788618,25.6012195 L15.1325203,25.6012195 L15.1325203,13.7979675 L23.3788618,13.7979675 L23.3788618,25.6012195 L23.3788618,25.6012195 Z M25.6382114,11.4247967 L2.31626016,11.4247967 L2.31626016,8.10121951 L25.6325203,8.10121951 L25.6325203,11.4247967 L25.6382114,11.4247967 Z"/>
</svg>
