<svg xmlns="http://www.w3.org/2000/svg" width="20" height="17" viewBox="0 0 20 17">
  <path fill="#FFF" fill-rule="evenodd" d="M1,1 L19,1 C19.5522847,1 20,1.44771525 20,2 L20,16.6666667 C20,17.2189514 19.5522847,17.6666667 19,17.6666667 L1,17.6666667 C0.44771525,17.6666667 6.76353751e-17,17.2189514 0,16.6666667 L0,2 L0,2 C-6.76353751e-17,1.44771525 0.44771525,1 1,1 L1,1 Z M0,6.41666667 L0,8.91666667 L20,8.91666667 L20,6.41666667 L0,6.41666667 Z M2.91666667,1 L2.91666667,4.33333333 L5.41666667,4.33333333 L5.41666667,1 L2.91666667,1 Z M14.5833333,1 L14.5833333,4.33333333 L17.0833333,4.33333333 L17.0833333,1 L14.5833333,1 Z M2.91666667,11 L2.91666667,15.5833333 L5.41666667,15.5833333 L5.41666667,11 L2.91666667,11 Z M14.5833333,11 L14.5833333,15.5833333 L17.0833333,15.5833333 L17.0833333,11 L14.5833333,11 Z M10,11.8333333 C9.53976271,11.8333333 9.16666667,12.2064294 9.16666667,12.6666667 L9.16666667,13.9166667 C9.16666667,14.376904 9.53976271,14.75 10,14.75 C10.4602373,14.75 10.8333333,14.376904 10.8333333,13.9166667 L10.8333333,12.6666667 C10.8333333,12.2064294 10.4602373,11.8333333 10,11.8333333 Z" transform="translate(0 -1)"/>
</svg>
