<svg xmlns="http://www.w3.org/2000/svg" width="40" height="37" viewBox="0 0 40 37">
  <g fill="#B1BBCA" transform="translate(-1 -3)">
    <path d="M0.582666684,33.4373333 L11.9226667,33.4373333 C12.5025657,33.4373333 12.9726667,33.9074343 12.9726667,34.4873333 C12.9726667,35.0672323 12.5025657,35.5373333 11.9226667,35.5373333 L0.582666684,35.5373333 C0.00276769635,35.5373333 -0.467333316,35.0672323 -0.467333316,34.4873333 C-0.467333316,33.9074343 0.00276769635,33.4373333 0.582666684,33.4373333 Z" transform="rotate(-45 6.253 34.487)"/>
    <path d="M5.83778787,14.1122121 C5.25788889,14.1122121 4.78778787,13.6421111 4.78778787,13.0622121 C4.78778787,12.4823131 5.25788889,12.0122121 5.83778787,12.0122121 L36.9177879,12.0122121 C37.1962652,12.0122121 37.4633368,12.1228368 37.66025,12.31975 L41.86025,16.51975 C42.2703005,16.9298005 42.2703005,17.5946237 41.86025,18.0046742 L37.66025,22.2046742 C37.4633368,22.4015874 37.1962652,22.5122121 36.9177879,22.5122121 L5.83778787,22.5122121 C5.25788889,22.5122121 4.78778787,22.0421111 4.78778787,21.4622121 C4.78778787,20.8823131 5.25788889,20.4122121 5.83778787,20.4122121 L36.4828636,20.4122121 L39.6328636,17.2622121 L36.4828636,14.1122121 L5.83778787,14.1122121 Z" transform="rotate(-45 23.478 17.262)"/>
    <path d="M10.558947,18.841053 C11.138846,18.841053 11.608947,19.311154 11.608947,19.891053 L11.608947,40.471053 C11.608947,41.050952 11.138846,41.521053 10.558947,41.521053 C9.97904799,41.521053 9.50894698,41.050952 9.50894698,40.471053 L9.50894698,19.891053 C9.50894698,19.311154 9.97904799,18.841053 10.558947,18.841053 Z" transform="rotate(-45 10.559 30.181)"/>
    <path d="M30.0773333,33.4373333 L41.4173333,33.4373333 C41.9972323,33.4373333 42.4673333,33.9074343 42.4673333,34.4873333 C42.4673333,35.0672323 41.9972323,35.5373333 41.4173333,35.5373333 L30.0773333,35.5373333 C29.4974343,35.5373333 29.0273333,35.0672323 29.0273333,34.4873333 C29.0273333,33.9074343 29.4974343,33.4373333 30.0773333,33.4373333 Z" transform="scale(-1 1) rotate(-45 0 120.789)"/>
    <path d="M9.96934849,12.0122121 L9.96934849,14.1122121 L0.882212127,14.1122121 C0.302313139,14.1122121 -0.167787873,13.6421111 -0.167787873,13.0622121 C-0.167787873,12.4823131 0.302313139,12.0122121 0.882212127,12.0122121 L9.96934849,12.0122121 Z M18.8788939,12.0122121 L31.9622121,12.0122121 C32.2406894,12.0122121 32.507761,12.1228368 32.7046742,12.31975 L36.9046742,16.51975 C37.3147248,16.9298005 37.3147248,17.5946237 36.9046742,18.0046742 L32.7046742,22.2046742 C32.507761,22.4015874 32.2406894,22.5122121 31.9622121,22.5122121 L18.8788939,22.5122121 L18.8788939,20.4122121 L31.5272879,20.4122121 L34.6772879,17.2622121 L31.5272879,14.1122121 L18.8788939,14.1122121 L18.8788939,12.0122121 Z M9.96934849,22.5122121 L0.882212127,22.5122121 C0.302313139,22.5122121 -0.167787873,22.0421111 -0.167787873,21.4622121 C-0.167787873,20.8823131 0.302313139,20.4122121 0.882212127,20.4122121 L9.96934849,20.4122121 L9.96934849,22.5122121 Z" transform="scale(-1 1) rotate(-45 0 61.979)"/>
    <path d="M31.441053,18.841053 C32.020952,18.841053 32.491053,19.311154 32.491053,19.891053 L32.491053,40.471053 C32.491053,41.050952 32.020952,41.521053 31.441053,41.521053 C30.861154,41.521053 30.391053,41.050952 30.391053,40.471053 L30.391053,19.891053 C30.391053,19.311154 30.861154,18.841053 31.441053,18.841053 Z" transform="scale(-1 1) rotate(-45 0 106.086)"/>
  </g>
</svg>
