<svg xmlns="http://www.w3.org/2000/svg" width="50" height="50" viewBox="0 0 50 50">
  <g fill="none" transform="matrix(-1 0 0 1 50 0)">
    <path fill="#231F20" d="M34.812128 40.5683826C34.4798642 39.953032 33.7115188 39.7236561 33.0959356 40.0558036 30.6230236 41.391369 27.8234282 42.097168 24.9998837 42.097168 24.3003627 42.097168 23.7333752 42.6641555 23.7333752 43.3636765 23.7333752 44.0631975 24.3003627 44.6301851 24.9998837 44.6301851 28.2423038 44.6301851 31.4581008 43.8191732 34.2995489 42.284575 34.9151321 41.9521949 35.144508 41.1838495 34.812128 40.5683826zM19.1145833 41.0535249C19.0121605 41.0157413 18.9102028 40.9771438 18.8085937 40.9376163 18.1568545 40.6835937 17.4226888 41.0056269 17.16855 41.6573661 16.9144113 42.3091053 17.2366769 43.043271 17.8882999 43.2974098 18.0049061 43.3428664 18.1222098 43.3872768 18.2398624 43.4306408 18.3842541 43.4836542 18.531901 43.5088821 18.6772228 43.5088821 19.1928246 43.5088821 19.6773856 43.1914993 19.8659552 42.6795015 20.1074219 42.0229957 19.7709728 41.2951079 19.1145833 41.0535249z"/>
    <path fill="#8CEF50" d="M49.6965681,25 C49.6965681,18.4126209 47.124721,12.2137742 42.4548921,7.5453404 C42.4546596,7.54510789 42.4543108,7.54487537 42.4539621,7.54441034 C37.7856445,2.87539528 31.5872628,0.303896949 25.000465,0.303896949 C18.4133185,0.303896949 12.214588,2.87562779 7.5461542,7.54510789 C7.5461542,7.54510789 7.5461542,7.54522414 7.54603795,7.54522414 L7.54592169,7.5453404 L7.54580543,7.54545666 L7.54580543,7.54545666 C2.87609282,12.214123 0.304478237,18.4128534 0.304478237,25 C0.304478237,31.5871466 2.87620908,37.785877 7.54568917,42.4543108 L7.53720238,42.4627976 C17.1662249,52.0918201 32.8336589,52.0918201 42.4626814,42.4627976 L42.4546596,42.4547759 C42.4546596,42.4547759 42.4547759,42.4547759 42.4547759,42.4546596 C47.1248372,37.7862258 49.6965681,31.5873791 49.6965681,25 Z M41.5348307,39.7431873 L37.0505487,35.2589053 C39.4973028,32.3958333 40.8314732,28.7985956 40.8314732,25 C40.8314732,21.2014044 39.4975353,17.6043992 37.050665,14.7410947 L39.3052455,12.4863979 L41.534947,10.2568127 C45.1741536,14.3245443 47.1637835,19.5121838 47.1637835,25 C47.1637835,30.4878162 45.1740374,35.6754557 41.5348307,39.7431873 Z M25.000465,2.83691406 C30.4882813,2.83691406 35.6759208,4.82642764 39.7436523,8.46575056 L35.2593703,12.9500326 C32.3964146,10.5032785 28.7991769,9.16922433 25.000465,9.16922433 C21.2017532,9.16922433 17.604748,10.5031622 14.7415597,12.9501488 L10.2572777,8.46586682 C14.3251256,4.8265439 19.5126488,2.83691406 25.000465,2.83691406 Z M23.9525205,20.328311 C26.050851,20.2866908 27.780878,21.9662621 27.8176153,24.0608724 C27.8541202,26.155599 26.1796642,27.8893462 24.0850539,27.9259673 C24.0734282,27.9260835 24.0615699,27.9261998 24.0492467,27.9261998 C22.3937407,27.9261998 14.1079567,26.1108398 6.91510882,24.425572 C14.0983073,22.4759347 22.3850214,20.3556315 23.9525205,20.328311 Z M9.38383557,27.5977725 C9.84909784,30.4237584 11.0700335,33.0583845 12.9506138,35.2589053 L8.46633185,39.7431873 C5.06382533,35.9402902 3.10384115,31.1582729 2.86307199,26.0677083 C4.33151972,26.4196196 6.71863374,26.9863746 9.38383557,27.5977725 Z M2.93875558,22.8900437 C3.3812314,18.1906855 5.29727028,13.7989444 8.46633185,10.2568127 L12.9506138,14.7410947 C11.3702102,16.5904018 10.2565802,18.7465123 9.66436477,21.0648019 C6.94359189,21.7876907 4.47719029,22.464309 2.93875558,22.8900437 Z M10.2504185,41.5414574 L15.6023298,36.1895461 C15.8398438,35.9520322 15.9733073,35.6298828 15.9733073,35.2940151 C15.9733073,34.9581473 15.8398438,34.635998 15.6023298,34.398484 C13.8657924,32.6620629 12.6712472,30.5321103 12.0963542,28.2131231 C17.2044736,29.3568638 22.5301107,30.4593331 24.0774972,30.4592169 C24.0952846,30.4592169 24.1127232,30.4591006 24.1294643,30.4588681 C27.620559,30.3979492 30.4110863,27.5080218 30.3501674,24.0169271 C30.2893648,20.5259487 27.4000186,17.7399554 23.9084589,17.7961077 L23.9084589,17.7961077 C22.4884905,17.8209868 17.4925595,19.0251814 12.5569661,20.3055246 C13.2156808,18.5622442 14.2431641,16.9616118 15.6025623,15.6020973 C18.116862,13.0873326 21.4546131,11.7023577 25.000465,11.7023577 C28.546317,11.7023577 31.8840681,13.0872163 34.3987165,15.601981 C34.3988328,15.6020973 34.3990653,15.6022135 34.3991815,15.6024461 C36.9134812,18.1170945 38.2982236,21.4546131 38.2982236,25.0002325 C38.2982236,28.5460844 36.9132487,31.8838356 34.3986003,34.398484 C33.9040411,34.8930432 33.9040411,35.694987 34.3986003,36.1895461 L39.7500465,41.5411086 C31.3717215,49.0218099 18.6293248,49.0219262 10.2504185,41.5414574 Z"/>
  </g>
</svg>
