<svg xmlns="http://www.w3.org/2000/svg" width="53" height="60" viewBox="0 0 53 60">
  <path fill="none" stroke="#ED9223" stroke-linecap="round" stroke-linejoin="round" stroke-width="3" d="M13.9370283,56 C10.1757523,48.2339851 12.178768,43.7839774 15.0695909,39.5914297 C18.2353271,34.9999869 19.0511785,30.455059 19.0511785,30.455059 C19.0511785,30.455059 21.5397898,33.665226 20.5442607,38.6860142 C24.9407579,33.8297611 25.7704714,26.0925163 25.1065736,23.1293095 C35.0442997,30.0204638 39.2914888,44.9417081 33.5677251,56 C64.0108338,38.9085093 41.1402229,13.3343783 37.1585294,10.4535965 C38.4857958,13.3342733 38.7375352,18.2110014 36.0563364,20.5777029 C31.5176207,3.49996719 20.2954842,0 20.2954842,0 C21.6227506,8.8070905 15.4843947,18.4375915 9.5651865,25.633666 C9.3572555,22.1218338 9.13630898,19.6985373 7.27519427,16.3379052 C6.85742756,22.7174992 1.94401278,27.9178374 0.613466026,34.3098214 C-1.18881426,42.9660269 1.96348316,49.3040408 13.9370283,56 Z" transform="translate(1.857 2)"/>
</svg>
