<svg xmlns="http://www.w3.org/2000/svg" width="49" height="46" viewBox="0 0 49 46">
  <g fill="none">
    <path fill="#FF1919" fill-opacity=".2" d="M10.5000955 5.27752703C10.5000955 5.84755405 10.4079818 6.39516216 10.2365455 6.90767568L.278918182 6.90767568C.107481818 6.39516216.0153681818 5.84755405.0153681818 5.27752703.0153681818 2.40752703 2.36307273.0823918919 5.25773182.0823918919 8.15239091.0823918919 10.5000955 2.40752703 10.5000955 5.27752703zM20.9847273 5.27752703C20.9847273 5.84755405 20.8926136 6.39516216 20.7211773 6.90767568L10.7636455 6.90767568C10.5922091 6.39516216 10.5000955 5.84755405 10.5000955 5.27752703 10.5000955 2.40752703 12.8478.0823918919 15.7424591.0823918919 18.6371182.0823918919 20.9847273 2.40752703 20.9847273 5.27752703z" transform="translate(14 2)"/>
    <path fill="#2D527C" d="M24.735259,10 L24.264741,10 C23.5662065,10 23,9.32826922 23,8.5 C23,7.67173078 23.5662065,7 24.264741,7 L24.735259,7 C25.433623,7 26,7.67173078 26,8.5 C26,9.32826922 25.4337082,10 24.735259,10 Z"/>
    <g fill="#FF1919" fill-opacity=".2" transform="translate(19 9)">
      <polygon points="10.942 19.624 5.5 15.357 .058 19.624 .058 .002 10.942 .002"/>
      <polygon points=".057 26.966 5.5 22.7 10.942 26.966"/>
    </g>
    <path fill="#FF6161" d="M47.5793856,6.91549812 L36.4279835,6.91549812 C36.4305675,6.83920557 36.4325773,6.76300886 36.4325773,6.68642878 C36.4325773,2.9994666 33.4375538,0 29.7560532,0 C27.6237918,0 25.7233228,1.00752174 24.5000479,2.57056061 C23.2768686,1.00733005 21.376304,0 19.2440425,0 C15.5625419,0 12.5675184,2.9994666 12.5675184,6.68642878 C12.5675184,6.76300886 12.5695282,6.83920557 12.5721122,6.91549812 L1.42051871,6.91549812 C0.635946024,6.91549812 0,7.55257927 0,8.33812419 L0,17.5610886 C0,18.3466336 0.635946024,18.9837147 1.42051871,18.9837147 L3.68915686,18.9837147 L3.68915686,44.5773739 C3.68915686,45.3629189 4.32510288,46 5.10967557,46 L43.8903244,46 C44.6747057,46 45.3108431,45.3629189 45.3108431,44.5773739 L45.3108431,24.6792029 C45.3108431,23.893658 44.6747057,23.2565768 43.8903244,23.2565768 C43.1059432,23.2565768 42.4698057,23.893658 42.4698057,24.6792029 L42.4698057,43.1548437 L31.4130539,43.1548437 L31.4130539,35.3302566 C31.4130539,34.8908076 31.2101637,34.4759908 30.863719,34.2066666 L25.3710403,29.9359131 C24.8583597,29.5371024 24.1411618,29.5372941 23.6287683,29.9358172 L18.1359939,34.2065708 C17.7893578,34.4761825 17.5865633,34.8909993 17.5865633,35.3303524 L17.5865633,43.1549396 L6.53019428,43.1549396 L6.53019428,18.9838105 L17.586659,18.9838105 L17.586659,27.9799101 C17.586659,28.5229674 17.8954924,29.0188689 18.3826203,29.2576186 C18.5809168,29.3548054 18.7944301,29.402632 19.007082,29.402632 C19.3168724,29.402632 19.6244617,29.3012281 19.8784573,29.1036917 L24.5000479,25.51037 L29.1217341,29.1036917 C29.5500048,29.4365611 30.1304431,29.4960808 30.6173797,29.2576186 C31.1045076,29.0187731 31.413341,28.5229674 31.413341,27.9799101 L31.413341,9.76075026 L46.1589626,9.76075026 L46.1589626,16.1384626 L37.0007656,16.1384626 C36.2163843,16.1384626 35.5802469,16.7755437 35.5802469,17.5610886 C35.5802469,18.3466336 36.2163843,18.9837147 37.0007656,18.9837147 L47.5794813,18.9837147 C48.3638626,18.9837147 49,18.3466336 49,17.5610886 L49,8.33812419 C48.9999043,7.55238758 48.3639583,6.91549812 47.5793856,6.91549812 Z M20.4276007,36.0269533 L24.4998564,32.8607165 L28.5720165,36.0269533 L28.5720165,43.1549396 L20.4276007,43.1549396 L20.4276007,36.0269533 L20.4276007,36.0269533 Z M17.586659,16.1384626 L2.84103742,16.1384626 L2.84103742,9.76075026 L17.586659,9.76075026 L17.586659,16.1384626 Z M19.0072734,6.91540228 L15.4151593,6.91540228 C15.410757,6.83939726 15.4084601,6.76320055 15.4084601,6.68652462 C15.4084601,4.56844785 17.1290076,2.84534798 19.2439468,2.84534798 C21.358886,2.84534798 23.0794334,4.56844785 23.0794334,6.68652462 C23.0794334,6.76320055 23.0771366,6.83949311 23.0727342,6.91540228 L19.0072734,6.91540228 Z M28.5723036,25.0744673 L25.371136,22.5855666 C25.1148435,22.3864009 24.8074457,22.2866263 24.5000479,22.2866263 C24.19265,22.2866263 23.8852522,22.3862092 23.6289597,22.5855666 L20.4278878,25.0744673 L20.4278878,9.76065441 L24.2359077,9.76065441 L24.7643794,9.76065441 L28.5723993,9.76065441 L28.5723993,25.0744673 L28.5723036,25.0744673 Z M33.584745,6.91540228 L29.9927266,6.91540228 L25.9271701,6.91540228 C25.9227677,6.83939726 25.9204709,6.76320055 25.9204709,6.68652462 C25.9204709,4.56844785 27.6410183,2.84534798 29.7559575,2.84534798 C31.8708967,2.84534798 33.5914442,4.56844785 33.5914442,6.68652462 C33.5914442,6.76300886 33.5891473,6.83939726 33.584745,6.91540228 Z"/>
  </g>
</svg>
