<svg xmlns="http://www.w3.org/2000/svg" width="17" height="15" viewBox="0 0 17 15">
  <defs>
    <linearGradient id="dota-a" x1="50%" x2="50%" y1="0%" y2="100%">
      <stop offset="0%" stop-color="#D8942E"/>
      <stop offset="100%" stop-color="#F09C00"/>
    </linearGradient>
    <linearGradient id="dota-b" x1="50%" x2="50%" y1="0%" y2="100%">
      <stop offset="0%" stop-color="#FFEA69"/>
      <stop offset="100%" stop-color="#E8B300"/>
    </linearGradient>
  </defs>
  <g fill="none">
    <path fill="url(#dota-a)" d="M9.74139216,14.8464206 L16.9009521,10.7458563 L16.9009521,2.56777714 C16.0265941,3.07143098 15.1527607,3.57508481 14.2784027,4.07873864 L14.2784027,9.24379196 L9.74139216,11.8421879 L5.25840614,9.27501017 C4.38667071,9.7771031 3.51545979,10.279196 2.64372435,10.7812889 L9.74139216,14.8464206 Z"/>
    <path fill="url(#dota-b)" d="M7.15955997,0 L0,4.10051226 L0,12.2786434 C0.874357983,11.7750416 1.74819146,11.2713358 2.62254944,10.7676819 L2.62254944,5.6026286 L7.15955997,3.00423268 L11.642546,5.57141039 C12.5142814,5.06931747 13.3854923,4.56722454 14.2572278,4.06513162 L7.15955997,0 Z"/>
  </g>
</svg>
