<svg xmlns="http://www.w3.org/2000/svg" width="20" height="20" viewBox="0 0 20 20">
  <path fill="#FFF" d="M19.3144096,6.39156189 C18.9049307,5.33862222 18.3267961,4.37200006 17.6060848,3.52721083 C16.1145134,1.77757447 14.0318725,0.555308396 11.6666736,0.157644732 C11.1236599,0.0661339262 10.569009,0.0075 10,0.0075 C9.4309491,0.0075 8.87625634,0.0661339262 8.33332636,0.157644732 C5.9680856,0.555308396 3.88607261,1.77723942 2.39387331,3.52654073 C1.67378992,4.37170689 1.0956553,5.337994 0.686218285,6.39089178 C0.248651047,7.51519732 0,8.73352654 0,10.0125 C0,11.1879008 0.212860366,12.3108661 0.585250891,13.3585706 C0.964129784,14.4242423 1.51166441,15.4084546 2.20633851,16.2731794 C3.70833316,18.1425964 5.8671182,19.4527715 8.33332636,19.8673553 C8.87625634,19.9588661 9.4309491,20.0175 10,20.0175 C10.569009,20.0175 11.1236599,19.9588661 11.6666736,19.8673553 C14.1327981,19.4527296 16.2916668,18.1425546 17.7936196,16.2734306 C18.4882937,15.4087896 19.0358284,14.4245773 19.4146654,13.3589057 C19.7870559,12.3112012 20,11.1879008 20,10.0125 C20,8.73386159 19.7512652,7.51553237 19.3144096,6.39156189 Z M18.1412706,7.06869997 L16.3925505,8.07858559 C16.0612251,6.984309 15.4563416,6.00922681 14.6575606,5.23014945 L16.4224807,4.21075676 C17.1679315,5.03607116 17.7551917,6.00302836 18.1412706,7.06869997 Z M15.3470022,10.0125 C15.3470022,12.9622472 12.9485242,15.3621757 10,15.3621757 C7.05139207,15.3621757 4.65295598,12.9622472 4.65295598,10.0125 C4.65295598,7.06283658 7.05143393,4.66282433 10,4.66282433 C12.9485242,4.66282433 15.3470022,7.06283658 15.3470022,10.0125 Z M10,1.34150558 C10.5702649,1.34150558 11.1269251,1.40047456 11.6666736,1.50597375 L11.6666736,3.54798399 C11.1327855,3.40990109 10.5761253,3.32881875 10,3.32881875 C9.42379097,3.32881875 8.86713076,3.40994298 8.33332636,3.54798399 L8.33332636,1.50597375 C8.87299122,1.40047456 9.42965143,1.34150558 10,1.34150558 Z M3.57806345,4.21046359 L5.34306728,5.23014945 C4.54428626,6.00889176 3.93881677,6.98397395 3.60740762,8.07825054 L1.85868751,7.06836492 C2.2453943,6.00269331 2.8326545,5.03573611 3.57806345,4.21046359 Z M1.75780383,12.6811813 L3.53251929,11.6562602 C3.8150773,12.7684621 4.37433285,13.7686731 5.13665342,14.5805854 L3.37884959,15.5957062 C2.66341271,14.7473152 2.10805018,13.7608413 1.75780383,12.6811813 Z M10,18.6834944 C9.42965143,18.6834944 8.87299122,18.6245254 8.33332636,18.5190263 L8.33332636,16.477016 C8.86713076,16.6151408 9.42379097,16.6961812 10,16.6961812 C10.5761253,16.6961812 11.1327855,16.6151408 11.6666736,16.477016 L11.6666736,18.5190263 C11.1269251,18.6245254 10.5702649,18.6834944 10,18.6834944 Z M16.6203969,15.5957062 L14.8632629,14.5805854 C15.6255834,13.7689662 16.1848808,12.7684621 16.467397,11.6562602 L18.2421124,12.6815163 C17.8918661,13.7608413 17.3365454,14.7473152 16.6203969,15.5957062 Z"/>
</svg>
