<svg xmlns="http://www.w3.org/2000/svg" width="22" height="24" viewBox="0 0 22 24">
  <path fill="#FD4040" d="M19.901279,11.3533198 L19.901279,9.14272912 C19.901279,4.09456619 15.8065173,0 10.7583055,0 C5.70945825,0 1.61567413,4.09456619 1.61567413,9.142778 L1.61567413,11.3541018 C0.646386965,12.1173605 0.0159837067,13.271169 0.0159837067,14.5808554 C0.0159837067,16.8818248 1.93124236,18.7480081 4.29336049,18.7480081 L4.29336049,23.353613 C4.29336049,23.6889287 4.56537678,23.9609939 4.90186558,23.9609939 L5.59747454,23.9609939 C5.93371894,23.9609939 6.20568635,23.6889776 6.20568635,23.353613 L6.20568635,21.1860367 C6.20568635,20.8496945 6.47765377,20.5776782 6.81292057,20.5776782 L7.10879022,20.5776782 C7.44527902,20.5776782 7.7173442,20.8496945 7.7173442,21.1860367 L7.7173442,23.353613 C7.7173442,23.6889287 7.98901833,23.9609939 8.32452953,23.9609939 L9.39504684,23.9609939 C9.7316334,23.9609939 10.0036008,23.6889776 10.0036008,23.353613 L10.0036008,21.1860367 C10.0036008,20.8496945 10.2753238,20.5776782 10.610835,20.5776782 L10.9067536,20.5776782 C11.2429491,20.5776782 11.5149654,20.8496945 11.5149654,21.1860367 L11.5149654,23.353613 C11.5149654,23.6889287 11.7869328,23.9609939 12.1224929,23.9609939 L13.1930102,23.9609939 C13.5292057,23.9609939 13.801222,23.6889776 13.801222,23.353613 L13.801222,21.1860367 C13.801222,20.8496945 14.0731894,20.5776782 14.4087495,20.5776782 L14.704668,20.5776782 C15.0409124,20.5776782 15.312831,20.8496945 15.312831,21.1860367 L15.312831,23.353613 C15.312831,23.6889287 15.5848473,23.9609939 15.9204562,23.9609939 L16.6150387,23.9609939 C16.951332,23.9609939 17.2232505,23.6889776 17.2232505,23.353613 L17.2232505,18.7480081 C19.5854664,18.7480081 21.5010183,16.8818248 21.5010183,14.5808554 C21.5010183,13.271169 20.8695397,12.1173605 19.901279,11.3533198 Z M6.50575967,14.7473401 C5.04674542,14.7473401 3.86649287,13.5654257 3.86649287,12.1084155 C3.86649287,11.1167902 4.41873727,10.2637393 5.2264277,9.81301833 L9.10602037,12.4832261 C8.92213442,13.7615804 7.83406925,14.7473401 6.50575967,14.7473401 Z M10.7583055,18.1101752 C9.97202444,18.1101752 9.3357556,17.4713646 9.3357556,16.6883096 C9.3357556,15.9030061 9.97207332,14.2067291 10.7583055,14.2067291 C11.5446354,14.2067291 12.18022,15.9029572 12.18022,16.6883096 C12.18022,17.4713646 11.5446354,18.1101752 10.7583055,18.1101752 Z M15.0111935,14.7473401 C13.6827862,14.7473401 12.5948187,13.7608473 12.4119104,12.4824929 L16.2905255,9.81370265 C17.0981181,10.2645214 17.6504603,11.1167413 17.6504603,12.1083666 C17.6504603,13.5654257 16.4702077,14.7473401 15.0111935,14.7473401 Z"/>
</svg>
