<?xml version="1.0" encoding="UTF-8"?>
<svg width="16px" height="14px" viewBox="0 0 16 14" version="1.1" xmlns="http://www.w3.org/2000/svg" xmlns:xlink="http://www.w3.org/1999/xlink">
    <!-- Generator: Sketch 48.1 (47250) - http://www.bohemiancoding.com/sketch -->
    <title>Иконка</title>
    <desc>Created with Sketch.</desc>
    <defs></defs>
    <g id="Главная" stroke="none" stroke-width="1" fill="none" fill-rule="evenodd" transform="translate(-30.000000, -587.000000)">
        <g id="Сайдбар" transform="translate(0.000000, 82.000000)" fill="#63ADF2" fill-rule="nonzero" stroke="#63ADF2" stroke-width="0.2">
            <g id="Навигация" transform="translate(0.000000, 305.000000)">
                <g id="Live-трейды" transform="translate(31.000000, 197.000000)">
                    <g id="Иконка" transform="translate(0.000000, 3.500000)">
                        <path d="M13.5733043,1.15502029 C13.2992696,1.09622029 13.0296986,1.2707942 12.9710203,1.54470725 L12.6023942,3.26492174 C11.4287478,1.26271884 9.27453333,0.00628985507 6.91348406,0.00628985507 C3.27742029,0.00628985507 0.319281159,2.96438841 0.319281159,6.60049275 C0.319281159,6.88061449 0.546365217,7.10773913 0.826527536,7.10773913 C1.10664928,7.10773913 1.33377391,6.88061449 1.33377391,6.60049275 C1.33377391,3.52382029 3.83681159,1.02078261 6.91348406,1.02078261 C8.91929855,1.02078261 10.7488754,2.0922087 11.7394261,3.79817971 L10.0483072,3.43576232 C9.77431304,3.37704348 9.50470145,3.55157681 9.44606377,3.82548986 C9.38738551,4.0994029 9.56187826,4.36909565 9.8357913,4.42777391 L12.7387014,5.04986087 C12.7880058,5.06045217 12.8380812,5.06349565 12.8874667,5.05935652 C12.9697217,5.05241739 13.0499072,5.02543188 13.1205159,4.97973913 C13.2334899,4.90665507 13.3127826,4.79169275 13.3409855,4.66017391 L13.963113,1.75726377 C14.0217101,1.4833913 13.8472174,1.21377971 13.5733043,1.15502029 Z" id="Shape"></path>
                        <path d="M13.0628928,5.93563478 C12.7829333,5.94488696 12.5633971,6.17935652 12.5726493,6.45931594 C12.6218319,7.94891594 12.0880464,9.36843478 11.0694957,10.4565797 C10.0509855,11.5446029 8.66973333,12.1709913 7.18017391,12.2201739 C7.11808696,12.2222029 7.05632464,12.2232174 6.99448116,12.2232174 C5.05087536,12.2231362 3.26041739,11.2137159 2.24925217,9.57823188 L4.01231884,10.0509855 C4.28290435,10.1235014 4.56107826,9.9630087 4.63363478,9.69238261 C4.7061913,9.4217971 4.54565797,9.14366377 4.27507246,9.07102609 L1.40754783,8.3022029 C1.27761159,8.26742609 1.13911304,8.2856058 1.02264928,8.3528058 C0.906104348,8.4200058 0.821089855,8.53082899 0.786231884,8.66076522 L0.0174492754,11.528371 C-0.0551072464,11.7989565 0.105426087,12.0770899 0.376011594,12.149687 C0.42004058,12.1614957 0.464191304,12.1671768 0.507692754,12.1671768 C0.731611594,12.1671768 0.93657971,12.0176812 0.997327536,11.7911246 L1.42946087,10.1794203 C2.6315942,12.072342 4.72408696,13.2377913 6.99423768,13.2377101 C7.06715942,13.2377101 7.14048696,13.2365333 7.21369275,13.2340986 C8.97408116,13.1759072 10.6064812,12.4357333 11.8101971,11.1498435 C13.013913,9.86395362 13.6447652,8.18626667 13.5866145,6.42583768 C13.5774029,6.14591884 13.3428116,5.92569275 13.0628928,5.93563478 Z" id="Shape"></path>
                    </g>
                </g>
            </g>
        </g>
    </g>
</svg>