<svg xmlns="http://www.w3.org/2000/svg" width="23" height="24" viewBox="0 0 23 24">
  <g fill="#8DD0FA">
    <path d="M1.93391803 10.0151311C2.70427869 10.0151311 3.40013115 9.55259016 3.69811475 8.84198361 4.92845902 5.91063934 7.8214918 3.84477049 11.1941803 3.84477049 13.0530492 3.84477049 14.7572459 4.48190164 16.1235246 5.53863934L15.052623 5.70442623C14.6868197 5.76113115 14.4022623 6.05134426 14.3526885 6.41813115 14.3030164 6.78472131 14.500623 7.14039344 14.8379508 7.29196721L20.7270984 9.94140984C20.9852459 10.0573279 21.2843115 10.0350492 21.5222459 9.88214754 21.7597869 9.729 21.904082 9.46618033 21.9056557 9.18339344L21.9361967 2.69439344C21.9382623 2.3252459 21.697623 1.99878689 21.3448525 1.89118033 20.9914918 1.78357377 20.6097541 1.92014754 20.4053115 2.22742623L19.5935902 3.44734426C17.4294098 1.31695082 14.4639344 0 11.1941803 0 6.23636066 0 1.9737541 3.02763934.155754098 7.33081967-.0967377049 7.92727869-.0330983607 8.6102459.324393443 9.14985246.681885246 9.68965574 1.28616393 10.0151311 1.93391803 10.0151311zM22.0640164 14.8123279C21.7064754 14.2724754 21.1021475 13.9470492 20.4544426 13.9470492 19.684082 13.9470492 18.9882295 14.4095902 18.6902459 15.1201967 17.4598525 18.051541 14.5668197 20.1174098 11.1941803 20.1174098 9.3352623 20.1174098 7.63106557 19.4802787 6.2647377 18.423541L7.33568852 18.2578525C7.70144262 18.2011475 7.986 17.9108852 8.03567213 17.5440492 8.08529508 17.1775082 7.8877377 16.8217869 7.55040984 16.6702131L1.6612623 14.0207705C1.40306557 13.9049016 1.10404918 13.927082.866065574 14.0800328.62857377 14.2331803.484229508 14.496.482704918 14.7787377L.452114754 21.2677377C.45004918 21.6368852.690639344 21.9633443 1.04345902 22.0709508 1.39681967 22.1785574 1.77860656 22.0419344 1.983 21.7346066L2.79472131 20.5146885C4.95885246 22.6451803 7.92437705 23.9621311 11.1941311 23.9621311 16.1520492 23.9621311 20.4145082 20.934541 22.232459 16.6313607 22.4850984 16.0349016 22.421459 15.3519836 22.0640164 14.8123279z"/>
  </g>
</svg>
