<?xml version="1.0" encoding="utf-8"?>
<!-- Generator: Adobe Illustrator 16.0.0, SVG Export Plug-In . SVG Version: 6.00 Build 0)  -->
<!DOCTYPE svg PUBLIC "-//W3C//DTD SVG 1.1//EN" "http://www.w3.org/Graphics/SVG/1.1/DTD/svg11.dtd">
<svg version="1.1" id="Layer_1" xmlns="http://www.w3.org/2000/svg" xmlns:xlink="http://www.w3.org/1999/xlink" x="0px" y="0px"
	 width="566.93px" height="566.93px" viewBox="0 0 566.93 566.93" enable-background="new 0 0 566.93 566.93" xml:space="preserve">
<path opacity="0.2" fill="#63ADF2" enable-background="new    " d="M318.898,128.999v8.969c0,19.599-15.834,35.433-35.433,35.433
	c-19.6,0-35.434-15.834-35.434-35.433v-8.969H53.15l26.575,104.638h407.48l26.574-104.638H318.898z"/>
<path opacity="0.2" fill="#63ADF2" enable-background="new    " d="M329.196,233.637v81.496c0,25.246-20.485,45.731-45.73,45.731
	l0,0c-25.246,0-45.731-20.485-45.731-45.731v-81.496"/>
<line fill="none" stroke="#63ADF2" stroke-width="24" stroke-linejoin="round" x1="522.638" y1="124.902" x2="487.205" y2="240.17"/>
<line fill="none" stroke="#63ADF2" stroke-width="24" stroke-linejoin="round" x1="79.725" y1="240.17" x2="44.291" y2="124.902"/>
<path fill="none" stroke="#FFFFFF" stroke-width="24" stroke-linecap="round" stroke-linejoin="round" d="M329.196,233.637v81.496
	c0,25.246-20.485,45.731-45.73,45.731l0,0c-25.246,0-45.731-20.485-45.731-45.731v-81.496"/>
<path fill="none" stroke="#63ADF2" stroke-width="24" stroke-linecap="round" stroke-linejoin="round" d="M44.291,233.637h478.347
	v221.9c0,24.471-19.82,44.291-44.291,44.291H88.582c-24.471,0-44.291-19.82-44.291-44.291V233.637z"/>
<path fill="none" stroke="#63ADF2" stroke-width="24" stroke-linecap="round" stroke-linejoin="round" d="M318.898,65.994v71.974
	c0,19.599-15.834,35.433-35.433,35.433l0,0c-19.6,0-35.434-15.834-35.434-35.433V65.994"/>
<line fill="none" stroke="#FFFFFF" stroke-width="24" stroke-linejoin="round" x1="283.465" y1="264.752" x2="283.465" y2="297.196"/>
<line fill="none" stroke="#63ADF2" stroke-width="24" stroke-linejoin="round" x1="110.729" y1="233.637" x2="110.729" y2="499.828"/>
<line fill="none" stroke="#63ADF2" stroke-width="24" stroke-linejoin="round" x1="456.201" y1="233.637" x2="456.201" y2="499.828"/>
<path fill="none" stroke="#63ADF2" stroke-width="24" stroke-linejoin="round" d="M318.898,124.902h203.74l0,0
	c0-32.554-26.354-58.907-58.907-58.907H103.198c-32.554,0-58.907,26.354-58.907,58.907l0,0h203.74"/>
</svg>
