<svg xmlns="http://www.w3.org/2000/svg" xmlns:xlink="http://www.w3.org/1999/xlink" width="34" height="34" viewBox="0 0 34 34">
  <defs>
    <circle id="icon_status-a" cx="17" cy="17" r="17"/>
  </defs>
  <g fill="none" fill-rule="evenodd">
    <mask id="icon_status-b" fill="#fff">
      <use xlink:href="#icon_status-a"/>
    </mask>
    <use fill="#63ADF2" xlink:href="#icon_status-a"/>
    <g fill="#1D242D" mask="url(#icon_status-b)">
      <path d="M19.3626907,6.89596037 C18.1358595,5.97024733 13.9676442,3.03882269 5.10435356,4.96739153 C5.10435356,4.96739153 6.64579542,5.73881907 7.03115588,6.51024661 C7.03115588,6.51024661 2.02146986,9.80324294 2.02146986,16.9245183 C2.02146986,22.2235381 5.04092152,26.6071764 9.96799347,28.4336909 C14.8950654,30.2602054 20.9998211,28.9816453 23.530906,27.1845046 C25.3512582,25.8920039 29.7663045,20.1606056 29.9090241,14.4775495 C30.0866923,7.40284372 23.4431636,3.0973462 22.6724427,2.32591866 C23.0221107,2.49140558 25.1162089,4.50967876 26.1354382,7.80731317 C26.8980863,10.2748 26.9753349,13.719592 25.7250464,16.218479 C22.8038295,22.0569648 20.1334116,22.7102249 20.1334116,22.7102249 C20.1334116,22.7102249 21.6041037,24.2530799 22.8309349,24.6387937 C22.8309349,24.6387937 16.279807,28.8816452 8.95795819,24.2530799 C8.95795819,24.2530799 8.50184796,17.5416604 12.7408131,13.6845227 C12.7408131,13.6845227 13.8968944,14.4559502 14.6676154,15.9988053 C14.6676154,16.126573 18.6275272,13.6845227 19.3626907,6.89596037 Z" transform="translate(1.971 1.943)"/>
    </g>
  </g>
</svg>
