<svg xmlns="http://www.w3.org/2000/svg" width="12" height="12" viewBox="0 0 12 12">
  <defs>
    <linearGradient id="icon_cross-a" x1="50%" x2="50%" y1="0%" y2="100%">
      <stop offset="0%" stop-color="#E52C4C"/>
      <stop offset="100%" stop-color="#B02142"/>
    </linearGradient>
  </defs>
  <path fill="url(#icon_cross-a)" fill-rule="evenodd" d="M10,35 C13.3137085,35 16,37.6862915 16,41 C16,44.3137085 13.3137085,47 10,47 C6.6862915,47 4,44.3137085 4,41 C4,37.6862915 6.6862915,35 10,35 Z M12.4696699,37.4696699 L10,39.939 L7.53033009,37.4696699 L6.46966991,38.5303301 L8.939,41 L6.46966991,43.4696699 L7.53033009,44.5303301 L10,42.061 L12.4696699,44.5303301 L13.5303301,43.4696699 L11.061,41 L13.5303301,38.5303301 L12.4696699,37.4696699 Z" transform="translate(-4 -35)"/>
</svg>
