<svg xmlns="http://www.w3.org/2000/svg" width="20" height="20" viewBox="0 0 20 20">
  <path fill="#B1BBCA" fill-opacity=".5" d="M17.5,2.5 L16.6667175,2.5 L16.6667175,0.833282461 C16.6667175,0.373382578 16.293335,0 15.8332825,0 L15,0 C14.5399475,0 14.1667175,0.373382578 14.1667175,0.833282461 L14.1667175,2.5 L5.83328246,2.5 L5.83328246,0.833282461 C5.83328246,0.373382578 5.4600525,0 5,0 L4.16671754,0 C3.70666504,0 3.33328246,0.373382578 3.33328246,0.833282461 L3.33328246,2.5 L2.5,2.5 C1.12167359,2.5 -1.11022302e-15,3.62167359 -1.11022302e-15,5 L-1.11022302e-15,17.5 C-1.11022302e-15,18.8783264 1.12167359,20 2.5,20 L17.5,20 C18.8783264,20 20,18.8783264 20,17.5 L20,5 C20,3.62167359 18.8783264,2.5 17.5,2.5 Z M18.3332825,17.5 C18.3332825,17.959137 17.959137,18.3332825 17.5,18.3332825 L2.5,18.3332825 C2.04086305,18.3332825 1.66671754,17.959137 1.66671754,17.5 L1.66671754,8.36669922 L18.3332825,8.36669922 L18.3332825,17.5 Z"/>
</svg>
