<svg xmlns="http://www.w3.org/2000/svg" width="24" height="24" viewBox="0 0 24 24">
  <g fill="#63ADF2">
    <polygon points="10.418 8.069 10.05 10.172 11.977 9.179 13.903 10.172 13.535 8.069 15.094 6.58 12.94 6.273 11.977 4.36 11.013 6.273 8.859 6.58"/>
    <path d="M19.6365469,1.828125 C19.6395469,1.52639063 19.640625,1.22910937 19.640625,0.9375 L19.640625,0 L4.265625,0 L4.265625,0.9375 C4.265625,1.22910937 4.26670312,1.52639063 4.26970313,1.828125 L0,1.828125 L0,2.765625 C0,5.16492188 0.63065625,7.19207812 1.92801563,8.9630625 C3.02948438,10.4665781 4.41478125,11.521875 5.637,12.4529062 C6.39759375,13.0322813 7.07554687,13.5495 7.55503125,14.0723437 C8.49623438,15.318375 9.65760937,16.4002969 11.015625,17.2963125 L11.015625,18.84375 L10.546875,18.84375 C8.22065625,18.84375 6.328125,20.7362813 6.328125,23.0625 L6.328125,24 L17.578125,24 L17.578125,23.0625 C17.578125,20.7362813 15.6855937,18.84375 13.359375,18.84375 L12.890625,18.84375 L12.890625,17.2963125 C14.2462031,16.4018906 15.4059375,15.3222188 16.34625,14.079 C16.8305156,13.552125 17.5222031,13.0305937 18.2985938,12.4459687 C19.5339375,11.5157812 20.9340937,10.4614687 22.0479844,8.9596875 C23.3615156,7.18884375 24,5.16276562 24,2.765625 L24,1.828125 L19.6365469,1.828125 Z M1.9153125,3.703125 L4.32178125,3.703125 C4.41248438,5.5365 4.6445625,7.48073437 5.22726563,9.40434375 C5.27353125,9.5570625 5.32232813,9.70790625 5.37239063,9.8578125 C3.70232813,8.45414062 2.17935938,6.68915625 1.9153125,3.703125 Z M13.359375,20.71875 C14.318625,20.71875 15.1450781,21.2978906 15.5074219,22.125 L8.39882812,22.125 C8.76117187,21.2978906 9.587625,20.71875 10.546875,20.71875 L13.359375,20.71875 Z M14.9497969,12.8290781 C14.7702187,13.0254375 14.6054062,13.2278438 14.4606562,13.4393906 L14.4645,13.4420156 C13.7780625,14.251125 12.9508594,14.9997656 11.953125,15.6684844 C10.9553906,14.9997656 10.1281875,14.2511719 9.44175,13.4419687 L9.44559375,13.4393437 C9.29882812,13.2248437 9.132,13.0197187 8.95026562,12.8207344 C6.60623437,9.63614062 6.19565625,5.64304687 6.14634375,1.875 L17.7599063,1.875 C17.7105469,5.646375 17.2992187,9.64307812 14.9497969,12.8290781 Z M18.5192812,9.90121875 C18.5745937,9.73715625 18.6282187,9.57178125 18.6789375,9.40434375 C19.2616875,7.48073438 19.4937656,5.5365 19.5844219,3.703125 L22.0839375,3.703125 C21.8125312,6.719625 20.2345312,8.48934375 18.5192812,9.90121875 Z"/>
  </g>
</svg>
