<?xml version="1.0" encoding="UTF-8"?>
<svg width="14px" height="18px" viewBox="0 0 14 18" version="1.1" xmlns="http://www.w3.org/2000/svg" xmlns:xlink="http://www.w3.org/1999/xlink">
    <!-- Generator: Sketch 53 (72520) - https://sketchapp.com -->
    <title>Fill 1</title>
    <desc>Created with Sketch.</desc>
    <g id="Symbols" stroke="none" stroke-width="1" fill="none" fill-rule="evenodd">
        <g id="Навбар" transform="translate(-749.000000, -25.000000)" fill="#02B1CA">
            <g id="Настройки">
                <g transform="translate(730.000000, 0.000000)">
                    <g id="Group-4">
                        <g id="PUBG" transform="translate(19.000000, 24.000000)">
                            <path d="M12.8017241,9.9442187 C12.9568578,8.9767594 13.1121078,8.00918399 13.2672414,7.04172469 C13.0732371,6.88696371 12.8793491,6.73208663 12.6853448,6.57732565 C12.6747543,6.23041957 12.5580259,3.76829195 10.4741379,2.16553476 C8.93118103,0.978879109 7.24752155,0.984567998 6.75,1.00453716 C6.25247845,0.984567998 4.56881897,0.978879109 3.02586207,2.16553476 C0.941974138,3.76829195 0.82524569,6.23041957 0.814655172,6.57732565 C0.620650862,6.73208663 0.426762931,6.88696371 0.232758621,7.04172469 C0.387892241,8.00918399 0.543142241,8.9767594 0.698275862,9.9442187 C0.465517241,11.0665551 0.232758621,12.1887754 0,13.3111117 C0.226125,13.4303462 0.518818966,13.6142482 0.814655172,13.8916105 C1.07895259,14.1394835 1.26690517,14.3878209 1.39655172,14.5882091 C2.40521121,16.0588448 3.41375431,17.5293643 4.42241379,19 C4.38365948,16.1749445 4.34478879,13.349773 4.30603448,10.5247175 C3.452625,9.9442187 2.59909914,9.3637199 1.74568966,8.7832211 C1.97844828,8.35748327 2.2112069,7.93186155 2.44396552,7.50612373 C3.53013362,7.73832325 4.6164181,7.97052277 5.70258621,8.20272229 C5.6638319,9.28628136 5.62496121,10.3699565 5.5862069,11.4535156 C5.97409914,11.7631536 6.36210776,12.0726756 6.75,12.3823137 C7.13789224,12.0726756 7.52590086,11.7631536 7.9137931,11.4535156 C7.87503879,10.3699565 7.8361681,9.28628136 7.79741379,8.20272229 C8.8835819,7.97052277 9.96986638,7.73832325 11.0560345,7.50612373 C11.2887931,7.93186155 11.5215517,8.35748327 11.7543103,8.7832211 C10.9009009,9.3637199 10.047375,9.9442187 9.19396552,10.5247175 C9.15521121,13.349773 9.11634052,16.1749445 9.07758621,19 C10.0862457,17.5293643 11.0947888,16.0588448 12.1034483,14.5882091 C12.2330948,14.3878209 12.4210474,14.1394835 12.6853448,13.8916105 C12.981181,13.6142482 13.273875,13.4303462 13.5,13.3111117 C13.2672414,12.1887754 13.0344828,11.0665551 12.8017241,9.9442187" id="Fill-1"></path>
                        </g>
                    </g>
                </g>
            </g>
        </g>
    </g>
</svg>