<svg width="30" height="30" viewBox="0 0 30 30" fill="none" xmlns="http://www.w3.org/2000/svg">
<circle cx="15" cy="15" r="15" fill="white"/>
<path fill-rule="evenodd" clip-rule="evenodd" d="M0 13.7968C0.614099 6.07594 7.08051 -4.34439e-07 14.9741 0C23.273 4.56753e-07 30 6.71551 30 15C30 23.2834 23.273 30 14.9741 30C8.09572 30 2.30071 25.384 0.516794 19.0877L6.27721 21.4652C6.66643 23.4075 8.38871 24.8749 10.4472 24.8749C12.7923 24.8749 14.7005 22.9701 14.7005 20.6278C14.7005 20.5615 14.6984 20.4941 14.6951 20.4267L19.8036 16.7893L19.8067 16.7894C19.8489 16.7904 19.89 16.7914 19.9322 16.7914C23.0568 16.7914 25.5986 14.2524 25.5986 11.1337C25.5986 8.01497 23.0568 5.47701 19.9322 5.47701C16.8077 5.47701 14.2659 8.01497 14.2659 11.1337V11.2064L10.684 16.3893C10.6062 16.385 10.5272 16.3829 10.4472 16.3829C9.56069 16.3829 8.73577 16.6545 8.05355 17.1209L0 13.7968ZM7.57126 21.9985L9.4168 22.76C10.6147 23.2584 11.991 22.6926 12.4895 21.4969C12.989 20.3011 12.4224 18.9279 11.2245 18.4295L9.31734 17.6423C10.0525 17.3653 10.8893 17.3535 11.671 17.6776C12.457 18.0049 13.07 18.6188 13.3944 19.406C13.7187 20.1931 13.7166 21.0594 13.389 21.8445C12.7122 23.4669 10.8396 24.2359 9.2157 23.56C8.4643 23.2477 7.89777 22.6787 7.57126 21.9985ZM23.7088 11.1338C23.7088 9.05575 22.0146 7.36377 19.9334 7.36377C17.851 7.36377 16.1569 9.05575 16.1569 11.1338C16.1569 13.2119 17.851 14.9028 19.9334 14.9028C22.0146 14.9028 23.7088 13.2119 23.7088 11.1338ZM19.9375 8.29633C18.372 8.29633 17.1016 9.56371 17.1016 11.1273C17.1016 12.691 18.372 13.9584 19.9375 13.9584C21.5041 13.9584 22.7744 12.691 22.7744 11.1273C22.7744 9.56371 21.5041 8.29633 19.9375 8.29633Z" fill="#FA5528"/>
</svg>
