<?xml version="1.0" encoding="UTF-8"?>
<svg width="13px" height="14px" viewBox="0 0 13 14" version="1.1" xmlns="http://www.w3.org/2000/svg" xmlns:xlink="http://www.w3.org/1999/xlink">
    <!-- Generator: Sketch 48.2 (47327) - http://www.bohemiancoding.com/sketch -->
    <title>trophy (5)</title>
    <desc>Created with Sketch.</desc>
    <defs></defs>
    <g id="Live-лента" stroke="none" stroke-width="1" fill="none" fill-rule="evenodd" transform="translate(-706.000000, -6.000000)" stroke-opacity="0.5">
        <g fill-rule="nonzero" id="6-(common)" stroke="#FFFFFF">
            <g transform="translate(605.000000, 0.000000)">
                <g id="trophy-(5)" transform="translate(101.000000, 6.000000)">
                    <path d="M11.673204,1.64658732 C11.4997954,0.966838961 10.9264301,0.5 10.2872383,0.5 C10.2871289,0.5 10.2871289,0.5 10.2870059,0.5 C10.2868828,0.5 10.2868828,0.5 10.2867734,0.5 L1.96328125,0.5 C1.96316162,0.5 1.96316162,0.5 1.96304883,0.5 C1.96293604,0.5 1.96293604,0.5 1.96281641,0.5 C1.32364791,0.5 0.750230805,0.966871473 0.576822485,1.64653592 C0.452676735,2.13316398 0.525091479,2.68177272 0.90678693,3.2905088 C1.26833059,3.86715726 1.87331321,4.41481273 2.7129759,4.91421812 L2.93903787,5.04867279 L2.95630431,5.31113029 C3.05225169,6.7695727 4.14343684,7.97826625 5.57530793,8.23030885 L5.98862891,8.30306295 L5.98862891,10.6165859 L3.51430078,10.6165859 C3.4389684,10.6165859 3.37792969,10.677621 3.37792969,10.752957 L3.37792969,13.3636289 C3.37792969,13.4389066 3.43901947,13.5 3.51430078,13.5 L8.73569922,13.5 C8.81098053,13.5 8.87207031,13.4389066 8.87207031,13.3636289 L8.87207031,10.752957 C8.87207031,10.6776356 8.81101883,10.6165859 8.73569922,10.6165859 L6.26137109,10.6165859 L6.26137109,8.3034145 L6.67561237,8.23129618 C8.11109995,7.98138155 9.2055595,6.76987821 9.30019649,5.30780135 L9.31719151,5.04523978 L9.54322185,4.91056351 C10.3796347,4.41220136 10.9825109,3.86581587 11.3432548,3.29048586 C11.724939,2.68178726 11.7973485,2.13323966 11.6732031,1.64658367 Z M0.841025637,1.71403975 L0.841053309,1.71393131 C0.983566692,1.15568873 1.45545023,0.772742187 1.96303516,0.772742187 L2.94300978,0.772742187 L2.94869206,4.82198088 L2.14253003,4.20224395 C1.10777849,3.40677888 0.641094128,2.49792832 0.841025637,1.71403975 Z M9.30716406,4.81882862 L9.30716406,0.772714844 L10.2871289,0.772714844 C10.7946022,0.772714844 11.2665715,1.15577505 11.4090702,1.71412129 C11.6085821,2.49673 11.1436275,3.40406439 10.1123039,4.19856956 L9.30716406,4.81882862 Z" id="Shape"></path>
                </g>
            </g>
        </g>
    </g>
</svg>