<svg xmlns="http://www.w3.org/2000/svg" width="20" height="20" viewBox="0 0 20 20">
  <g fill="none" fill-rule="evenodd" transform="translate(1 1)">
    <path fill="#5DAEF1" fill-rule="nonzero" stroke="#FFF" stroke-width="2" d="M9,18 C13.9706,18 18,13.9706 18,9 C18,4.02944 13.9706,0 9,0 C4.02944,0 0,4.02944 0,9 C0,13.9706 4.02944,18 9,18 Z"/>
    <path fill="#FFF" d="M11.1253,3.43323 C11.7264,3.72337 12.1978,4.12388 12.5276,4.62462 L12.5284,4.62481 C12.8584,5.12742 13.0257,5.68175 13.0257,6.2718 C13.0257,6.73888 12.9293,7.15519 12.7378,7.50888 C12.5521,7.8543 12.3274,8.15742 12.0694,8.40938 C11.8193,8.65402 11.3684,9.0677 10.7296,9.6391 C10.5587,9.7948 10.4196,9.9343 10.3163,10.053 C10.2176,10.1656 10.1439,10.2689 10.0977,10.3595 C10.0499,10.4529 10.0128,10.5462 9.9871,10.6374 C9.9587,10.7378 9.9162,10.914 9.86,11.1658 C9.749,11.7722 9.3763,12.096 8.78348,12.096 C8.47341,12.096 8.20847,11.9922 7.9958,11.7887 C7.78087,11.5832 7.672,11.281 7.672,10.8909 C7.672,10.4343 7.74458,10.0312 7.88711,9.694 C8.02312,9.367 8.2153,9.0663 8.45498,8.80557 C8.68062,8.56094 8.99031,8.26629 9.3743,7.92971 C9.7039,7.64126 9.945,7.42126 10.0911,7.27497 C10.2289,7.13708 10.3471,6.98086 10.4423,6.81071 C10.5315,6.65095 10.5775,6.47074 10.576,6.28779 C10.576,5.90984 10.4389,5.59977 10.1578,5.34009 C9.8726,5.07666 9.5129,4.94879 9.0569,4.94879 C8.52812,4.94879 8.13795,5.07929 7.89746,5.33652 C7.64154,5.60917 7.4206,6.02115 7.24121,6.56138 C7.04415,7.21442 6.65793,7.54743 6.09007,7.54743 C5.75743,7.54743 5.47275,7.42841 5.24391,7.19355 C5.0162,6.95982 4.89999,6.69977 4.89999,6.42092 C4.89999,5.89893 5.06866,5.36548 5.40092,4.83484 C5.7313,4.30684 6.21831,3.86421 6.84879,3.51916 C7.47851,3.1745 8.222,3 9.0569,3 C9.8321,3 10.5279,3.14591 11.1253,3.43323 Z M7.94692,12.9999 C8.20039,12.7729 8.50688,12.6594 8.86547,12.6594 L8.86584,12.6594 C9.2252,12.6594 9.5279,12.7729 9.7757,12.9997 C10.0238,13.2269 10.1475,13.5019 10.1475,13.8257 C10.1475,14.1962 10.0183,14.4844 9.759,14.6907 C9.4995,14.8968 9.1966,15 8.84892,15 C8.50726,15 8.2081,14.8953 7.95143,14.6868 C7.69533,14.478 7.56709,14.1911 7.56709,13.8259 C7.56709,13.5021 7.69326,13.227 7.94692,12.9999 Z"/>
  </g>
</svg>
