<svg xmlns="http://www.w3.org/2000/svg" width="16" height="16" viewBox="0 0 16 16">
  <path fill="#FFF" fill-rule="evenodd" d="M8,16 C12.418278,16 16,12.418278 16,8 C16,3.581722 12.418278,0 8,0 C3.581722,0 0,3.581722 0,8 C0,12.418278 3.581722,16 8,16 Z M10.2434427,10.7983607 L6.84426233,10.7983607 L6.84426233,11.9118854 C6.84426233,12.087705 6.72704921,12.2049181 6.55122954,12.2049181 L5.67213116,12.2049181 C5.49631149,12.2049181 5.37909837,12.087705 5.37909837,11.9118854 L5.37909837,10.7983607 L4.79303279,10.7983607 C4.61721312,10.7983607 4.5,10.6811476 4.5,10.505328 L4.5,9.86065582 C4.5,9.68483614 4.61721312,9.56762303 4.79303279,9.56762303 L5.37909837,9.56762303 L5.37909837,8.92295089 L4.79303279,8.92295089 C4.61721312,8.92295089 4.5,8.80573777 4.5,8.62991809 L4.5,7.98524595 C4.5,7.80942628 4.61721312,7.69221316 4.79303279,7.69221316 L5.37909837,7.69221316 L5.37909837,4.29303279 C5.37909837,4.11721312 5.49631149,4 5.67213116,4 L9.540164,4 C10.9467214,4 11.6500001,4.52745902 11.6500001,5.93401642 L11.6500001,6.81311479 C11.6500001,8.21967219 10.9467214,8.92295089 9.540164,8.92295089 L6.84426233,8.92295089 L6.84426233,9.56762303 L10.2434427,9.56762303 C10.4192624,9.56762303 10.5364755,9.68483614 10.5364755,9.86065582 L10.5364755,10.505328 C10.5364755,10.6811476 10.4192624,10.7983607 10.2434427,10.7983607 Z M9.36434433,5.34795084 L6.84426233,5.34795084 L6.84426233,7.69221316 L9.36434433,7.69221316 C9.89180335,7.69221316 10.1848361,7.39918037 10.1848361,6.87172135 L10.1848361,6.16844265 C10.1848361,5.64098363 9.89180335,5.34795084 9.36434433,5.34795084 Z"/>
</svg>
