<svg xmlns="http://www.w3.org/2000/svg" width="26" height="27" viewBox="0 0 26 27">
  <path fill="#63ADF2" d="M13.0000031,26.0228125 C20.1797049,26.0228125 26.0000031,20.2025142 26.0000031,13.0228125 C26.0000031,5.84311075 20.1797049,0.0228125 13.0000031,0.0228125 C5.82030136,0.0228125 3.10957012e-06,5.84311075 3.10957012e-06,13.0228125 C3.10957012e-06,20.2025142 5.82030136,26.0228125 13.0000031,26.0228125 Z M13.0104375,5.0766875 C13.81675,5.0766875 14.499,5.5315625 14.499,6.3378125 C14.499,8.798 14.2095625,12.333375 14.2095625,14.7935625 C14.2095625,15.4345 13.506625,15.7031875 13.0104375,15.7031875 C12.3489375,15.7031875 11.7906875,15.4344375 11.7906875,14.7935625 C11.7906875,12.333375 11.5013125,8.798 11.5013125,6.3378125 C11.5013125,5.5315625 12.1628125,5.0766875 13.0104375,5.0766875 Z M13.031125,20.313625 C12.1215,20.313625 11.4391875,19.569375 11.4391875,18.72175 C11.4391875,17.8534375 12.1214375,17.129875 13.031125,17.129875 C13.87875,17.129875 14.602375,17.8534375 14.602375,18.72175 C14.602375,19.569375 13.87875,20.313625 13.031125,20.313625 Z"/>
</svg>
