<?xml version="1.0" encoding="UTF-8"?>
<svg width="14px" height="14px" viewBox="0 0 14 14" version="1.1" xmlns="http://www.w3.org/2000/svg" xmlns:xlink="http://www.w3.org/1999/xlink">
    <!-- Generator: Sketch 48.2 (47327) - http://www.bohemiancoding.com/sketch -->
    <title>CS:GO</title>
    <desc>Created with Sketch.</desc>
    <defs></defs>
    <g id="Навбар" stroke="none" stroke-width="1" fill="none" fill-rule="evenodd" transform="translate(-1361.000000, -27.000000)">
        <g id="Настройки">
            <g transform="translate(1251.000000, 0.000000)">
                <g id="CS:GO" transform="translate(110.000000, 24.000000)">
                    <g transform="translate(0.000000, 3.000000)">
                        <rect id="Rectangle-5" fill="#63ADF2" x="0" y="0" width="14" height="14" rx="2"></rect>
                        <path d="M7.77018318,2.37162806 L7.45555093,2.50855409 L7.426948,2.61809491 L7.45555093,2.78240614 L7.426948,2.86456175 L7.39834506,3.00148778 L7.65577145,3.00148778 C7.74158024,2.89194696 7.8845949,2.70025052 7.8845949,2.70025052 L8.39944767,2.70025052 L8.39944767,2.61809491 L8.65687406,2.61809491 L8.65687406,2.78240614 L9.20032976,2.78240614 L9.20032976,2.86456175 L9.77238839,2.86456175 L9.77238839,2.78240614 L9.85819719,2.78240614 L9.85819719,2.67286532 L9.85819719,2.64548011 L9.94400598,2.64548011 L9.94400598,2.72763573 L10.0584177,2.72763573 L10.0584177,3.00148778 L10.5160646,3.00148778 L10.5160646,2.83717655 L10.6304763,2.83717655 L10.6304763,3.00148778 L11.0881232,3.00148778 L11.0881232,2.78240614 L11.2597408,2.78240614 L11.2597408,3.22056942 L11.6315789,3.22056942 L11.6315789,3.49442147 L10.2300353,3.49442147 C10.2300353,3.49442147 10.2300353,3.6587327 10.1156236,3.76827352 C9.97260891,3.85042913 9.80099132,3.85042913 9.80099132,3.85042913 C9.71518253,4.12428118 10.2300353,5.00060774 10.2300353,5.00060774 L9.94400598,5.13753377 C9.62937373,4.64460008 9.54356494,4.26120721 9.51496201,4.12428118 C9.48635907,3.98735516 9.42915321,4.12428118 9.42915321,4.12428118 L9.31474148,4.34336282 C9.31474148,4.34336282 9.17172683,4.37074803 8.94290337,4.37074803 C8.71407992,4.39813323 8.91430044,4.233822 8.48525647,4.64460008 C8.48525647,4.67198528 8.39944767,4.67198528 8.37084474,4.72675569 C8.22783008,4.86368172 7.91319783,5.00060774 7.91319783,5.00060774 L7.19812454,4.97322254 C7.19812454,4.97322254 7.16952161,5.21968938 7.08371282,5.24707459 C6.96930109,5.27445979 6.99790402,5.60308225 6.96930109,5.74000828 C6.94069816,5.82216389 6.8834923,5.76739348 6.85488936,5.8495491 C6.82628643,5.93170471 6.76908057,6.06863074 6.76908057,6.06863074 L6.76908057,6.58894963 C6.99790402,6.45202361 7.54135972,7.19142414 7.54135972,7.19142414 C7.85599197,7.46527619 7.9704037,7.95820988 7.9704037,7.95820988 L7.82738904,8.17729152 L8.54246233,9.05361808 C8.65687406,9.43701095 8.85709458,10.2037967 8.85709458,10.7241156 C8.88569751,10.8336564 8.59966819,10.9979676 8.59966819,11.1075085 C8.59966819,11.2444345 8.62827113,11.2718197 8.68547699,11.4635161 C8.82849165,11.6004421 9.11452096,11.7647534 9.11452096,11.7647534 C9.54356494,12.2029167 9.51496201,12.5315391 9.34334442,12.5863095 C9.17172683,12.6684651 8.77128578,12.6136947 8.77128578,12.6136947 C8.54246233,12.6410799 8.31363888,12.3946131 8.14202129,12.2303019 C8.11341836,12.2029167 8.14202129,12.0933758 8.14202129,12.0933758 L7.9704037,12.0659906 C7.99900663,11.6552126 7.9704037,11.3813605 7.94180077,11.2444345 C7.91319783,11.1348937 7.85599197,11.1075085 7.85599197,11.1075085 C7.82738904,11.0801233 7.71297731,11.0801233 7.68437438,10.9705824 C7.51275679,10.4776487 7.36974213,9.54655177 7.36974213,9.54655177 L5.88238969,7.95820988 C5.88238969,7.95820988 5.22452226,9.40962575 5.02430174,10.0121003 C4.85268415,10.6145748 4.70966949,10.7515008 4.56665483,10.8884268 C4.5380519,10.915812 3.85158154,11.4087457 3.59415516,11.2444345 C3.56555223,11.2718197 3.70856688,11.6004421 3.70856688,11.7647534 C3.70856688,11.846909 4.02319913,11.7921386 3.96599327,11.983835 C3.93739034,12.120761 3.33672877,12.0659906 3.33672877,12.0659906 C3.02209652,12.0386054 2.87908187,11.7647534 2.821876,11.5182865 C2.79327307,11.2444345 2.67886134,11.5182865 2.67886134,11.4909013 C2.59305255,11.2718197 2.65025841,11.1896641 2.65025841,11.1896641 C2.76467014,10.9705824 2.93628773,10.8062712 3.19371411,10.5598044 C3.22231705,10.5324192 3.16511118,10.3407227 3.19371411,10.3133375 C3.50834636,10.0394855 3.76577275,9.82040382 3.76577275,9.82040382 C3.93739034,9.02623288 4.5380519,7.05449812 4.5380519,7.05449812 C4.42364017,6.69849045 4.45224311,6.12340115 4.56665483,5.74000828 C4.68106656,5.35661541 4.73827242,4.28859241 4.73827242,4.01474036 C4.76687535,3.60396229 5.05290467,3.33011024 5.28172812,3.08364339 C5.39613985,2.97410257 5.45334571,3.05625819 5.56775744,3.05625819 C5.65356623,3.02887298 5.79658089,2.97410257 5.85378676,2.94671737 C5.88238969,2.94671737 5.76797796,2.91933216 5.76797796,2.91933216 L5.73937503,2.23470204 C5.88238969,1.68699794 6.36863953,1.63222753 6.74047764,1.63222753 C7.51275679,1.60484232 7.65577145,2.45378368 7.65577145,2.45378368 L7.77018318,2.37162806 L7.77018318,2.37162806 Z M7.54135972,4.04212557 C7.65577145,4.01474036 7.68437438,3.90519954 7.77018318,3.87781434 C7.8845949,3.85042913 7.99900663,3.79565872 8.17062422,3.74088831 C8.34224181,3.6587327 8.39944767,3.52180667 8.39944767,3.52180667 C8.39944767,3.52180667 7.71297731,3.49442147 7.56996265,3.52180667 C7.39834506,3.54919188 7.16952161,3.6861179 7.16952161,3.6861179 C7.14091868,3.79565872 7.08371282,4.04212557 7.08371282,4.04212557 L7.54135972,4.04212557 Z" id="Shape" fill="#1B1B27" fill-rule="nonzero"></path>
                    </g>
                </g>
            </g>
        </g>
    </g>
</svg>