<?xml version="1.0" encoding="UTF-8"?>
<svg width="11px" height="16px" viewBox="0 0 11 16" version="1.1" xmlns="http://www.w3.org/2000/svg" xmlns:xlink="http://www.w3.org/1999/xlink">
    <!-- Generator: Sketch 48.1 (47250) - http://www.bohemiancoding.com/sketch -->
    <title>Shape</title>
    <desc>Created with Sketch.</desc>
    <defs></defs>
    <g id="Главная" stroke="none" stroke-width="1" fill="none" fill-rule="evenodd" transform="translate(-791.000000, -360.000000)" fill-opacity="0.6">
        <g id="Ограниченная-серия" transform="translate(262.000000, 285.000000)" fill="#63ADF2" fill-rule="nonzero">
            <g id="AirDrop" transform="translate(467.000000, 66.000000)">
                <g id="Кол-во-открытий" transform="translate(40.000000, 0.000000)">
                    <g id="lightning" transform="translate(22.000000, 6.000000)">
                        <path d="M3.83103097,18.8329534 C3.89940704,18.8603038 3.9677831,18.873979 4.03615917,18.873979 C4.21393695,18.873979 4.39171473,18.7919277 4.50111644,18.6278252 L10.3677831,10.1491927 C10.49086,9.98509011 10.5045352,9.75261148 10.4088087,9.5748337 C10.3130822,9.39705592 10.1216293,9.273979 9.91650105,9.273979 L6.27889422,9.24662857 L7.33188567,3.66714139 C7.38658652,3.42098754 7.24983439,3.16115848 7.01735575,3.05175678 C6.78487712,2.94235507 6.51137285,3.01073113 6.34727028,3.21585934 L0.125048062,11.0517568 C-0.0117040749,11.2158593 -0.0390545023,11.448338 0.0566719935,11.639791 C0.152398489,11.831244 0.343851481,11.9543209 0.562654899,11.9543209 L4.58316772,11.9816713 L3.50282584,18.2175687 C3.44812498,18.4773978 3.58487712,18.7372269 3.83103097,18.8329534 Z" id="Shape"></path>
                    </g>
                </g>
            </g>
        </g>
    </g>
</svg>