<?xml version="1.0" encoding="UTF-8"?>
<svg width="20px" height="20px" viewBox="0 0 20 20" version="1.1" xmlns="http://www.w3.org/2000/svg" xmlns:xlink="http://www.w3.org/1999/xlink">
    <!-- Generator: Sketch 48.2 (47327) - http://www.bohemiancoding.com/sketch -->
    <title>Shape</title>
    <desc>Created with Sketch.</desc>
    <defs></defs>
    <g id="Выдача-Copy" stroke="none" stroke-width="1" fill="none" fill-rule="evenodd" transform="translate(-965.000000, -702.000000)">
        <g id="Case" transform="translate(250.000000, 204.000000)" fill="#FFFFFF" fill-rule="nonzero">
            <g id="Header" transform="translate(374.000000, 45.000000)">
                <g id="Buttons" transform="translate(0.000000, 432.000000)">
                    <g id="Open-" transform="translate(266.000000, 0.000000)">
                        <g id="Group-11" transform="translate(75.000000, 21.000000)">
                            <g id="icon-(3)">
                                <path d="M13.9015365,13.1642571 C15.2083153,9.71276868 16.3288802,6.64815601 16.8914709,4.96535589 L8.79597014,2.89953728 L5.10205264,12.3150772 L3.05323911,11.5684495 L3.20354012,11.1866168 L7.08321568,1.33089561 C7.26652977,0.824831159 7.78968406,0.530652561 8.33631993,0.637031564 L18.5099463,3.08999911 C18.8125364,3.15086105 19.0749365,3.33707432 19.2336898,3.60257864 C19.3930255,3.87031454 19.4300266,4.19128738 19.3356088,4.48698724 C19.2950562,4.61465278 18.7475244,6.19277029 18.2587299,7.57508303 C17.4668784,9.81444201 16.6750651,11.9951158 15.940699,13.9359653 C14.4561272,17.8580622 13.3942501,19.1656507 10.872428,19.2249401 C10.0592366,19.2615767 9.20591193,19.0116639 8.81557422,18.8054551 L3.11479954,16.2138816 C2.78297333,16.1100153 2.31270274,15.8657391 1.84438637,15.4291351 C0.872098546,14.5226862 0.396230164,13.1850946 0.68037802,11.3840632 L0.758788399,10.88707 L9.32842523,14.3486987 L9.32456904,14.6226125 C9.32222979,14.9492875 9.37757818,15.4276611 9.54263575,15.8900692 C9.84052703,16.7246106 10.3699357,17.1374499 11.2826423,17.0095093 L11.3731498,16.9968222 C12.2850823,16.7936092 12.8513078,15.9402664 13.9015365,13.1642571 Z M8.58410053,12.0249023 C8.62308867,11.4673459 9.09469254,11.0457118 9.63665065,11.0836092 C10.1790407,11.1215368 10.5868949,11.6046686 10.5479068,12.162225 C10.5088884,12.7202134 10.0377165,13.1418777 9.49537442,13.1039534 C8.95341967,13.066008 8.54508218,12.5828907 8.58410053,12.0249023 Z M13.0866555,5.64934751 L11.5929829,9.51110557 C11.426198,9.98849054 10.9047329,10.2382686 10.4285656,10.0720028 C9.95282692,9.90581527 9.70310224,9.37875932 9.86933243,8.90861823 L11.3634748,5.04703771 C11.5296489,4.57149098 12.0512506,4.31906988 12.5274088,4.48615489 C12.9237405,4.62643689 13.1645517,5.01059235 13.1366153,5.41010168 C13.130967,5.49087705 13.1137773,5.5718582 13.0866555,5.64934751 Z" id="Shape"></path>
                            </g>
                        </g>
                    </g>
                </g>
            </g>
        </g>
    </g>
</svg>