<?xml version="1.0" encoding="UTF-8"?>
<svg width="54px" height="54px" viewBox="0 0 54 54" version="1.1" xmlns="http://www.w3.org/2000/svg" xmlns:xlink="http://www.w3.org/1999/xlink">
    <!-- Generator: Sketch 48.2 (47327) - http://www.bohemiancoding.com/sketch -->
    <title>Group 5</title>
    <desc>Created with Sketch.</desc>
    <defs></defs>
    <g id="Главная" stroke="none" stroke-width="1" fill="none" fill-rule="evenodd" transform="translate(-988.000000, -176.000000)">
        <g id="Статистика" transform="translate(220.000000, 175.000000)" fill-rule="nonzero">
            <g id="Онлайн" transform="translate(768.000000, 0.000000)">
                <g class="radar-online" id="Group-5" transform="translate(0.000000, 1.000000)">
                    <path d="M24,1.77635684e-15 L24,2.52475567 C11.884178,4.00852276 2.5,14.3636881 2.5,26.9173546 C2.5,40.4897485 13.4690236,51.4923477 27,51.4923477 C40.5309764,51.4923477 51.5,40.4897485 51.5,26.9173546 C51.5,14.3636881 42.115822,4.00852276 30,2.52475567 L30,1.33226763e-15 C43.4998514,1.49690081 54,12.9771538 54,26.9173546 C54,41.8746867 41.9116882,54 27,54 C12.0883118,54 0,41.8746867 0,26.9173546 C0,12.9771538 10.5001486,1.49690081 24,9.71445147e-16 Z" id="Oval-3" fill="#63ADF2"></path>
                    <path d="M24,10 L24,12.5667742 C17.4313893,13.9594427 12.5,19.8328406 12.5,26.8670349 C12.5,34.9377992 18.9918711,41.4804463 27,41.4804463 C35.0081289,41.4804463 41.5,34.9377992 41.5,26.8670349 C41.5,19.8328406 36.5686107,13.9594427 30,12.5667742 L30,10 C37.9580327,11.4280155 44,18.4364179 44,26.8670349 C44,36.3293103 36.3888407,44 27,44 C17.6111593,44 10,36.3293103 10,26.8670349 C10,18.4364179 16.0419673,11.4280155 24,10 Z" id="Oval-3-Copy" fill="#63ADF2"></path>
                    <path d="M28,21.0434783 C28,21.5717506 27.5522847,22 27,22 C26.4477153,22 26,21.5717506 26,21.0434783 L26,0.956521739 C26,0.42824937 26.4477153,0 27,0 C27.5522847,0 28,0.42824937 28,0.956521739 L28,21.0434783 Z" id="Path-3" fill="#FFFFFF"></path>
                    <path d="M27,31.5 C29.4852814,31.5 31.5,29.4852814 31.5,27 C31.5,24.5147186 29.4852814,22.5 27,22.5 C24.5147186,22.5 22.5,24.5147186 22.5,27 C22.5,29.4852814 24.5147186,31.5 27,31.5 Z M27,34 C23.1340068,34 20,30.8659932 20,27 C20,23.1340068 23.1340068,20 27,20 C30.8659932,20 34,23.1340068 34,27 C34,30.8659932 30.8659932,34 27,34 Z" id="Oval-3-Copy-2" fill="#FFFFFF"></path>
                </g>
            </g>
        </g>
    </g>
</svg>