<?xml version="1.0" encoding="utf-8"?>
<!-- Generator: Adobe Illustrator 16.0.0, SVG Export Plug-In . SVG Version: 6.00 Build 0)  -->
<!DOCTYPE svg PUBLIC "-//W3C//DTD SVG 1.1//EN" "http://www.w3.org/Graphics/SVG/1.1/DTD/svg11.dtd">
<svg version="1.1" id="Layer_1" xmlns="http://www.w3.org/2000/svg" xmlns:xlink="http://www.w3.org/1999/xlink" x="0px" y="0px"
	 width="566.93px" height="566.93px" viewBox="0 0 566.93 566.93" enable-background="new 0 0 566.93 566.93" xml:space="preserve">
<path opacity="0.18" fill="#63ADF2" enable-background="new    " d="M226.108,402.72v-47.171c-1.218-1.107-2.437-2.104-3.544-3.211
	c-20.706-20.042-31.446-48.277-31.446-77.067v-47.613c0-44.623,36.208-80.831,80.832-80.831h9.965h1.551h9.965
	c44.624,0,80.832,36.208,80.832,80.831v47.613c0,28.79-10.74,57.025-31.447,77.067c-1.218,1.107-2.325,2.104-3.543,3.211v47.171
	l112.832,37.536c38.201-41.08,61.676-96.223,61.676-156.791c0-127.227-103.088-230.315-230.314-230.315
	C156.238,53.15,53.15,156.239,53.15,283.465c0,60.236,23.143,115.047,61.012,156.017L226.108,402.72z"/>
<path fill="none" stroke="#63ADF2" stroke-width="24" stroke-linecap="round" stroke-linejoin="round" d="M114.05,439.482
	l112.058-36.873v-47.17c-1.218-1.107-2.437-2.104-3.544-3.211c-20.706-20.042-31.446-48.278-31.446-77.067v-47.613
	c0-44.623,36.208-80.832,80.832-80.832h11.516h-1.551h11.516c44.624,0,80.832,36.209,80.832,80.832v47.613
	c0,28.789-10.74,57.025-31.447,77.067c-1.218,1.107-2.325,2.104-3.543,3.211v47.17l112.832,37.647"/>
<path fill="none" stroke="#FFFFFF" stroke-width="24" stroke-linecap="round" stroke-linejoin="round" d="M307.492,297.638
	c-13.287,13.288-34.769,13.288-47.945,0"/>
<circle fill="none" stroke="#63ADF2" stroke-width="24" stroke-linejoin="round" cx="283.465" cy="283.465" r="230.315"/>
</svg>
