<svg xmlns="http://www.w3.org/2000/svg" width="20" height="24" viewBox="0 0 20 24">
  <path fill="#63ADF2" d="M9.80425532 23.9659574C11.007531 23.9659574 11.9829787 22.9905098 11.9829787 21.787234L7.62553191 21.787234C7.62553191 22.9905098 8.60097961 23.9659574 9.80425532 23.9659574zM19.5257191 18.9363745C19.6943719 18.5291954 19.6010651 18.0605119 19.2893277 17.7489702L17.4297872 15.8894298 17.4297872 9.80425532C17.4253486 6.01699984 14.6420308 2.80690661 10.893617 2.26587234L10.893617 1.0893617C10.893617.487723847 10.4058932 0 9.80425532 0 9.20261746 0 8.71489362.487723847 8.71489362 1.0893617L8.71489362 2.26587234C4.96647986 2.80690661 2.18316203 6.01699984 2.1787234 9.80425532L2.1787234 15.8894298.319182979 17.7489702C.00772584516 18.0605214-.085429821 18.5289931.0831422877 18.9359982.251714396 19.3430032.648828298 19.6085107 1.0893617 19.6085107L18.5191489 19.6085107C18.9597185 19.6085107 19.356981 19.3433499 19.5257191 18.9363745zM3.71908085 17.4297872L4.03826383 17.1106043C4.24257294 16.9063569 4.35738511 16.6293186 4.35744681 16.3404255L4.35744681 9.80425532C4.35744681 6.79606604 6.79606604 4.35744681 9.80425532 4.35744681 12.8124446 4.35744681 15.2510638 6.79606604 15.2510638 9.80425532L15.2510638 16.3404255C15.2511255 16.6293186 15.3659377 16.9063569 15.5702468 17.1106043L15.8894298 17.4297872 3.71908085 17.4297872z"/>
</svg>
