<?xml version="1.0" encoding="UTF-8"?>
<svg width="17px" height="14px" viewBox="0 0 17 14" version="1.1" xmlns="http://www.w3.org/2000/svg" xmlns:xlink="http://www.w3.org/1999/xlink">
    <!-- Generator: Sketch 48.2 (47327) - http://www.bohemiancoding.com/sketch -->
    <title>CS:GO</title>
    <desc>Created with Sketch.</desc>
    <defs>
        <linearGradient x1="-2.16323416e-14%" y1="50%" x2="100%" y2="50%" id="linearGradient-1">
            <stop stop-color="#FFC755" offset="0%"></stop>
            <stop stop-color="#FFD92B" offset="100%"></stop>
        </linearGradient>
    </defs>
    <g id="Навбар" stroke="none" stroke-width="1" fill="none" fill-rule="evenodd" transform="translate(-1263.000000, -27.000000)">
        <g id="Настройки">
            <g transform="translate(1251.000000, 0.000000)">
                <g id="PUBG" transform="translate(12.000000, 24.000000)">
                    <g id="CS:GO" transform="translate(0.000000, 3.000000)">
                        <g id="Group-2">
                            <path d="M15.3256705,4.90421456 L15.3256705,8.95019157 L16.4291188,8.95019157 C16.5645449,8.95019157 16.6743295,9.05997615 16.6743295,9.1954023 L16.6743295,10.6666667 C16.6743295,10.8020928 16.5645449,10.9118774 16.4291188,10.9118774 L15.3256705,10.9118774 L15.3256705,12.137931 C15.3256705,13.1536271 14.5022861,13.9770115 13.48659,13.9770115 L3.18773946,13.9770115 C2.17204337,13.9770115 1.348659,13.1536271 1.348659,12.137931 L1.348659,10.9118774 L0.245210728,10.9118774 C0.109784582,10.9118774 1.65849196e-17,10.8020928 0,10.6666667 L0,9.1954023 C-1.65849196e-17,9.05997615 0.109784582,8.95019157 0.245210728,8.95019157 L1.348659,8.95019157 L1.348659,4.90421456 L0.245210728,4.90421456 C0.109784582,4.90421456 1.65849196e-17,4.79442998 0,4.65900383 L0,3.18773946 C-1.65849196e-17,3.05231332 0.109784582,2.94252874 0.245210728,2.94252874 L1.348659,2.94252874 L1.348659,1.83908046 C1.348659,0.823384368 2.17204337,-7.10542736e-15 3.18773946,-6.23426385e-15 L13.48659,-6.23426385e-15 C14.5022861,-6.23426385e-15 15.3256705,0.823384368 15.3256705,1.83908046 L15.3256705,2.94252874 L16.4291188,2.94252874 C16.5645449,2.94252874 16.6743295,3.05231332 16.6743295,3.18773946 L16.6743295,4.65900383 C16.6743295,4.79442998 16.5645449,4.90421456 16.4291188,4.90421456 L15.3256705,4.90421456 Z M3.18773946,1.83908046 L3.18773946,12.137931 L13.48659,12.137931 L13.48659,1.83908046 L3.18773946,1.83908046 Z" id="Rectangle-8" fill="url(#linearGradient-1)" fill-rule="nonzero"></path>
                            <path d="M4.7816092,3.0651341 L7.4789272,3.0651341 C7.68206642,3.0651341 7.8467433,3.22981097 7.8467433,3.43295019 L7.8467433,6.1302682 C7.8467433,6.33340742 7.68206642,6.49808429 7.4789272,6.49808429 L4.7816092,6.49808429 C4.57846998,6.49808429 4.4137931,6.33340742 4.4137931,6.1302682 L4.4137931,3.43295019 C4.4137931,3.22981097 4.57846998,3.0651341 4.7816092,3.0651341 Z" id="Path" fill="#FFFFFF"></path>
                            <path d="M9.1954023,3.0651341 L11.8927203,3.0651341 C12.0958595,3.0651341 12.2605364,3.22981097 12.2605364,3.43295019 L12.2605364,6.1302682 C12.2605364,6.33340742 12.0958595,6.49808429 11.8927203,6.49808429 L9.1954023,6.49808429 C8.99226308,6.49808429 8.82758621,6.33340742 8.82758621,6.1302682 L8.82758621,3.43295019 C8.82758621,3.22981097 8.99226308,3.0651341 9.1954023,3.0651341 Z" id="Path" fill="#FFFFFF"></path>
                            <path d="M9.1954023,7.4789272 L11.8927203,7.4789272 C12.0958595,7.4789272 12.2605364,7.64360408 12.2605364,7.8467433 L12.2605364,10.5440613 C12.2605364,10.7472005 12.0958595,10.9118774 11.8927203,10.9118774 L9.1954023,10.9118774 C8.99226308,10.9118774 8.82758621,10.7472005 8.82758621,10.5440613 L8.82758621,7.8467433 C8.82758621,7.64360408 8.99226308,7.4789272 9.1954023,7.4789272 Z" id="Path" fill="#FFFFFF"></path>
                            <path d="M4.7816092,7.4789272 L7.4789272,7.4789272 C7.68206642,7.4789272 7.8467433,7.64360408 7.8467433,7.8467433 L7.8467433,10.5440613 C7.8467433,10.7472005 7.68206642,10.9118774 7.4789272,10.9118774 L4.7816092,10.9118774 C4.57846998,10.9118774 4.4137931,10.7472005 4.4137931,10.5440613 L4.4137931,7.8467433 C4.4137931,7.64360408 4.57846998,7.4789272 4.7816092,7.4789272 Z" id="Path" fill="#FFFFFF"></path>
                        </g>
                    </g>
                </g>
            </g>
        </g>
    </g>
</svg>