<?xml version="1.0" encoding="UTF-8"?>
<svg width="11px" height="12px" viewBox="0 0 11 12" version="1.1" xmlns="http://www.w3.org/2000/svg" xmlns:xlink="http://www.w3.org/1999/xlink">
    <!-- Generator: Sketch 61.2 (89653) - https://sketch.com -->
    <title>Path 6</title>
    <desc>Created with Sketch.</desc>
    <g id="Профиль" stroke="none" stroke-width="1" fill="none" fill-rule="evenodd">
        <g id="Профиль-Copy-5" transform="translate(-435.000000, -924.000000)" fill="#FFFFFF" fill-rule="nonzero">
            <g id="Профиль" transform="translate(220.000000, 285.000000)">
                <g id="Табы" transform="translate(0.000000, 483.000000)">
                    <g id="Предметы" transform="translate(42.000000, 151.000000)">
                        <g id="1">
                            <g id="Group-5" transform="translate(167.000000, 0.000000)">
                                <path d="M16.8330679,13.3889774 L16.8330679,14.5926516 C16.8330679,16.1694648 14.1127642,17 11.416534,17 C8.72030373,17 6,16.1694648 6,14.5926516 L6,14.5926516 L6,13.3889774 C6,14.9657906 8.72030373,15.7963258 11.416534,15.7963258 C14.1127642,15.7963258 16.8330679,14.9657906 16.8330679,13.3889774 L16.8330679,13.3889774 Z M16.8330679,10.9816289 L16.8330679,12.1853031 C16.8330679,13.7621164 14.1127642,14.5926516 11.416534,14.5926516 C8.72030373,14.5926516 6,13.7621164 6,12.1853031 L6,12.1853031 L6,10.9816289 C6,12.5584421 8.72030373,13.3889774 11.416534,13.3889774 C14.1127642,13.3889774 16.8330679,12.5584421 16.8330679,10.9816289 L16.8330679,10.9816289 Z M16.8330679,8.57428049 L16.8330679,9.77795471 C16.8330679,11.3547679 14.1127642,12.1853031 11.416534,12.1853031 C8.72030373,12.1853031 6,11.3547679 6,9.77795471 L6,9.77795471 L6,8.57428049 C6,10.1510937 8.72030373,10.9816289 11.416534,10.9816289 C14.1127642,10.9816289 16.8330679,10.1510937 16.8330679,8.57428049 L16.8330679,8.57428049 Z M6,7.37060628 C6,4.20979791 16.8330679,4.20979791 16.8330679,7.37060628 C16.8330679,8.95103052 14.1083507,9.77795471 11.416534,9.77795471 C8.7247172,9.77795471 6,8.95103052 6,7.37060628 Z" id="Path-6"></path>
                            </g>
                        </g>
                    </g>
                </g>
            </g>
        </g>
    </g>
</svg>