<svg xmlns="http://www.w3.org/2000/svg" width="16" height="16" viewBox="0 0 16 16">
  <path fill="#B1BBCA" d="M31.4748571,24.564772 L27.6011429,20.6065965 C28.5971429,19.4433684 29.1428571,17.9797895 29.1428571,16.4561404 C29.1428571,12.8962807 26.1948571,10 22.5714286,10 C18.948,10 16,12.8962807 16,16.4561404 C16,20.016 18.948,22.9122807 22.5714286,22.9122807 C23.9317143,22.9122807 25.228,22.509193 26.3362857,21.744 L30.2394286,25.7322106 C30.4025714,25.8986667 30.622,25.9904562 30.8571429,25.9904562 C31.0797143,25.9904562 31.2908571,25.9070878 31.4511429,25.7555088 C31.7917143,25.4335439 31.8025714,24.8996492 31.4748571,24.564772 Z M22.5714286,11.6842105 C25.2497143,11.6842105 27.4285714,13.8248421 27.4285714,16.4561404 C27.4285714,19.0874386 25.2497143,21.2280702 22.5714286,21.2280702 C19.8931429,21.2280702 17.7142857,19.0874386 17.7142857,16.4561404 C17.7142857,13.8248421 19.8931429,11.6842105 22.5714286,11.6842105 Z" transform="translate(-16 -10)"/>
</svg>
