<svg xmlns="http://www.w3.org/2000/svg" width="26" height="22" viewBox="0 0 26 22">
  <path fill="#63ADF2" d="M49.7712084,36.5957038 L38.3642024,17.7668436 C38.0759169,17.290978 37.558303,17 36.9999624,17 C36.4416219,17 35.924008,17.2909275 35.6357225,17.7668436 L24.2288181,36.5957038 C23.9321536,37.0854182 23.9233685,37.6962345 24.2059157,38.194137 C24.4884629,38.69209 25.0184675,39 25.5930072,39 L48.4069684,39 C48.9815082,39 49.5115127,38.6920394 49.79406,38.194137 C50.0766072,37.696184 50.0678728,37.0854182 49.7712084,36.5957038 Z M37.0084937,23.513116 C37.6636234,23.513116 38.2179522,23.8809704 38.2179522,24.5329795 C38.2179522,26.5225171 37.9827839,29.3815517 37.9827839,31.3710892 C37.9827839,31.8894112 37.4116465,32.106697 37.0084937,32.106697 C36.4710243,32.106697 36.0174456,31.8893606 36.0174456,31.3710892 C36.0174456,29.3815517 35.7823281,26.5225171 35.7823281,24.5329795 C35.7823281,23.8809704 36.3197975,23.513116 37.0084937,23.513116 Z M37.0253023,35.8351276 C36.2862311,35.8351276 35.7318515,35.2332575 35.7318515,34.5477887 C35.7318515,33.8455901 36.2861803,33.2604498 37.0253023,33.2604498 C37.7139985,33.2604498 38.3019445,33.8455901 38.3019445,34.5477887 C38.3019445,35.2332575 37.7139985,35.8351276 37.0253023,35.8351276 Z" transform="translate(-24 -17)"/>
</svg>
