<svg xmlns="http://www.w3.org/2000/svg" width="20" height="20" viewBox="0 0 20 20">
  <g fill="none" fill-rule="evenodd" stroke="#63ADF2" stroke-width="2" transform="translate(1 1)">
    <path d="M8.60869565,11.25 C3.67841367,11.25 0,12.9027259 0,14.3804348 C0.0947690217,14.9372028 0.436396109,15.4213655 0.928965717,15.6976478 C2.28668478,16.6774372 4.70749833,17.3301206 7.42446499,17.4780061 C7.81576934,17.4990234 8.20707368,17.5101053 8.60563859,17.5101053 C11.7914827,17.5101053 14.7319973,16.8165337 16.2788723,15.7014691 C16.7756454,15.425569 17.1203294,14.9398777 17.2173913,14.3804348 C17.2173913,12.9027259 13.5389776,11.25 8.60869565,11.25 Z"/>
    <path fill="#080B10" d="M8.60869565,5.625 C3.67841367,5.625 0,7.27772586 0,8.75543478 C0.0947690217,9.31220276 0.436396109,9.79636549 0.928965717,10.0726478 C2.28668478,11.0524372 4.70749833,11.7051206 7.42446499,11.8530061 C7.81576934,11.8740234 8.20707368,11.8851053 8.60563859,11.8851053 C11.7914827,11.8851053 14.7319973,11.1915337 16.2788723,10.0764691 C16.7756454,9.80056898 17.1203294,9.31487772 17.2173913,8.75543478 C17.2173913,7.27772586 13.5389776,5.625 8.60869565,5.625 Z"/>
    <path fill="#080B10" d="M8.60869565,0 C3.67841367,0 0,1.65272586 0,3.13043478 C0.0947690217,3.68720276 0.436396109,4.17136549 0.928965717,4.44764778 C2.28668478,5.42743718 4.70749833,6.08012061 7.42446499,6.22800607 C7.81576934,6.24902341 8.20707368,6.26010535 8.60563859,6.26010535 C11.7914827,6.26010535 14.7319973,5.56653365 16.2788723,4.45146907 C16.7756454,4.17556898 17.1203294,3.68987772 17.2173913,3.13043478 C17.2173913,1.65272586 13.5389776,0 8.60869565,0 Z"/>
  </g>
</svg>
