<svg xmlns="http://www.w3.org/2000/svg" width="22" height="22" viewBox="0 0 22 22">
  <g fill="none" fill-rule="evenodd">
    <circle cx="11" cy="11" r="11" fill="#63ADF2"/>
    <path fill="#FFF" fill-rule="nonzero" d="M9.68,16.52 L9.68,9.48 C9.68,9.16 9.84,9 10.16,9 L11.84,9 C12.16,9 12.32,9.16 12.32,9.48 L12.32,16.52 C12.32,16.84 12.16,17 11.84,17 L10.16,17 C9.84,17 9.68,16.84 9.68,16.52 Z M9.68,7.56 L9.68,6.12 C9.68,5.8 9.84,5.64 10.16,5.64 L11.84,5.64 C12.16,5.64 12.32,5.8 12.32,6.12 L12.32,7.56 C12.32,7.88 12.16,8.04 11.84,8.04 L10.16,8.04 C9.84,8.04 9.68,7.88 9.68,7.56 Z"/>
  </g>
</svg>
