<?xml version="1.0" encoding="UTF-8"?>
<svg width="14px" height="14px" viewBox="0 0 14 14" version="1.1" xmlns="http://www.w3.org/2000/svg" xmlns:xlink="http://www.w3.org/1999/xlink">
    <!-- Generator: Sketch 48.2 (47327) - http://www.bohemiancoding.com/sketch -->
    <title>Иконка</title>
    <desc>Created with Sketch.</desc>
    <defs></defs>
    <g id="Live-лента" stroke="none" stroke-width="1" fill="none" fill-rule="evenodd" transform="translate(-584.000000, -6.000000)" fill-opacity="0.5">
        <g fill="#FFFFFF" fill-rule="nonzero" id="5-(uncommon)">
            <g transform="translate(484.000000, 0.000000)">
                <g id="Иконка" transform="translate(100.000000, 6.000000)">
                    <path d="M7,12.075 C9.80284511,12.075 12.075,9.80284511 12.075,7 C12.075,4.19715489 9.80284511,1.925 7,1.925 C4.19715489,1.925 1.925,4.19715489 1.925,7 C1.925,9.80284511 4.19715489,12.075 7,12.075 Z M7,13.125 C3.61725591,13.125 0.875,10.3827441 0.875,7 C0.875,3.61725591 3.61725591,0.875 7,0.875 C10.3827441,0.875 13.125,3.61725591 13.125,7 C13.125,10.3827441 10.3827441,13.125 7,13.125 Z M7,8.575 C7.86984848,8.575 8.575,7.86984848 8.575,7 C8.575,6.13015152 7.86984848,5.425 7,5.425 C6.13015152,5.425 5.425,6.13015152 5.425,7 C5.425,7.86984848 6.13015152,8.575 7,8.575 Z M7,9.625 C5.55025253,9.625 4.375,8.44974747 4.375,7 C4.375,5.55025253 5.55025253,4.375 7,4.375 C8.44974747,4.375 9.625,5.55025253 9.625,7 C9.625,8.44974747 8.44974747,9.625 7,9.625 Z M7.00000136,0 C7.28995086,-5.326286e-17 7.52500138,0.235050516 7.52500138,0.525000021 L7.52500138,2.97499998 C7.52500138,3.26494948 7.28995086,3.5 7.00000136,3.5 C6.71005185,3.5 6.47500134,3.26494948 6.47500134,2.97499998 L6.47500134,0.525000021 C6.47500134,0.235050516 6.71005185,5.326286e-17 7.00000136,0 Z M11.025,6.5625 L13.475,6.5625 C13.7649495,6.5625 14,6.79755052 14,7.08750002 C14,7.37744953 13.7649495,7.61250004 13.475,7.61250004 L11.025,7.61250004 C10.7350505,7.61250004 10.5,7.37744953 10.5,7.08750002 C10.5,6.79755052 10.7350505,6.5625 11.025,6.5625 Z M0.525000021,6.47499466 L2.97499998,6.47499466 C3.26494948,6.47499466 3.5,6.71004518 3.5,6.99999468 C3.5,7.28994419 3.26494948,7.5249947 2.97499998,7.5249947 L0.525000021,7.5249947 C0.235050516,7.5249947 3.55085733e-17,7.28994419 0,6.99999468 C-3.55085733e-17,6.71004518 0.235050516,6.47499466 0.525000021,6.47499466 Z M7.00000136,10.5 C7.28995086,10.5 7.52500138,10.7350505 7.52500138,11.025 L7.52500138,13.475 C7.52500138,13.7649495 7.28995086,14 7.00000136,14 C6.71005185,14 6.47500134,13.7649495 6.47500134,13.475 L6.47500134,11.025 C6.47500134,10.7350505 6.71005185,10.5 7.00000136,10.5 Z" id="Oval-2"></path>
                </g>
            </g>
        </g>
    </g>
</svg>