<svg xmlns="http://www.w3.org/2000/svg" width="16" height="14" viewBox="0 0 16 14">
  <path fill="#FEAB3A" d="M8,0 L10.5980762,1.5 L10.5980762,4.5 L8.49992379,5.711 L8.5,7.73240812 L10.8039238,9.268 L13,8 L15.5980762,9.5 L15.5980762,12.5 L13,14 L10.4019238,12.5 L10.4019238,10.203 L7.99992379,8.601 L5.59792379,10.202 L5.59807621,12.5 L3,14 L0.401923789,12.5 L0.401923789,9.5 L3,8 L5.19492379,9.267 L7.49992379,7.731 L7.49992379,5.711 L5.40192379,4.5 L5.40192379,1.5 L8,0 Z M3,9.38564065 L1.60192379,10.1928203 L1.60192379,11.8071797 L3,12.6143594 L4.39807621,11.8071797 L4.39807621,10.1928203 L3,9.38564065 Z M13,9.38564065 L11.6019238,10.1928203 L11.6019238,11.8071797 L13,12.6143594 L14.3980762,11.8071797 L14.3980762,10.1928203 L13,9.38564065 Z M8,1.38564065 L6.60192379,2.19282032 L6.60192379,3.80717968 L8,4.61435935 L9.39807621,3.80717968 L9.39807621,2.19282032 L8,1.38564065 Z" transform="matrix(1 0 0 -1 0 14)"/>
</svg>
