<svg xmlns="http://www.w3.org/2000/svg" width="18" height="16" viewBox="0 0 18 16">
  <g fill="none" fill-rule="evenodd" transform="translate(1 1)">
    <path stroke="#63ADF2" stroke-linecap="round" stroke-linejoin="round" stroke-width="1.2" d="M1.06558045,5.78167006 C1.0802444,5.78167006 1.09327902,5.78167006 1.10794297,5.78004073 L2.5287169,10.9221996 L8,10.9221996 L13.4696538,10.9221996 L14.8904277,5.78004073 C14.9050754,5.78004073 14.91811,5.78167006 14.9327902,5.78167006 C15.5209776,5.78167006 15.9983707,5.30427699 15.9983707,4.71608961 C15.9983707,4.12790224 15.5209613,3.65050916 14.9327902,3.65050916 C14.3446191,3.65050916 13.8672098,4.12790224 13.8672098,4.71608961 C13.8672098,4.83014257 13.8851487,4.94093686 13.9193483,5.04358452 L11.3498982,6.54582485 L8.58818737,1.96741344 C8.87496538,1.77678208 9.06559674,1.44928717 9.06559674,1.07942974 C9.06559674,0.491242363 8.58818737,0.0138492872 8.00001629,0.0138492872 C7.41184521,0.0138492872 6.93443585,0.491242363 6.93443585,1.07942974 C6.93443585,1.4509165 7.12345418,1.77678208 7.41184521,1.96741344 L4.65013442,6.54582485 L2.08068432,5.04358452 C2.11327088,4.94093686 2.13282281,4.83014257 2.13282281,4.71608961 C2.13282281,4.12790224 1.65542974,3.65050916 1.06724236,3.65050916 C0.477425662,3.65050916 3.2586558e-05,4.12790224 3.2586558e-05,4.71608961 C3.2586558e-05,5.30427699 0.477393075,5.78167006 1.06558045,5.78167006 Z"/>
    <rect width="12" height="1.2" x="2" y="13" fill="#63ADF2" rx=".6"/>
  </g>
</svg>
