<svg xmlns="http://www.w3.org/2000/svg" width="15" height="13" viewBox="0 0 15 13">
  <path fill="#63ADF2" fill-opacity=".6" d="M12.3106602,13.5 L14.2803301,15.4696699 C14.5732233,15.7625631 14.5732233,16.2374369 14.2803301,16.5303301 C13.9874369,16.8232233 13.5125631,16.8232233 13.2196699,16.5303301 L11.25,14.5606602 L9.28033009,16.5303301 L8.21966991,15.4696699 L9.71966991,13.9696699 L7.25,11.5 L4.78033009,13.9696699 L6.28033009,15.4696699 L5.21966991,16.5303301 L3.25,14.5606602 L1.28033009,16.5303301 C0.987436867,16.8232233 0.512563133,16.8232233 0.219669914,16.5303301 C-0.0732233047,16.2374369 -0.0732233047,15.7625631 0.219669914,15.4696699 L2.18933983,13.5 L0.219669914,11.5303301 L1.28033009,10.4696699 L2.78033009,11.9696699 L5.25,9.5 L1.75,6 L1.75,4 L3.75,4 L7.25,7.5 L10.75,4 L12.75,4 L12.75,6 L9.25,9.5 L11.7196699,11.9696699 L13.2196699,10.4696699 L14.2803301,11.5303301 L12.3106602,13.5 Z" transform="translate(0 -4)"/>
</svg>
