<svg xmlns="http://www.w3.org/2000/svg" width="16" height="16" viewBox="0 0 16 16">
  <path fill="none" stroke="#63ADF2" stroke-width="1.5" d="M1.2819426.75C.988757819.75.926970926.761931599.865276292.79492625.833014684.812179947.812179947.833014684.79492625.865276292.761931599.926970926.75.988757819.75 1.2819426L.75 5.7180574C.75 6.01124218.761931599 6.07302907.79492625 6.13472371.812179947 6.16698532.833014684 6.18782005.865276292 6.20507375.926970926 6.2380684.988757819 6.25 1.2819426 6.25L5.7180574 6.25C6.01124218 6.25 6.07302907 6.2380684 6.13472371 6.20507375 6.16698532 6.18782005 6.18782005 6.16698532 6.20507375 6.13472371 6.2380684 6.07302907 6.25 6.01124218 6.25 5.7180574L6.25 1.2819426C6.25.988757819 6.2380684.926970926 6.20507375.865276292 6.18782005.833014684 6.16698532.812179947 6.13472371.79492625 6.07302907.761931599 6.01124218.75 5.7180574.75L1.2819426.75zM10.2819426.75C9.98875782.75 9.92697093.761931599 9.86527629.79492625 9.83301468.812179947 9.81217995.833014684 9.79492625.865276292 9.7619316.926970926 9.75.988757819 9.75 1.2819426L9.75 5.7180574C9.75 6.01124218 9.7619316 6.07302907 9.79492625 6.13472371 9.81217995 6.16698532 9.83301468 6.18782005 9.86527629 6.20507375 9.92697093 6.2380684 9.98875782 6.25 10.2819426 6.25L14.7180574 6.25C15.0112422 6.25 15.0730291 6.2380684 15.1347237 6.20507375 15.1669853 6.18782005 15.1878201 6.16698532 15.2050737 6.13472371 15.2380684 6.07302907 15.25 6.01124218 15.25 5.7180574L15.25 1.2819426C15.25.988757819 15.2380684.926970926 15.2050737.865276292 15.1878201.833014684 15.1669853.812179947 15.1347237.79492625 15.0730291.761931599 15.0112422.75 14.7180574.75L10.2819426.75zM1.2819426 9.75C.988757819 9.75.926970926 9.7619316.865276292 9.79492625.833014684 9.81217995.812179947 9.83301468.79492625 9.86527629.761931599 9.92697093.75 9.98875782.75 10.2819426L.75 14.7180574C.75 15.0112422.761931599 15.0730291.79492625 15.1347237.812179947 15.1669853.833014684 15.1878201.865276292 15.2050737.926970926 15.2380684.988757819 15.25 1.2819426 15.25L5.7180574 15.25C6.01124218 15.25 6.07302907 15.2380684 6.13472371 15.2050737 6.16698532 15.1878201 6.18782005 15.1669853 6.20507375 15.1347237 6.2380684 15.0730291 6.25 15.0112422 6.25 14.7180574L6.25 10.2819426C6.25 9.98875782 6.2380684 9.92697093 6.20507375 9.86527629 6.18782005 9.83301468 6.16698532 9.81217995 6.13472371 9.79492625 6.07302907 9.7619316 6.01124218 9.75 5.7180574 9.75L1.2819426 9.75zM10.2819426 9.75C9.98875782 9.75 9.92697093 9.7619316 9.86527629 9.79492625 9.83301468 9.81217995 9.81217995 9.83301468 9.79492625 9.86527629 9.7619316 9.92697093 9.75 9.98875782 9.75 10.2819426L9.75 14.7180574C9.75 15.0112422 9.7619316 15.0730291 9.79492625 15.1347237 9.81217995 15.1669853 9.83301468 15.1878201 9.86527629 15.2050737 9.92697093 15.2380684 9.98875782 15.25 10.2819426 15.25L14.7180574 15.25C15.0112422 15.25 15.0730291 15.2380684 15.1347237 15.2050737 15.1669853 15.1878201 15.1878201 15.1669853 15.2050737 15.1347237 15.2380684 15.0730291 15.25 15.0112422 15.25 14.7180574L15.25 10.2819426C15.25 9.98875782 15.2380684 9.92697093 15.2050737 9.86527629 15.1878201 9.83301468 15.1669853 9.81217995 15.1347237 9.79492625 15.0730291 9.7619316 15.0112422 9.75 14.7180574 9.75L10.2819426 9.75z"/>
</svg>
