<svg xmlns="http://www.w3.org/2000/svg" width="24" height="23" viewBox="0 0 24 23">
  <g fill="#63ADF2" fill-rule="evenodd">
    <path fill-rule="nonzero" d="M21.2085469,10.1410781 L20.52,10.3249219 C19.0587656,10.7150156 17.4875625,10.2939375 16.4196094,9.22598437 L16.4191406,9.22645312 L13.4527969,6.26015625 L12.948375,5.75573437 L5.3319375,13.3722656 L4.3231875,14.3810156 L0,18.7042031 L4.15589063,22.8600938 L7.134,17.1919219 L8.29828125,18.3562031 L9.99932813,16.6551563 L11.4475313,20.1514219 L14.8869844,18.7267031 L13.7514844,15.9854063 L15.7937813,13.9431094 C16.2703594,14.1673125 16.7676094,14.3484375 17.2802344,14.4809063 C18.7038281,14.8486406 20.2070156,14.8425938 21.6275156,14.4634219 L22.317375,14.27925 L21.2085469,10.1410781 Z M8.9724375,14.7155625 L7.9636875,13.7068125 L12.2741719,9.39632813 L13.2829219,10.4050781 L8.9724375,14.7155625 Z M13.1605313,14.5587656 L12.848625,13.8057656 L13.9169063,12.7374844 C14.1105938,12.9012656 14.3107969,13.056375 14.5175156,13.2017812 L13.1605313,14.5587656 Z"/>
    <polygon points="22.991 .11 22.179 .923 21.271 .015 20.262 1.024 21.17 1.932 18.379 4.722 16.756 3.098 14.532 5.322 17.165 7.955 18.884 6.235 19.388 5.731 24 1.119"/>
  </g>
</svg>
