<svg xmlns="http://www.w3.org/2000/svg" width="26" height="22" viewBox="0 0 26 22">
  <g fill="none" fill-rule="evenodd">
    <rect width="4" height="13" x="11" y="6" fill="#212121"/>
    <path fill="#FEAD3B" fill-rule="nonzero" d="M25.7712084,19.5957038 L14.3642024,0.7668436 C14.0759169,0.290978 13.558303,0 12.9999624,0 C12.4416219,0 11.924008,0.2909275 11.6357225,0.7668436 L0.2288181,19.5957038 C-0.0678464,20.0854182 -0.0766315,20.6962345 0.2059157,21.194137 C0.4884629,21.69209 1.0184675,22 1.5930072,22 L24.4069684,22 C24.9815082,22 25.5115127,21.6920394 25.79406,21.194137 C26.0766072,20.696184 26.0678728,20.0854182 25.7712084,19.5957038 Z M13.0084937,6.513116 C13.6636234,6.513116 14.2179522,6.8809704 14.2179522,7.5329795 C14.2179522,9.5225171 13.9827839,12.3815517 13.9827839,14.3710892 C13.9827839,14.8894112 13.4116465,15.106697 13.0084937,15.106697 C12.4710243,15.106697 12.0174456,14.8893606 12.0174456,14.3710892 C12.0174456,12.3815517 11.7823281,9.5225171 11.7823281,7.5329795 C11.7823281,6.8809704 12.3197975,6.513116 13.0084937,6.513116 Z M13.0253023,18.8351276 C12.2862311,18.8351276 11.7318515,18.2332575 11.7318515,17.5477887 C11.7318515,16.8455901 12.2861803,16.2604498 13.0253023,16.2604498 C13.7139985,16.2604498 14.3019445,16.8455901 14.3019445,17.5477887 C14.3019445,18.2332575 13.7139985,18.8351276 13.0253023,18.8351276 Z"/>
  </g>
</svg>
