<svg xmlns="http://www.w3.org/2000/svg" width="22" height="23" viewBox="0 0 22 23">
  <g fill="none" fill-rule="evenodd" stroke="#63ADF2" stroke-width="2" transform="translate(0 .454)">
    <path d="M12.058722,1.00174705 C12.3142027,1.01677533 12.5639503,1.1292662 12.7474093,1.33565758 C12.9101214,1.51870871 13,1.75510726 13,2.00002142 L13,2.00002142 L13,19.0926461 C13,19.3687884 12.8880712,19.6187884 12.7071068,19.7997528 C12.5261424,19.9807172 12.2761424,20.0926461 12,20.0926461 C11.7550858,20.0926461 11.5186873,20.0027675 11.3356362,19.8400554 L11.3356362,19.8400554 L5.38019932,14.5463337 L2,14.5463337 C1.72385763,14.5463337 1.47385763,14.4344049 1.29289322,14.2534405 C1.11192881,14.0724761 1,13.8224761 1,13.5463337 L1,13.5463337 L1,7.54633374 C1,7.27019136 1.11192881,7.02019136 1.29289322,6.83922696 C1.47385763,6.65826255 1.72385763,6.54633374 2,6.54633374 L2,6.54633374 L5.38019932,6.54633374 L11.3356362,1.2526121 C11.5420275,1.0691531 11.8032413,0.986718774 12.058722,1.00174705 Z"/>
    <line x1="17" x2="17" y1="7.546" y2="13.546" stroke-linecap="round"/>
    <line x1="21" x2="21" y1="5.546" y2="15.546" stroke-linecap="round"/>
  </g>
</svg>
