<?xml version="1.0" encoding="UTF-8"?>
<svg width="61px" height="44px" viewBox="0 0 61 44" version="1.1" xmlns="http://www.w3.org/2000/svg" xmlns:xlink="http://www.w3.org/1999/xlink">
    <!-- Generator: Sketch 48.2 (47327) - http://www.bohemiancoding.com/sketch -->
    <title>curling</title>
    <desc>Created with Sketch.</desc>
    <defs></defs>
    <g id="Настройки-прицела-Copy" stroke="none" stroke-width="1" fill="none" fill-rule="evenodd" transform="translate(-1039.000000, -728.000000)">
        <g id="Case" transform="translate(304.000000, 296.000000)" fill="#FFFFFF" fill-rule="nonzero">
            <g id="Header" transform="translate(335.000000, 0.000000)">
                <g id="Бонусы-Copy" transform="translate(280.000000, 408.000000)">
                    <g id="Group" transform="translate(111.000000, 24.000000)">
                        <g id="curling" transform="translate(10.000000, 1.000000)">
                            <path d="M34.4459636,29.7774047 C33.5112208,27.7851537 31.8145647,26.2965618 29.7258859,25.6283405 L28.1529263,25.1251109 L35.4361351,17.9303527 L36.1014418,18.3295449 L49.1399556,26.1528124 C49.4531525,26.3408342 49.8023129,26.4361517 50.1585498,26.4361517 C50.853006,26.4361517 51.5007755,26.0775099 51.8642298,25.4717957 C52.4284989,24.531259 52.1235725,23.3114715 51.1831235,22.747255 L35.2275027,13.1738427 L35.0787412,13.0647409 C33.7128618,11.8542339 31.6363135,11.9043823 30.3328817,13.1919785 L21.4418882,21.9750866 C20.7736602,22.6353326 20.4114428,23.5175288 20.4085734,24.438953 L20.4069059,24.974383 L1.89039743,37.2253032 C0.975793569,37.8304058 0.724894057,39.0625075 1.33017062,39.9772419 C1.70264837,40.5405419 2.32508453,40.8676303 2.98876777,40.8676303 C3.37484164,40.8676303 3.75184601,40.755988 4.08175486,40.5376032 L22.9556304,28.0503441 L23.3793607,28.1530524 L28.2383887,29.3308357 C29.3921301,29.6104496 30.3463236,30.3899154 30.8504814,31.4645255 C31.3546841,32.5389637 31.3444355,33.7710123 30.8223647,34.837074 L29.2690951,38.0083079 C28.786639,38.9929419 29.1940327,40.182371 30.179108,40.6648461 C30.4551799,40.8000862 30.7508868,40.8678294 31.0503412,40.8678294 C31.8033642,40.8678294 32.4986299,40.4430495 32.8357126,39.7549037 L34.3889029,36.5840307 C35.4447313,34.4283664 35.4655131,31.9502875 34.4459636,29.7774047 Z M36.1850173,37.4637882 L34.6318094,40.634697 C33.9556986,42.01496 32.5597502,42.8678294 31.0503412,42.8678294 C30.4476194,42.8678294 29.8508159,42.7311084 29.2993253,42.4609481 C27.3223145,41.492638 26.5045321,39.1050357 27.4730382,37.1284331 L29.0262134,33.9573919 C29.2816287,33.4358372 29.2865868,32.8397917 29.0398855,32.3140799 C28.7932353,31.7883461 28.3317391,31.411357 27.7672838,31.274559 L23.3319525,30.1994758 L5.18551293,42.2054515 C4.52578109,42.6421644 3.76440645,42.8676303 2.98876777,42.8676303 C1.66067438,42.8676303 0.408669866,42.2097054 -0.337920436,41.0806331 C-1.55258854,39.2449456 -1.04899078,36.7719092 0.786841751,35.5573209 L18.4381334,23.8788468 C18.5677035,22.6327335 19.1200073,21.4576475 20.0362653,20.5523343 L28.9273322,11.7691536 C30.9585934,9.76257039 34.1794629,9.66269335 36.3319659,11.5041401 L52.2120811,21.0322488 C54.099721,22.1647265 54.7117581,24.6130393 53.5792209,26.5007786 C52.850491,27.715242 51.5484026,28.4361517 50.1585498,28.4361517 C49.4422734,28.4361517 48.7369746,28.2436118 48.1107477,27.8676684 L35.7377417,20.4437137 L31.8062701,24.3274398 C33.747371,25.3134664 35.3134993,26.9178777 36.2565622,28.9278561 C37.5336329,31.6495803 37.5075158,34.7636686 36.1850173,37.4637882 Z M36.6757536,10.9193649 C33.4026252,10.9193649 30.7492133,8.265953 30.7492133,4.99282464 C30.7492133,1.71969629 33.4026252,-0.93371564 36.6757536,-0.93371564 C39.9488819,-0.93371564 42.6022938,1.71969629 42.6022938,4.99282464 C42.6022938,8.265953 39.9488819,10.9193649 36.6757536,10.9193649 Z M36.6757536,8.91936493 C38.8443124,8.91936493 40.6022938,7.1613835 40.6022938,4.99282464 C40.6022938,2.82426579 38.8443124,1.06628436 36.6757536,1.06628436 C34.5071947,1.06628436 32.7492133,2.82426579 32.7492133,4.99282464 C32.7492133,7.1613835 34.5071947,8.91936493 36.6757536,8.91936493 Z M59.6544929,37.5876114 C59.6544929,39.9537988 57.7362399,41.8719716 55.3701327,41.8719716 L48.6023602,41.8719716 C46.2361134,41.8719716 44.318,39.9538582 44.318,37.5876114 C44.318,35.2213645 46.2361134,33.3032512 48.6023602,33.3032512 L55.3701327,33.3032512 C57.7363795,33.3032512 59.6544929,35.2213645 59.6544929,37.5876114 Z M57.6544929,37.5876114 C57.6544929,36.325934 56.63181,35.3032512 55.3701327,35.3032512 L48.6023602,35.3032512 C47.3406829,35.3032512 46.318,36.325934 46.318,37.5876114 C46.318,38.8492887 47.3406829,39.8719716 48.6023602,39.8719716 L55.3701327,39.8719716 C56.6316891,39.8719716 57.6544929,38.8492106 57.6544929,37.5876114 Z" id="Shape"></path>
                        </g>
                    </g>
                </g>
            </g>
        </g>
    </g>
</svg>