<svg xmlns="http://www.w3.org/2000/svg" width="23" height="23" viewBox="0 0 23 23">
  <g fill="none" fill-rule="evenodd">
    <polygon fill="#67B742" points="11.5 0 21.459 5.75 21.459 17.25 11.5 23 1.541 17.25 1.541 5.75"/>
    <path fill="#FFF" fill-rule="nonzero" d="M16.8330679,13.3889774 L16.8330679,14.5926516 C16.8330679,16.1694648 14.1127642,17 11.416534,17 C8.72030373,17 6,16.1694648 6,14.5926516 L6,14.5926516 L6,13.3889774 C6,14.9657906 8.72030373,15.7963258 11.416534,15.7963258 C14.1127642,15.7963258 16.8330679,14.9657906 16.8330679,13.3889774 L16.8330679,13.3889774 Z M16.8330679,10.9816289 L16.8330679,12.1853031 C16.8330679,13.7621164 14.1127642,14.5926516 11.416534,14.5926516 C8.72030373,14.5926516 6,13.7621164 6,12.1853031 L6,12.1853031 L6,10.9816289 C6,12.5584421 8.72030373,13.3889774 11.416534,13.3889774 C14.1127642,13.3889774 16.8330679,12.5584421 16.8330679,10.9816289 L16.8330679,10.9816289 Z M16.8330679,8.57428049 L16.8330679,9.77795471 C16.8330679,11.3547679 14.1127642,12.1853031 11.416534,12.1853031 C8.72030373,12.1853031 6,11.3547679 6,9.77795471 L6,9.77795471 L6,8.57428049 C6,10.1510937 8.72030373,10.9816289 11.416534,10.9816289 C14.1127642,10.9816289 16.8330679,10.1510937 16.8330679,8.57428049 L16.8330679,8.57428049 Z M6,7.37060628 C6,4.20979791 16.8330679,4.20979791 16.8330679,7.37060628 C16.8330679,8.95103052 14.1083507,9.77795471 11.416534,9.77795471 C8.7247172,9.77795471 6,8.95103052 6,7.37060628 Z"/>
  </g>
</svg>
