<svg xmlns="http://www.w3.org/2000/svg" width="28" height="27" viewBox="0 0 28 27">
  <g fill="#FF4260">
    <path d="M24.7433047,11.8312578 L23.94,12.0457422 C22.2352266,12.5008516 20.4021563,12.0095938 19.1562109,10.7636484 L19.1556641,10.7641953 L15.6949297,7.30351563 L15.1064375,6.71502344 L6.22059375,15.6009766 L5.04371875,16.7778516 L0,21.8215703 L4.84853906,26.6701094 L8.323,20.0572422 L9.68132813,21.4155703 L11.6658828,19.4310156 L13.3554531,23.5099922 L17.3681484,21.8478203 L16.0433984,18.6496406 L18.4260781,16.2669609 C18.9820859,16.5285313 19.5622109,16.7398438 20.1602734,16.8943906 C21.8211328,17.3234141 23.5748516,17.3163594 25.2321016,16.8739922 L26.0369375,16.659125 L24.7433047,11.8312578 Z M10.4678438,17.1681563 L9.29096875,15.9912813 L14.3198672,10.9623828 L15.4967422,12.1392578 L10.4678438,17.1681563 Z M15.3539531,16.9852266 L14.9900625,16.1067266 L16.2363906,14.8603984 C16.4623594,15.0514766 16.6959297,15.2324375 16.9371016,15.4020781 L15.3539531,16.9852266 Z"/>
    <polygon points="26.823 .129 25.875 1.077 24.816 .017 23.639 1.194 24.698 2.254 21.443 5.509 19.548 3.615 16.954 6.209 20.025 9.28 22.031 7.275 22.62 6.686 28 1.306"/>
  </g>
</svg>
