<?xml version="1.0" encoding="UTF-8"?>
<svg width="18px" height="18px" viewBox="0 0 18 18" version="1.1" xmlns="http://www.w3.org/2000/svg" xmlns:xlink="http://www.w3.org/1999/xlink">
    <!-- Generator: Sketch 52.2 (67145) - http://www.bohemiancoding.com/sketch -->
    <title>coins (5)</title>
    <desc>Created with Sketch.</desc>
    <g id="Кейс" stroke="none" stroke-width="1" fill="none" fill-rule="evenodd">
        <g id="Кейс-Copy-2" transform="translate(-972.000000, -781.000000)" fill="#FFFFFF">
            <g id="Кейс" transform="translate(524.000000, 272.000000)">
                <g id="Buttons" transform="translate(156.000000, 486.000000)">
                    <g id="Open-" transform="translate(266.000000, 0.000000)">
                        <g id="Group-11" transform="translate(26.000000, 21.000000)">
                            <g id="Group-8">
                                <g id="coins-(5)" transform="translate(0.000000, 2.000000)">
                                    <path d="M16.5566831,6.12406585 C16.4443359,6.18711789 16.3220533,6.2482592 16.2039742,6.3094005 C16.0553244,6.38773777 15.9051461,6.45881459 15.7461787,6.52912709 C15.6154891,6.58721133 15.4798318,6.64185629 15.3430282,6.69688347 C15.1764182,6.76261037 15.0071332,6.82528021 14.8321162,6.8860394 C14.6880519,6.93533455 14.5424592,6.98386549 14.3922809,7.02933936 C14.2073285,7.08665928 14.0174082,7.1390115 13.8248131,7.1905995 C13.6681386,7.23148777 13.5179603,7.26893687 13.3597571,7.3079144 C13.1549337,7.35568102 12.9443783,7.39809783 12.7338231,7.43936821 C12.5771484,7.46993886 12.420856,7.50203804 12.2565387,7.52955163 C12.0272588,7.56776495 11.7914827,7.59909991 11.5522673,7.63043478 C11.3955927,7.65068782 11.2446501,7.67438012 11.0872113,7.69157609 C10.819718,7.72061821 10.5457286,7.74087124 10.2709749,7.76036005 C10.1356997,7.76991336 10.0042459,7.78367015 9.8670601,7.79093071 C9.45320987,7.81347659 9.0328635,7.82608696 8.60716712,7.82608696 C8.18147074,7.82608696 7.76112437,7.81347659 7.34727414,7.79093071 C7.21085263,7.78367015 7.07939883,7.76991336 6.94488796,7.76036005 C6.66936988,7.74087124 6.39690897,7.72061821 6.1263587,7.69157609 C5.96968415,7.67438012 5.82027007,7.65145213 5.6670347,7.631199 C5.43202278,7.59986413 5.19013252,7.56776495 4.95855978,7.52878741 C4.80226735,7.50203804 4.64559271,7.47070317 4.49312165,7.44089674 C4.27454139,7.39886204 4.0594005,7.3549168 3.84884511,7.30638587 C3.69790249,7.2704653 3.55078125,7.23225209 3.40366001,7.19365657 C3.2015115,7.14054013 3.00433089,7.08513075 2.81173578,7.02551798 C2.67034647,6.98233696 2.53239642,6.93686309 2.39559271,6.89024289 C2.21102237,6.82604452 2.03256626,6.7595533 1.85793143,6.69038723 C1.72877038,6.63879923 1.60190217,6.58721133 1.47847314,6.53409479 C1.31071676,6.46034302 1.15213148,6.38200575 0.996221152,6.29908288 C0.88272763,6.24138075 0.769234011,6.18406083 0.662236728,6.12406585 C0.618291391,6.09884511 0.568232022,6.07706354 0.525815217,6.05184271 C0.224312185,6.29831857 0.0347741413,6.65561309 0,7.04347826 C0.0947690217,7.60024624 0.436396109,8.08440897 0.928965717,8.36069126 C2.28668478,9.34048066 4.70749833,9.99316409 7.42446499,10.1410495 C7.81576934,10.1620669 8.20707368,10.1731488 8.60563859,10.1731488 C11.7914827,10.1731488 14.7319973,9.47957713 16.2788723,8.36451254 C16.7756454,8.08861246 17.1203294,7.6029212 17.2173913,7.04347826 C17.1814707,6.6559952 16.9915506,6.29908288 16.6900476,6.05337124 C16.6483951,6.07782776 16.5990999,6.09960933 16.5566831,6.12406585 Z" id="Path"></path>
                                    <path d="M16.5566831,10.0371093 C16.4443359,10.1001614 16.3220533,10.1613027 16.2039742,10.222444 C16.0553244,10.3007812 15.9051461,10.3718581 15.7461787,10.4421706 C15.6154891,10.5002548 15.4798318,10.5548998 15.3430282,10.6099269 C15.1764182,10.6756538 15.0071332,10.7383237 14.8321162,10.7990829 C14.6880519,10.848378 14.5424592,10.896909 14.3922809,10.9423828 C14.2073285,10.9997028 14.0174082,11.052055 13.8248131,11.103643 C13.6681386,11.1445313 13.5179603,11.1819803 13.3597571,11.2209579 C13.1549337,11.2687245 12.9443783,11.3111413 12.7338231,11.3524117 C12.5771484,11.3829823 12.420856,11.4150815 12.2565387,11.4425951 C12.0272588,11.4808084 11.7914827,11.5121434 11.5522673,11.5434783 C11.3955927,11.5637313 11.2446501,11.5874236 11.0872113,11.6046196 C10.819718,11.6336617 10.5457286,11.6539147 10.2709749,11.6734035 C10.1356997,11.6829568 10.0042459,11.6967136 9.8670601,11.7039742 C9.45320987,11.7265201 9.0328635,11.7391304 8.60716712,11.7391304 C8.18147074,11.7391304 7.76112437,11.7265201 7.34727414,11.7039742 C7.21085263,11.6967136 7.07939883,11.6829568 6.94488796,11.6734035 C6.66936988,11.6539147 6.39690897,11.6336617 6.1263587,11.6046196 C5.96968415,11.5874236 5.82027007,11.5644956 5.6670347,11.5442425 C5.43202278,11.5129076 5.19013252,11.4808084 4.95855978,11.4418309 C4.80226735,11.4150815 4.64559271,11.3837467 4.49312165,11.3539402 C4.27454139,11.3119055 4.0594005,11.2679603 3.84884511,11.2194293 C3.69790249,11.1835088 3.55078125,11.1452956 3.40366001,11.1067 C3.2015115,11.0535836 3.00433089,10.9981742 2.81173578,10.9385615 C2.67034647,10.8953804 2.53239642,10.8499066 2.39559271,10.8032864 C2.21102237,10.739088 2.03256626,10.6725968 1.85793143,10.6034307 C1.72877038,10.5518427 1.60190217,10.5002548 1.47847314,10.4471383 C1.31071676,10.3733865 1.15213148,10.2950492 0.996221152,10.2121264 C0.88272763,10.1544242 0.769234011,10.0971043 0.662236728,10.0371093 C0.618291391,10.0118886 0.568232022,9.99010702 0.525815217,9.96488618 C0.224312185,10.211362 0.0347741413,10.5686566 0,10.9565217 C0.0947690217,11.5132897 0.436396109,11.9974524 0.928965717,12.2737347 C2.28668478,13.2535241 4.70749833,13.9062076 7.42446499,14.054093 C7.81576934,14.0751104 8.20707368,14.0861923 8.60563859,14.0861923 C11.7914827,14.0861923 14.7319973,13.3926206 16.2788723,12.277556 C16.7756454,12.0016559 17.1203294,11.5159647 17.2173913,10.9565217 C17.1814707,10.5690387 16.9915506,10.2121264 16.6900476,9.96641472 C16.6483951,9.99087124 16.5990999,10.0126528 16.5566831,10.0371093 Z" id="Path"></path>
                                    <path d="M8.60869565,18 C13.5389776,18 17.2173913,16.3472741 17.2173913,14.8695652 C17.1814707,14.4820822 16.9915506,14.1251698 16.6900476,13.8794582 C16.6483951,13.9039147 16.5990999,13.9256963 16.5566831,13.9501528 C16.4443359,14.0132048 16.3220533,14.0743462 16.2039742,14.1354875 C16.0553244,14.2138247 15.9051461,14.2849015 15.7461787,14.355214 C15.6154891,14.4132983 15.4798318,14.4679432 15.3430282,14.5229704 C15.1764182,14.5886973 15.0071332,14.6513672 14.8321162,14.7121264 C14.6880519,14.7614215 14.5424592,14.8099524 14.3922809,14.8554263 C14.2073285,14.9127462 14.0174082,14.9650985 13.8248131,15.0166865 C13.6681386,15.0575747 13.5179603,15.0950238 13.3597571,15.1340014 C13.1549337,15.181768 12.9443783,15.2241848 12.7338231,15.2654552 C12.5771484,15.2960258 12.420856,15.328125 12.2565387,15.3556386 C12.0272588,15.3938519 11.7914827,15.4251869 11.5522673,15.4565217 C11.3955927,15.4767748 11.2446501,15.5004671 11.0872113,15.517663 C10.819718,15.5467052 10.5457286,15.5669582 10.2709749,15.586447 C10.1356997,15.5960003 10.0042459,15.6097571 9.8670601,15.6170177 C9.45320987,15.6395635 9.0328635,15.6521739 8.60716712,15.6521739 C8.18147074,15.6521739 7.76112437,15.6395635 7.34727414,15.6170177 C7.21085263,15.6097571 7.07939883,15.5960003 6.94488796,15.586447 C6.66936988,15.5669582 6.39690897,15.5467052 6.1263587,15.517663 C5.96968415,15.5004671 5.82027007,15.4775391 5.6670347,15.457286 C5.43202278,15.4259511 5.19013252,15.3938519 4.95855978,15.3548744 C4.80226735,15.328125 4.64559271,15.2967901 4.49312165,15.2669837 C4.27454139,15.224949 4.0594005,15.1810038 3.84884511,15.1324728 C3.69790249,15.0965523 3.55078125,15.058339 3.40366001,15.0197435 C3.2015115,14.9666271 3.00433089,14.9112177 2.81173578,14.8516049 C2.67034647,14.8084239 2.53239642,14.76295 2.39559271,14.7163298 C2.21102237,14.6521315 2.03256626,14.5856403 1.85793143,14.5164742 C1.72877038,14.4648862 1.60190217,14.4132983 1.47847314,14.3601818 C1.31071676,14.28643 1.15213148,14.2080927 0.996221152,14.1251698 C0.88272763,14.0674677 0.769234011,14.0101478 0.662236728,13.9501528 C0.618291391,13.9249321 0.568232022,13.9031505 0.525815217,13.8779297 C0.224312185,14.1244055 0.0347741413,14.4817 0,14.8695652 C0,16.3472741 3.67841367,18 8.60869565,18 Z" id="Path"></path>
                                    <path d="M8.60869565,0 C3.67841367,0 0,1.65272586 0,3.13043478 C0.0947690217,3.68720276 0.436396109,4.17136549 0.928965717,4.44764778 C2.28668478,5.42743718 4.70749833,6.08012061 7.42446499,6.22800607 C7.81576934,6.24902341 8.20707368,6.26010535 8.60563859,6.26010535 C11.7914827,6.26010535 14.7319973,5.56653365 16.2788723,4.45146907 C16.7756454,4.17556898 17.1203294,3.68987772 17.2173913,3.13043478 C17.2173913,1.65272586 13.5389776,0 8.60869565,0 Z" id="Path"></path>
                                </g>
                            </g>
                        </g>
                    </g>
                </g>
            </g>
        </g>
    </g>
</svg>