<svg xmlns="http://www.w3.org/2000/svg" width="14" height="14" viewBox="0 0 14 14">
  <path fill="#B1BBCA" d="M17.6568542,16.2426407 L22.6066017,11.2928932 C22.997126,10.9023689 23.630291,10.9023689 24.0208153,11.2928932 C24.4113396,11.6834175 24.4113396,12.3165825 24.0208153,12.7071068 L19.0710678,17.6568542 L24.0208153,22.6066017 C24.4113396,22.997126 24.4113396,23.630291 24.0208153,24.0208153 C23.630291,24.4113396 22.997126,24.4113396 22.6066017,24.0208153 L17.6568542,19.0710678 L12.7071068,24.0208153 C12.3165825,24.4113396 11.6834175,24.4113396 11.2928932,24.0208153 C10.9023689,23.630291 10.9023689,22.997126 11.2928932,22.6066017 L16.2426407,17.6568542 L11.2928932,12.7071068 C10.9023689,12.3165825 10.9023689,11.6834175 11.2928932,11.2928932 C11.6834175,10.9023689 12.3165825,10.9023689 12.7071068,11.2928932 L17.6568542,16.2426407 Z" transform="translate(-11 -11)"/>
</svg>
