<svg xmlns="http://www.w3.org/2000/svg" width="16" height="16" viewBox="0 0 16 16">
  <g fill="none" fill-rule="evenodd" stroke="#FFBA43" stroke-width="1.2">
    <circle cx="6" cy="6" r="5.4"/>
    <path d="M6,0.6 C7.49116882,0.6 8.84116882,1.20441559 9.81837662,2.18162338 C10.7955844,3.15883118 11.4,4.50883118 11.4,6 C12.8825691,6.83566551 13.7806261,7.42014403 14.4165333,8.21502809 C15.0309893,8.98309808 15.4,9.94836321 15.4,11 C15.4,12.2150264 14.9075132,13.3150264 14.1112698,14.1112698 C13.3150264,14.9075132 12.2150264,15.4 11,15.4 C9.94534596,15.4 8.97730203,15.0290258 8.21943561,14.4102525 C7.44768284,13.7801414 6.89343042,12.8934023 6.68788145,11.8799279 C6.65387002,11.7122321 6.63000327,11.5440123 6.61582501,11.3761931 C6.44609168,11.3913725 6.27394622,11.3991481 6.09971119,11.3991895 C4.56494413,11.3995539 3.19202511,10.7997254 2.20152074,9.82556706 C1.2078729,8.84831712 0.6,7.49511809 0.6,6 C0.6,4.50883118 1.20441559,3.15883118 2.18162338,2.18162338 C3.15883118,1.20441559 4.50883118,0.6 6,0.6 Z"/>
  </g>
</svg>
