<svg xmlns="http://www.w3.org/2000/svg" width="57" height="55" viewBox="0 0 57 55">
  <g fill="#FE3E3F">
    <path d="M18.258,20.367 L20.945,23.167 L8.26214727,23.4249409 L20.4331897,32.6523383 L16.009426,47.2714983 L28.5469342,38.5473186 L41.0834915,47.2714983 L39.701,42.705 L44.053,47.237 L46.1899097,54.2994955 L28.5469342,42.0220229 L10.9039586,54.2994955 L17.1275899,33.7251704 L0,20.7405617 L18.258,20.367 Z M28.5469342,1.68899503e-14 L35.6029669,20.3014983 L57.0938683,20.7405617 L39.9653276,33.7251704 L42.233,41.222 L37.882,36.689 L36.6606786,32.6523383 L48.8307702,23.4249409 L33.561504,23.1140596 L28.5469342,8.68628517 L23.882,22.107 L21.664,19.797 L28.5469342,1.68899503e-14 Z"/>
    <polygon points="9.609 3.356 55.248 50.897 53.19 52.873 7.551 5.332"/>
  </g>
</svg>
