<svg xmlns="http://www.w3.org/2000/svg" width="19" height="17" viewBox="0 0 19 17">
  <g fill="#FFF">
    <path d="M18.8465134,16.6173538 C17.8290482,15.2471032 18.0757357,13.3837241 18.3175863,12.3772568 C18.5454095,11.7491242 18.6735903,11.0805713 18.6735903,10.3815683 C18.6735903,9.13311776 18.279132,7.97278362 17.6060619,7 C16.950647,11.5397467 12.9112591,15.0549717 8,15.1414713 C9.12823281,16.025869 10.5752246,16.558879 12.1535413,16.558879 C13.3074103,16.558879 14.3875148,16.2724333 15.3263787,15.7747238 C16.7675661,16.8520614 18.5620972,17 18.5620972,17 C19.3379537,16.9994611 18.8465134,16.6173538 18.8465134,16.6173538 Z"/>
    <path d="M17,6.74957993 C17,3.02835059 13.2266922,0 8.58967478,0 C3.95198308,0 0.179124802,3.02835059 0.179124802,6.74957993 C0.179124802,7.47667492 0.330380751,8.2046253 0.629296668,8.91076284 C0.976308831,10.12715 1.31972501,12.3110011 0,14 C0.448149127,13.9542358 2.46189847,13.6965448 4.0893046,12.6589375 L4.27427287,12.5413192 L4.47519831,12.6317783 C5.72884717,13.1986986 7.15150714,13.4993737 8.58967478,13.4993737 C13.2266922,13.4993737 17,10.4708093 17,6.74957993 Z"/>
  </g>
</svg>
