<svg xmlns="http://www.w3.org/2000/svg" width="54" height="54" viewBox="0 0 54 54">
  <path fill="none" stroke="#FE3E3F" stroke-width="3" d="M47.7596628 22.143693C47.4355844 22.3492975 47.0828461 22.5486713 46.7422332 22.7480451 46.3134358 23.0034927 45.8802292 23.235265 45.4216694 23.4645448 45.0446802 23.65395 44.6533611 23.8321401 44.2587352 24.0115765 43.7781293 24.2259034 43.2898072 24.4302615 42.7849506 24.6283894 42.3693806 24.7891344 41.9494017 24.9473875 41.516195 25.0956718 40.9826783 25.2825846 40.4348315 25.4532984 39.8792686 25.6215201 39.4273228 25.7548514 38.9941162 25.8769681 38.5377609 26.0040687 37.9469242 26.1598294 37.3395529 26.2981451 36.7321819 26.4327224 36.2802358 26.5324093 35.8293922 26.6370806 35.3554 26.7267988 34.6940157 26.8514074 34.0138923 26.9535867 33.3238481 27.0557656 32.871902 27.1218081 32.4364906 27.1990656 31.9823404 27.2551394 31.2107251 27.349842 30.4203709 27.4158845 29.6278122 27.479435 29.2375954 27.510587 28.8584017 27.5554461 28.4626734 27.5791219 27.2688746 27.652641 26.056337 27.6937618 24.8283667 27.6937618 23.6003964 27.6937618 22.3878588 27.652641 21.19406 27.5791219 20.8005364 27.5554461 20.4213428 27.510587 20.0333306 27.479435 19.238567 27.4158845 18.452622 27.349842 17.6721885 27.2551394 17.2202427 27.1990656 16.7892406 27.1243004 16.3472155 27.0582576 15.6692965 26.9560787 14.9715361 26.8514074 14.3035378 26.7243068 13.8526943 26.6370806 13.4007482 26.5349017 12.9609278 26.4377068 12.3304079 26.3006371 11.7098091 26.1573374 11.1024378 25.9990844 10.6670264 25.8819521 10.2426382 25.7573438 9.81825003 25.6314888 9.23512933 25.458283 8.66633911 25.2776003 8.1107763 25.0832108 7.7029225 24.9424031 7.30498968 24.7941188 6.91036358 24.6420964 6.37794914 24.4327539 5.86317191 24.2159347 5.3594176 23.9903931 4.98683764 23.8221714 4.62087166 23.65395 4.26482637 23.4807439 3.78091373 23.240249 3.32345619 22.9848014 2.87371486 22.7144007 2.5463297 22.5262416 2.21894426 22.3393288 1.91029825 22.143693 1.78353286 22.0614514 1.63913083 21.9904246 1.51677467 21.9081827.647054379 22.7119084.100310023 23.8769992 2.18628534e-13 25.1417769.273372178 26.9573247 1.25883493 28.5361162 2.6797088 29.4370367 6.5962061 32.6320022 13.5793221 34.7603177 21.4167259 35.2425529 22.5454885 35.3110877 23.674251 35.3472244 24.8239575 35.3472244 34.0138923 35.3472244 42.496146 33.0855776 46.9582854 29.4494974 48.3912848 28.5498232 49.3855657 26.9660474 49.6655518 25.1417769 49.5619348 23.8782452 49.0140882 22.7144007 48.1443679 21.9131671 48.0242165 21.9929166 47.882019 22.0639435 47.7596628 22.143693zM47.7596628 37.0775304C47.4355844 37.2831349 47.0828461 37.4825087 46.7422332 37.6818825 46.3134358 37.9373302 45.8802292 38.1691024 45.4216694 38.3983823 45.0446802 38.5877874 44.6533611 38.7659775 44.2587352 38.945414 43.7781293 39.1597408 43.2898072 39.364099 42.7849506 39.5622268 42.3693806 39.7229718 41.9494017 39.8812249 41.516195 40.0295093 40.9826783 40.216422 40.4348315 40.3871358 39.8792686 40.5553575 39.4273228 40.6886889 38.9941162 40.8108055 38.5377609 40.9379061 37.9469242 41.0936668 37.3395529 41.2319825 36.7321819 41.3665598 36.2802358 41.4662468 35.8293922 41.570918 35.3554 41.6606362 34.6940157 41.7852449 34.0138923 41.8874241 33.3238481 41.989603 32.871902 42.0556455 32.4364906 42.132903 31.9823404 42.1889768 31.2107251 42.2836794 30.4203709 42.3497219 29.6278122 42.4132724 29.2375954 42.4444245 28.8584017 42.4892836 28.4626734 42.5129593 27.2688746 42.5864785 26.056337 42.6275992 24.8283667 42.6275992 23.6003964 42.6275992 22.3878588 42.5864785 21.19406 42.5129593 20.8005364 42.4892836 20.4213428 42.4444245 20.0333306 42.4132724 19.238567 42.3497219 18.452622 42.2836794 17.6721885 42.1889768 17.2202427 42.132903 16.7892406 42.0581379 16.3472155 41.992095 15.6692965 41.8899161 14.9715361 41.7852449 14.3035378 41.6581442 13.8526943 41.570918 13.4007482 41.4687391 12.9609278 41.3715442 12.3304079 41.2344745 11.7098091 41.0911748 11.1024378 40.9329218 10.6670264 40.8157895 10.2426382 40.6911812 9.81825003 40.5653262 9.23512933 40.3921205 8.66633911 40.2114377 8.1107763 40.0170482 7.7029225 39.8762405 7.30498968 39.7279562 6.91036358 39.5759338 6.37794914 39.3665913 5.86317191 39.1497721 5.3594176 38.9242306 4.98683764 38.7560088 4.62087166 38.5877874 4.26482637 38.4145813 3.78091373 38.1740864 3.32345619 37.9186388 2.87371486 37.6482381 2.5463297 37.460079 2.21894426 37.2731662 1.91029825 37.0775304 1.78353286 36.9952889 1.63913083 36.924262 1.51677467 36.8420202.647054379 37.6457458.100310023 38.8108366 2.18628534e-13 40.0756144.273372178 41.8911621 1.25883493 43.4699536 2.6797088 44.3708741 6.5962061 47.5658396 13.5793221 49.6941551 21.4167259 50.1763903 22.5454885 50.2449251 23.674251 50.2810619 24.8239575 50.2810619 34.0138923 50.2810619 42.496146 48.019415 46.9582854 44.3833349 48.3912848 43.4836607 49.3855657 41.8998848 49.6655518 40.0756144 49.5619348 38.8120826 49.0140882 37.6482381 48.1443679 36.8470045 48.0242165 36.926754 47.882019 36.9977809 47.7596628 37.0775304zM24.8327759 0C10.6108087 0 0 5.38932345 0 10.2079395.273372178 12.0234873 1.25883493 13.6022788 2.6797088 14.5031993 6.5962061 17.6981647 13.5793221 19.8264802 21.4167259 20.3087154 22.5454885 20.3772503 23.674251 20.413387 24.8239575 20.413387 34.0138923 20.413387 42.496146 18.1517402 46.9582854 14.51566 48.3912848 13.6159858 49.3855657 12.0322099 49.6655518 10.2079395 49.6655518 5.38932345 39.0547432 0 24.8327759 0z" transform="translate(2 2)"/>
</svg>
