<svg xmlns="http://www.w3.org/2000/svg" width="16" height="16" viewBox="0 0 16 16">
  <path fill="#FFF" d="M377.900751,25.9993615 L383.604864,20.2952488 C384.129934,19.7701784 384.129934,18.9188732 383.604864,18.3938779 C383.079793,17.8688075 382.228563,17.8688075 381.703493,18.3938779 L375.999305,24.0980657 L370.295117,18.3938028 C369.770047,17.8687324 368.918817,17.8687324 368.393746,18.3938028 C367.868751,18.9188732 367.868751,19.7701784 368.393746,20.2951737 L374.097934,25.9992864 L368.393746,31.7034742 C367.868751,32.2285446 367.868751,33.0798498 368.393746,33.6048451 C368.918817,34.1299155 369.770047,34.1299155 370.295117,33.6048451 L375.999305,27.9006573 L381.703493,33.6048451 C382.228488,34.1299155 383.079793,34.1299155 383.604864,33.6048451 C384.129934,33.0797746 384.129934,32.2285446 383.604864,31.7034742 L377.900751,25.9993615 Z" transform="translate(-368 -18)"/>
</svg>
