<svg xmlns="http://www.w3.org/2000/svg" width="18" height="18" viewBox="0 0 18 18">
  <g fill="#FFF">
    <path d="M2.343375 10.125L.06975 10.125 0 10.125 0 15.75 1.666125 14.218875C3.2985 16.507125 5.974875 18 9 18 13.59 18 17.37675 14.56425 17.93025 10.125L15.656625 10.125C15.121125 13.31775 12.344625 15.75 9 15.75 6.63075 15.75 4.545 14.52825 3.34125 12.679875L6.121125 10.125 2.343375 10.125zM9 0C4.41 0 .62325 3.43575.06975 7.875L2.343375 7.875C2.878875 4.68225 5.655375 2.25 9 2.25 11.440125 2.25 13.57875 3.544875 14.7645 5.4855L12.375 7.875 14.625 7.875 15.656625 7.875 17.93025 7.875 18 7.875 18 2.25 16.389 3.861C14.763375 1.526625 12.06 0 9 0z"/>
  </g>
</svg>
