<?xml version="1.0" encoding="UTF-8"?>
<svg width="69px" height="44px" viewBox="0 0 69 44" version="1.1" xmlns="http://www.w3.org/2000/svg" xmlns:xlink="http://www.w3.org/1999/xlink">
    <!-- Generator: Sketch 48.2 (47327) - http://www.bohemiancoding.com/sketch -->
    <title>curling-faster</title>
    <desc>Created with Sketch.</desc>
    <defs></defs>
    <g id="Настройки-прицела-Copy" stroke="none" stroke-width="1" fill="none" fill-rule="evenodd" transform="translate(-1035.000000, -728.000000)">
        <g id="Case" transform="translate(304.000000, 296.000000)" fill="#FFFFFF" fill-rule="nonzero">
            <g id="Header" transform="translate(335.000000, 0.000000)">
                <g id="Бонусы-Copy" transform="translate(280.000000, 408.000000)">
                    <g id="Group" transform="translate(111.000000, 24.000000)">
                        <g id="curling-faster" transform="translate(5.000000, 0.000000)">
                            <path d="M35.4459636,30.7774047 C34.5112208,28.7851537 32.8145647,27.2965618 30.7258859,26.6283405 L29.1529263,26.1251109 L36.4361351,18.9303527 L37.1014418,19.3295449 L50.1399556,27.1528124 C50.4531525,27.3408342 50.8023129,27.4361517 51.1585498,27.4361517 C51.853006,27.4361517 52.5007755,27.0775099 52.8642298,26.4717957 C53.4284989,25.531259 53.1235725,24.3114715 52.1831235,23.747255 L36.2275027,14.1738427 L36.0787412,14.0647409 C34.7128618,12.8542339 32.6363135,12.9043823 31.3328817,14.1919785 L22.4418882,22.9750866 C21.7736602,23.6353326 21.4114428,24.5175288 21.4085734,25.438953 L21.4069059,25.974383 L2.89039743,38.2253032 C1.97579357,38.8304058 1.72489406,40.0625075 2.33017062,40.9772419 C2.70264837,41.5405419 3.32508453,41.8676303 3.98876777,41.8676303 C4.37484164,41.8676303 4.75184601,41.755988 5.08175486,41.5376032 L23.9556304,29.0503441 L24.3793607,29.1530524 L29.2383887,30.3308357 C30.3921301,30.6104496 31.3463236,31.3899154 31.8504814,32.4645255 C32.3546841,33.5389637 32.3444355,34.7710123 31.8223647,35.837074 L30.2690951,39.0083079 C29.786639,39.9929419 30.1940327,41.182371 31.179108,41.6648461 C31.4551799,41.8000862 31.7508868,41.8678294 32.0503412,41.8678294 C32.8033642,41.8678294 33.4986299,41.4430495 33.8357126,40.7549037 L35.3889029,37.5840307 C36.4447313,35.4283664 36.4655131,32.9502875 35.4459636,30.7774047 Z M37.1850173,38.4637882 L35.6318094,41.634697 C34.9556986,43.01496 33.5597502,43.8678294 32.0503412,43.8678294 C31.4476194,43.8678294 30.8508159,43.7311084 30.2993253,43.4609481 C28.3223145,42.492638 27.5045321,40.1050357 28.4730382,38.1284331 L30.0262134,34.9573919 C30.2816287,34.4358372 30.2865868,33.8397917 30.0398855,33.3140799 C29.7932353,32.7883461 29.3317391,32.411357 28.7672838,32.274559 L24.3319525,31.1994758 L6.18551293,43.2054515 C5.52578109,43.6421644 4.76440645,43.8676303 3.98876777,43.8676303 C2.66067438,43.8676303 1.40866987,43.2097054 0.662079564,42.0806331 C-0.552588539,40.2449456 -0.0489907763,37.7719092 1.78684175,36.5573209 L19.4381334,24.8788468 C19.5677035,23.6327335 20.1200073,22.4576475 21.0362653,21.5523343 L29.9273322,12.7691536 C31.9585934,10.7625704 35.1794629,10.6626934 37.3319659,12.5041401 L53.2120811,22.0322488 C55.099721,23.1647265 55.7117581,25.6130393 54.5792209,27.5007786 C53.850491,28.715242 52.5484026,29.4361517 51.1585498,29.4361517 C50.4422734,29.4361517 49.7369746,29.2436118 49.1107477,28.8676684 L36.7377417,21.4437137 L32.8062701,25.3274398 C34.747371,26.3134664 36.3134993,27.9178777 37.2565622,29.9278561 C38.5336329,32.6495803 38.5075158,35.7636686 37.1850173,38.4637882 Z M37.6757536,11.9193649 C34.4026252,11.9193649 31.7492133,9.265953 31.7492133,5.99282464 C31.7492133,2.71969629 34.4026252,0.0662843602 37.6757536,0.0662843602 C40.9488819,0.0662843602 43.6022938,2.71969629 43.6022938,5.99282464 C43.6022938,9.265953 40.9488819,11.9193649 37.6757536,11.9193649 Z M37.6757536,9.91936493 C39.8443124,9.91936493 41.6022938,8.1613835 41.6022938,5.99282464 C41.6022938,3.82426579 39.8443124,2.06628436 37.6757536,2.06628436 C35.5071947,2.06628436 33.7492133,3.82426579 33.7492133,5.99282464 C33.7492133,8.1613835 35.5071947,9.91936493 37.6757536,9.91936493 Z M68.6544929,38.5876114 C68.6544929,40.9537988 66.7362399,42.8719716 64.3701327,42.8719716 L57.6023602,42.8719716 C55.2361134,42.8719716 53.318,40.9538582 53.318,38.5876114 C53.318,36.2213645 55.2361134,34.3032512 57.6023602,34.3032512 L64.3701327,34.3032512 C66.7363795,34.3032512 68.6544929,36.2213645 68.6544929,38.5876114 Z M66.6544929,38.5876114 C66.6544929,37.325934 65.63181,36.3032512 64.3701327,36.3032512 L57.6023602,36.3032512 C56.3406829,36.3032512 55.318,37.325934 55.318,38.5876114 C55.318,39.8492887 56.3406829,40.8719716 57.6023602,40.8719716 L64.3701327,40.8719716 C65.6316891,40.8719716 66.6544929,39.8492106 66.6544929,38.5876114 Z M47,39 L50,39 C50.5522847,39 51,39.4477153 51,40 C51,40.5522847 50.5522847,41 50,41 L47,41 C46.4477153,41 46,40.5522847 46,40 C46,39.4477153 46.4477153,39 47,39 Z M43,35 L50,35 C50.5522847,35 51,35.4477153 51,36 C51,36.5522847 50.5522847,37 50,37 L43,37 C42.4477153,37 42,36.5522847 42,36 C42,35.4477153 42.4477153,35 43,35 Z" id="Shape"></path>
                        </g>
                    </g>
                </g>
            </g>
        </g>
    </g>
</svg>