<?xml version="1.0" encoding="UTF-8"?>
<svg width="10px" height="15px" viewBox="0 0 10 15" version="1.1" xmlns="http://www.w3.org/2000/svg" xmlns:xlink="http://www.w3.org/1999/xlink">
    <!-- Generator: Sketch 48.2 (47327) - http://www.bohemiancoding.com/sketch -->
    <title>Shape</title>
    <desc>Created with Sketch.</desc>
    <defs></defs>
    <g id="Главная" stroke="none" stroke-width="1" fill="none" fill-rule="evenodd" transform="translate(-262.000000, -288.000000)">
        <g id="Ограниченная-серия" transform="translate(262.000000, 285.000000)" fill="#FFFFFF" fill-rule="nonzero">
            <g id="Заголовок">
                <path d="M3.62010461,17.9612331 C3.68471607,17.9870777 3.74932754,18 3.813939,18 C3.98192881,18 4.14991861,17.9224662 4.25329696,17.7673987 L9.79696059,9.75557717 C9.91326122,9.60050965 9.92618351,9.38083068 9.83572746,9.21284087 C9.74527141,9.04485106 9.56435931,8.92855043 9.37052492,8.92855043 L5.93319503,8.90270584 L6.92821157,3.63041036 C6.97990075,3.39780909 6.85067782,3.15228553 6.63099884,3.04890719 C6.41131986,2.94552884 6.152874,3.01014031 5.99780649,3.2039747 L0.118163249,10.6084485 C-0.0110596797,10.763516 -0.0369042654,10.983195 0.0535517845,11.1641071 C0.144007834,11.3450192 0.324919934,11.4613198 0.53167662,11.4613198 L4.33083071,11.4871644 L3.30996958,17.3797299 C3.25828041,17.6252535 3.38750334,17.8707771 3.62010461,17.9612331 Z" id="Shape"></path>
            </g>
        </g>
    </g>
</svg>