<svg xmlns="http://www.w3.org/2000/svg" width="15" height="16" viewBox="0 0 15 16">
  <g fill="#FFF">
    <path d="M11.455,7.293 C11.374,7.114 11.196,7 11,7 L9,7 L9,0.5 C9,0.224 8.776,0 8.5,0 L6.5,0 C6.224,0 6,0.224 6,0.5 L6,7 L4,7 C3.804,7 3.626,7.115 3.545,7.293 C3.463,7.472 3.495,7.681 3.624,7.829 L7.124,11.829 C7.219,11.938 7.356,12 7.5,12 C7.644,12 7.781,11.937 7.876,11.829 L11.376,7.829 C11.506,7.682 11.536,7.472 11.455,7.293 Z"/>
    <path d="M13,11 L13,14 L2,14 L2,11 L0,11 L0,15 C0,15.553 0.448,16 1,16 L14,16 C14.553,16 15,15.553 15,15 L15,11 L13,11 Z"/>
  </g>
</svg>
