<svg xmlns="http://www.w3.org/2000/svg" width="23" height="23" viewBox="0 0 23 23">
  <g fill="none" fill-rule="evenodd">
    <polygon fill="#63ADF2" points="11.5 0 21.459 5.75 21.459 17.25 11.5 23 1.541 17.25 1.541 5.75"/>
    <path fill="#FFF" fill-rule="nonzero" d="M12.9802061,3.58129307 C12.9498474,3.47428062 12.8781704,3.38235213 12.778776,3.32879945 L6.69057689,0.0481788305 C6.57132782,-0.0160596102 6.42867218,-0.0160596102 6.30939276,0.0481788305 L0.221224017,3.32883042 C0.121859916,3.3823831 0.0501222522,3.47431159 0.0197938876,3.58132404 C0.00686107148,3.62211576 0,3.66523047 0,3.70939827 L0,10.2922278 C0,10.4464125 0.0835168479,10.587991 0.217095231,10.6601276 L6.30902845,13.9515889 C6.36877442,13.9838939 6.43437962,14 6.50001518,14 C6.5656811,14 6.63131666,13.983863 6.69103227,13.9515889 L12.7829351,10.6601276 C12.9164528,10.58796 13,10.4464125 13,10.2922278 L13,3.70936729 C13,3.6651995 12.9931086,3.62208478 12.9802061,3.58129307 Z M5.40846728,1.92369971 L6.39339534,1.39151799 C6.4557218,1.35785011 6.53034354,1.35785011 6.59267,1.39151799 L10.2264878,3.35487889 C10.2962217,3.39254231 10.3397865,3.46647537 10.3397865,3.54697475 C10.3397258,3.62744315 10.2960396,3.70131426 10.2263056,3.73894671 L9.14963348,4.31907496 C9.11851579,4.33583147 9.08436222,4.34422521 9.05020866,4.34422521 C9.0145068,4.34422521 8.97880494,4.33508811 8.94668541,4.31681392 L5.40455101,2.30550648 C5.33633495,2.26678997 5.2943792,2.1931047 5.29518709,2.1134416 C5.29601857,2.0337785 5.3394619,1.96099145 5.40846728,1.92369971 Z M6.49306303,12.3079025 C6.49306303,12.3840966 6.45390028,12.4547155 6.38993445,12.4940205 C6.35623627,12.5147106 6.31822714,12.5251176 6.28012695,12.5251176 C6.24594302,12.5251176 6.21169838,12.5167548 6.18048962,12.4999054 L1.29051897,9.85782853 C1.22081534,9.82022706 1.17725057,9.74632497 1.17725057,9.66588754 L1.17725057,4.47487022 C1.17725057,4.39873806 1.21635261,4.32815011 1.28025772,4.28884511 C1.34416283,4.2495401 1.42358126,4.24727906 1.48958112,4.28280533 L6.37955177,6.91775838 C6.44937683,6.95535986 6.49306303,7.02932389 6.49306303,7.10985424 L6.49306303,12.3079025 L6.49306303,12.3079025 Z M7.57723376,5.16640911 L6.59245749,5.69704217 C6.5613398,5.71379868 6.52718624,5.72219242 6.49303267,5.72219242 C6.45887911,5.72219242 6.42472555,5.71379868 6.39360785,5.69704217 L2.75972939,3.73894671 C2.68993468,3.70134523 2.64624846,3.62744315 2.64624846,3.54697475 C2.64624846,3.46647537 2.68978289,3.39254231 2.75951688,3.35487889 L3.83807124,2.77214889 C3.90176384,2.7376757 3.97823747,2.73854295 4.04126218,2.77428604 L7.58136255,4.78447844 C7.64960896,4.8232569 7.69159507,4.89700412 7.69072825,4.97669819 C7.68986462,5.05636129 7.64629986,5.12921028 7.57723376,5.16640911 Z M10.7571279,6.48425731 L9.44380951,7.18161917 C9.17021669,7.32685256 8.89449877,7.24697265 8.82792209,7.00321347 C8.76140612,6.75939235 8.9292595,6.44396116 9.20285232,6.29872778 L10.5162314,5.60136592 C10.7898242,5.4561635 11.0655421,5.53598147 11.1320581,5.77977162 C11.1986348,6.02356176 11.0307814,6.33899295 10.7571279,6.48425731 Z" transform="translate(5 5)"/>
  </g>
</svg>
