<?xml version="1.0" encoding="UTF-8"?>
<svg width="10px" height="12px" viewBox="0 0 10 12" version="1.1" xmlns="http://www.w3.org/2000/svg" xmlns:xlink="http://www.w3.org/1999/xlink">
    <!-- Generator: Sketch 64 (93537) - https://sketch.com -->
    <title>icon_sort</title>
    <desc>Created with Sketch.</desc>
    <g id="Page-1" stroke="none" stroke-width="1" fill="none" fill-rule="evenodd">
        <g id="icon_sort" fill="#FFFFFF" fill-rule="nonzero">
            <path d="M0.235102,7.6236735 C-0.0783673,7.3102041 -0.0783673,6.8057143 0.235102,6.4922449 C0.3918367,6.3355102 0.595102,6.2571429 0.8008163,6.2571429 C1.0065306,6.2571429 1.2097959,6.3355102 1.3665306,6.4922449 L4.1436735,9.2693878 L4.1436735,0.8008163 C4.1436735,0.36 4.5012245,0 4.9444898,0 C5.3853061,0 5.7453061,0.357551 5.7453061,0.8008163 L5.7453061,9.2693878 L8.517551,6.4922449 C8.8310204,6.1787755 9.3355102,6.1787755 9.6489796,6.4922449 C9.962449,6.8057143 9.962449,7.3102041 9.6489796,7.6236735 L5.5077551,11.764898 C5.3583673,11.9142857 5.155102,12 4.9420408,12 C4.7289796,12 4.5257143,11.9167347 4.3763265,11.764898 L0.235102,7.6236735 Z" id="Path"></path>
        </g>
    </g>
</svg>