<svg xmlns="http://www.w3.org/2000/svg" width="27" height="41" viewBox="0 0 27 41">
  <path fill="#63ADF2" d="M9.95213675,40.7196581 C10.1273504,40.7897436 10.3025641,40.8247863 10.4777778,40.8247863 C10.9333333,40.8247863 11.3888889,40.6145299 11.6692308,40.1940171 L26.7025641,18.4675214 C27.0179487,18.0470085 27.0529915,17.4512821 26.8076923,16.9957265 C26.5623932,16.5401709 26.0717949,16.2247863 25.5461538,16.2247863 L16.2247863,16.1547009 L18.9230769,1.85726496 C19.0632479,1.22649573 18.7128205,0.560683761 18.117094,0.28034188 C17.5213675,-8.32667268e-16 16.8205128,0.175213675 16.4,0.700854701 L0.455555556,20.7803419 C0.105128205,21.2008547 0.035042735,21.7965812 0.28034188,22.2871795 C0.525641026,22.7777778 1.01623932,23.0931624 1.57692308,23.0931624 L11.8794872,23.1632479 L9.11111111,39.142735 C8.97094017,39.808547 9.32136752,40.474359 9.95213675,40.7196581 Z M4.52051282,20.2547009 L15.0333333,7.00854701 L13.0709402,17.3461538 C13.0008547,17.7666667 13.1059829,18.1871795 13.3863248,18.5376068 C13.6666667,18.8529915 14.0521368,19.0632479 14.4726496,19.0632479 L22.7777778,19.0982906 L13.0008547,33.2555556 L14.9282051,21.9717949 C14.9982906,21.5512821 14.8931624,21.1307692 14.6128205,20.8153846 C14.3675214,20.5 13.9820513,20.3247863 13.5615385,20.3247863 L4.52051282,20.2547009 Z"/>
</svg>
