<?xml version="1.0" encoding="UTF-8"?>
<svg width="16px" height="14px" viewBox="0 0 16 14" version="1.1" xmlns="http://www.w3.org/2000/svg" xmlns:xlink="http://www.w3.org/1999/xlink">
    <!-- Generator: Sketch 51 (57462) - http://www.bohemiancoding.com/sketch -->
    <title>Group 2</title>
    <desc>Created with Sketch.</desc>
    <defs></defs>
    <g id="Symbols" stroke="none" stroke-width="1" fill="none" fill-rule="evenodd" opacity="0.5">
        <g id="Live-лента" transform="translate(-824.000000, -6.000000)" fill="#FFFFFF" fill-rule="nonzero">
            <g id="7-(common)">
                <g transform="translate(726.000000, 0.000000)">
                    <g id="Group-2" transform="translate(98.000000, 6.000000)">
                        <path d="M10.9142136,6.08578644 L13.4350288,8.60660172 L14.4249783,7.61665224 C14.6592929,7.38233766 15.0391919,7.38233766 15.2735065,7.61665224 C15.5078211,7.85096683 15.5078211,8.23086583 15.2735065,8.46518041 L13.2936086,10.4450783 L15.6270437,12.7785133 C15.8613583,13.0128279 15.8613583,13.3927269 15.6270437,13.6270415 C15.3927291,13.8613561 15.0128301,13.8613561 14.7785155,13.6270415 L12.4450805,11.2936064 L10.4651804,13.2735065 C10.2308658,13.5078211 9.85096683,13.5078211 9.61665224,13.2735065 C9.38233766,13.0391919 9.38233766,12.6592929 9.61665224,12.4249783 L10.6066017,11.4350288 L8.08578644,8.91421356 L8.93431458,8.06568542 L11.4551297,10.5865006 L12.5865006,9.45512972 L10.0656854,6.93431458 L10.9142136,6.08578644 Z M8.91421356,4.08578644 L8.06568542,4.93431458 L5.26862081,2.13724996 L4.08503286,2.08503286 L4.13724996,3.26862081 L6.93431458,6.06568542 L6.08578644,6.91421356 L2.95896989,3.78739702 L2.82842712,0.828427125 L5.78739702,0.958969894 L8.91421356,4.08578644 Z" id="Rectangle-8"></path>
                        <path d="M2.13724996,3.26862081 L9.45512972,10.5865006 L10.5865006,9.45512972 L3.26862081,2.13724996 L2.08503286,2.08503286 L2.13724996,3.26862081 Z M11.4350288,8.60660172 L12.4249783,7.61665224 C12.6592929,7.38233766 13.0391919,7.38233766 13.2735065,7.61665224 C13.5078211,7.85096683 13.5078211,8.23086583 13.2735065,8.46518041 L11.2936086,10.4450783 L13.6270437,12.7785133 C13.8613583,13.0128279 13.8613583,13.3927269 13.6270437,13.6270415 C13.3927291,13.8613561 13.0128301,13.8613561 12.7785155,13.6270415 L10.4450805,11.2936064 L8.46518041,13.2735065 C8.23086583,13.5078211 7.85096683,13.5078211 7.61665224,13.2735065 C7.38233766,13.0391919 7.38233766,12.6592929 7.61665224,12.4249783 L8.60660172,11.4350288 L0.958969894,3.78739702 L0.828427125,0.828427125 L3.78739702,0.958969894 L11.4350288,8.60660172 Z" id="Rectangle-8" transform="translate(7.315603, 7.315602) scale(-1, 1) translate(-7.315603, -7.315602) "></path>
                    </g>
                </g>
            </g>
        </g>
    </g>
</svg>