<?xml version="1.0" encoding="UTF-8"?>
<svg width="26px" height="29px" viewBox="0 0 26 29" version="1.1" xmlns="http://www.w3.org/2000/svg" xmlns:xlink="http://www.w3.org/1999/xlink">
    <title>Group 10</title>
    <g id="Профиль" stroke="none" stroke-width="1" fill="none" fill-rule="evenodd">
        <g transform="translate(-1121.000000, -971.000000)" fill="#FFFFFF" fill-rule="nonzero" id="Табы">
            <g transform="translate(220.000000, 285.000000)">
                <g transform="translate(0.000000, 483.000000)">
                    <g id="Предметы" transform="translate(42.000000, 151.000000)">
                        <g id="Group-10" transform="translate(859.000000, 52.000000)">
                            <path d="M13,3 C16.2363014,3 19.1963965,4.1825795 21.4717312,6.13918435 C21.5037658,6.0898494 21.5423618,6.04342464 21.5857864,6 L23,4.58578644 C23.3905243,4.19526215 24.0236893,4.19526215 24.4142136,4.58578644 C24.8047379,4.97631073 24.8047379,5.60947571 24.4142136,6 L23,7.41421356 C22.9565754,7.4576382 22.9101506,7.4962342 22.8613929,7.53000157 C24.8174205,9.8036035 26,12.7636986 26,16 C26,23.1797017 20.1797017,29 13,29 C5.82029825,29 0,23.1797017 0,16 C0,8.82029825 5.82029825,3 13,3 Z M13,5 C6.92486775,5 2,9.92486775 2,16 C2,22.0751322 6.92486775,27 13,27 C19.0751322,27 24,22.0751322 24,16 C24,9.92486775 19.0751322,5 13,5 Z M13,8 C13.5522847,8 14,8.44771525 14,9 L14,16 L19,16 C19.5522847,16 20,16.4477153 20,17 C20,17.5522847 19.5522847,18 19,18 L13,18 L13,18 C12.4477153,18 12,17.5522847 12,17 L12,9 C12,8.44771525 12.4477153,8 13,8 Z M18,0 C18.5522847,-1.01453063e-16 19,0.44771525 19,1 C19,1.55228475 18.5522847,2 18,2 L8,2 C7.44771525,2 7,1.55228475 7,1 C7,0.44771525 7.44771525,1.01453063e-16 8,0 L18,0 Z" id="Oval"></path>
                        </g>
                    </g>
                </g>
            </g>
        </g>
    </g>
</svg>