<svg xmlns="http://www.w3.org/2000/svg" width="42" height="12" viewBox="0 0 42 12">
  <g fill="none" fill-rule="evenodd">
    <path fill="#353535" d="M18.390384,4.74264 C16.5134309,4.74273808 14.9919066,6.26432688 14.991888,8.14128 L14.991888,11.964912 L24.52896,11.964912 L25.881696,9.415824 L17.659152,9.415824 L17.659152,8.393904 C17.6591546,7.78480344 18.1528994,7.29101567 18.762,7.29096 L24.125904,7.290528 C26.1202793,7.290528 27.73704,5.67376734 27.73704,3.679392 C27.73704,1.68501666 26.1202793,0.068256 24.125904,0.068256 L17.742672,0.069408 C17.0666174,0.0693990887 16.418249,0.337953495 15.9402017,0.815991778 C15.4621544,1.29403006 15.1935878,1.94239341 15.193584,2.618448 L23.940048,2.618208 C24.5216901,2.61342212 25.0021691,3.07108488 25.025664,3.652272 C25.0334922,3.93844843 24.9253589,4.21564707 24.725816,4.42092943 C24.526273,4.6262118 24.2522513,4.74216008 23.965968,4.742448 L18.390384,4.74264 Z"/>
    <path fill="#F05F00" d="M6.104256,9.409392 C4.23045988,9.409392 2.711448,7.89038012 2.711448,6.016584 C2.711448,4.14278788 4.23045988,2.623776 6.104256,2.623776 L12.991488,2.618448 L12.991488,0.069408 L5.94216,0.0744 C2.66038243,0.0744000489 -2.39114546e-05,2.73480643 -2.39114546e-05,6.016584 C-2.39114546e-05,9.29836157 2.66038243,11.958768 5.94216,11.958768 L12.991488,11.96472 L12.991488,4.7424 L5.344224,4.742592 L5.344224,7.291728 L10.324272,7.291632 L10.324272,9.415728 L6.104256,9.409392 Z"/>
    <path fill="#0084C1" fill-rule="nonzero" d="M34.347264,10.51824 L33.936912,10.51824 C33.5374776,10.51824 33.213672,10.8420456 33.213672,11.24148 C33.213672,11.6409144 33.5374776,11.96472 33.936912,11.96472 L34.347264,11.96472 C34.7466984,11.96472 35.070504,11.6409144 35.070504,11.24148 C35.070504,10.8420456 34.7466984,10.51824 34.347264,10.51824 Z M34.332528,11.662368 L33.951648,11.662368 C33.7192245,11.662368 33.530808,11.4739515 33.530808,11.241528 C33.530808,11.0091045 33.7192245,10.820688 33.951648,10.820688 L34.332528,10.820688 C34.5649515,10.820688 34.753368,11.0091045 34.753368,11.241528 C34.753368,11.4739515 34.5649515,11.662368 34.332528,11.662368 Z"/>
    <path fill="#0084C1" d="M31.463088,11.241456 C31.4635165,11.6407073 31.7870527,11.964265 32.186304,11.96472 L33.013152,11.96472 L33.013152,11.662368 L32.201088,11.662368 C31.9686645,11.662368 31.780248,11.4739515 31.780248,11.241528 C31.780248,11.0091045 31.9686645,10.820688 32.201088,10.820688 L33.013152,10.820688 L33.013152,10.51824 L32.186304,10.51824 C31.7870692,10.5186897 31.4635377,10.8422212 31.463088,11.241456 Z"/>
    <polygon fill="#0084C1" points="36.672 10.518 36.356 11.385 36.041 10.518 35.641 10.518 35.105 11.964 35.446 11.964 35.841 10.854 36.193 11.822 36.519 11.822 36.871 10.854 37.267 11.964 37.607 11.964 37.071 10.518"/>
    <circle cx="31.09" cy="11.767" r="1" fill="#0084C1"/>
    <path fill="#0084C1" d="M36.465984,1.439952 C36.2695456,1.05370997 35.9901811,0.715650021 35.647872,0.449952 C35.2470413,0.151994691 34.7594544,-0.00608781217 34.260048,-4.26281189e-16 C33.7720644,-0.00608026157 33.2962642,0.152429626 32.909424,0.449952 C32.5671149,0.715650021 32.2877504,1.05370997 32.091312,1.439952 C29.863392,5.684112 26.527296,11.964912 26.527296,11.964912 L29.5717008,11.964912 L34.260048,2.982816 L36.463344,7.20408 L33.07104,7.20408 L34.267008,9.487776 L37.6553808,9.487776 L38.9484,11.964912 L41.992752,11.964912 C41.992752,11.964912 38.693856,5.684112 36.465984,1.439952 Z"/>
  </g>
</svg>
