<?xml version="1.0" encoding="UTF-8"?>
<svg width="16px" height="14px" viewBox="0 0 16 14" version="1.1" xmlns="http://www.w3.org/2000/svg" xmlns:xlink="http://www.w3.org/1999/xlink">
    <!-- Generator: Sketch 48.1 (47250) - http://www.bohemiancoding.com/sketch -->
    <title>Иконка</title>
    <desc>Created with Sketch.</desc>
    <defs></defs>
    <g id="Главная" stroke="none" stroke-width="1" fill="none" fill-rule="evenodd" transform="translate(-30.000000, -411.000000)">
        <g id="Сайдбар" transform="translate(0.000000, 82.000000)" fill="#63ADF2" fill-rule="nonzero">
            <g id="Навигация" transform="translate(0.000000, 305.000000)">
                <g id="Главная" transform="translate(30.000000, 21.000000)">
                    <g id="Иконка" transform="translate(0.000000, 3.000000)">
                        <path d="M0.552685861,8.3369964 L1.85594628,8.3369964 L1.85594628,13.4519684 C1.85594628,13.7533858 2.10728725,14 2.41448177,14 L6.23115188,14 C6.53834639,14 6.78968736,13.7533858 6.78968736,13.4519684 L6.78968736,9.70707532 L9.1169076,9.70707532 L9.1169076,13.4519684 C9.1169076,13.7533858 9.36824857,14 9.67544309,14 L13.3059238,14 C13.6131183,14 13.8644592,13.7533858 13.8644592,13.4519684 L13.8644592,8.3369964 L15.4469874,8.3369964 C15.6704016,8.3369964 15.875187,8.19998851 15.9589673,7.99905435 C16.0427476,7.79812019 15.9961921,7.5606291 15.8379622,7.40534274 L8.55837212,0.16220295 C8.3442559,-0.0478865628 7.99053866,-0.0570096765 7.77642244,0.153079836 L0.171041849,7.39621963 C0.00348120279,7.55150598 -0.0430743727,7.78896484 0.0407059502,7.99905435 C0.124486273,8.20911162 0.329271666,8.3369964 0.552685861,8.3369964 Z M8.14876847,1.32219235 L14.1064694,7.24093327 L13.3058909,7.24093327 C12.9986964,7.24093327 12.7473554,7.48754747 12.7473554,7.78896484 L12.7473554,12.9039369 L10.2339457,12.9039369 L10.2339457,9.15904375 C10.2339457,8.85762639 9.98260475,8.61101219 9.67541023,8.61101219 L6.23115188,8.61101219 C5.92395736,8.61101219 5.67261639,8.85762639 5.67261639,9.15904375 L5.67261639,12.9039369 L2.97301725,12.9039369 L2.97301725,7.78896484 C2.97301725,7.48754747 2.72167628,7.24093327 2.41448177,7.24093327 L1.93042863,7.24093327 L8.14876847,1.32219235 Z" id="Shape"></path>
                    </g>
                </g>
            </g>
        </g>
    </g>
</svg>