<?xml version="1.0" encoding="UTF-8" standalone="no"?>
<svg width="43px" height="44px" viewBox="0 0 43 44" version="1.1" xmlns="http://www.w3.org/2000/svg" xmlns:xlink="http://www.w3.org/1999/xlink">
    <!-- Generator: sketchtool 41.1 (35376) - http://www.bohemiancoding.com/sketch -->
    <title>4AB45066-FBFB-49E8-822A-10F2B05513EC</title>
    <desc>Created with sketchtool.</desc>
    <defs></defs>
    <g id="Page-1" stroke="none" stroke-width="1" fill="none" fill-rule="evenodd">
        <g id="user" transform="translate(-762.000000, -615.000000)" fill="#FFFFFF">
            <g id="Group-39" transform="translate(602.000000, 614.000000)">
                <g id="Group-44" transform="translate(5.000000, 0.000000)">
                    <g id="620911" transform="translate(176.725806, 23.000000) rotate(90.000000) translate(-176.725806, -23.000000) translate(153.725806, 1.000000)">
                        <g id="Group" transform="translate(0.027225, 0.392396)">
                            <g id="Group-41" transform="translate(-0.000000, 0.000000)">
                                <path d="M7.91121446,4.33896521 L36.8840435,4.33896521 C38.4462247,4.33896521 39.6181201,5.37228911 39.6181201,6.56895732 L39.6181201,14.9295301 L39.6181201,15.9781032 L39.6181201,22.4635442 L26.4161336,22.4635442 L26.4161336,23.3490638 L26.4161336,26.9690308 L30.9823946,26.9690308 L24.1894092,38.7209923 L23.5845055,37.6756926 L17.3956996,26.9690308 L21.9437687,26.9690308 L21.9437687,26.953063 L21.9443105,26.953063 L21.9443105,18.6019568 L26.5109421,18.6019568 L19.7175918,6.8496246 L19.113418,7.89492431 L12.9242414,18.6019568 L17.4719456,18.6019568 L17.4719456,22.4635898 L5.17694965,22.4635898 L5.17694965,15.9781546 L5.17694965,14.9295815 L5.17694965,6.56900864 C5.17694965,5.37234614 6.34884505,4.33901653 7.91103197,4.33901653 L7.91121446,4.33896521 Z" id="Shape"></path>
                                <path d="M2.64630335,6.46855755 L2.64630335,36.3157752 C2.64630335,38.9228529 4.61082835,41.0350235 7.03419275,41.0350235 L37.760877,41.0350235 C40.1898331,41.0350235 42.1487664,38.9221441 42.1487664,36.3157752 L42.1487664,6.46855755 C42.1487664,3.86147984 40.1842414,1.74930922 37.760877,1.74930922 L7.03419275,1.74930922 C4.60523664,1.74930922 2.64630335,3.86218866 2.64630335,6.46855755 Z M1.18324916,6.46855755 C1.18324916,2.99301473 3.79841642,0.177880645 7.03419275,0.177880645 L37.760877,0.177880645 C40.9928975,0.177880645 43.6118206,2.99428399 43.6118206,6.46855755 L43.6118206,36.3157752 C43.6118206,39.791318 40.9966533,42.6064521 37.760877,42.6064521 L7.03419275,42.6064521 C3.8021723,42.6064521 1.18324916,39.7900487 1.18324916,36.3157752 L1.18324916,6.46855755 Z" id="Rectangle-16"></path>
                            </g>
                        </g>
                    </g>
                </g>
            </g>
        </g>
    </g>
</svg>