<svg xmlns="http://www.w3.org/2000/svg" width="48" height="44" viewBox="0 0 48 44">
  <g fill="#63ADF2" transform="translate(-1 -4)">
    <path d="M0.693650814,39.8063492 L14.1936508,39.8063492 C14.8840068,39.8063492 15.4436508,40.3659932 15.4436508,41.0563492 C15.4436508,41.7467051 14.8840068,42.3063492 14.1936508,42.3063492 L0.693650814,42.3063492 C0.00329487661,42.3063492 -0.556349186,41.7467051 -0.556349186,41.0563492 C-0.556349186,40.3659932 0.00329487661,39.8063492 0.693650814,39.8063492 Z" transform="rotate(-45 7.444 41.056)"/>
    <path d="M6.94974747,16.8002525 C6.25939153,16.8002525 5.69974747,16.2406085 5.69974747,15.5502525 C5.69974747,14.8598966 6.25939153,14.3002525 6.94974747,14.3002525 L43.9497475,14.3002525 C44.2812681,14.3002525 44.5992105,14.4319486 44.8336309,14.6663691 L49.8336309,19.6663691 C50.3217863,20.1545244 50.3217863,20.9459806 49.8336309,21.434136 L44.8336309,26.434136 C44.5992105,26.6685565 44.2812681,26.8002525 43.9497475,26.8002525 L6.94974747,26.8002525 C6.25939153,26.8002525 5.69974747,26.2406085 5.69974747,25.5502525 C5.69974747,24.8598966 6.25939153,24.3002525 6.94974747,24.3002525 L43.4319805,24.3002525 L47.1819805,20.5502525 L43.4319805,16.8002525 L6.94974747,16.8002525 Z" transform="rotate(-45 27.95 20.55)"/>
    <path d="M12.570175,22.429825 C13.2605309,22.429825 13.820175,22.9894691 13.820175,23.679825 L13.820175,48.179825 C13.820175,48.870181 13.2605309,49.429825 12.570175,49.429825 C11.879819,49.429825 11.320175,48.870181 11.320175,48.179825 L11.320175,23.679825 C11.320175,22.9894691 11.879819,22.429825 12.570175,22.429825 Z" transform="rotate(-45 12.57 35.93)"/>
    <polygon fill-opacity=".2" points="7.096 16.404 45.096 16.404 48.096 21.404 45.096 25.404 7.096 25.404" transform="rotate(-45 27.596 20.904)"/>
    <path d="M35.8063492,39.8063492 L49.3063492,39.8063492 C49.9967051,39.8063492 50.5563492,40.3659932 50.5563492,41.0563492 C50.5563492,41.7467051 49.9967051,42.3063492 49.3063492,42.3063492 L35.8063492,42.3063492 C35.1159932,42.3063492 34.5563492,41.7467051 34.5563492,41.0563492 C34.5563492,40.3659932 35.1159932,39.8063492 35.8063492,39.8063492 Z" transform="scale(-1 1) rotate(-45 0 143.796)"/>
    <path d="M11.868272,14.3002525 L11.868272,16.8002525 L1.05025253,16.8002525 C0.359896594,16.8002525 -0.199747468,16.2406085 -0.199747468,15.5502525 C-0.199747468,14.8598966 0.359896594,14.3002525 1.05025253,14.3002525 L11.868272,14.3002525 Z M22.4748737,14.3002525 L38.0502525,14.3002525 C38.3817731,14.3002525 38.6997155,14.4319486 38.934136,14.6663691 L43.934136,19.6663691 C44.4222914,20.1545244 44.4222914,20.9459806 43.934136,21.434136 L38.934136,26.434136 C38.6997155,26.6685565 38.3817731,26.8002525 38.0502525,26.8002525 L22.4748737,26.8002525 L22.4748737,24.3002525 L37.5324856,24.3002525 L41.2824856,20.5502525 L37.5324856,16.8002525 L22.4748737,16.8002525 L22.4748737,14.3002525 Z M11.868272,26.8002525 L1.05025253,26.8002525 C0.359896594,26.8002525 -0.199747468,26.2406085 -0.199747468,25.5502525 C-0.199747468,24.8598966 0.359896594,24.3002525 1.05025253,24.3002525 L11.868272,24.3002525 L11.868272,26.8002525 Z" transform="scale(-1 1) rotate(-45 0 73.784)"/>
    <path d="M37.429825,22.429825 C38.120181,22.429825 38.679825,22.9894691 38.679825,23.679825 L38.679825,48.179825 C38.679825,48.870181 38.120181,49.429825 37.429825,49.429825 C36.7394691,49.429825 36.179825,48.870181 36.179825,48.179825 L36.179825,23.679825 C36.179825,22.9894691 36.7394691,22.429825 37.429825,22.429825 Z" transform="scale(-1 1) rotate(-45 0 126.293)"/>
  </g>
</svg>
