<?xml version="1.0" encoding="utf-8"?>
<!-- Generator: Adobe Illustrator 16.0.0, SVG Export Plug-In . SVG Version: 6.00 Build 0)  -->
<!DOCTYPE svg PUBLIC "-//W3C//DTD SVG 1.1//EN" "http://www.w3.org/Graphics/SVG/1.1/DTD/svg11.dtd">
<svg version="1.1" id="Layer_1" xmlns="http://www.w3.org/2000/svg" xmlns:xlink="http://www.w3.org/1999/xlink" x="0px" y="0px"
	 width="566.93px" height="566.93px" viewBox="0 0 566.93 566.93" enable-background="new 0 0 566.93 566.93" xml:space="preserve">
<polyline opacity="0.18" fill="#63ADF2" enable-background="new    " points="426.858,437.709 426.858,529.281 392.753,503.925 
	358.65,529.281 358.65,437.709 "/>
<path fill="none" stroke="#63ADF2" stroke-width="24" stroke-linejoin="round" d="M125.012,108.072v323.77
	c0,24.471,19.821,44.291,44.292,44.291h192.335"/>
<path fill="none" stroke="#63ADF2" stroke-width="24" stroke-linecap="round" stroke-linejoin="round" d="M61.011,92.348
	c0-30.118,24.472-54.589,54.59-54.589h335.617c30.118,0,54.589,24.471,54.589,54.589"/>
<path fill="none" stroke="#63ADF2" stroke-width="24" stroke-linecap="round" stroke-linejoin="round" d="M115.711,146.937
	c-30.118,0-54.589-24.471-54.589-54.589"/>
<line fill="none" stroke="#63ADF2" stroke-width="24" stroke-linejoin="round" x1="209.941" y1="348.241" x2="293.984" y2="348.241"/>
<line fill="none" stroke="#63ADF2" stroke-width="24" stroke-linejoin="round" x1="209.941" y1="188.017" x2="420.878" y2="188.017"/>
<line fill="none" stroke="#63ADF2" stroke-width="24" stroke-linejoin="round" x1="209.941" y1="268.185" x2="420.878" y2="268.185"/>
<circle fill="none" stroke="#FFFFFF" stroke-width="24" stroke-linecap="round" stroke-linejoin="round" cx="392.753" cy="386.775" r="59.904"/>
<polyline fill="none" stroke="#FFFFFF" stroke-width="24" stroke-linecap="round" stroke-linejoin="round" points="426.858,437.709 
	426.858,529.281 392.753,503.925 358.65,529.281 358.65,437.709 "/>
<path fill="none" stroke="#63ADF2" stroke-width="24" stroke-linecap="round" stroke-linejoin="round" d="M435.716,476.132h25.91
	c24.472,0,44.292-19.82,44.292-44.291V92.348"/>
<path fill="none" stroke="#63ADF2" stroke-width="24" stroke-linecap="round" stroke-linejoin="round" d="M107.296,90.355
	c9.744,0,17.716,7.973,17.716,17.717"/>
</svg>
