<?xml version="1.0" encoding="UTF-8" standalone="no"?>
<svg width="70px" height="70px" viewBox="0 0 70 70" version="1.1" xmlns="http://www.w3.org/2000/svg" xmlns:xlink="http://www.w3.org/1999/xlink">
    <!-- Generator: sketchtool 41.1 (35376) - http://www.bohemiancoding.com/sketch -->
    <title>1BF22DC8-10E4-40BE-8397-EE9BB3FEF99F</title>
    <desc>Created with sketchtool.</desc>
    <defs>
        <circle id="path-1" cx="34.6499236" cy="34.6499236" r="34.6499236"></circle>
        <mask id="mask-2" maskContentUnits="userSpaceOnUse" maskUnits="objectBoundingBox" x="0" y="0" width="69.2998471" height="69.2998471" fill="white">
            <use xlink:href="#path-1"></use>
        </mask>
    </defs>
    <g id="Page-1" stroke="none" stroke-width="1" fill="none" fill-rule="evenodd">
        <g id="aut" transform="translate(-1505.000000, -25.000000)">
            <g id="Group" transform="translate(1505.000000, 25.000000)">
                <use id="Oval-2" stroke="#FFFFFF" mask="url(#mask-2)" stroke-width="6" xlink:href="#path-1"></use>
                <path d="M33.0975076,27.6513394 C33.0975076,27.6983516 33.0975076,27.7453638 33.099896,27.7894978 L26.2912385,37.7225078 C25.1883067,37.6721376 24.0815536,37.8664228 23.0321204,38.3005662 C22.5695005,38.4900542 22.1360182,38.7227167 21.7292852,38.991358 L6.77856445,32.8102108 C6.77868148,32.8102108 6.43261453,38.526033 7.87433127,42.7859156 L18.4436566,47.1657273 C18.974344,49.5475198 20.6012759,51.6366852 23.0015498,52.6416913 C26.9286844,54.2895175 31.4567234,52.4114274 33.0903426,48.4657591 C33.5154658,47.4343686 33.7136974,46.3526079 33.6850374,45.2732457 L43.4270444,38.2813776 C43.5058594,38.2837761 43.5870627,38.2861747 43.6658776,38.2861747 C49.4957965,38.2861747 54.2342476,33.5129954 54.2342476,27.6513394 C54.2342476,21.7892036 49.4957965,17.0203418 43.6658776,17.0203418 C37.8383471,17.0203418 33.0975076,21.7892036 33.0975076,27.6513394 Z M31.4638884,47.7797645 C30.1995053,50.8283629 26.7111073,52.2747082 23.6788808,51.005858 C22.2800346,50.4206039 21.2239141,49.3484375 20.6146506,48.069993 L24.0550431,49.5019467 C26.2912385,50.4373939 28.856785,49.3724233 29.7863239,47.12735 C30.7187288,44.8798782 29.6609364,42.2990033 27.4259352,41.3635561 L23.8694697,39.8836307 C25.2418054,39.3607397 26.801864,39.341551 28.2594631,39.950791 C29.7290039,40.5648282 30.8691937,41.7209449 31.4734417,43.1984718 C32.0776898,44.6759986 32.0753015,46.3070348 31.4638884,47.7797645 L31.4638884,47.7797645 Z M43.6658776,34.7362725 C39.7848378,34.7362725 36.6250743,31.5581507 36.6250743,27.6513394 C36.6250743,23.7476463 39.7848378,20.568565 43.6658776,20.568565 C47.5493058,20.568565 50.7090693,23.7476463 50.7090693,27.6513394 C50.7090693,31.5581507 47.5493058,34.7362725 43.6658776,34.7362725 L43.6658776,34.7362725 Z M38.3900518,27.6405458 C38.3900518,24.7015626 40.7592773,22.3178512 43.6778193,22.3178512 C46.5987496,22.3178512 48.9679751,24.7015626 48.9679751,27.6405458 C48.9679751,30.5797688 46.5987496,32.9613215 43.6778193,32.9613215 C40.7592773,32.9613215 38.3900518,30.5797688 38.3900518,27.6405458 L38.3900518,27.6405458 Z" id="Shape" fill="#FFFFFF"></path>
            </g>
        </g>
    </g>
</svg>