<?xml version="1.0" encoding="UTF-8"?>
<svg width="10px" height="16px" viewBox="0 0 10 16" version="1.1" xmlns="http://www.w3.org/2000/svg" xmlns:xlink="http://www.w3.org/1999/xlink">
    <!-- Generator: Sketch 48.1 (47250) - http://www.bohemiancoding.com/sketch -->
    <title>Shape</title>
    <desc>Created with Sketch.</desc>
    <defs></defs>
    <g id="Главная" stroke="none" stroke-width="1" fill="none" fill-rule="evenodd" transform="translate(-1251.000000, -693.000000)">
        <g id="Ограниченная-серия" transform="translate(262.000000, 285.000000)" fill="#F2A237" fill-rule="nonzero">
            <g id="AirDrop" transform="translate(467.000000, 66.000000)">
                <g id="Кол-во-открытий" transform="translate(500.000000, 333.000000)">
                    <g id="lightning" transform="translate(22.000000, 6.000000)">
                        <path d="M3.85437554,19 C4.02414643,19 4.19391732,18.9172973 4.29839171,18.751892 L9.90083095,10.205949 C10.0183646,10.0405436 10.0314239,9.80621939 9.94000885,9.62703026 C9.84859375,9.44784113 9.66576357,9.32378712 9.46987408,9.32378712 L5.99610057,9.29621956 L7.00166659,3.67243772 C7.05390378,3.4243297 6.92331079,3.1624379 6.70130271,3.05216766 C6.47929463,2.94189743 6.21810865,3.01081633 6.06139706,3.21757301 L0.119416051,11.1156784 C-0.0111769378,11.2810837 -0.0372955357,11.515408 0.0541195568,11.7083809 C0.145534649,11.9013538 0.328364834,12.0254078 0.537313617,12.0254078 L4.3767475,12.0529754 L3.34506289,18.3383786 C3.29282569,18.6002704 3.42341868,18.8621622 3.65848606,18.9586487 C3.72378256,18.9862162 3.78907905,19 3.85437554,19 Z" id="Shape"></path>
                    </g>
                </g>
            </g>
        </g>
    </g>
</svg>