<svg xmlns="http://www.w3.org/2000/svg" width="24" height="24" viewBox="0 0 24 24">
  <g fill="none" fill-rule="evenodd">
    <rect width="24" height="24"/>
    <rect width="2" height="18" x="16" y="6" fill="#63ADF2" rx="1"/>
    <path fill="#63ADF2" fill-rule="nonzero" d="M16.2928932,6.29289322 C16.6533772,5.93240926 17.2206082,5.90467972 17.6128994,6.20970461 L17.7071068,6.29289322 L21.7071068,10.2928932 C22.0976311,10.6834175 22.0976311,11.3165825 21.7071068,11.7071068 C21.3466228,12.0675907 20.7793918,12.0953203 20.3871006,11.7902954 L20.2928932,11.7071068 L17,8.415 L13.7071068,11.7071068 C13.3466228,12.0675907 12.7793918,12.0953203 12.3871006,11.7902954 L12.2928932,11.7071068 C11.9324093,11.3466228 11.9046797,10.7793918 12.2097046,10.3871006 L12.2928932,10.2928932 L16.2928932,6.29289322 Z"/>
    <rect width="2" height="15" x="6" fill="#63ADF2" rx="1"/>
    <rect width="2" height="5" x="6" y="17" fill="#63ADF2" rx="1"/>
    <path fill="#63ADF2" fill-rule="nonzero" d="M6.29289322,0.292893219 C6.65337718,-0.0675907428 7.22060824,-0.0953202783 7.61289944,0.209704612 L7.70710678,0.292893219 L11.7071068,4.29289322 C12.0976311,4.68341751 12.0976311,5.31658249 11.7071068,5.70710678 C11.3466228,6.06759074 10.7793918,6.09532028 10.3871006,5.79029539 L10.2928932,5.70710678 L7,2.415 L3.70710678,5.70710678 C3.34662282,6.06759074 2.77939176,6.09532028 2.38710056,5.79029539 L2.29289322,5.70710678 C1.93240926,5.34662282 1.90467972,4.77939176 2.20970461,4.38710056 L2.29289322,4.29289322 L6.29289322,0.292893219 Z"/>
  </g>
</svg>
