<svg xmlns="http://www.w3.org/2000/svg" width="16" height="4" viewBox="0 0 16 4">
  <path fill="#FFF" fill-rule="evenodd" d="M124,26 C122.895431,26 122,25.1045695 122,24 C122,22.8954305 122.895431,22 124,22 C125.104569,22 126,22.8954305 126,24 C126,25.1045695 125.104569,26 124,26 Z M112,26 C110.895431,26 110,25.1045695 110,24 C110,22.8954305 110.895431,22 112,22 C113.104569,22 114,22.8954305 114,24 C114,25.1045695 113.104569,26 112,26 Z M118,26 C116.895431,26 116,25.1045695 116,24 C116,22.8954305 116.895431,22 118,22 C119.104569,22 120,22.8954305 120,24 C120,25.1045695 119.104569,26 118,26 Z" transform="translate(-110 -22)"/>
</svg>
