<svg xmlns="http://www.w3.org/2000/svg" width="18" height="18" viewBox="0 0 18 18">
  <g fill="none" fill-rule="evenodd">
    <circle cx="9" cy="9" r="9" fill="#5EA94B"/>
    <path fill="#FFF" fill-rule="nonzero" d="M11.7481028,5.52950397 L11.7481028,4.95817982 L6.39911371,4.95817982 L6.39911371,5.52950397 L4.57363337,5.52950397 L4.57363337,5.97530956 C4.57363337,7.4429151 5.14523371,8.34682956 5.624685,8.84644316 C6.0452312,9.28449015 6.46437131,9.49567972 6.64196539,9.57198516 C6.98251516,10.2826377 7.6503824,10.8064812 8.45042202,10.9481949 L8.45042202,12.5808151 L7.31430199,12.5808151 L7.31430199,13.6951909 L10.8329647,13.6951909 L10.8329647,12.5808151 L9.69669407,12.5808151 L9.69669407,10.9481698 C10.496809,10.8064561 11.1648018,10.2825875 11.5052762,9.57196005 C11.6827448,9.49567972 12.1020606,9.28449015 12.5224813,8.84641805 C13.002033,8.34682956 13.5736334,7.4429151 13.5736334,5.97528445 L13.5736334,5.52950397 L11.7481028,5.52950397 Z M6.39911371,8.35790251 C6.01951986,8.0132098 5.58840288,7.41238288 5.4869887,6.42103982 L6.39911371,6.42103982 L6.39911371,8.35790251 Z M11.7481028,8.35935882 L11.7481028,6.42103982 L12.6603031,6.42103982 C12.5593409,7.4144418 12.1285001,8.01501763 11.7481028,8.35935882 Z"/>
  </g>
</svg>
