<?xml version="1.0" encoding="UTF-8" standalone="no"?>
<svg width="65px" height="40px" viewBox="0 0 65 40" version="1.1" xmlns="http://www.w3.org/2000/svg" xmlns:xlink="http://www.w3.org/1999/xlink">
    <!-- Generator: sketchtool 41.1 (35376) - http://www.bohemiancoding.com/sketch -->
    <title>33488E4E-5937-417D-BDBE-428C1B4FDF55</title>
    <desc>Created with sketchtool.</desc>
    <defs></defs>
    <g id="Page-1" stroke="none" stroke-width="1" fill="none" fill-rule="evenodd">
        <g id="user" transform="translate(-1115.000000, -616.000000)" fill="#FFFFFF">
            <g id="Group-39" transform="translate(1115.000000, 616.000000)">
                <g id="Group-38">
                    <g id="Group">
                        <path d="M39.5226,15.0943 C36.67235,14.68675 34.30895,15.31985 34.1406,17.81325 C33.9469,20.68625 36.7003,24.0643 39.57915,24.0643 C42.458,24.0643 43.67935,22.12275 43.61695,19.2439 C43.5604,16.6647 41.87885,15.431 39.5226,15.0943 Z" id="Shape"></path>
                        <path d="M25.7504,15.0943 C23.3948,15.431 21.71325,16.6647 21.65735,19.2439 C21.5943,22.12275 22.81435,24.0643 25.6945,24.0643 C28.574,24.0643 31.3261,20.68625 31.1324,17.81325 C30.96405,15.31985 28.60065,14.68675 25.7504,15.0943 Z" id="Shape"></path>
                        <path d="M61.92615,27.48005 C59.3632,26.2197 57.84025,29.5022 54.4141,28.0033 L47.74705,24.752 C47.7854,23.6223 47.63915,22.2677 47.3538,20.6661 C47.71065,18.2871 48.84165,17.74435 48.79745,14.9877 L54.41995,12.2447 C57.8461,10.74515 59.3684,14.0283 61.932,12.7686 C64.1498,11.6779 65.9737,8.2628 63.9925,6.78665 C63.47185,6.3986 62.85955,6.3284 62.4637,5.6394 L62.42665,5.56335 L62.39025,5.4886 C62.0893,4.7528 62.4117,4.22695 62.42665,3.57825 C62.4832,1.10825 58.66965,0.44265 56.44535,1.5184 C53.8707,2.76315 55.52495,5.98715 52.22685,7.7636 L47.9401,9.85335 C45.9056,2.26785 41.7417,0.64805 32.6911,0.64805 C23.61125,0.64805 19.45255,2.28475 17.42975,9.96905 C17.4304,9.96775 17.4304,9.9671 17.4304,9.9658 L12.9142,7.7636 C9.6148,5.98715 11.27035,2.76315 8.69635,1.5184 C6.4714,0.44265 2.6585,1.10825 2.7144,3.57825 C2.72935,4.22695 3.05175,4.75345 2.75145,5.4886 L2.7144,5.56335 L2.67735,5.6394 C2.2828,6.3284 1.6692,6.3986 1.14855,6.78665 C-0.832,8.2628 0.99125,11.6779 3.20905,12.7686 C5.772,14.0283 7.2943,10.7458 10.72045,12.2447 L16.6023,15.11315 C16.5945,17.7619 17.6956,18.32285 18.04725,20.6661 C17.7671,22.2352 17.628,23.543 17.6501,24.6272 L10.72695,28.00265 C7.3008,29.5022 5.77915,26.21905 3.2149,27.4794 C0.9984,28.5701 -0.8255,31.9852 1.1557,33.46135 C1.6757,33.84875 2.28865,33.9196 2.68385,34.60925 L2.72025,34.684 L2.75795,34.75875 C3.05825,35.4952 2.7365,36.0204 2.7209,36.6704 C2.665,39.13975 6.47855,39.8034 8.70285,38.7296 C11.27685,37.4842 9.62195,34.26085 12.922,32.48375 L20.27935,28.8951 C21.52865,29.3254 23.25375,29.41705 25.52615,29.30525 C25.64055,29.3904 25.7738,29.4827 25.9259,29.58475 C25.71465,29.8233 25.5255,30.12295 25.3708,30.4876 C25.06985,31.1961 24.91255,32.1126 24.91255,33.10255 C24.91255,34.164 25.7114,34.93945 27.092,35.48545 L27.3494,35.58035 C27.68675,36.83355 29.19995,37.26515 31.1077,37.26515 C31.6056,37.26515 32.23025,37.1761 32.7444,36.89985 C33.2579,37.17675 33.8819,37.26515 34.3798,37.26515 C36.28755,37.26515 37.8027,36.83355 38.13875,35.58035 L38.39615,35.48545 C39.77545,34.93945 40.57625,34.164 40.57625,33.10255 C40.57625,32.41095 40.49825,31.75575 40.35005,31.1818 L40.58665,29.3397 C42.45605,29.43135 43.89775,29.31175 44.98195,28.9536 C44.98195,28.9536 44.98195,28.9536 44.98065,28.9536 L52.221,32.4844 C55.5204,34.2615 53.86615,37.48485 56.4395,38.73025 C58.66445,39.80405 62.47735,39.1404 62.4221,36.67105 C62.40715,36.02105 62.08475,35.4952 62.3844,34.7594 L62.4221,34.68465 L62.4585,34.6099 C62.8537,33.92025 63.4673,33.8494 63.9873,33.462 C65.9672,31.98585 64.14395,28.57075 61.92615,27.48005 Z M27.6614,34.04115 C26.4888,33.5764 26.46475,33.1955 26.46475,33.1032 C26.46475,31.4132 27.01335,30.31275 27.49695,30.48305 C27.9799,30.65335 28.21585,32.0255 28.21585,33.7168 C28.21585,33.87605 28.25095,34.27385 27.6614,34.04115 Z M31.10705,35.71165 C28.8561,35.71165 28.83205,35.1442 28.83205,35.022 C28.83205,32.76715 29.57695,30.93935 30.49735,30.93935 C31.41775,30.93935 32.16265,32.9758 32.16265,35.23065 C32.16265,35.44385 32.01445,35.71165 31.10705,35.71165 Z M34.37915,35.71165 C33.47175,35.71165 33.32485,35.44385 33.32485,35.23065 C33.32485,32.9758 34.06975,30.93935 34.9895,30.93935 C35.9099,30.93935 36.6548,32.76715 36.6548,35.022 C36.6548,35.1442 36.6301,35.71165 34.37915,35.71165 Z M37.8248,34.04115 C37.2359,34.2732 37.2697,33.87605 37.2697,33.71615 C37.2697,32.02485 37.50565,30.6527 37.99055,30.4824 C38.4735,30.3121 39.02275,31.4132 39.02275,33.10255 C39.02275,33.1955 38.9974,33.5764 37.8248,34.04115 Z M47.16985,15.7807 C46.95795,18.26955 45.82045,19.4415 45.7899,20.74865 C47.25825,28.73975 44.58545,27.93765 38.94995,27.70885 C39.00585,28.24315 39.0988,28.73975 39.0416,29.18305 C38.181,28.53175 37.0786,28.8444 36.4728,29.99295 C36.09255,29.62115 35.594,29.34425 34.9531,29.34425 C33.86955,29.34425 33.1617,30.11385 32.70995,31.1168 L32.69175,31.1168 C32.24,30.11385 31.53215,29.34425 30.4486,29.34425 C29.8077,29.34425 29.30915,29.62115 28.9289,29.99295 C28.32245,28.84375 27.22135,28.53175 26.35945,29.18305 C26.30225,28.73975 26.39585,28.2438 26.4524,27.70885 C24.88395,27.77255 23.5456,27.88045 22.46075,27.83105 C22.2573,27.82195 22.061,27.807 21.8751,27.78555 C21.86925,27.78555 21.86405,27.78425 21.85885,27.78295 C21.80425,27.77775 21.7503,27.76995 21.69765,27.7615 C21.6866,27.7602 21.6762,27.7589 21.66515,27.7563 C21.6177,27.7485 21.57025,27.74135 21.52475,27.73355 C21.51175,27.73095 21.50005,27.72965 21.48705,27.72705 C21.44285,27.71795 21.39865,27.7095 21.3551,27.6991 C21.3434,27.6965 21.3317,27.6939 21.31935,27.6913 C21.27515,27.6809 21.22965,27.66985 21.1861,27.65815 C21.17765,27.65685 21.1692,27.65425 21.16075,27.65165 C21.10875,27.638 21.0587,27.6224 21.00995,27.60745 L21.008,27.60745 C20.904,27.5743 20.80455,27.5366 20.709,27.49305 L20.7064,27.49305 C20.66155,27.4729 20.618,27.45275 20.57575,27.42935 C20.56795,27.42545 20.56145,27.42155 20.5543,27.41765 C20.51725,27.3988 20.4815,27.3806 20.44705,27.35785 C20.43795,27.35265 20.4295,27.34745 20.41975,27.3429 C20.38725,27.32275 20.3541,27.3013 20.32355,27.2805 C20.31445,27.274 20.30665,27.2675 20.29755,27.26165 C20.26505,27.2389 20.2345,27.21615 20.2033,27.1934 C20.1955,27.1869 20.189,27.1804 20.18185,27.17455 C20.14805,27.1479 20.11555,27.11995 20.0837,27.0907 C20.08045,27.0881 20.0772,27.0842 20.0733,27.0816 C19.9654,26.9802 19.8679,26.8684 19.7795,26.74295 C19.7756,26.73645 19.77235,26.73125 19.7691,26.7254 C19.7444,26.68965 19.721,26.65325 19.6976,26.6136 C19.69175,26.6045 19.68655,26.59605 19.682,26.58565 C19.66185,26.5499 19.64105,26.5135 19.6209,26.47645 C19.6157,26.46475 19.60985,26.4537 19.6053,26.4433 C19.5858,26.40365 19.5676,26.36725 19.55005,26.3263 C19.5455,26.3146 19.5403,26.30485 19.5364,26.29315 C19.51755,26.25025 19.5,26.2054 19.4844,26.1612 C19.48115,26.1521 19.47725,26.14365 19.474,26.13455 C19.4142,25.96815 19.3648,25.7868 19.32515,25.58725 C19.3245,25.58205 19.3232,25.57685 19.32255,25.571 C19.31085,25.5125 19.3011,25.4514 19.2907,25.38965 C19.28875,25.3747 19.2868,25.3604 19.28485,25.34675 C19.27705,25.29085 19.26925,25.23495 19.2621,25.17775 C19.26015,25.1602 19.2582,25.142 19.25625,25.12445 C19.2504,25.06855 19.2452,25.01135 19.2413,24.95285 C19.23935,24.934 19.2374,24.9145 19.23675,24.89565 C19.23155,24.83455 19.2283,24.7728 19.2257,24.7104 C19.2244,24.69285 19.22375,24.67595 19.22245,24.6584 C19.21985,24.58755 19.2179,24.51475 19.2166,24.44 C19.2166,24.4309 19.2166,24.42115 19.21595,24.41075 C19.214,24.23655 19.2166,24.0526 19.2244,23.86085 C19.25755,23.01065 19.38495,21.9856 19.61245,20.748 C19.57215,19.0008 17.5539,17.4954 18.408,12.7686 C20.0187,3.86165 23.2037,2.1996 32.69305,2.1996 C41.3491,2.1996 44.76355,3.5776 46.5218,10.5456 C46.5634,10.7133 46.605,10.88295 46.644,11.05585 C46.6466,11.06365 46.64855,11.0708 46.6505,11.0786 C46.6908,11.25345 46.73045,11.43155 46.7688,11.6129 C46.76945,11.6168 46.7701,11.62005 46.77075,11.62395 C46.8065,11.7858 46.839,11.95155 46.87215,12.1199 C46.87995,12.1589 46.88775,12.19855 46.89555,12.23755 C46.93,12.4124 46.96315,12.58855 46.99565,12.7686 C47.02165,12.91745 47.047,13.06175 47.0678,13.20475 C47.07235,13.2353 47.07495,13.26325 47.08015,13.29315 C47.0951,13.40495 47.112,13.5148 47.1237,13.6227 C47.12695,13.64675 47.1289,13.6695 47.13085,13.69355 C47.14385,13.80535 47.15425,13.91585 47.16465,14.02245 C47.16725,14.0413 47.16725,14.0595 47.1692,14.0777 C47.17895,14.18885 47.1861,14.29935 47.1913,14.4066 C47.1926,14.41635 47.1926,14.42545 47.19325,14.4365 C47.19845,14.5509 47.203,14.66335 47.20495,14.77385 L47.20495,14.78815 C47.2069,14.90255 47.2069,15.01565 47.2056,15.1255 C47.2004,15.353 47.1887,15.57205 47.16985,15.7807 Z" id="Shape"></path>
                    </g>
                </g>
            </g>
        </g>
    </g>
</svg>