<?xml version="1.0" encoding="UTF-8"?>
<svg width="11px" height="16px" viewBox="0 0 11 16" version="1.1" xmlns="http://www.w3.org/2000/svg" xmlns:xlink="http://www.w3.org/1999/xlink">
    <!-- Generator: Sketch 48.2 (47327) - http://www.bohemiancoding.com/sketch -->
    <title>Group</title>
    <desc>Created with Sketch.</desc>
    <defs></defs>
    <g id="Live-лента" stroke="none" stroke-width="1" fill="none" fill-rule="evenodd" transform="translate(-466.000000, -5.000000)" fill-opacity="0.5">
        <g fill="#FFFFFF" fill-rule="nonzero" id="4-(milspec)">
            <g transform="translate(363.000000, 0.000000)">
                <g id="Group" transform="translate(103.000000, 5.000000)">
                    <path d="M3.59664366,14.3357299 L4.44873547,9.41732654 L1.49623151,9.39723184 C1.11461744,9.39723184 0.772256636,9.18241721 0.60276807,8.84344008 C0.429533032,8.49697 0.478353037,8.07851282 0.718720487,7.79028985 L6.20751832,0.878028862 C6.49547737,0.518080055 6.98554581,0.397338553 7.40183077,0.593237355 C7.81645694,0.788355553 8.05395537,1.24895857 7.95765749,1.68110888 L7.13998532,6.01370947 L9.74582326,6.03331373 C10.110834,6.03331373 10.4485205,6.2426794 10.6202478,6.56160157 C10.7972228,6.89026933 10.7691175,7.3048218 10.5549976,7.58970688 L5.38576897,15.0602556 C5.1983631,15.3413644 4.88770169,15.5 4.5596764,15.5 C4.43529477,15.5 4.31290098,15.4756778 4.19530224,15.4289463 C3.75064628,15.2547766 3.50170401,14.7851273 3.59664366,14.3357299 Z M4.56473518,14.5001392 C4.56529131,14.5001415 4.56380243,14.4994038 4.56026854,14.4979261 C4.56184957,14.4985585 4.56333979,14.4993037 4.56473518,14.5001392 Z M9.7244803,7.03316739 L5.93531157,7.0046774 L6.046322,6.41646625 L6.96942254,1.52661127 L1.51343351,8.39733729 L5.6354822,8.42537843 L5.53476995,9.00670485 L4.59120156,14.451257 L9.7244803,7.03316739 Z M6.97823727,1.47991778 C6.9759768,1.49008991 6.97515828,1.49435946 6.97514816,1.49628145 L6.97823727,1.47991778 Z M9.74206397,7.0332996 L9.73851604,7.03327292 C9.73953312,7.03524894 9.73641182,7.03331373 9.74206397,7.0332996 Z M9.74382988,7.00520536 C9.74194953,7.00771249 9.74040421,7.00992154 9.73917475,7.01193247 L9.74382988,7.00520536 Z" id="Shape"></path>
                </g>
            </g>
        </g>
    </g>
</svg>