<svg xmlns="http://www.w3.org/2000/svg" width="6" height="8" viewBox="0 0 6 8">
  <path fill="#FFF" d="M4.4,5.85 L4.4,5.7 C4.4,4.5 5,3.9 6.2,3.9 L7.9,3.9 C9.1,3.9 9.7,4.5 9.7,5.7 L9.7,6.55 C9.7,7.75 9.1,8.35 7.9,8.35 L7.45,8.35 L7.4,8.7 C7.38,8.85 7.3,8.95 7.15,8.95 L6.8,8.95 C6.65,8.95 6.57,8.85 6.55,8.7 L6.35,7.45 C6.35,7.3 6.45,7.2 6.6,7.2 L7.75,7.2 C8.2,7.2 8.45,6.95 8.45,6.5 L8.45,5.75 C8.45,5.3 8.2,5.05 7.75,5.05 L6.35,5.05 C5.9,5.05 5.65,5.3 5.65,5.75 L5.65,5.85 C5.65,6 5.55,6.1 5.4,6.1 L4.65,6.1 C4.5,6.1 4.4,6 4.4,5.85 Z M6.4,10.75 L6.4,10.1 C6.4,9.95 6.5,9.85 6.65,9.85 L7.3,9.85 C7.45,9.85 7.55,9.95 7.55,10.1 L7.55,10.75 C7.55,10.9 7.45,11 7.3,11 L6.65,11 C6.5,11 6.4,10.9 6.4,10.75 Z" transform="translate(-4 -3)"/>
</svg>
