<svg xmlns="http://www.w3.org/2000/svg" width="20" height="20" viewBox="0 0 20 20">
  <g fill="#FFF" fill-rule="evenodd">
    <path fill-rule="nonzero" d="M5.20528313,18.7777181 L6.69531214,17.2876891 C7.70263865,17.7452008 8.82156355,18 10,18 C14.418278,18 18,14.418278 18,10 C18,8.82156355 17.7452008,7.70263865 17.2876891,6.69531214 L18.7777181,5.20528313 C19.556968,6.62883705 20,8.26268069 20,10 C20,15.5228475 15.5228475,20 10,20 C8.26268069,20 6.62883705,19.556968 5.20528313,18.7777181 Z M1.04437476,14.4543078 C0.375958165,13.1130148 0,11.6004123 0,10 C0,4.4771525 4.4771525,0 10,0 C11.6004123,0 13.1130148,0.375958165 14.4543078,1.04437476 L12.9408381,2.55784454 C12.0305189,2.19782594 11.0383618,2 10,2 C5.581722,2 2,5.581722 2,10 C2,11.0383618 2.19782594,12.0305189 2.55784454,12.9408381 L1.04437476,14.4543078 Z"/>
    <path d="M6.49290104,9.03143974 L2.4158453e-13,9.03143974 L2.4158453e-13,11.030759 L6.49290104,11.030759 L6.49290104,13.3019849 L8.24135677,13.3019849 L8.24135677,7 L6.49290104,7 L6.49290104,9.03143974 Z M8.97890615,8.62292967 L19.8839398,8.62292967 L16.672951,12.0473436 L8.97890615,12.0473436 L8.97890615,8.62292967 Z" transform="scale(-1 1) rotate(45 0 -13.851)"/>
  </g>
</svg>
