<?xml version="1.0" encoding="UTF-8"?>
<svg width="13px" height="15px" viewBox="0 0 13 15" version="1.1" xmlns="http://www.w3.org/2000/svg" xmlns:xlink="http://www.w3.org/1999/xlink">
    <!-- Generator: Sketch 55.2 (78181) - https://sketchapp.com -->
    <title>Rectangle</title>
    <desc>Created with Sketch.</desc>
    <g id="Главная" stroke="none" stroke-width="1" fill="none" fill-rule="evenodd">
        <g id="Summer-Draw-Copy-3" transform="translate(-197.000000, -154.000000)" fill="#B1BBCA" fill-rule="nonzero">
            <g id="Сайдбар" transform="translate(0.000000, 82.000000)">
                <g id="Стандартный">
                    <g id="Юзерблок" transform="translate(16.000000, 69.000000)">
                        <g id="Юзер">
                            <path d="M189.5,15 L189.5,14.75 C189.5,14.3357864 189.835786,14 190.25,14 C190.664214,14 191,14.3357864 191,14.75 L191,15 L191,16 C191,17.1045695 190.104569,18 189,18 L183,18 C181.895431,18 181,17.1045695 181,16 L181,5 C181,3.8954305 181.895431,3 183,3 L189,3 C190.104569,3 191,3.8954305 191,5 L191,6 L191,6.25 C191,6.66421356 190.664214,7 190.25,7 C189.835786,7 189.5,6.66421356 189.5,6.25 L189.5,6 L189.5,5 C189.5,4.72385763 189.276142,4.5 189,4.5 L183,4.5 C182.723858,4.5 182.5,4.72385763 182.5,5 L182.5,16 C182.5,16.2761424 182.723858,16.5 183,16.5 L189,16.5 C189.276142,16.5 189.5,16.2761424 189.5,16 L189.5,15 Z M191.48934,9.75 L190.71967,8.98033009 C190.426777,8.68743687 190.426777,8.21256313 190.71967,7.91966991 C191.012563,7.6267767 191.487437,7.6267767 191.78033,7.91966991 L193.78033,9.91966991 C193.926777,10.0661165 194,10.2580583 194,10.45 C194,10.4583074 193.999863,10.4666148 193.999589,10.4749185 C193.999862,10.4832453 194,10.4916066 194,10.5 C194,10.7901944 193.835187,11.0418946 193.594058,11.1666024 L191.78033,12.9803301 C191.487437,13.2732233 191.012563,13.2732233 190.71967,12.9803301 C190.426777,12.6874369 190.426777,12.2125631 190.71967,11.9196699 L191.38934,11.25 L185.75,11.25 C185.335786,11.25 185,10.9142136 185,10.5 C185,10.0857864 185.335786,9.75 185.75,9.75 L191.48934,9.75 Z" id="Rectangle"></path>
                        </g>
                    </g>
                </g>
            </g>
        </g>
    </g>
</svg>