<svg xmlns="http://www.w3.org/2000/svg" width="431" height="271" viewBox="0 0 431 271">
  <defs>
    <linearGradient id="sell-item-bg-a" x1="50%" x2="50%" y1="0%" y2="100%">
      <stop offset="0%" stop-color="#63ADF2"/>
      <stop offset="100%" stop-color="#9CD6FA" stop-opacity="0"/>
    </linearGradient>
  </defs>
  <path fill="none" stroke="url(#sell-item-bg-a)" stroke-width="2" d="M449.5,14.0804752 L449.5,212.039237 L280.476628,311.297043 L112.91477,212.8963 C133.494424,200.744094 154.061271,188.590275 174.642526,176.434842 L174.642526,176.434842 L280.476628,238.577497 L387.586554,175.681079 L387.586554,50.6549169 L387.586554,50.6549169 L449.5,14.0804752 Z M220.374049,-48.7029573 L389.770582,49.2419511 C368.965597,61.3394686 348.173559,73.4369862 327.366955,85.5345038 L327.366955,85.5345038 L220.374049,23.6813262 L112.091351,86.2863814 L112.091351,210.731761 C91.2232521,222.867837 70.3680993,235.003912 49.5,247.138381 L49.5,247.138381 L49.5,50.0950429 L220.374049,-48.7029573 Z" opacity=".2" transform="rotate(-14 231.29 269.602)"/>
</svg>
