<svg xmlns="http://www.w3.org/2000/svg" width="14" height="14" viewBox="0 0 14 14">
  <path fill="#FFF" d="M4.2,11.2 C3.43,11.2 2.8,11.83 2.8,12.6 C2.8,13.37 3.43,14 4.2,14 C4.97,14 5.6,13.37 5.6,12.6 C5.6,11.83 4.97,11.2 4.2,11.2 Z M0,0 L0,1.4 L1.4,1.4 L3.92,6.72 L2.94,8.4 C2.87,8.61 2.8,8.89 2.8,9.1 C2.8,9.87 3.43,10.5 4.2,10.5 L12.6,10.5 L12.6,9.1 L4.48,9.1 C4.41,9.1 4.34,9.03 4.34,8.96 L4.34,8.88997255 L4.97,7.69997255 L10.15,7.69997255 C10.71,7.69997255 11.13,7.41997255 11.34,6.99997255 L13.86,2.45 C14,2.31 14,2.24 14,2.1 C14,1.68 13.72,1.4 13.3,1.4 L2.94,1.4 L2.31,0 L0,0 Z M11.2,11.2 C10.43,11.2 9.8,11.83 9.8,12.6 C9.8,13.37 10.43,14 11.2,14 C11.97,14 12.6,13.37 12.6,12.6 C12.6,11.83 11.97,11.2 11.2,11.2 Z"/>
</svg>
