<svg xmlns="http://www.w3.org/2000/svg" width="28" height="21" viewBox="0 0 28 21">
  <path fill="#FFF" d="M22.6145827,17.0523842 C22.6145827,17.0787067 22.6145827,17.1050293 22.6159257,17.1297402 L18.787344,22.6913097 C18.1671536,22.663107 17.5448143,22.7718888 16.9547067,23.0149691 C16.6945705,23.1210649 16.4508187,23.2513344 16.2221084,23.4017488 L7.81515655,19.9408764 C7.81522235,19.9408764 6.79254061,23.0149691 8.43131807,25.526351 L14.3745639,27.9786416 C14.6729752,29.3122258 15.5878166,30.4819657 16.9375165,31.0446764 C19.1457867,31.9673071 21.691952,30.9157499 22.6105537,28.7065395 C22.8496051,28.129056 22.9610728,27.5233697 22.944957,26.9190265 L28.4229929,23.0042252 C28.4673114,23.0055682 28.5129728,23.0069112 28.5572914,23.0069112 C31.8355177,23.0069112 34.5,20.334371 34.5,17.0523842 C34.5,13.7701289 31.8355177,11.1000061 28.5572914,11.1000061 C25.2804079,11.1000061 22.6145827,13.7701289 22.6145827,17.0523842 Z M21.695981,28.3224458 C20.9850047,30.0293798 19.0234408,30.8391997 17.318387,30.1287606 C16.5318007,29.8010723 15.9379328,29.200758 15.5953373,28.484947 L17.5299072,29.286709 C18.787344,29.8104732 20.2299785,29.2141879 20.7526683,27.9571539 C21.2769696,26.6987769 20.6821616,25.2537251 19.4253962,24.7299609 L17.4255572,23.9013392 C18.1972364,23.6085684 19.0744742,23.5978246 19.894098,23.9389428 C20.7204367,24.2827469 21.3615777,24.9300657 21.7013529,25.7573444 C22.0411281,26.5846232 22.0397851,27.497853 21.695981,28.3224458 L21.695981,28.3224458 Z M28.5572914,21.0192934 C26.3749407,21.0192934 24.5981716,19.2398382 24.5981716,17.0523842 C24.5981716,14.8666761 26.3749407,13.0866838 28.5572914,13.0866838 C30.740985,13.0866838 32.5177541,14.8666761 32.5177541,17.0523842 C32.5177541,19.2398382 30.740985,21.0192934 28.5572914,21.0192934 L28.5572914,21.0192934 Z M25.5906375,17.0463408 C25.5906375,15.4007813 26.9228786,14.0661228 28.5640063,14.0661228 C30.2064769,14.0661228 31.5387181,15.4007813 31.5387181,17.0463408 C31.5387181,18.6920346 30.2064769,20.0254844 28.5640063,20.0254844 C26.9228786,20.0254844 25.5906375,18.6920346 25.5906375,17.0463408 L25.5906375,17.0463408 Z" transform="translate(-7 -11)"/>
</svg>
