<svg xmlns="http://www.w3.org/2000/svg" width="24" height="24" viewBox="0 0 24 24">
  <path fill="#64ADF1" d="M12,0 C5.34545455,0 0,5.34545455 0,12 C0,18.6545455 5.34545455,24 12,24 C18.6545455,24 24,18.6545455 24,12 C24,5.34545455 18.6545455,0 12,0 Z M9.16363636,13.3090909 L8.4,14.0727273 C8.18181818,14.2909091 7.85454545,14.2909091 7.63636364,14.0727273 L6.27272727,12.7090909 C5.4,11.8363636 4.90909091,10.6909091 4.90909091,9.43636364 C4.90909091,6.92727273 6.98181818,4.85454545 9.49090909,4.85454545 C10.6909091,4.85454545 11.8909091,5.34545455 12.7636364,6.21818182 L14.1272727,7.58181818 C14.3454545,7.8 14.3454545,8.12727273 14.1272727,8.34545455 L13.3636364,9.10909091 C13.1454545,9.32727273 12.8181818,9.32727273 12.6,9.10909091 L11.2363636,7.74545455 C10.8,7.30909091 10.2,7.03636364 9.54545455,7.03636364 C8.23636364,7.03636364 7.14545455,8.12727273 7.14545455,9.43636364 C7.14545455,10.0909091 7.41818182,10.6909091 7.85454545,11.1272727 L9.21818182,12.4909091 C9.32727273,12.7636364 9.32727273,13.0909091 9.16363636,13.3090909 Z M9.43636364,10.2 L10.2,9.43636364 C10.4181818,9.21818182 10.7454545,9.21818182 10.9636364,9.43636364 L14.5636364,13.0363636 C14.7818182,13.2545455 14.7818182,13.5818182 14.5636364,13.8 L13.8,14.5636364 C13.5818182,14.7818182 13.2545455,14.7818182 13.0363636,14.5636364 L9.43636364,10.9636364 C9.21818182,10.7454545 9.21818182,10.4181818 9.43636364,10.2 L9.43636364,10.2 Z M14.5090909,19.0909091 C13.3090909,19.0909091 12.1090909,18.6 11.2363636,17.7272727 L9.87272727,16.3636364 C9.65454545,16.1454545 9.65454545,15.8181818 9.87272727,15.6 L10.6363636,14.8363636 C10.8545455,14.6181818 11.1818182,14.6181818 11.4,14.8363636 L12.7636364,16.2 C13.2,16.6363636 13.8,16.9090909 14.4545455,16.9090909 C15.7636364,16.9090909 16.8545455,15.8181818 16.8545455,14.5090909 C16.8545455,13.8545455 16.5818182,13.2545455 16.1454545,12.8181818 L14.7818182,11.4545455 C14.5636364,11.2363636 14.5636364,10.9090909 14.7818182,10.6909091 L15.5454545,9.92727273 C15.7636364,9.70909091 16.0909091,9.70909091 16.3090909,9.92727273 L17.6727273,11.2909091 C18.5454545,12.1636364 19.0363636,13.3090909 19.0363636,14.5636364 C19.0909091,17.0181818 17.0181818,19.0909091 14.5090909,19.0909091 L14.5090909,19.0909091 Z"/>
</svg>
