<svg xmlns="http://www.w3.org/2000/svg" width="24" height="14" viewBox="0 0 24 14">
  <path fill="#FFFFFF" fill-rule="evenodd" d="M1841.86297,34.8643784 C1841.86297,34.8643784 1845.0135,30.420277 1845.32657,28.9597635 C1845.43086,28.4381892 1845.20136,28.1459459 1844.65878,28.1459459 L1841.92561,28.1459459 C1841.29966,28.1459459 1841.07015,28.4171892 1840.88238,28.8136419 C1840.88238,28.8136419 1839.40464,31.9623305 1837.60664,33.9464392 C1837.02944,34.5878632 1836.73597,34.7809054 1836.41736,34.7809054 C1836.16036,34.7809054 1836.04182,34.5666874 1836.04182,33.9880878 L1836.04182,28.918027 C1836.04182,28.2086824 1835.95835,28 1835.37422,28 L1830.99268,28 C1830.65878,28 1830.4501,28.1940966 1830.4501,28.4589256 C1830.4501,29.1269731 1831.47251,29.2778395 1831.47251,31.0878851 L1831.47251,34.8226419 C1831.47251,35.5738108 1831.43078,35.8658784 1831.07606,35.8658784 C1830.13721,35.8658784 1827.9047,32.6319595 1826.65287,28.9597635 C1826.40245,28.2086824 1826.13121,28 1825.42178,28 L1822.68861,28 C1822.29216,28 1822,28.2711554 1822,28.6675202 C1822,29.397777 1822.85547,32.7779054 1826.21468,37.3055676 C1828.46801,40.3517162 1831.43078,42 1834.10139,42 C1835.72884,42 1836.1253,41.7288446 1836.1253,41.0402365 L1836.1253,38.7034324 C1836.1253,38.1192095 1836.3548,37.8688784 1836.68861,37.8688784 C1837.06415,37.8688784 1837.72701,37.9895188 1839.27583,39.5171622 C1841.11189,41.2698311 1841.23709,42 1842.23868,42 L1845.30566,42 C1845.61864,42 1845.9107,41.8539662 1845.9107,41.3323919 C1845.9107,40.6437838 1845.0135,39.4128649 1843.63646,37.9522635 C1843.07315,37.2011824 1842.15512,36.3875406 1841.86297,36.012 C1841.44578,35.5738108 1841.5709,35.323304 1841.86297,34.8643784" transform="translate(-1822 -28)"/>
</svg>
