<?xml version="1.0" encoding="UTF-8"?>
<svg width="119px" height="24px" viewBox="0 0 119 24" version="1.1" xmlns="http://www.w3.org/2000/svg" xmlns:xlink="http://www.w3.org/1999/xlink">
    <!-- Generator: Sketch 55.2 (78181) - https://sketchapp.com -->
    <title>Group 24</title>
    <desc>Created with Sketch.</desc>
    <defs>
        <polygon id="path-1" points="0 0.0372 22.5281679 0.0372 22.5281679 19.7669143 0 19.7669143"></polygon>
    </defs>
    <g id="Symbols" stroke="none" stroke-width="1" fill="none" fill-rule="evenodd">
        <g id="Сайдбар" transform="translate(-51.000000, -22.000000)">
            <g id="Стандартный">
                <g id="Логотип">
                    <g id="Group-24" transform="translate(51.000000, 22.000000)">
                        <path d="M15.3926357,23.9627679 L26.7056357,17.3739107 L26.7056357,4.23316071 C25.3240286,5.04241071 23.9432786,5.85176786 22.5616714,6.66101786 L22.5616714,14.9604107 L15.3926357,19.1355536 L8.30899286,15.0104464 C6.93145714,15.8173393 5.55488571,16.624125 4.17745714,17.4308036 L15.3926357,23.9627679 Z" id="Fill-1" fill="#63ADF2"></path>
                        <g id="Group-5" transform="translate(0.000000, 0.069964)">
                            <mask id="mask-2" fill="white">
                                <use xlink:href="#path-1"></use>
                            </mask>
                            <g id="Clip-4"></g>
                            <path d="M11.3129893,0.0372 L-1.07142857e-05,6.62605714 L-1.07142857e-05,19.7669143 C1.38159643,18.9576643 2.76234643,18.1483071 4.14395357,17.33895 L4.14395357,9.03966429 L11.3129893,4.86452143 L18.3966321,8.98952143 C19.7741679,8.18273571 21.1507393,7.37595 22.5281679,6.56916429 L11.3129893,0.0372 Z" id="Fill-3" fill="#DB324D" mask="url(#mask-2)"></path>
                        </g>
                        <path d="M47.2,19 L46,19 C45.6,19 45.4,18.8 45.3,18.5 L42.7,10.9 L42.5,10.9 L42.5,18.5 C42.5,18.8 42.3,19 42,19 L40,19 C39.7,19 39.5,18.8 39.5,18.5 L39.5,5.5 C39.5,5.2 39.7,5 40,5 L42.8,5 C43.2,5 43.4,5.2 43.5,5.5 L46.5,14.1 L46.7,14.1 L49.7,5.5 C49.8,5.2 50,5 50.4,5 L53.2,5 C53.5,5 53.7,5.2 53.7,5.5 L53.7,18.5 C53.7,18.8 53.5,19 53.2,19 L51.2,19 C50.9,19 50.7,18.8 50.7,18.5 L50.7,10.9 L50.5,10.9 L47.9,18.5 C47.8,18.8 47.6,19 47.2,19 Z M58.48,5.5 L60.88,10.7 L61.08,10.7 L63.48,5.5 C63.62,5.2 63.78,5 64.28,5 L66.48,5 C66.78,5 66.94,5.2 66.78,5.5 L62.48,14.2 L62.48,18.5 C62.48,18.8 62.28,19 61.98,19 L59.98,19 C59.68,19 59.48,18.8 59.48,18.5 L59.48,14.2 L55.18,5.5 C55.02,5.2 55.18,5 55.48,5 L57.68,5 C58.18,5 58.34,5.2 58.48,5.5 Z M78.96,7.9 L78.96,9.2 C78.96,9.5 78.76,9.7 78.46,9.7 L76.46,9.7 C76.16,9.7 75.96,9.5 75.96,9.2 L75.96,8.5 C75.96,7.9 75.56,7.5 74.96,7.5 L72.06,7.5 C71.46,7.5 71.06,7.9 71.06,8.5 L71.06,15.5 C71.06,16.1 71.46,16.5 72.06,16.5 L74.96,16.5 C75.56,16.5 75.96,16.1 75.96,15.5 L75.96,14.8 C75.96,14.5 76.16,14.3 76.46,14.3 L78.46,14.3 C78.76,14.3 78.96,14.5 78.96,14.8 L78.96,16.1 C78.96,18.2 77.96,19.2 75.86,19.2 L71.16,19.2 C69.06,19.2 68.06,18.2 68.06,16.1 L68.06,7.9 C68.06,5.8 69.06,4.8 71.16,4.8 L75.86,4.8 C77.96,4.8 78.96,5.8 78.96,7.9 Z M88.36,15.5 L88.36,14.9 C88.36,14.4 88.16,14.2 87.66,14 L83.26,12.3 C81.76,11.72 81.06,11 81.06,9.3 L81.06,7.9 C81.06,5.8 82.06,4.8 84.16,4.8 L88.06,4.8 C90.16,4.8 91.16,5.8 91.16,7.9 L91.16,9.2 C91.16,9.5 90.96,9.7 90.66,9.7 L88.66,9.7 C88.36,9.7 88.16,9.5 88.16,9.2 L88.16,8.5 C88.16,7.9 87.76,7.5 87.16,7.5 L85.06,7.5 C84.46,7.5 84.06,7.9 84.06,8.5 L84.06,9.1 C84.06,9.6 84.26,9.8 84.76,10 L89.16,11.7 C90.66,12.28 91.36,13 91.36,14.7 L91.36,16.1 C91.36,18.2 90.36,19.2 88.26,19.2 L83.96,19.2 C81.86,19.2 80.86,18.2 80.86,16.1 L80.86,14.8 C80.86,14.5 81.06,14.3 81.36,14.3 L83.36,14.3 C83.66,14.3 83.86,14.5 83.86,14.8 L83.86,15.5 C83.86,16.1 84.26,16.5 84.86,16.5 L87.36,16.5 C87.96,16.5 88.36,16.1 88.36,15.5 Z M104.46,11.7 L104.46,16.1 C104.46,18.2 103.46,19.2 101.36,19.2 L96.66,19.2 C94.56,19.2 93.56,18.2 93.56,16.1 L93.56,7.9 C93.56,5.8 94.56,4.8 96.66,4.8 L101.36,4.8 C103.46,4.8 104.46,5.8 104.46,7.9 L104.46,9.2 C104.46,9.5 104.26,9.7 103.96,9.7 L101.96,9.7 C101.66,9.7 101.46,9.5 101.46,9.2 L101.46,8.5 C101.46,7.9 101.06,7.5 100.46,7.5 L97.56,7.5 C96.96,7.5 96.56,7.9 96.56,8.5 L96.56,15.5 C96.56,16.1 96.96,16.5 97.56,16.5 L100.46,16.5 C101.06,16.5 101.46,16.1 101.46,15.5 L101.46,13.9 L99.56,13.9 C99.26,13.9 99.06,13.7 99.06,13.4 L99.06,11.7 C99.06,11.4 99.26,11.2 99.56,11.2 L103.96,11.2 C104.26,11.2 104.46,11.4 104.46,11.7 Z M118.16,7.9 L118.16,16.1 C118.16,18.2 117.16,19.2 115.06,19.2 L110.16,19.2 C108.06,19.2 107.06,18.2 107.06,16.1 L107.06,7.9 C107.06,5.8 108.06,4.8 110.16,4.8 L115.06,4.8 C117.16,4.8 118.16,5.8 118.16,7.9 Z M115.16,15.5 L115.16,8.5 C115.16,7.9 114.76,7.5 114.16,7.5 L111.06,7.5 C110.46,7.5 110.06,7.9 110.06,8.5 L110.06,15.5 C110.06,16.1 110.46,16.5 111.06,16.5 L114.16,16.5 C114.76,16.5 115.16,16.1 115.16,15.5 Z" id="MYCSGO.ME" fill="#FFFFFF" fill-rule="nonzero"></path>
                    </g>
                </g>
            </g>
        </g>
    </g>
</svg>