<svg xmlns="http://www.w3.org/2000/svg" width="430" height="430" viewBox="0 0 430 430">
  <g fill="#63ADF2" fill-rule="evenodd">
    <path fill-opacity=".2" d="M382.768625,281.327232 L346.236163,266.793398 C352.92503,250.183301 356.325724,232.597237 356.325724,214.53873 C356.325724,136.915124 292.787747,73.7321077 214.728053,73.7321077 L214.728053,34.643677 C314.49218,34.643677 395.627502,115.325729 395.627502,214.53873 C395.627502,237.588969 391.314121,260.061087 382.768625,281.327232 L382.768625,281.327232 Z M63.4784106,313.316587 C44.0556936,283.962966 33.7785945,249.804104 33.8222143,214.513865 C33.8222143,173.367821 48.1565312,133.129365 74.1993504,101.245688 L104.74934,125.887313 C84.0701164,151.206521 73.130382,181.865576 73.130382,214.53873 C73.130382,242.151772 81.1445189,268.875876 96.3288703,291.820437 L63.4784106,313.316587 Z"/>
    <path fill-opacity=".3" d="M370.617009 368.443185C368.291534 370.755669 365.916049 373.018422 363.509307 375.206578L313.68038 320.72024C331.371493 304.781509 344.961769 283.465633 351.900686 260.496207L422.821422 281.650458C413.006917 314.242799 394.946979 344.249138 370.617009 368.443185M205.788727 426.900953C167.974754 425.203888 131.417287 413.324437 100.035877 392.568033L141.069258 331.268571C161.229626 344.608865 184.771935 352.25498 209.139412 353.349058L205.788727 426.900953zM407.970684 108.123088L342.701103 142.928451C336.512339 131.434413 328.623228 120.897694 319.246313 111.566948 311.419714 103.759208 302.674178 96.9709497 293.241001 91.3575825L331.261267 28.1745658C345.933013 36.8961097 359.523289 47.4576943 371.638264 59.5360691 386.109969 73.9269274 398.343718 90.2883697 407.970684 108.123088M72.4876361 235.423258L8.51073638 248.160106C1.90421646 216.12041 4.25148709 182.938566 15.271537 152.160106L76.8405558 173.460359C69.7271136 193.309922 68.2173667 214.740089 72.4876361 235.423258M180.679007 79.4408207C157.167955 85.2779766 135.626055 97.418515 118.385034 114.563218L66.0243391 62.4950411C92.7798039 35.8890482 126.236637 17.0410645 162.781602 8.00248654L180.679007 79.4408207z"/>
  </g>
</svg>
