<svg xmlns="http://www.w3.org/2000/svg" width="256" height="280" viewBox="0 0 256 280">
  <defs>
    <linearGradient id="action-hexagon-a" x1="50%" x2="50%" y1="0%" y2="100%">
      <stop offset="0%" stop-color="#155EA2"/>
      <stop offset="100%" stop-color="#63ADF2"/>
    </linearGradient>
    <linearGradient id="action-hexagon-b" x1="50%" x2="50%" y1="0%" y2="100%">
      <stop offset="0%" stop-color="#FFF"/>
      <stop offset="99.035%" stop-color="#FFF" stop-opacity="0"/>
    </linearGradient>
  </defs>
  <g fill="none" fill-rule="evenodd" transform="translate(0 12)">
    <path fill="url(#action-hexagon-a)" stroke="#62ACF1" stroke-width="10" d="M128,-5.77350269 L243.851252,61.1132487 L243.851252,194.886751 L128,261.773503 L12.1487483,194.886751 L12.1487483,61.1132487 L128,-5.77350269 Z"/>
    <path fill="url(#action-hexagon-b)" d="M218,75.7909226 L218,164.088097 L141.64815,208.360871 L65.9564994,164.470379 C75.2528152,159.050031 84.5433461,153.628963 93.840385,148.207175 L93.840385,148.207175 L141.64815,175.925175 L190.032234,147.870968 L190.032234,92.1045215 L190.032234,92.1045215 L218,75.7909226 Z M114.35185,48 L190.043501,91.890254 C180.747185,97.3112925 171.456654,102.732331 162.159615,108.153369 L162.159615,108.153369 L114.35185,80.4362403 L65.9677664,108.490295 L65.9677664,164.255719 C56.6432493,169.694035 47.3245171,175.132352 38,180.569949 L38,180.569949 L38,92.2725344 L114.35185,48 Z" opacity=".3"/>
  </g>
</svg>
