<svg xmlns="http://www.w3.org/2000/svg" width="608" height="608" viewBox="0 0 608 608">
  <defs>
    <linearGradient id="bg-preview-a" x1="50%" x2="50%" y1="0%" y2="46.033%">
      <stop offset="0%" stop-opacity=".2"/>
      <stop offset="100%" stop-opacity="0"/>
    </linearGradient>
    <linearGradient id="bg-preview-b" x1="50%" x2="50%" y1="0%" y2="100%">
      <stop offset="0%" stop-color="#63ADF2" stop-opacity=".4"/>
      <stop offset="100%" stop-color="#9CD6FA" stop-opacity="0"/>
    </linearGradient>
    <radialGradient id="bg-preview-c" cx="48.333%" cy="50%" r="52.314%" fx="48.333%" fy="50%" gradientTransform="matrix(.74886 0 0 .9647 .121 .018)">
      <stop offset="0%" stop-color="#63ADF2"/>
      <stop offset="100%" stop-color="#63ADF2" stop-opacity="0"/>
    </radialGradient>
    <linearGradient id="bg-preview-d" x1="50%" x2="50%" y1="0%" y2="100%">
      <stop offset="0%" stop-color="#63ADF2" stop-opacity=".4"/>
      <stop offset="100%" stop-color="#9CD6FA" stop-opacity="0"/>
    </linearGradient>
  </defs>
  <g fill="none" fill-rule="evenodd">
    <circle cx="304.001" cy="304" r="164" fill="url(#bg-preview-a)" stroke="url(#bg-preview-b)"/>
    <polygon fill="url(#bg-preview-c)" points="404.858 0 235.448 143.763 361.15 0 320.485 0 232.023 134.718 284.278 0 254.274 0 221.582 134.302 236.399 0 205.291 0 212.483 128.114 182.892 0 152.058 0 201.804 131.076 116.945 0 76.894 0 202.008 139.821 33.623 0 0 0 0 16.166 197.282 145.916 0 56.316 0 84.126 189.01 150.862 0 106.876 0 131.742 189.232 160.815 0 156.322 0 176.749 181.974 168.177 0 193.866 0 218.63 185.812 174.979 0 241.421 0 269.357 197.282 179.489 0 309.626 0 328 30.997 328 193.553 194.26 74.978 328 115.685 328 202.442 196.621 152.232 328 182.323 328 211.399 197.24 200.392 328 231.626 328 224.386 199.051 254.17 328 283.984 328 231.23 196.003 320.191 328 360.732 328 236.987 188.582 404.439 328 438 328 438 311.743 239.584 181.247 438 271.363 438 243.531 253.619 179.926 438 220.66 438 195.907 257.456 173.123 438 178.959 438 158.087 247.637 162.62 438 133.286 438 108.36 246.58 155.192 438 85.419 438 57.294 239.587 147.677 438 16.795 438 0" opacity=".2" transform="translate(85 140)"/>
    <path stroke="url(#bg-preview-d)" d="M258.407379,484.604805 C289.145349,492.270041 319.710282,491.814833 348.190943,484.640707 L348.190943,484.640707 L378.388327,597.943826 C330.660128,610.306958 279.272998,611.072243 228.253794,597.902733 L228.213,597.892 Z M433.300505,437.993584 L516.165978,520.910655 C479.677847,556.590933 434.650254,582.603515 385.524988,596.382352 L385.524988,596.382352 L355.193048,483.116291 C384.486159,474.689892 411.360876,459.164363 433.300505,437.993584 L433.300505,437.993584 Z M174.524837,437.998084 C195.797497,458.601374 222.2782,474.397079 252.642764,483.089694 L252.642764,483.089694 L222.314996,596.336277 C171.339913,582.102091 127.008673,555.611441 91.6584887,520.914348 L91.6584887,520.914348 Z M482.892401,355.60968 L596.383874,385.8809 C582.118862,436.760098 555.571144,481.007863 520.799515,516.291424 L520.799515,516.291424 L437.704642,433.580715 C458.351829,412.347961 474.181163,385.917049 482.892401,355.60968 L482.892401,355.60968 Z M125.093346,355.609574 C133.535063,384.849351 149.088672,411.675212 170.29778,433.57509 L170.29778,433.57509 L87.2287591,516.290628 C51.4830153,479.868874 25.4225736,434.92311 11.6182658,385.88702 L11.6182658,385.88702 Z M10.098,228.78 L123.279879,259.126147 C115.621455,290.02023 116.076269,320.740286 123.244473,349.365283 L123.244473,349.365283 L10.0476527,379.715121 C-2.4300017,331.257998 -3.08342218,279.048235 10.4939239,227.258992 L10.098,228.78 Z M520.772883,91.7093722 C556.518627,128.131126 582.579068,173.07689 596.383376,222.11298 L596.383376,222.11298 L482.908296,252.390426 C474.466579,223.150649 458.91297,196.324788 437.703862,174.42491 L437.703862,174.42491 Z M87.2030186,91.709158 L170.297001,174.419547 C149.649892,195.652264 133.820646,222.083084 125.109494,252.39032 L125.109494,252.39032 L11.6177681,222.118987 C25.7873652,171.580198 52.0759696,127.584416 86.5048164,92.4187883 L86.5048164,92.4187883 L87.2030186,91.709158 Z M222.304269,11.6176483 L252.636209,124.883709 C223.343098,133.310108 196.468382,148.835637 174.528752,170.006416 L174.528752,170.006416 L91.6632791,87.0893449 C128.15141,51.4090669 173.179003,25.3964855 222.304269,11.6176483 L222.304269,11.6176483 Z M385.514611,11.6638208 C436.489548,25.8980308 480.820667,52.38864 516.170771,87.0856548 L516.170771,87.0856548 L433.304976,170.002455 C412.032354,149.39903 385.551652,133.603194 355.187063,124.910469 L355.187063,124.910469 Z M228.613314,10.0562233 C276.341513,-2.30697316 327.728642,-3.07226127 378.747845,10.0973171 L378.788,10.108 L348.594431,123.395204 C318.213974,115.819756 288.002721,116.176287 259.805791,123.112229 L258.811444,123.359756 Z M597.953989,228.194313 C610.431644,276.651436 611.085064,328.861198 597.50777,380.650245 L597.902,379.128 L484.721121,348.783114 C492.291124,318.248435 491.934852,287.883591 485.004497,259.543544 L484.757169,258.544151 Z"/>
  </g>
</svg>
