<?xml version="1.0" encoding="UTF-8"?>
<svg width="1028px" height="1028px" viewBox="0 0 1028 1028" version="1.1" xmlns="http://www.w3.org/2000/svg" xmlns:xlink="http://www.w3.org/1999/xlink">
    <title>Group 12</title>
    <g id="Колесо" stroke="none" stroke-width="1" fill="none" fill-rule="evenodd">
        <g id="spin" transform="translate(-556.000000, -220.000000)" fill="#63ADF2">
            <g id="Group-12" transform="translate(556.000000, 220.000000)">
                <path d="M514.947157,19.2948329 C514.305703,19.2948329 513.801704,18.7783914 513.801704,18.1494989 C513.801704,17.5164415 514.318199,17 514.947157,17 C515.576114,17 516.09261,17.5164415 516.09261,18.1494989 C516.09261,18.7783914 515.576114,19.2948329 514.947157,19.2948329 L514.947157,19.2948329 Z M502.334678,18.286939 C502.322182,17.6455519 502.826181,17.1249455 503.459305,17.1166158 C504.088262,17.0957916 504.617253,17.5997385 504.625584,18.2411256 C504.63808,18.8658532 504.13408,19.3822948 503.505123,19.4072839 L503.492627,19.4072839 L503.484296,19.4072839 C502.851173,19.4072839 502.347174,18.9033369 502.334678,18.286939 L502.334678,18.286939 Z M526.376695,19.4406027 C525.747737,19.432273 525.243738,18.9033369 525.264564,18.2744444 C525.27706,17.6330574 525.801886,17.1374401 526.435009,17.1499346 C527.068132,17.1624292 527.567966,17.6872004 527.54714,18.3327523 C527.534644,18.9491503 527.030644,19.4406027 526.410017,19.4406027 L526.376695,19.4406027 Z M490.90514,18.678435 C490.880148,18.0453776 491.363321,17.503947 491.992279,17.4789579 C492.637898,17.4498039 493.162724,17.9412563 493.196046,18.5701488 C493.221037,19.2115359 492.729534,19.740472 492.096411,19.7737908 L492.063089,19.7737908 L492.050593,19.7737908 C491.442461,19.7737908 490.925966,19.2948329 490.90514,18.678435 L490.90514,18.678435 Z M537.810398,19.8570878 L537.810398,19.8570878 C537.177275,19.8196041 536.685772,19.2823384 536.719094,18.6534458 C536.73992,18.0203885 537.281407,17.5414306 537.910365,17.5622549 L537.922861,17.5622549 C538.551819,17.5997385 539.034992,18.1370043 539.01,18.7658968 C538.976678,19.3781299 538.472678,19.8570878 537.864547,19.8570878 L537.810398,19.8570878 Z M479.458941,19.3406463 C479.417288,18.6950944 479.896295,18.1619934 480.529418,18.1120152 C481.158376,18.0662019 481.708194,18.5493246 481.741516,19.1823819 C481.791499,19.8112744 481.308326,20.3610348 480.675203,20.4068481 L480.63355,20.4068481 L480.608559,20.4068481 C480.000427,20.4068481 479.496428,19.93622 479.458941,19.3406463 L479.458941,19.3406463 Z M549.227441,20.5192991 C548.585987,20.4734857 548.11531,19.93622 548.161128,19.3073275 C548.206946,18.6659404 548.756764,18.1911474 549.389887,18.2411256 C550.018844,18.286939 550.489521,18.8242047 550.443703,19.4655918 C550.410381,20.0653303 549.906382,20.5317937 549.306581,20.5317937 C549.273259,20.5317937 549.248267,20.5192991 549.227441,20.5192991 L549.227441,20.5192991 Z M468.029402,20.2569135 C467.975254,19.628021 468.441765,19.0616012 469.074889,19.0074582 C469.703846,18.9491503 470.257829,19.4197784 470.324474,20.0528358 C470.370292,20.6817283 469.912111,21.2314886 469.283153,21.2897965 C469.245665,21.2981262 469.212343,21.2981262 469.179021,21.2981262 C468.595881,21.2981262 468.087716,20.8524872 468.029402,20.2569135 L468.029402,20.2569135 Z M560.623656,21.4647203 C559.994699,21.4064124 559.524022,20.8399926 559.590666,20.2111001 C559.64898,19.5780428 560.198798,19.1115795 560.831921,19.1698874 L560.831921,19.1823819 C561.460878,19.236525 561.931555,19.7862853 561.873242,20.4276724 C561.814928,21.0149164 561.310928,21.4647203 560.727789,21.4647203 L560.623656,21.4647203 Z M456.633186,21.4397312 C456.566542,20.8066738 457.012227,20.2360892 457.64535,20.1652868 C458.274308,20.0944843 458.836621,20.5442882 458.915762,21.1731807 C458.986572,21.8062381 458.528391,22.3768226 457.895267,22.4476251 L457.770309,22.4476251 C457.1955,22.4476251 456.703996,22.0228103 456.633186,21.4397312 L456.633186,21.4397312 Z M571.999046,22.6558677 C571.365923,22.5725706 570.920237,22.0103158 570.991047,21.3814233 C571.070188,20.7525308 571.632501,20.3027268 572.261459,20.3735293 C572.890417,20.4401669 573.340267,21.0149164 573.269457,21.6438089 C573.202813,22.226888 572.707144,22.6558677 572.132335,22.6558677 L571.999046,22.6558677 Z M445.261962,22.8807696 C445.178657,22.2518771 445.616011,21.6771277 446.244969,21.5896658 C446.865596,21.5063688 447.448736,21.9436781 447.532042,22.5725706 C447.623678,23.1931334 447.173827,23.7762126 446.557365,23.8595096 C446.499052,23.8678393 446.453233,23.8678393 446.394919,23.8678393 C445.832606,23.8678393 445.341103,23.4555191 445.261962,22.8807696 L445.261962,22.8807696 Z M583.336948,24.1094007 C582.70799,24.0177739 582.270635,23.43053 582.362271,22.814132 C582.453908,22.1810746 583.028717,21.7479301 583.657675,21.8395569 C584.286632,21.918689 584.723987,22.505933 584.632351,23.1348255 C584.549045,23.709575 584.057542,24.1177304 583.499394,24.1177304 C583.44941,24.1177304 583.395262,24.1094007 583.336948,24.1094007 L583.336948,24.1094007 Z M433.932391,24.5800288 C433.828259,23.959466 434.253118,23.372222 434.886241,23.2722656 C435.502703,23.1681443 436.090008,23.5929591 436.19414,24.2260165 C436.298272,24.8424144 435.873413,25.442153 435.24029,25.5296149 C435.181976,25.5421094 435.123662,25.554604 435.057018,25.554604 C434.5072,25.554604 434.011531,25.1506134 433.932391,24.5800288 L433.932391,24.5800288 Z M594.641527,25.8253193 C594.0209,25.7253629 593.596041,25.1297892 593.700173,24.5092264 C593.804305,23.8803339 594.387445,23.4555191 595.020568,23.5554755 C595.641196,23.6637616 596.061889,24.2551704 595.961922,24.8757332 C595.866121,25.442153 595.387113,25.8378138 594.837296,25.8378138 C594.766486,25.8378138 594.708172,25.8378138 594.641527,25.8253193 L594.641527,25.8253193 Z M422.640307,26.5500034 C422.527844,25.9336054 422.940208,25.3338669 423.55667,25.2214159 C424.177297,25.1089649 424.772932,25.5171203 424.885395,26.141848 C425.002023,26.7707405 424.58966,27.3538196 423.973198,27.4787651 C423.902388,27.4912597 423.831578,27.4912597 423.764934,27.4912597 C423.223447,27.4912597 422.744439,27.1122582 422.640307,26.5500034 L422.640307,26.5500034 Z M605.912785,27.7994587 L605.912785,27.7994587 C605.292158,27.6870077 604.879795,27.091434 604.996422,26.4708712 C605.108885,25.8378138 605.704521,25.442153 606.333479,25.554604 C606.954106,25.6670549 607.366469,26.2667935 607.254006,26.895686 C607.137378,27.4454463 606.658371,27.8244478 606.116884,27.8244478 C606.050239,27.8244478 605.979429,27.8119532 605.912785,27.7994587 L605.912785,27.7994587 Z M411.394041,28.7865283 C411.264918,28.1659655 411.66895,27.5578973 412.289577,27.4329518 C412.906039,27.2955117 413.514171,27.6995022 413.639129,28.3159002 C413.764088,28.9322981 413.364221,29.5445312 412.747759,29.6694768 C412.676949,29.690301 412.597808,29.7027956 412.518668,29.7027956 C411.977181,29.7027956 411.510669,29.3237941 411.394041,28.7865283 L411.394041,28.7865283 Z M617.125728,30.0484782 C616.505101,29.9110381 616.105234,29.298805 616.242688,28.6824071 C616.367647,28.0618443 616.975778,27.6745131 617.596405,27.7994587 C618.212867,27.9244042 618.6169,28.5491318 618.47528,29.1655298 C618.375313,29.7027956 617.89214,30.0693025 617.363149,30.0693025 C617.284009,30.0693025 617.204869,30.0609727 617.125728,30.0484782 L617.125728,30.0484782 Z M400.201924,31.2729444 C400.06447,30.6565464 400.443511,30.0484782 401.064138,29.8985436 C401.6806,29.7611035 402.288732,30.1401049 402.438682,30.7565029 C402.576136,31.3770657 402.197095,31.9851339 401.580633,32.1350685 C401.497328,32.1558928 401.405691,32.1558928 401.314055,32.1558928 C400.801725,32.1558928 400.326883,31.8018805 400.201924,31.2729444 L400.201924,31.2729444 Z M628.280358,32.5473888 C627.663896,32.3974542 627.284855,31.7768914 627.43064,31.172988 C627.58059,30.5524252 628.201217,30.1609292 628.809349,30.3150287 C629.425811,30.4607984 629.804852,31.0771964 629.667397,31.701924 C629.542439,32.2225304 629.071762,32.5807076 628.542771,32.5807076 C628.46363,32.5807076 628.371994,32.5723779 628.280358,32.5473888 L628.280358,32.5473888 Z M389.080617,34.0259109 C388.922337,33.4178427 389.288881,32.7847853 389.905343,32.626521 C390.513475,32.4682566 391.146598,32.8430932 391.292383,33.4511615 C391.454829,34.0717243 391.088284,34.6881222 390.467657,34.8505514 C390.376021,34.8713757 390.284384,34.8838702 390.180252,34.8838702 C389.676253,34.8838702 389.209741,34.5423524 389.080617,34.0259109 L389.080617,34.0259109 Z M639.380838,35.308685 C638.772707,35.1504207 638.401997,34.5173633 638.564443,33.9009654 C638.726889,33.2887323 639.343351,32.9222254 639.963978,33.0888194 C640.57211,33.2470838 640.938655,33.8759763 640.776208,34.4798797 C640.638754,35.000486 640.180573,35.3461687 639.676574,35.3461687 C639.572442,35.3461687 639.480805,35.3336741 639.380838,35.308685 L639.380838,35.308685 Z M378.017624,37.041263 C377.846847,36.4207002 378.200897,35.7918077 378.809028,35.6210488 C379.417159,35.4461251 380.046117,35.8043023 380.221059,36.4082057 C380.391836,37.0162739 380.046117,37.657661 379.42549,37.8325847 C379.325523,37.853409 379.221391,37.8659035 379.117259,37.8659035 C378.61326,37.8659035 378.155078,37.54521 378.017624,37.041263 L378.017624,37.041263 Z M650.41884,38.3240371 C649.810709,38.1491134 649.456659,37.5118912 649.627436,36.9038229 C649.798213,36.2957547 650.431336,35.9375775 651.039467,36.1125013 L651.051963,36.1249958 C651.655929,36.2957547 652.001648,36.9246472 651.830871,37.5327154 C651.693417,38.0366624 651.22274,38.3698505 650.727071,38.3698505 C650.627104,38.3698505 650.522972,38.3448614 650.41884,38.3240371 L650.41884,38.3240371 Z M367.033771,40.3065062 C366.838003,39.698438 367.183722,39.0570509 367.791853,38.8737975 L367.791853,38.8613029 C368.395819,38.6780495 369.028942,39.0237321 369.22471,39.6318004 C369.407983,40.227374 369.062264,40.872926 368.466629,41.0645091 C368.354166,41.0978279 368.237538,41.1103225 368.125076,41.1103225 C367.629407,41.1103225 367.183722,40.8021235 367.033771,40.3065062 L367.033771,40.3065062 Z M661.369371,41.5934452 L661.369371,41.5934452 C660.773735,41.4101917 660.428016,40.7646398 660.611289,40.1607364 C660.807057,39.5485033 661.448511,39.2194801 662.056642,39.4027336 C662.652278,39.5984815 662.993831,40.2357038 662.802228,40.8479368 C662.652278,41.3268947 662.206593,41.6475882 661.710924,41.6475882 C661.598461,41.6475882 661.485998,41.6225991 661.369371,41.5934452 L661.369371,41.5934452 Z M356.120728,43.8299702 C355.92496,43.2177371 356.245687,42.57635 356.841322,42.3722723 C357.449454,42.1765243 358.090907,42.4972178 358.299172,43.0927915 C358.490775,43.7008598 358.170048,44.3464117 357.574412,44.5463245 C357.449454,44.5838082 357.324495,44.6046325 357.207867,44.6046325 C356.72886,44.6046325 356.279009,44.308928 356.120728,43.8299702 L356.120728,43.8299702 Z M672.294909,45.1335685 C671.686778,44.925326 671.366051,44.2881038 671.574315,43.6758707 C671.765918,43.080297 672.419868,42.7637683 673.027999,42.967846 C673.623635,43.1594292 673.944362,43.8174756 673.740263,44.4088845 C673.577817,44.8920072 673.132131,45.1918764 672.648958,45.1918764 C672.536496,45.1918764 672.411537,45.1793819 672.294909,45.1335685 L672.294909,45.1335685 Z M345.299322,47.5991603 C345.078562,46.9994218 345.399288,46.3372105 345.986593,46.1289679 C346.582229,45.9165605 347.244509,46.2247595 347.465269,46.8161683 C347.669368,47.4159069 347.361137,48.0697885 346.765501,48.2863607 C346.636378,48.3321741 346.511419,48.3571632 346.373965,48.3571632 C345.903288,48.3571632 345.470098,48.0697885 345.299322,47.5991603 L345.299322,47.5991603 Z M683.116316,48.9277478 C682.520681,48.7070107 682.224945,48.0572939 682.429044,47.4617202 C682.649804,46.8661465 683.312084,46.5579476 683.899389,46.7745198 C684.495025,46.9910921 684.803256,47.6449737 684.586661,48.2405474 C684.424215,48.7070107 683.97853,48.9985503 683.507853,48.9985503 C683.382894,48.9985503 683.24544,48.9735612 683.116316,48.9277478 L683.116316,48.9277478 Z M334.565386,51.6224064 C334.336295,51.0393273 334.63203,50.3729511 335.219335,50.1438843 C335.814971,49.9148175 336.477251,50.2146868 336.706342,50.793601 C336.939597,51.380845 336.639697,52.0472212 336.044061,52.276288 L336.056557,52.276288 C335.919103,52.3345959 335.769153,52.3554202 335.631698,52.3554202 C335.173517,52.3554202 334.736162,52.08054 334.565386,51.6224064 L334.565386,51.6224064 Z M693.862748,52.975983 C693.267112,52.7469162 692.979708,52.08054 693.208798,51.493296 C693.437889,50.9018872 694.100169,50.6145125 694.687474,50.8435793 C695.283109,51.0726461 695.570514,51.7390222 695.341423,52.3221014 C695.170647,52.780235 694.733292,53.0551151 694.275111,53.0551151 C694.137656,53.0551151 694.000202,53.0342909 693.862748,52.975983 L693.862748,52.975983 Z M323.923086,55.8997084 C323.685665,55.3124644 323.968904,54.6377585 324.556209,54.3961972 C325.139349,54.1546358 325.805794,54.4336808 326.047381,55.01676 C326.288967,55.6123337 326.014059,56.2787098 325.426754,56.5202712 C325.276803,56.5744142 325.139349,56.6118979 324.993564,56.6118979 C324.543713,56.6118979 324.110524,56.3370177 323.923086,55.8997084 L323.923086,55.8997084 Z M704.488386,57.2741092 C703.905246,57.0242181 703.630338,56.3536771 703.880255,55.7747628 C704.121841,55.1875189 704.788287,54.9126387 705.371426,55.1542 C705.954566,55.3957614 706.229475,56.0704673 705.992054,56.6577113 C705.808781,57.0908558 705.383922,57.3574062 704.938237,57.3574062 C704.788287,57.3574062 704.638336,57.3324171 704.488386,57.2741092 L704.488386,57.2741092 Z M313.434902,60.4060772 C313.172489,59.8188332 313.434902,59.1399625 314.018042,58.8900714 C314.601182,58.6360155 315.280123,58.902566 315.534205,59.4731505 C315.784122,60.0603945 315.521709,60.7351004 314.9469,60.9891563 C314.79695,61.0557939 314.638669,61.080783 314.480388,61.080783 C314.043034,61.080783 313.618175,60.830892 313.434902,60.4060772 L313.434902,60.4060772 Z M715.026554,61.8137968 C714.443414,61.5514112 714.189332,60.8725405 714.443414,60.3019559 C714.693331,59.7147119 715.372272,59.4564911 715.955412,59.7147119 C716.538552,59.9687678 716.788469,60.6559682 716.538552,61.2265528 C716.346949,61.6555325 715.93042,61.9054235 715.484735,61.9054235 C715.334785,61.9054235 715.172339,61.8845993 715.026554,61.8137968 L715.026554,61.8137968 Z M303.034189,65.1498425 C302.771776,64.575093 303.013363,63.8878926 303.584006,63.625507 C304.171311,63.3506268 304.846087,63.6046827 305.112666,64.1752673 C305.383409,64.7500168 305.133492,65.4372172 304.558683,65.7037676 C304.412898,65.7704053 304.237956,65.8037241 304.079675,65.8037241 C303.64232,65.8037241 303.229957,65.5621627 303.034189,65.1498425 L303.034189,65.1498425 Z M725.435597,66.5908809 C724.860788,66.3201656 724.623367,65.6412949 724.898276,65.0707103 C725.173184,64.5001257 725.84796,64.2460698 726.42277,64.5167851 C726.997579,64.7958301 727.235,65.470536 726.972587,66.0452854 C726.776819,66.4576057 726.364456,66.699167 725.931266,66.699167 C725.76882,66.699167 725.598043,66.6616834 725.435597,66.5908809 L725.435597,66.5908809 Z M292.750104,70.1351691 C292.475195,69.5604197 292.704286,68.8732193 293.279095,68.6025039 C293.841408,68.3151292 294.52868,68.544196 294.816085,69.1189455 C295.090993,69.6812003 294.861903,70.3684008 294.299589,70.6516106 C294.124647,70.7349077 293.953871,70.7640616 293.783094,70.7640616 C293.370731,70.7640616 292.958368,70.5391597 292.750104,70.1351691 L292.750104,70.1351691 Z M735.744674,71.6178561 C735.182361,71.3304813 734.95327,70.6391161 735.240675,70.0768612 C735.515584,69.5062766 736.215351,69.2897044 736.773499,69.5604197 C737.335813,69.8519592 737.564903,70.5391597 737.289994,71.1097442 C737.085896,71.5012402 736.681863,71.7428016 736.261169,71.7428016 C736.086227,71.7428016 735.915451,71.6969882 735.744674,71.6178561 L735.744674,71.6178561 Z M282.595142,75.366222 C282.295242,74.8039671 282.511837,74.1042721 283.07415,73.8168974 C283.636463,73.521193 284.323735,73.7377652 284.623636,74.2875256 C284.906875,74.8497804 284.702776,75.5494754 284.140463,75.8451798 C283.969686,75.9284769 283.786414,75.9701254 283.603141,75.9701254 C283.186613,75.9701254 282.799241,75.757718 282.595142,75.366222 L282.595142,75.366222 Z M745.924627,76.8780629 C745.362314,76.5823585 745.158215,75.8826635 745.45395,75.3287383 C745.753851,74.7664834 746.441122,74.554076 747.003436,74.8497804 C747.565749,75.1454849 747.769848,75.8451798 747.474113,76.3949402 C747.265849,76.7864362 746.878477,77.015503 746.461949,77.015503 C746.282842,77.015503 746.095404,76.9696896 745.924627,76.8780629 L745.924627,76.8780629 Z M272.548478,80.8180119 C272.240247,80.2724165 272.436016,79.5727215 272.998329,79.2603577 L272.985833,79.2603577 C273.548147,78.9521587 274.247914,79.1604012 274.543649,79.7101616 C274.85188,80.2599219 274.660277,80.9596169 274.11046,81.2678158 L274.097964,81.2678158 C273.927187,81.3594426 273.743915,81.4052559 273.548147,81.4052559 C273.144114,81.4052559 272.756743,81.1970134 272.548478,80.8180119 L272.548478,80.8180119 Z M755.979622,82.3715014 C755.429804,82.0591375 755.234036,81.3594426 755.542267,80.8138471 C755.854663,80.2599219 756.554431,80.0641739 757.104248,80.3723729 C757.654066,80.6847367 757.849834,81.3802668 757.537438,81.934192 C757.333339,82.3131934 756.941802,82.5172711 756.541935,82.5172711 C756.346167,82.5172711 756.162894,82.4714578 755.979622,82.3715014 L755.979622,82.3715014 Z M262.630938,86.5071984 C262.297716,85.9699326 262.493484,85.2577431 263.034971,84.9495441 C263.584788,84.6288506 264.284556,84.8079392 264.601117,85.3493698 C264.92601,85.8991302 264.742737,86.5988251 264.19292,86.9195187 C264.005482,87.0236399 263.813879,87.077783 263.61811,87.077783 C263.214078,87.077783 262.839202,86.8778701 262.630938,86.5071984 L262.630938,86.5071984 Z M765.905493,88.0898418 L765.905493,88.1023363 C765.35984,87.7649834 765.176568,87.0694533 765.505625,86.519693 C765.826352,85.9824272 766.52612,85.7991737 767.075937,86.1198673 C767.617424,86.4488905 767.800697,87.1485855 767.47997,87.6900161 C767.263375,88.056523 766.884334,88.252271 766.492798,88.252271 C766.284533,88.252271 766.088765,88.2064576 765.905493,88.0898418 L765.905493,88.0898418 Z M252.842522,92.4379462 C252.509299,91.8965156 252.66758,91.1843261 253.209067,90.8553029 C253.746388,90.5221148 254.458652,90.6928737 254.791875,91.2301394 C255.125097,91.7674052 254.950155,92.4671002 254.412834,92.8127828 C254.229561,92.9293987 254.021297,92.9710472 253.817198,92.9710472 C253.438157,92.9710472 253.059117,92.7877937 252.842522,92.4379462 L252.842522,92.4379462 Z M775.689744,94.037249 C775.148257,93.7082258 774.989976,93.0085308 775.319034,92.4671002 C775.652256,91.9298344 776.36452,91.7674052 776.906007,92.1005933 C777.443328,92.4379462 777.601609,93.1418061 777.272552,93.6832367 C777.051791,94.0247545 776.672751,94.2205025 776.297875,94.2205025 C776.089611,94.2205025 775.881347,94.1663594 775.689744,94.037249 L775.689744,94.037249 Z M243.187394,98.5769366 C242.841676,98.0521654 242.991626,97.3399759 243.520617,96.9942932 C244.057939,96.6527755 244.770202,96.8027101 245.111755,97.3274813 C245.457474,97.8564174 245.307524,98.5686069 244.770202,98.9101247 C244.58693,99.0350702 244.370335,99.1058727 244.149575,99.1058727 C243.770534,99.1058727 243.403989,98.9101247 243.187394,98.5769366 L243.187394,98.5769366 Z M785.332375,100.222053 C784.803384,99.8763701 784.653434,99.1641806 785.007483,98.6394094 C785.353202,98.1104733 786.065465,97.9605387 786.590291,98.3062213 C787.119282,98.6477391 787.269232,99.3599286 786.923514,99.9013592 C786.694423,100.230382 786.340374,100.413636 785.961333,100.413636 C785.744738,100.413636 785.523978,100.346998 785.332375,100.222053 L785.332375,100.222053 Z M233.682217,104.953324 C233.328168,104.424387 233.453127,103.716363 233.977952,103.36235 C234.494448,102.995844 235.219207,103.129119 235.573256,103.658055 C235.93147,104.174496 235.789851,104.895016 235.277521,105.253193 C235.081753,105.378138 234.852662,105.448941 234.636067,105.448941 C234.265357,105.448941 233.898812,105.274017 233.682217,104.953324 L233.682217,104.953324 Z M794.833387,106.615099 C794.308561,106.261087 794.183603,105.536403 794.537652,105.024126 C794.891701,104.507684 795.612295,104.370244 796.12879,104.736751 C796.657781,105.094928 796.786905,105.802953 796.428691,106.327724 C796.1996,106.652583 795.841386,106.823342 795.479006,106.823342 C795.258246,106.823342 795.029155,106.752539 794.833387,106.615099 L794.833387,106.615099 Z M224.314495,111.529623 C223.94795,111.017347 224.064578,110.309322 224.581073,109.942815 C225.097568,109.563814 225.818162,109.688759 226.184707,110.205201 C226.551252,110.709148 226.434624,111.429667 225.922294,111.796174 C225.71403,111.946108 225.484939,112.016911 225.255849,112.016911 C224.889304,112.016911 224.543585,111.846152 224.314495,111.529623 L224.314495,111.529623 Z M804.180283,113.233047 C803.663788,112.862376 803.54716,112.141856 803.926201,111.625415 C804.292746,111.121468 805.00501,111.009017 805.521505,111.371359 C806.038,111.737866 806.150463,112.46255 805.771422,112.978991 C805.554827,113.28719 805.200778,113.445455 804.842564,113.445455 C804.613473,113.445455 804.376052,113.378817 804.180283,113.233047 L804.180283,113.233047 Z M215.109218,118.330825 C214.730177,117.826878 214.834309,117.114688 215.338308,116.727357 C215.842308,116.348356 216.562902,116.452477 216.946108,116.956424 C217.320983,117.460371 217.216851,118.18089 216.712852,118.559892 C216.508753,118.722321 216.267167,118.793123 216.02558,118.793123 C215.679862,118.793123 215.338308,118.643189 215.109218,118.330825 L215.109218,118.330825 Z M813.364734,120.050908 C812.856569,119.676072 812.764933,118.951388 813.143974,118.447441 C813.523015,117.943494 814.243609,117.851867 814.751773,118.230869 C815.255773,118.6182 815.359905,119.330389 814.968368,119.834336 C814.751773,120.130041 814.406055,120.29247 814.064501,120.29247 C813.81875,120.29247 813.568833,120.209173 813.364734,120.050908 L813.364734,120.050908 Z M206.062222,125.348599 C205.674851,124.857146 205.753991,124.132462 206.245494,123.740966 C206.749494,123.34947 207.461757,123.432767 207.861624,123.92422 C208.253161,124.428167 208.161525,125.140356 207.670021,125.544347 C207.461757,125.702611 207.21184,125.781743 206.957758,125.781743 C206.624535,125.781743 206.282982,125.631809 206.062222,125.348599 L206.062222,125.348599 Z M822.386738,127.089507 C821.891069,126.689681 821.811929,125.964997 822.215961,125.473544 C822.603333,124.982092 823.328092,124.898795 823.819596,125.302786 C824.311099,125.690117 824.390239,126.414801 824.002868,126.906253 C823.773777,127.193628 823.440555,127.339398 823.107332,127.339398 C822.857415,127.339398 822.603333,127.26443 822.386738,127.089507 L822.386738,127.089507 Z M197.165176,132.570451 C196.765309,132.074833 196.831953,131.354314 197.327622,130.954488 C197.80663,130.554663 198.531389,130.6213 198.931256,131.116918 C199.343619,131.595875 199.27281,132.320559 198.781306,132.71622 C198.577207,132.899474 198.310629,132.982771 198.060712,132.982771 C197.727489,132.982771 197.394267,132.845331 197.165176,132.570451 L197.165176,132.570451 Z M831.246296,134.323853 C830.767289,133.919862 830.700644,133.203508 831.108842,132.703726 C831.512874,132.224768 832.233468,132.15813 832.724972,132.570451 C833.208145,132.970276 833.278955,133.69496 832.866592,134.186413 C832.633336,134.448798 832.316774,134.602898 831.983551,134.602898 C831.729469,134.602898 831.467056,134.507106 831.246296,134.323853 L831.246296,134.323853 Z M188.451403,139.99638 C188.026544,139.517422 188.084858,138.792738 188.568031,138.384583 C189.038708,137.955603 189.771798,138.013911 190.184161,138.497033 C190.596524,138.963497 190.53821,139.700675 190.067533,140.112996 C189.850938,140.296249 189.576029,140.387876 189.313617,140.387876 C188.99289,140.387876 188.667998,140.250436 188.451403,139.99638 L188.451403,139.99638 Z M839.951739,141.762277 L839.939243,141.762277 C839.468566,141.354121 839.422748,140.629437 839.835111,140.150479 C840.251639,139.663192 840.980564,139.621543 841.451241,140.042193 C841.934414,140.458678 841.980232,141.179198 841.567869,141.66232 C841.338778,141.912211 841.018051,142.053816 840.697325,142.053816 C840.430747,142.053816 840.155838,141.958025 839.951739,141.762277 L839.951739,141.762277 Z M179.900076,147.622222 C179.475217,147.151594 179.508539,146.41858 179.979216,145.993765 C180.449893,145.56895 181.170487,145.602269 181.595346,146.072897 C182.020205,146.543526 181.986883,147.26821 181.516206,147.68886 C181.295446,147.897102 181.024702,147.988729 180.749794,147.988729 C180.437397,147.988729 180.129166,147.863783 179.900076,147.622222 L179.900076,147.622222 Z M848.457248,149.396449 L848.457248,149.396449 C847.999067,148.975799 847.965745,148.255279 848.390603,147.784651 C848.823793,147.309858 849.548552,147.276539 850.015064,147.713849 C850.477411,148.138664 850.510733,148.859183 850.073378,149.329811 C849.856783,149.579702 849.548552,149.708812 849.236156,149.708812 C848.961247,149.708812 848.678008,149.604691 848.457248,149.396449 L848.457248,149.396449 Z M171.519525,155.439647 C171.08217,154.981514 171.107162,154.2485 171.565343,153.815355 C172.023524,153.373881 172.744119,153.39887 173.181473,153.861169 C173.614663,154.319302 173.606332,155.039822 173.143986,155.472966 C172.91906,155.693703 172.639986,155.79366 172.352582,155.79366 C172.044351,155.79366 171.748616,155.668714 171.519525,155.439647 L171.519525,155.439647 Z M856.804476,157.230533 L856.79198,157.230533 C856.333799,156.793224 856.325469,156.06021 856.766989,155.610406 C857.204344,155.152273 857.929103,155.131448 858.387284,155.581252 C858.845465,156.014397 858.853796,156.734916 858.420606,157.19305 C858.191516,157.434611 857.891615,157.547062 857.59588,157.547062 C857.308476,157.547062 857.021071,157.447106 856.804476,157.230533 L856.804476,157.230533 Z M163.330578,163.440326 C162.884892,162.994687 162.884892,162.274168 163.330578,161.828529 C163.780428,161.378725 164.501022,161.378725 164.950873,161.828529 C165.396558,162.274168 165.396558,163.007182 164.950873,163.452821 C164.717617,163.669393 164.434378,163.786009 164.146973,163.786009 C163.847073,163.786009 163.551338,163.669393 163.330578,163.440326 L163.330578,163.440326 Z M864.955936,165.243707 C864.510251,164.798068 864.510251,164.073384 864.955936,163.62358 C865.401622,163.177941 866.138877,163.177941 866.584562,163.62358 C867.017752,164.085878 867.017752,164.806397 866.572066,165.256201 C866.355472,165.472773 866.055571,165.585224 865.772332,165.585224 C865.472431,165.585224 865.172531,165.472773 864.955936,165.243707 L864.955936,165.243707 Z M155.316572,171.649247 C154.858391,171.203608 154.845895,170.483089 155.28325,170.020791 C155.720604,169.562657 156.441199,169.554327 156.911876,169.991637 C157.357561,170.424781 157.382553,171.157795 156.932702,171.615929 C156.716107,171.844995 156.407876,171.957446 156.107976,171.957446 C155.820571,171.957446 155.537332,171.85749 155.316572,171.649247 L155.316572,171.649247 Z M872.924124,173.452628 C872.478438,172.977835 872.499265,172.261481 872.957446,171.824171 C873.419793,171.386862 874.152882,171.407686 874.586072,171.869985 C875.010931,172.328118 874.998435,173.048637 874.540254,173.481782 C874.323659,173.702519 874.036254,173.80664 873.74885,173.80664 C873.453115,173.80664 873.140719,173.67753 872.924124,173.452628 L872.924124,173.452628 Z M147.498335,180.033093 C147.027658,179.595783 146.994335,178.871099 147.43169,178.400471 C147.856549,177.946502 148.577143,177.909019 149.04782,178.337998 C149.518497,178.758648 149.55182,179.491662 149.114465,179.96229 C148.885374,180.203851 148.585474,180.328797 148.268912,180.328797 C147.989838,180.328797 147.714929,180.228841 147.498335,180.033093 L147.498335,180.033093 Z M880.696543,181.828143 C880.275849,181.36168 880.309172,180.624501 880.779849,180.203851 C881.24636,179.779037 881.97112,179.812355 882.395979,180.282984 C882.820838,180.753612 882.787515,181.474131 882.312673,181.898946 C882.096078,182.107188 881.821169,182.19465 881.546261,182.19465 C881.225534,182.19465 880.917303,182.07387 880.696543,181.828143 L880.696543,181.828143 Z M139.875866,188.579367 C139.392693,188.171211 139.346875,187.446527 139.759238,186.967569 C140.184097,186.496941 140.908856,186.438633 141.375368,186.863448 C141.858541,187.275768 141.904359,188.000453 141.491996,188.47941 C141.262905,188.745961 140.938013,188.870906 140.629782,188.870906 C140.354873,188.870906 140.09246,188.775115 139.875866,188.579367 L139.875866,188.579367 Z M888.277359,190.382747 C887.864996,189.903789 887.910814,189.179105 888.389822,188.76262 C888.872995,188.354465 889.593589,188.400278 890.005952,188.883401 C890.42248,189.362359 890.372497,190.087043 889.893489,190.495198 C889.672729,190.678452 889.410316,190.774243 889.147903,190.774243 C888.827176,190.774243 888.50645,190.649298 888.277359,190.382747 L888.277359,190.382747 Z M132.445,197.317224 C131.953496,196.917399 131.895182,196.196879 132.29505,195.701262 C132.694917,195.218139 133.432172,195.151502 133.91118,195.563822 C134.394353,195.967812 134.460997,196.688332 134.06113,197.179784 C133.832039,197.44217 133.498817,197.583775 133.17809,197.583775 C132.915677,197.583775 132.653264,197.500478 132.445,197.317224 L132.445,197.317224 Z M895.645746,199.10811 L895.645746,199.10811 C895.245878,198.616658 895.316688,197.891974 895.808192,197.487983 C896.291365,197.088157 897.024455,197.15896 897.424322,197.637918 C897.828354,198.12937 897.757544,198.854054 897.266041,199.258045 C897.057777,199.441298 896.795364,199.516266 896.541282,199.516266 C896.212224,199.516266 895.879002,199.38299 895.645746,199.10811 L895.645746,199.10811 Z M125.209902,206.225841 C124.718399,205.834345 124.635093,205.101331 125.039126,204.609878 C125.426497,204.118426 126.151256,204.035129 126.64276,204.426625 C127.138429,204.826451 127.217569,205.551135 126.826032,206.042587 C126.596942,206.329962 126.267884,206.475732 125.930496,206.475732 C125.680579,206.475732 125.426497,206.396599 125.209902,206.225841 L125.209902,206.225841 Z M902.835025,207.991737 L902.835025,207.991737 C902.435158,207.49612 902.526794,206.779766 903.022463,206.38827 C903.513966,205.996774 904.23456,206.080071 904.626097,206.584018 C905.013468,207.07547 904.934328,207.795989 904.442825,208.187485 C904.22623,208.349915 903.984643,208.424882 903.730561,208.424882 C903.384843,208.424882 903.055785,208.279112 902.835025,207.991737 L902.835025,207.991737 Z M118.195565,215.296886 C117.6874,214.917885 117.587433,214.1932 117.974805,213.689254 C118.353845,213.185307 119.07444,213.081185 119.582604,213.472681 C120.086603,213.851683 120.17824,214.572202 119.799199,215.076149 C119.570108,215.376018 119.236886,215.521788 118.882836,215.521788 C118.64125,215.521788 118.399664,215.45515 118.195565,215.296886 L118.195565,215.296886 Z M909.795214,217.046123 L909.795214,217.046123 C909.420339,216.542176 909.520305,215.821657 910.02847,215.442656 C910.532469,215.063654 911.253063,215.167776 911.632104,215.671723 C912.011145,216.17567 911.907013,216.887859 911.403014,217.27519 C911.194749,217.425125 910.953163,217.508422 910.715742,217.508422 C910.370023,217.508422 910.02847,217.345993 909.795214,217.046123 L909.795214,217.046123 Z M111.385326,224.522031 C110.868831,224.155524 110.752203,223.435005 111.118748,222.931058 C111.497789,222.414616 112.210052,222.298001 112.726547,222.664507 C113.243043,223.043509 113.355505,223.755698 112.98896,224.27214 C112.75987,224.580339 112.401655,224.738603 112.047606,224.738603 C111.818516,224.738603 111.576929,224.671966 111.385326,224.522031 L111.385326,224.522031 Z M916.559635,226.254609 L916.559635,226.254609 C916.184759,225.738167 916.309718,225.025978 916.826213,224.663636 C917.338543,224.284634 918.050806,224.40958 918.417351,224.921857 C918.788061,225.438298 918.671433,226.150488 918.154938,226.516995 C917.946674,226.666929 917.717583,226.737732 917.488493,226.737732 C917.134444,226.737732 916.780395,226.566973 916.559635,226.254609 L916.559635,226.254609 Z M104.779186,233.909605 C104.262691,233.555593 104.125237,232.830909 104.491782,232.318632 C104.845831,231.802191 105.558094,231.66475 106.087085,232.018763 C106.60358,232.38527 106.741035,233.097459 106.37449,233.626395 C106.15373,233.947089 105.799681,234.117848 105.433136,234.117848 C105.204045,234.117848 104.98745,234.047045 104.779186,233.909605 L104.779186,233.909605 Z M923.094965,235.608864 L923.094965,235.608864 C922.740915,235.092423 922.87837,234.384398 923.403196,234.026221 C923.923856,233.672209 924.631954,233.797154 924.986003,234.32609 C925.344218,234.842532 925.219259,235.563051 924.690268,235.921228 C924.4945,236.046174 924.265409,236.112811 924.048814,236.112811 C923.678104,236.112811 923.315725,235.942052 923.094965,235.608864 L923.094965,235.608864 Z M98.4063024,243.447114 C97.8773114,243.105596 97.7273611,242.393407 98.0730797,241.864471 C98.4187982,241.339699 99.1268964,241.17727 99.6558874,241.535447 C100.193209,241.876965 100.343159,242.589155 99.9849449,243.118091 C99.7683501,243.459608 99.4018051,243.630367 99.0227643,243.630367 C98.8186654,243.630367 98.5979054,243.576224 98.4063024,243.447114 L98.4063024,243.447114 Z M929.426196,245.125549 C929.080477,244.584118 929.230427,243.876094 929.755253,243.530411 C930.29674,243.188893 931.009003,243.334663 931.350557,243.876094 C931.696275,244.400865 931.533829,245.113054 931.009003,245.458737 C930.813235,245.583682 930.59664,245.64199 930.388376,245.64199 C930.009335,245.64199 929.64279,245.458737 929.426196,245.125549 L929.426196,245.125549 Z M92.2375174,253.134557 C91.7085264,252.801369 91.5377497,252.093345 91.879303,251.556079 C92.2125257,251.018813 92.9247892,250.856384 93.4537802,251.189572 C93.9911018,251.52276 94.1535478,252.230785 93.8203251,252.772215 C93.5995651,253.113733 93.2330202,253.309481 92.8456488,253.309481 C92.6373846,253.309481 92.4291204,253.251173 92.2375174,253.134557 L92.2375174,253.134557 Z M935.524171,254.763014 C935.190948,254.225748 935.36589,253.513559 935.903212,253.180371 C936.440533,252.851348 937.140301,253.022106 937.473523,253.559372 C937.806746,254.100803 937.6443,254.812992 937.106979,255.142016 C936.91121,255.258631 936.707111,255.316939 936.498847,255.316939 C936.119806,255.316939 935.740765,255.121191 935.524171,254.763014 L935.524171,254.763014 Z M86.3103188,262.963606 C85.7563361,262.642912 85.5855595,261.943217 85.9104516,261.389292 C86.2270132,260.852026 86.9267808,260.668773 87.4807635,260.989466 C88.0180851,261.31016 88.2013576,262.009855 87.8806308,262.559615 C87.6598707,262.913628 87.2849952,263.12187 86.8934585,263.12187 C86.6893597,263.12187 86.4935913,263.063562 86.3103188,262.963606 L86.3103188,262.963606 Z M941.405551,264.546249 C941.084824,264.004818 941.268097,263.292629 941.805418,262.98443 C942.359401,262.663736 943.059169,262.84699 943.37573,263.384256 C943.700622,263.934016 943.51735,264.633711 942.967533,264.954405 C942.792591,265.07102 942.588492,265.116834 942.392723,265.116834 C942.001187,265.116834 941.613815,264.912756 941.405551,264.546249 L941.405551,264.546249 Z M80.599715,272.921764 C80.0498976,272.613566 79.8541293,271.913871 80.1623603,271.36411 C80.4747565,270.81435 81.1703589,270.618602 81.7243416,270.930966 C82.2741591,271.239165 82.4657621,271.93886 82.1575311,272.48862 C81.9534322,272.855127 81.5618956,273.075864 81.1620283,273.075864 C80.96626,273.075864 80.7829875,273.025886 80.599715,272.921764 L80.599715,272.921764 Z M947.045345,274.462759 L947.045345,274.462759 C946.737114,273.908834 946.945378,273.209139 947.495196,272.90094 C948.045013,272.588576 948.744781,272.796819 949.053012,273.346579 C949.361243,273.908834 949.157144,274.600199 948.607326,274.908398 C948.432385,275.008355 948.236616,275.054168 948.053344,275.054168 C947.653477,275.054168 947.253609,274.837596 947.045345,274.462759 L947.045345,274.462759 Z M75.1306977,283.021528 C74.5683844,282.725824 74.3517897,282.026129 74.6475248,281.463874 L74.6475248,281.476368 C74.9474252,280.914114 75.634697,280.697541 76.1970103,280.993246 C76.7593236,281.293115 76.9759183,281.980315 76.6801832,282.54257 C76.471919,282.934066 76.0720518,283.150639 75.6596887,283.150639 C75.4847468,283.150639 75.3014743,283.11732 75.1306977,283.021528 L75.1306977,283.021528 Z M952.460214,284.504215 L952.460214,284.504215 C952.172809,283.94196 952.389404,283.242265 952.951717,282.954891 C953.501535,282.655021 954.201302,282.875758 954.497037,283.438013 C954.784442,284.000268 954.567847,284.687469 954.01803,284.983173 C953.847253,285.0748 953.663981,285.108119 953.480708,285.108119 C953.068345,285.108119 952.664313,284.891546 952.460214,284.504215 L952.460214,284.504215 Z M69.890771,293.237908 C69.3201271,292.963028 69.0868712,292.263333 69.3742758,291.701078 C69.6616804,291.138823 70.3489521,290.909756 70.9112654,291.197131 C71.4860746,291.476176 71.7151652,292.163376 71.4277606,292.733961 C71.2194964,293.133786 70.8196292,293.367018 70.3947703,293.367018 C70.2239936,293.367018 70.0490517,293.31704 69.890771,293.237908 L69.890771,293.237908 Z M957.654322,294.658122 L957.654322,294.658122 C957.366918,294.095867 957.596008,293.408667 958.170818,293.125457 C958.728966,292.850577 959.416237,293.075478 959.703642,293.637733 C959.978551,294.212483 959.74946,294.899683 959.187147,295.174563 C959.01637,295.25786 958.845594,295.303674 958.674817,295.303674 C958.249958,295.303674 957.845925,295.062112 957.654322,294.658122 L957.654322,294.658122 Z M64.8799348,303.579233 C64.309291,303.312682 64.0677045,302.625482 64.3301174,302.054897 C64.6050261,301.480148 65.2922979,301.238586 65.867107,301.517631 C66.4377509,301.780017 66.6793373,302.467218 66.4044286,303.041967 C66.2128255,303.454287 65.7962972,303.691684 65.3714383,303.691684 C65.2131575,303.691684 65.0423809,303.658365 64.8799348,303.579233 L64.8799348,303.579233 Z M962.594349,304.932809 C962.31944,304.35806 962.569357,303.679189 963.144166,303.408474 C963.718975,303.141923 964.393751,303.383485 964.66866,303.970729 C964.935238,304.541313 964.693652,305.216019 964.106347,305.495064 C963.956396,305.561702 963.78562,305.595021 963.627339,305.595021 C963.20248,305.595021 962.790117,305.357624 962.594349,304.932809 L962.594349,304.932809 Z M60.1231809,314.045503 C59.5483718,313.783118 59.2859589,313.104247 59.5400412,312.529498 C59.8024541,311.950583 60.4772301,311.684033 61.0520392,311.950583 C61.6351789,312.200474 61.8892612,312.87518 61.6351789,313.462424 C61.4519064,313.883074 61.0270475,314.13713 60.5813621,314.13713 C60.4314119,314.13713 60.2731312,314.103811 60.1231809,314.045503 L60.1231809,314.045503 Z M967.296954,315.315783 C967.030376,314.732704 967.305284,314.053833 967.880094,313.803942 C968.463233,313.549886 969.138009,313.816436 969.392092,314.391186 C969.646174,314.974265 969.383761,315.648971 968.796456,315.903027 C968.646506,315.969664 968.500721,316.007148 968.338275,316.007148 C967.905085,316.007148 967.480226,315.744763 967.296954,315.315783 L967.296954,315.315783 Z M55.6038483,324.615895 C55.0207086,324.361839 54.7457998,323.699628 54.9873863,323.112384 C55.2373033,322.529305 55.9037487,322.254425 56.4868884,322.495986 C57.0741934,322.733382 57.3491021,323.412253 57.1075156,323.995332 C56.9242432,324.432642 56.4868884,324.695027 56.041203,324.695027 C55.8912528,324.695027 55.7537985,324.670038 55.6038483,324.615895 L55.6038483,324.615895 Z M971.753807,325.798713 C971.512221,325.211469 971.78713,324.545093 972.374435,324.303531 C972.957574,324.066135 973.636516,324.341015 973.878102,324.924094 C974.115523,325.507173 973.828119,326.186044 973.244979,326.427605 C973.107525,326.485913 972.957574,326.506738 972.807624,326.506738 C972.361939,326.506738 971.93708,326.240187 971.753807,325.798713 L971.753807,325.798713 Z M51.3385979,335.286243 C50.7429623,335.057177 50.4555577,334.394965 50.6888136,333.799392 C50.9137389,333.212148 51.5801843,332.916443 52.1674893,333.141345 C52.7631249,333.374577 53.0463641,334.036788 52.8172735,334.636527 C52.6464969,335.082166 52.2091421,335.36954 51.7509609,335.36954 C51.6135066,335.36954 51.4760522,335.336222 51.3385979,335.286243 L51.3385979,335.286243 Z M975.985735,336.423248 L975.985735,336.423248 C975.756645,335.840169 976.05238,335.173792 976.639685,334.944726 C977.235321,334.711494 977.897601,335.015528 978.118361,335.598607 C978.347451,336.194181 978.060047,336.860557 977.464411,337.089624 C977.326957,337.131272 977.189502,337.156262 977.052048,337.156262 C976.593867,337.156262 976.156512,336.881381 975.985735,336.423248 L975.985735,336.423248 Z M47.3149339,346.052383 C46.7192984,345.831646 46.4110674,345.181929 46.6276621,344.586356 C46.8442569,343.990782 47.4982064,343.690913 48.093842,343.89499 C48.6936428,344.115728 49.0018738,344.777939 48.7811137,345.377677 L48.7811137,345.365183 C48.6103371,345.831646 48.1729823,346.123186 47.7064706,346.123186 C47.5773468,346.123186 47.4440577,346.098197 47.3149339,346.052383 L47.3149339,346.052383 Z M979.963581,347.143574 L979.963581,347.143574 C979.746987,346.543836 980.055218,345.894119 980.650853,345.673382 C981.246489,345.465139 981.912934,345.777503 982.121198,346.373077 C982.337793,346.972815 982.025397,347.622532 981.429761,347.843269 C981.304803,347.884918 981.167348,347.909907 981.04239,347.909907 C980.571713,347.909907 980.134358,347.610038 979.963581,347.143574 L979.963581,347.143574 Z M43.5453523,356.91848 C42.9497167,356.726896 42.6248246,356.06885 42.8205929,355.477441 C43.0288571,354.869373 43.6828066,354.548679 44.2784422,354.752757 C44.8740777,354.948505 45.1948046,355.602387 44.9990363,356.19796 C44.8407555,356.681083 44.3909049,356.989282 43.9118972,356.989282 C43.7827734,356.989282 43.6703108,356.964293 43.5453523,356.91848 L43.5453523,356.91848 Z M983.699841,357.951363 L983.69151,357.951363 C983.495742,357.355789 983.828964,356.706072 984.4246,356.510324 C985.020236,356.302082 985.674185,356.63527 985.869953,357.230843 C986.074052,357.826417 985.74083,358.476134 985.145194,358.671882 C985.020236,358.72186 984.907773,358.742684 984.778649,358.742684 C984.299642,358.742684 983.849791,358.434485 983.699841,357.951363 L983.699841,357.951363 Z M40.0340182,367.880367 C39.4258868,367.684619 39.0926641,367.043232 39.2801019,366.447659 C39.4633744,365.83959 40.104828,365.493908 40.7129594,365.689656 C41.3210908,365.872909 41.6543135,366.514296 41.4710411,367.126529 C41.3210908,367.617982 40.8629097,367.926181 40.3672409,367.926181 C40.2672741,367.926181 40.1506462,367.913686 40.0340182,367.880367 L40.0340182,367.880367 Z M987.177852,368.842448 C986.990415,368.246874 987.323637,367.605487 987.931769,367.422234 C988.5399,367.226486 989.181354,367.572168 989.364626,368.180237 C989.547899,368.78414 989.214676,369.413033 988.606545,369.608781 C988.494082,369.646264 988.377454,369.658759 988.264991,369.658759 C987.781819,369.658759 987.323637,369.338065 987.177852,368.842448 L987.177852,368.842448 Z M36.7934276,378.875574 C36.1852962,378.70065 35.8270818,378.063428 36.0020237,377.451195 C36.1728003,376.847292 36.8017582,376.489114 37.4223854,376.676533 C38.0263515,376.847292 38.3720701,377.476184 38.2012934,378.080087 C38.0638391,378.588199 37.6056579,378.921387 37.1016586,378.921387 C36.9975265,378.921387 36.8933944,378.896398 36.7934276,378.875574 L36.7934276,378.875574 Z M990.397617,379.81683 C990.222675,379.208762 990.580889,378.575705 991.189021,378.404946 C991.792987,378.234187 992.438606,378.588199 992.609382,379.196268 L992.596886,379.196268 C992.767663,379.804336 992.413614,380.433228 991.805483,380.616482 C991.70135,380.641471 991.601384,380.653965 991.497252,380.653965 C990.993252,380.653965 990.535071,380.333272 990.397617,379.81683 L990.397617,379.81683 Z M33.7985887,389.937418 C33.1904573,389.774989 32.8114165,389.158591 32.9738625,388.538028 C33.1321433,387.92996 33.7652664,387.563453 34.3733978,387.725882 C34.9898598,387.871652 35.3564048,388.500545 35.198124,389.112778 C35.0606696,389.641714 34.6024884,389.970737 34.0859933,389.970737 C33.994357,389.970737 33.8902249,389.958243 33.7985887,389.937418 L33.7985887,389.937418 Z M993.367464,390.86618 C993.205018,390.245617 993.571563,389.629219 994.19219,389.46679 C994.800321,389.308526 995.429279,389.687527 995.591725,390.291431 C995.73751,390.899499 995.370965,391.532556 994.754503,391.690821 C994.662867,391.71581 994.571231,391.724139 994.467099,391.724139 C993.963099,391.724139 993.492422,391.382622 993.367464,390.86618 L993.367464,390.86618 Z M31.0703279,401.070065 C30.4497007,400.92013 30.0706599,400.312062 30.2206101,399.691499 C30.3580645,399.075101 30.9786917,398.6961 31.599319,398.846035 C32.2074504,398.983475 32.5948217,399.599873 32.4448715,400.220435 C32.319913,400.749372 31.849236,401.103384 31.3327408,401.103384 C31.2411046,401.103384 31.1494683,401.090889 31.0703279,401.070065 L31.0703279,401.070065 Z M996.070733,401.973838 C995.924948,401.353275 996.312319,400.736877 996.932947,400.599437 C997.549409,400.449502 998.15754,400.836833 998.30749,401.457396 C998.444945,402.065464 998.065904,402.686027 997.449442,402.835962 C997.35364,402.848456 997.2745,402.856786 997.182864,402.856786 C996.666368,402.856786 996.199857,402.502774 996.070733,401.973838 L996.070733,401.973838 Z M28.5919842,412.26102 C27.9755222,412.131909 27.5839856,411.523841 27.7089441,410.903278 C27.8463985,410.28688 28.4545299,409.88289 29.0751571,410.02033 C29.6916191,410.14944 30.0831557,410.753344 29.9581972,411.378071 C29.8415693,411.915337 29.3625617,412.290174 28.8335707,412.290174 C28.7544303,412.290174 28.6711246,412.277679 28.5919842,412.26102 L28.5919842,412.26102 Z M998.52825,413.139803 C998.386631,412.51924 998.790663,411.915337 999.407125,411.786227 C1000.02775,411.661281 1000.63588,412.052777 1000.76084,412.669175 C1000.88997,413.289738 1000.49843,413.897806 999.877802,414.031081 C999.798662,414.043576 999.719521,414.05607 999.648712,414.05607 C999.11139,414.05607 998.640713,413.677069 998.52825,413.139803 L998.52825,413.139803 Z M26.3927145,423.506117 C25.7595914,423.389502 25.3513936,422.793928 25.4763521,422.173365 C25.5888148,421.544473 26.1844503,421.140482 26.8050776,421.257098 C27.4340354,421.369549 27.8380679,421.969287 27.7214399,422.59818 C27.6173079,423.14794 27.1383002,423.526942 26.5968134,423.526942 C26.5301688,423.526942 26.459359,423.526942 26.3927145,423.506117 L26.3927145,423.506117 Z M1000.71502,424.364077 C1000.60256,423.743514 1001.00243,423.135446 1001.63139,423.022995 C1002.25201,422.918873 1002.84765,423.331194 1002.96428,423.951756 C1003.07674,424.572319 1002.66438,425.163728 1002.04375,425.280344 C1001.97711,425.288674 1001.91046,425.301168 1001.83965,425.301168 C1001.30233,425.301168 1000.80666,424.913837 1000.71502,424.364077 L1000.71502,424.364077 Z M24.4433618,434.809523 C23.8102387,434.701237 23.389545,434.109828 23.4895118,433.489265 C23.5936439,432.872867 24.1809489,432.443888 24.8099067,432.539679 C25.430534,432.639636 25.8553929,433.239374 25.7595914,433.855772 C25.6596246,434.418027 25.1764517,434.822018 24.6266342,434.822018 C24.5683203,434.822018 24.4975105,434.822018 24.4433618,434.809523 L24.4433618,434.809523 Z M1002.63939,435.634164 L1002.63939,435.634164 C1002.53942,435.001106 1002.96428,434.418027 1003.59324,434.322235 C1004.21386,434.222279 1004.8095,434.647094 1004.90113,435.275986 C1005.0011,435.892384 1004.58041,436.479628 1003.94728,436.58375 C1003.89314,436.596244 1003.83482,436.596244 1003.76401,436.596244 C1003.21419,436.596244 1002.72269,436.196418 1002.63939,435.634164 L1002.63939,435.634164 Z M22.7564219,446.142083 C22.1274641,446.054621 21.6901093,445.467377 21.7817456,444.850979 C21.8650512,444.217921 22.4356951,443.784777 23.0688182,443.872239 C23.697776,443.955536 24.1351308,444.54278 24.0518251,445.159178 C23.9726847,445.733927 23.4811813,446.154577 22.918868,446.154577 C22.860554,446.154577 22.80224,446.142083 22.7564219,446.142083 L22.7564219,446.142083 Z M1004.3055,446.950064 L1004.3055,446.950064 C1004.22219,446.317006 1004.65955,445.746422 1005.28851,445.65063 C1005.90913,445.575663 1006.49644,446.008807 1006.57558,446.6377 C1006.66721,447.270757 1006.21736,447.841342 1005.6009,447.932969 L1005.43846,447.932969 C1004.88031,447.932969 1004.38464,447.520648 1004.3055,446.950064 L1004.3055,446.950064 Z M21.3360602,457.520456 C20.7029371,457.437159 20.2447559,456.874904 20.3280616,456.246011 C20.3947061,455.617119 20.9695153,455.167315 21.5984731,455.238117 C22.2191003,455.304755 22.6772815,455.875339 22.5981411,456.508397 C22.5273313,457.091476 22.0358279,457.520456 21.4610187,457.520456 L21.3360602,457.520456 Z M1005.71336,458.295118 L1005.71336,458.295118 C1005.64672,457.666225 1006.09241,457.091476 1006.72136,457.024838 C1007.35449,456.954036 1007.9168,457.412169 1007.98344,458.045227 C1008.06675,458.661625 1007.6044,459.236374 1006.97545,459.303012 C1006.92963,459.315506 1006.8963,459.315506 1006.85049,459.315506 C1006.27568,459.315506 1005.77168,458.882362 1005.71336,458.295118 L1005.71336,458.295118 Z M20.1656155,468.911323 C19.5366577,468.853015 19.0784765,468.30742 19.1326252,467.674362 C19.1909392,467.04547 19.7532524,466.574842 20.3863756,466.628985 C21.0153334,466.687293 21.4735146,467.249547 21.4152006,467.882605 C21.3568866,468.478179 20.8653832,468.923818 20.2822435,468.923818 C20.2822435,468.923818 20.2114336,468.923818 20.1656155,468.911323 L20.1656155,468.911323 Z M1006.85049,469.669326 C1006.79217,469.036269 1007.26285,468.478179 1007.89181,468.432365 C1008.52493,468.374057 1009.08308,468.832191 1009.14139,469.473578 L1009.13306,469.473578 C1009.18721,470.089976 1008.72903,470.656396 1008.10007,470.714704 L1007.99594,470.714704 C1007.4003,470.714704 1006.90464,470.2649 1006.85049,469.669326 L1006.85049,469.669326 Z M19.2742448,480.339674 C18.6411217,480.293861 18.1704447,479.76076 18.2079322,479.115208 C18.2495851,478.486315 18.8035678,478.015687 19.4325256,478.057336 C20.0614834,478.094819 20.5446563,478.64458 20.4988382,479.273472 C20.4530201,479.885705 19.9490208,480.339674 19.3533852,480.339674 L19.2742448,480.339674 Z M1007.73353,481.076853 C1007.68771,480.44796 1008.17088,479.8982 1008.79984,479.848222 C1009.44129,479.814903 1009.97861,480.285531 1010.02443,480.926918 C1010.05776,481.555811 1009.58708,482.097241 1008.95812,482.143055 L1008.89981,482.143055 L1008.87898,482.143055 C1008.28334,482.143055 1007.77935,481.672427 1007.73353,481.076853 L1007.73353,481.076853 Z M18.6411217,491.78052 C18.0121639,491.759696 17.5164952,491.22243 17.5414869,490.589373 C17.5748091,489.96048 18.1121307,489.469028 18.7452538,489.489852 C19.3742116,489.523171 19.8698804,490.064601 19.8323928,490.697659 C19.8115664,491.314057 19.2950713,491.78052 18.6869399,491.78052 L18.6411217,491.78052 Z M1008.34999,492.492709 C1008.32916,491.863817 1008.82067,491.326551 1009.45379,491.301562 C1010.08275,491.268243 1010.62007,491.759696 1010.64506,492.392753 C1010.66589,493.021645 1010.17438,493.558911 1009.54543,493.5839 L1009.49544,493.5839 C1008.89148,493.5839 1008.37498,493.104943 1008.34999,492.492709 L1008.34999,492.492709 Z M18.2620809,503.246355 C17.6331231,503.221366 17.1291238,502.704924 17.1374544,502.067702 C17.1624461,501.438809 17.6789412,500.934862 18.3203949,500.951522 C18.9493527,500.964016 19.453352,501.492952 19.4325256,502.12601 C19.4200298,502.742408 18.9160304,503.246355 18.2870726,503.246355 L18.2620809,503.246355 Z M1008.7082,503.900236 C1008.69571,503.258849 1009.19971,502.742408 1009.83283,502.729913 C1010.47428,502.704924 1010.98661,503.208871 1010.99911,503.854423 C1011.0241,504.483315 1010.5201,505.012252 1009.87448,505.024746 L1009.86615,505.024746 C1009.23303,505.024746 1008.71653,504.520799 1008.7082,503.900236 L1008.7082,503.900236 Z M17,513.554361 C17,512.921304 17.5164952,512.404862 18.1496183,512.404862 C18.7785761,512.404862 19.2950713,512.921304 19.2950713,513.554361 C19.2950713,514.195748 18.7785761,514.699695 18.1496183,514.699695 C17.5164952,514.699695 17,514.183253 17,513.554361 L17,513.554361 Z M17.1291238,525.04102 C17.1041321,524.407963 17.6081314,523.879027 18.2495851,523.870697 C18.8827082,523.858202 19.3992033,524.366314 19.4200298,524.995207 C19.4325256,525.624099 18.9285263,526.14887 18.2995685,526.161365 L18.2745768,526.161365 C17.6414537,526.161365 17.1374544,525.669913 17.1291238,525.04102 L17.1291238,525.04102 Z M17.5039993,536.506855 C17.470677,535.861303 17.9663458,535.332367 18.5953036,535.303213 C19.2242614,535.278224 19.7657483,535.761346 19.7990706,536.402734 C19.819897,537.031626 19.3283935,537.568892 18.6994357,537.593881 L18.6536176,537.593881 C18.0329903,537.593881 17.528991,537.110758 17.5039993,536.506855 L17.5039993,536.506855 Z M18.1496183,547.968525 C18.1038001,547.335467 18.5828078,546.785707 19.2159309,546.756553 C19.8448887,546.706575 20.3947061,547.177203 20.4280284,547.81859 C20.4780118,548.451648 19.9948389,548.988913 19.3617158,549.034727 L19.2825754,549.034727 C18.6869399,549.034727 18.1829405,548.576593 18.1496183,547.968525 L18.1496183,547.968525 Z M19.0534848,559.421865 C18.9951708,558.788808 19.453352,558.226553 20.0864751,558.17241 C20.715433,558.114102 21.2777462,558.580565 21.3360602,559.217787 C21.3943742,559.84668 20.9236971,560.408935 20.2947393,560.463078 L20.1906072,560.463078 C19.6033022,560.463078 19.1117988,560.017439 19.0534848,559.421865 L19.0534848,559.421865 Z M20.2239295,570.850216 C20.1447891,570.217159 20.6029703,569.650739 21.2319281,569.579937 C21.8650512,569.509134 22.4231992,569.958938 22.494009,570.587831 C22.5731494,571.220888 22.1149682,571.787308 21.4860104,571.85811 L21.3568866,571.85811 C20.7862428,571.85811 20.2822435,571.433295 20.2239295,570.850216 L20.2239295,570.850216 Z M21.6442912,582.245249 C21.5651508,581.616356 22.0025056,581.041607 22.6314634,580.94998 C23.2604212,580.870848 23.8352304,581.303992 23.9268666,581.93705 C24.006007,582.565942 23.5728175,583.140692 22.9396944,583.219824 C22.8938763,583.228153 22.8355623,583.228153 22.7939095,583.228153 C22.2191003,583.228153 21.7234316,582.819998 21.6442912,582.245249 L21.6442912,582.245249 Z M23.3437269,593.606962 C23.2520907,592.973905 23.6769496,592.39499 24.2934116,592.286704 C24.9223694,592.199242 25.5096744,592.619892 25.6096412,593.240455 C25.7137733,593.869348 25.2805838,594.456592 24.6599565,594.556548 C24.6016425,594.569043 24.534998,594.569043 24.476684,594.569043 C23.9268666,594.569043 23.4353631,594.165052 23.3437269,593.606962 L23.3437269,593.606962 Z M25.3014102,604.931192 C25.1889475,604.302299 25.6013106,603.706726 26.2177726,603.59011 C26.8508957,603.477659 27.4340354,603.889979 27.5589939,604.510542 C27.6756218,605.139435 27.2632588,605.735008 26.6467968,605.851624 C26.5634911,605.864119 26.4926813,605.864119 26.4260368,605.864119 C25.8845499,605.864119 25.4055423,605.480952 25.3014102,604.931192 L25.3014102,604.931192 Z M27.5256716,616.201279 C27.3882173,615.584881 27.7880845,614.972648 28.4087117,614.839373 C29.029339,614.710262 29.6374704,615.114253 29.7624289,615.730651 L29.7749248,615.730651 C29.8998833,616.347049 29.500016,616.959282 28.8793888,617.084227 C28.8002484,617.109216 28.721108,617.109216 28.6419676,617.109216 C28.1129766,617.109216 27.6298037,616.738545 27.5256716,616.201279 L27.5256716,616.201279 Z M30.0040154,627.413058 C29.866561,626.792495 30.2456018,626.188591 30.8620638,626.038657 C31.4701952,625.888722 32.0908224,626.276053 32.2366074,626.900781 C32.378227,627.504684 31.9991862,628.125247 31.3785589,628.275182 C31.2994185,628.296006 31.2077823,628.296006 31.1286419,628.296006 C30.5996509,628.296006 30.1289739,627.941994 30.0040154,627.413058 L30.0040154,627.413058 Z M32.7406067,638.566529 C32.5823259,637.962625 32.9488708,637.333733 33.5694981,637.179633 C34.1776295,637.021369 34.8065873,637.387876 34.9690334,637.995944 C35.1273142,638.612342 34.7482734,639.232905 34.1401419,639.395334 C34.0485057,639.420323 33.9485389,639.424488 33.8569027,639.424488 C33.3404075,639.424488 32.8822263,639.08297 32.7406067,638.566529 L32.7406067,638.566529 Z M35.7479414,649.661692 C35.5771648,649.045294 35.9312139,648.416401 36.5393453,648.245642 C37.1474767,648.074884 37.7764345,648.428896 37.9472111,649.032799 C38.1179878,649.645032 37.7639387,650.286419 37.1558073,650.457178 C37.0558405,650.482167 36.9517084,650.490497 36.8475763,650.490497 C36.343577,650.490497 35.8853958,650.169804 35.7479414,649.661692 L35.7479414,649.661692 Z M39.0010279,660.669393 C38.8177554,660.073819 39.1509781,659.432432 39.7591095,659.249179 C40.3672409,659.053431 41.0086946,659.394949 41.1919671,660.007182 C41.3794048,660.59859 41.0461821,661.244142 40.4380507,661.43989 C40.3214228,661.473209 40.2047948,661.481539 40.104828,661.481539 C39.6091593,661.481539 39.1509781,661.160845 39.0010279,660.669393 L39.0010279,660.669393 Z M42.5248578,671.618786 C42.3165936,671.010718 42.6373205,670.369331 43.2454519,670.161088 C43.8410874,669.96534 44.4950369,670.290199 44.6908053,670.885772 C44.8949042,671.481346 44.5616815,672.135228 43.9660459,672.34347 C43.8535833,672.376789 43.7286248,672.397613 43.599501,672.397613 C43.1329892,672.397613 42.6831386,672.097744 42.5248578,671.618786 L42.5248578,671.618786 Z M46.2819436,682.459893 L46.2819436,682.459893 C46.0778447,681.868485 46.3860757,681.214603 46.9692154,680.998031 C47.5690162,680.789788 48.2354616,681.085493 48.4395605,681.685231 C48.6561552,682.280805 48.3479243,682.947181 47.7522887,683.159588 C47.6273302,683.209567 47.4982064,683.222061 47.360752,683.222061 C46.890075,683.222061 46.4568855,682.934686 46.2819436,682.459893 L46.2819436,682.459893 Z M50.3097728,693.226033 C50.0806822,692.642954 50.3639215,691.980743 50.9595571,691.751676 C51.546862,691.518444 52.2091421,691.809984 52.4382327,692.401393 C52.6714886,692.988637 52.384084,693.655013 51.7884485,693.88408 C51.6468289,693.938223 51.5135398,693.963212 51.3760854,693.963212 C50.9137389,693.963212 50.4805495,693.688332 50.3097728,693.226033 L50.3097728,693.226033 Z M54.5750232,703.888052 C54.3334368,703.304973 54.6083455,702.638597 55.1914852,702.4012 C55.7787902,702.159639 56.4535661,702.434519 56.6951526,703.017598 C56.936739,703.604842 56.6618303,704.267053 56.0745253,704.521109 C55.9245751,704.579417 55.7787902,704.600241 55.6371705,704.600241 C55.1831546,704.600241 54.7582957,704.333691 54.5750232,703.888052 L54.5750232,703.888052 Z M59.0776948,714.425125 C58.8152819,713.842046 59.0776948,713.16734 59.6649998,712.913284 C60.2356436,712.650898 60.9145848,712.913284 61.1769977,713.500528 C61.43108,714.066948 61.1645018,714.745818 60.5896927,715.012369 C60.4314119,715.079006 60.2814617,715.099831 60.1231809,715.099831 C59.6858262,715.099831 59.2651325,714.84994 59.0776948,714.425125 L59.0776948,714.425125 Z M63.8136222,724.845582 C63.5512093,724.274997 63.7927958,723.587797 64.3634396,723.321247 C64.9382488,723.046366 65.6255206,723.296258 65.9004293,723.871007 C66.1628421,724.445756 65.9129251,725.124627 65.338116,725.395342 C65.1881658,725.466145 65.0173892,725.499464 64.8591084,725.499464 C64.4217536,725.499464 64.0093905,725.257902 63.8136222,724.845582 L63.8136222,724.845582 Z M68.8036319,735.166083 C68.5162274,734.591333 68.7536485,733.904133 69.3201271,733.616758 C69.8782751,733.341878 70.5780427,733.570945 70.8529515,734.1332 C71.140356,734.703784 70.9112654,735.390985 70.3364563,735.67003 C70.1781755,735.757492 70.0032336,735.794975 69.832457,735.794975 C69.4075981,735.794975 69.0077308,735.561744 68.8036319,735.166083 L68.8036319,735.166083 Z M74.0310628,745.357473 L74.0310628,745.357473 C73.7311624,744.791054 73.9477572,744.091359 74.5100704,743.808149 C75.0640532,743.512444 75.7596555,743.724852 76.0595559,744.287107 C76.3594564,744.849361 76.1386963,745.536562 75.576383,745.836431 C75.4056064,745.928058 75.2223339,745.965542 75.0390615,745.965542 C74.6266984,745.965542 74.2351617,745.744804 74.0310628,745.357473 L74.0310628,745.357473 Z M79.4875843,755.432248 C79.1751881,754.869993 79.3709564,754.182793 79.9332697,753.874594 C80.4830871,753.566395 81.1828548,753.757978 81.495251,754.320233 C81.803482,754.869993 81.5952178,755.569688 81.0454004,755.877887 C80.8746238,755.973678 80.6788554,756.019492 80.4830871,756.019492 C80.0832199,756.019492 79.6916832,755.811249 79.4875843,755.432248 L79.4875843,755.432248 Z M85.1731964,765.386242 C84.8649654,764.832317 85.0357421,764.132622 85.5855595,763.811928 C86.1353769,763.495399 86.8351446,763.674488 87.1558714,764.211754 C87.4807635,764.761514 87.2974911,765.461209 86.7435083,765.781903 C86.5602359,765.902683 86.3644675,765.944332 86.1728645,765.944332 C85.768832,765.944332 85.3939565,765.740254 85.1731964,765.386242 L85.1731964,765.386242 Z M91.100395,775.194466 C90.7713376,774.6572 90.9296183,773.945011 91.4711052,773.611822 C92.0042615,773.282799 92.716525,773.453558 93.0497477,773.990824 C93.3829704,774.532255 93.2121937,775.244444 92.6832027,775.573467 C92.4874344,775.690083 92.2833355,775.735896 92.0750713,775.735896 C91.6960305,775.735896 91.3169897,775.552643 91.100395,775.194466 L91.100395,775.194466 Z M97.2483535,784.881909 L97.2483535,784.869415 C96.902635,784.344644 97.0525852,783.632454 97.5774109,783.286771 C98.1188978,782.945254 98.8186654,783.095188 99.1727146,783.624124 C99.5184331,784.157225 99.3684829,784.85692 98.8311613,785.215097 C98.6437235,785.344208 98.4271288,785.398351 98.210534,785.398351 C97.8314932,785.398351 97.4649483,785.215097 97.2483535,784.881909 L97.2483535,784.881909 Z M103.621237,794.419418 L103.621237,794.406924 C103.254692,793.894647 103.392147,793.182457 103.916973,792.820115 C104.433468,792.461938 105.145731,792.599378 105.512276,793.128314 C105.870491,793.640591 105.728871,794.35278 105.212376,794.710958 C105.008277,794.848398 104.791682,794.910871 104.562592,794.910871 C104.196047,794.910871 103.837832,794.740112 103.621237,794.419418 L103.621237,794.419418 Z M110.214881,803.811157 L110.202385,803.811157 C109.835841,803.294716 109.952468,802.570032 110.464798,802.203525 C110.981294,801.841183 111.701888,801.953634 112.072598,802.470075 C112.439143,802.986517 112.322515,803.694541 111.80602,804.065213 C111.601921,804.210983 111.37283,804.281785 111.14374,804.281785 C110.785525,804.281785 110.431476,804.119356 110.214881,803.811157 L110.214881,803.811157 Z M117.012624,813.040467 L117.012624,813.048797 C116.633583,812.53652 116.737715,811.82433 117.229219,811.432834 C117.745714,811.053833 118.457978,811.157954 118.845349,811.661901 C119.22439,812.165848 119.124423,812.890532 118.620424,813.269534 C118.412159,813.431963 118.170573,813.494436 117.928987,813.494436 C117.587433,813.494436 117.241715,813.348666 117.012624,813.040467 L117.012624,813.040467 Z M124.026962,822.132337 C123.63959,821.62839 123.718731,820.903706 124.214399,820.51221 C124.718399,820.120714 125.426497,820.204011 125.830529,820.707958 L125.830529,820.695463 C126.217901,821.19941 126.13876,821.924094 125.634761,822.31559 C125.426497,822.473854 125.17658,822.565481 124.922498,822.565481 C124.59344,822.552987 124.260218,822.403052 124.026962,822.132337 L124.026962,822.132337 Z M131.253729,831.049283 C130.853861,830.55783 130.920506,829.833146 131.399514,829.43332 C131.895182,829.021 132.615776,829.091803 133.019809,829.583255 C133.419676,830.062213 133.361362,830.786897 132.869859,831.195052 C132.653264,831.369976 132.399182,831.461603 132.136769,831.461603 C131.803546,831.461603 131.482819,831.315833 131.253729,831.049283 L131.253729,831.049283 Z M138.684595,839.79547 C138.268066,839.316512 138.313884,838.591828 138.797057,838.179508 C139.28023,837.767187 140.000824,837.813001 140.413187,838.296123 C140.82555,838.775081 140.779732,839.499765 140.300725,839.912086 C140.079965,840.095339 139.817552,840.186966 139.550974,840.186966 C139.230247,840.186966 138.90952,840.057855 138.684595,839.79547 L138.684595,839.79547 Z M146.319559,848.379228 C145.890535,847.912764 145.915527,847.175586 146.386204,846.754936 C146.856881,846.330121 147.577475,846.36344 148.01483,846.834068 C148.439689,847.304696 148.402201,848.025215 147.935689,848.45003 C147.714929,848.658273 147.440021,848.749899 147.165112,848.749899 C146.856881,848.749899 146.536154,848.624954 146.319559,848.379228 L146.319559,848.379228 Z M154.137797,856.783897 C153.700442,856.329928 153.725434,855.59275 154.183615,855.15544 C154.641796,854.722296 155.36239,854.747285 155.799745,855.205418 C156.232934,855.659387 156.224604,856.384071 155.766423,856.821381 C155.537332,857.029623 155.249927,857.142074 154.975019,857.142074 C154.662622,857.142074 154.366887,857.017129 154.137797,856.783897 L154.137797,856.783897 Z M162.164298,865.005313 C161.714448,864.559674 161.714448,863.83499 162.164298,863.376856 C162.609984,862.931217 163.330578,862.939547 163.780428,863.389351 C164.226114,863.83499 164.226114,864.559674 163.780428,865.005313 C163.559668,865.23438 163.263933,865.338501 162.964033,865.338501 C162.676628,865.338501 162.380893,865.23438 162.164298,865.005313 L162.164298,865.005313 Z M170.361576,873.03931 C169.903395,872.606166 169.890899,871.885647 170.324089,871.427513 C170.761444,870.965215 171.494533,870.95272 171.952715,871.390029 C172.415061,871.827339 172.423392,872.547858 171.990202,873.005992 C171.756946,873.247553 171.461211,873.360004 171.161311,873.360004 C170.878071,873.360004 170.590667,873.260048 170.361576,873.03931 L170.361576,873.03931 Z M178.754623,880.894219 C178.292276,880.469405 178.258954,879.736391 178.683813,879.278257 C179.108672,878.807629 179.829266,878.77431 180.299943,879.199125 C180.77062,879.63227 180.803942,880.356954 180.379083,880.810922 C180.154158,881.064978 179.841762,881.189924 179.533531,881.189924 C179.258622,881.189924 178.971217,881.089967 178.754623,880.894219 L178.754623,880.894219 Z M187.326776,888.55338 C186.847769,888.128566 186.801951,887.403882 187.214314,886.937418 C187.626677,886.454296 188.359767,886.408482 188.830444,886.820802 C189.313617,887.233123 189.359435,887.966136 188.947072,888.44093 C188.717981,888.69915 188.397254,888.828261 188.072362,888.828261 C187.809949,888.828261 187.547536,888.736634 187.326776,888.55338 L187.326776,888.55338 Z M196.065541,896.004299 C195.582368,895.600308 195.515724,894.879789 195.928087,894.388337 C196.327954,893.905214 197.052714,893.834412 197.544217,894.250897 C198.02739,894.650722 198.094034,895.375406 197.681671,895.854364 C197.452581,896.129244 197.131854,896.266685 196.798631,896.266685 C196.548714,896.266685 196.282136,896.187552 196.065541,896.004299 L196.065541,896.004299 Z M204.983413,903.259469 C204.49191,902.867973 204.41277,902.151619 204.804306,901.656002 C205.191678,901.152055 205.912272,901.072923 206.416271,901.468583 C206.91194,901.860079 206.99108,902.584764 206.591213,903.076216 C206.370453,903.363591 206.041395,903.513525 205.695677,903.513525 C205.441595,903.513525 205.191678,903.430228 204.983413,903.259469 L204.983413,903.259469 Z M214.067897,910.310562 C213.559732,909.935726 213.472261,909.211041 213.847137,908.707094 C214.226178,908.203148 214.950937,908.099026 215.454936,908.486357 C215.958936,908.865359 216.058902,909.590043 215.671531,910.09399 C215.442441,910.389694 215.109218,910.539629 214.755169,910.539629 C214.513582,910.539629 214.271996,910.472991 214.067897,910.310562 L214.067897,910.310562 Z M223.306496,917.153412 C222.802497,916.774411 222.677538,916.066386 223.052414,915.549945 C223.423124,915.033503 224.143718,914.921052 224.647717,915.300054 C225.164212,915.666561 225.28084,916.38708 224.914295,916.895192 C224.68104,917.203391 224.339486,917.374149 223.985437,917.374149 C223.743851,917.374149 223.51476,917.303347 223.306496,917.153412 L223.306496,917.153412 Z M232.707541,923.783855 L232.707541,923.783855 C232.191046,923.413183 232.053591,922.705159 232.407641,922.188717 C232.778351,921.659781 233.486449,921.534836 234.01544,921.888848 C234.531935,922.247025 234.66939,922.959215 234.302845,923.483986 C234.082085,923.804679 233.728035,923.975438 233.361491,923.975438 C233.1324,923.975438 232.915805,923.91713 232.707541,923.783855 L232.707541,923.783855 Z M242.258536,930.189396 C241.729545,929.835384 241.58376,929.123194 241.925314,928.594258 C242.283528,928.069487 242.991626,927.919552 243.520617,928.265235 C244.045443,928.606753 244.195393,929.318942 243.85384,929.856208 C243.63308,930.189396 243.266535,930.372649 242.891659,930.372649 C242.670899,930.372649 242.454305,930.314342 242.258536,930.189396 L242.258536,930.189396 Z M251.959482,936.36587 C251.417995,936.036847 251.259714,935.324657 251.588771,934.795721 C251.926159,934.258455 252.634258,934.087697 253.171579,934.420885 C253.713066,934.766567 253.871347,935.466262 253.538124,935.999363 C253.321529,936.35754 252.942489,936.540794 252.563448,936.540794 C252.359349,936.540794 252.15525,936.49498 251.959482,936.36587 L251.959482,936.36587 Z M261.806212,942.329937 C261.256395,942.009243 261.073122,941.309548 261.393849,940.772282 C261.714576,940.218357 262.426839,940.035104 262.964161,940.355797 C263.513978,940.680656 263.697251,941.376186 263.376524,941.925946 C263.159929,942.296618 262.772558,942.492366 262.381021,942.492366 C262.185253,942.492366 261.989485,942.442388 261.806212,942.329937 L261.806212,942.329937 Z M271.782066,948.073266 C271.232249,947.765067 271.036481,947.065372 271.344712,946.515612 C271.657108,945.953357 272.35271,945.757609 272.906693,946.065808 C273.45651,946.378172 273.648113,947.077867 273.339882,947.623462 C273.135783,948.002464 272.744247,948.210706 272.34438,948.210706 C272.148611,948.210706 271.965339,948.164893 271.782066,948.073266 L271.782066,948.073266 Z M281.89121,953.56254 C281.333062,953.27933 281.124797,952.579635 281.412202,952.01738 C281.712102,951.455125 282.407705,951.251047 282.970018,951.546752 C283.519835,951.842456 283.740595,952.533822 283.440695,953.096076 C283.236596,953.487572 282.845059,953.69998 282.432696,953.69998 C282.249424,953.69998 282.066151,953.658331 281.89121,953.56254 L281.89121,953.56254 Z M292.133642,958.839406 C291.571329,958.552031 291.342238,957.860666 291.617147,957.302576 C291.904551,956.727827 292.591823,956.49876 293.149971,956.786134 C293.72478,957.061015 293.953871,957.76071 293.666466,958.322965 C293.474863,958.726955 293.058335,958.951857 292.645972,958.951857 C292.475195,958.951857 292.291923,958.914373 292.133642,958.839406 L292.133642,958.839406 Z M302.496867,963.858051 C301.922058,963.595666 301.672141,962.904301 301.94705,962.333716 C302.209463,961.763131 302.896735,961.517405 303.471544,961.79645 L303.471544,961.783956 C304.042188,962.058836 304.283774,962.746036 304.021361,963.320786 C303.825593,963.733106 303.41323,963.974667 302.975875,963.974667 C302.817594,963.974667 302.646818,963.937184 302.496867,963.858051 L302.496867,963.858051 Z M312.964225,968.651795 C312.393581,968.389409 312.127003,967.714704 312.381085,967.139954 C312.643498,966.55271 313.318274,966.302819 313.893083,966.55271 C314.480388,966.806766 314.742801,967.481472 314.480388,968.068716 C314.292951,968.489366 313.872257,968.755916 313.434902,968.755916 C313.272456,968.755916 313.122506,968.718433 312.964225,968.651795 L312.964225,968.651795 Z M323.556541,973.191483 L323.556541,973.191483 C322.973402,972.954086 322.698493,972.271051 322.940079,971.687971 C323.1775,971.104892 323.856442,970.830012 324.439581,971.067409 C325.026886,971.313135 325.301795,971.987841 325.060209,972.575085 C324.876936,973.020724 324.439581,973.283109 323.993896,973.283109 C323.843946,973.283109 323.693996,973.249791 323.556541,973.191483 L323.556541,973.191483 Z M334.257155,977.489609 L334.244659,977.489609 C333.661519,977.260542 333.374115,976.598331 333.590709,975.998592 C333.832296,975.415513 334.48208,975.115644 335.081881,975.348875 C335.665021,975.573777 335.964921,976.244318 335.73583,976.835727 C335.565054,977.285531 335.127699,977.560411 334.669518,977.560411 C334.532063,977.560411 334.394609,977.535422 334.257155,977.489609 L334.257155,977.489609 Z M345.045239,981.525349 C344.445438,981.317107 344.137207,980.654896 344.353802,980.071816 C344.574562,979.472078 345.224346,979.163879 345.824147,979.372121 C346.419783,979.588694 346.728014,980.250905 346.511419,980.850644 C346.340642,981.304612 345.903288,981.596152 345.432611,981.596152 C345.307652,981.596152 345.170198,981.583657 345.045239,981.525349 L345.045239,981.525349 Z M355.937456,985.319529 C355.329324,985.123781 355.008598,984.469899 355.212696,983.87849 C355.408465,983.266257 356.062414,982.945564 356.65805,983.153806 C357.266181,983.349554 357.586908,984.003436 357.378644,984.594845 C357.220363,985.082132 356.770513,985.390331 356.291505,985.390331 C356.174877,985.390331 356.049918,985.365342 355.937456,985.319529 L355.937456,985.319529 Z M366.908813,988.863817 C366.300681,988.680563 365.967459,988.039176 366.150731,987.426943 C366.334004,986.82304 366.979623,986.489852 367.583589,986.673105 C368.19172,986.856359 368.524943,987.497746 368.34167,988.105814 C368.19172,988.597266 367.733539,988.922125 367.254531,988.922125 C367.137903,988.922125 367.021275,988.897136 366.908813,988.863817 L366.908813,988.863817 Z M377.925988,992.12906 C377.317856,991.958301 376.963807,991.329409 377.134584,990.708846 C377.309526,990.100778 377.938484,989.75926 378.546615,989.930019 C379.154747,990.100778 379.521291,990.72967 379.333854,991.341903 C379.200565,991.84585 378.738218,992.174873 378.234219,992.174873 C378.130087,992.174873 378.03012,992.166544 377.925988,992.12906 L377.925988,992.12906 Z M389.013973,995.144412 C388.393346,994.986148 388.026801,994.353091 388.189247,993.749187 C388.347527,993.124459 388.976485,992.757953 389.584617,992.920382 C390.192748,993.082811 390.559293,993.711703 390.413508,994.315607 C390.271888,994.832048 389.805377,995.177731 389.297212,995.177731 C389.209741,995.177731 389.105609,995.169401 389.013973,995.144412 L389.013973,995.144412 Z M400.168602,997.897379 C399.547975,997.747444 399.173099,997.126881 399.306389,996.522978 C399.456339,995.902415 400.076966,995.515084 400.693428,995.660854 C401.301559,995.810788 401.693096,996.414692 401.543146,997.035255 C401.418187,997.564191 400.94751,997.918203 400.431015,997.918203 C400.339379,997.918203 400.260238,997.918203 400.168602,997.897379 L400.168602,997.897379 Z M411.381546,1000.38379 L411.381546,1000.38379 C410.760918,1000.25885 410.361051,999.650781 410.498506,999.030218 C410.623464,998.41382 411.231595,998.00983 411.852223,998.134775 C412.468685,998.27638 412.872717,998.880284 412.747759,999.505011 C412.631131,1000.03811 412.147958,1000.40462 411.623132,1000.40462 C411.543992,1000.40462 411.460686,1000.40462 411.381546,1000.38379 L411.381546,1000.38379 Z M422.652803,1002.62032 L422.652803,1002.62032 C422.032176,1002.5037 421.619813,1001.8998 421.736441,1001.27507 C421.848903,1000.65867 422.444539,1000.24635 423.077662,1000.36297 C423.694124,1000.47542 424.106487,1001.07932 423.994024,1001.70405 C423.889892,1002.25381 423.406719,1002.63281 422.869398,1002.63281 C422.790257,1002.63281 422.719448,1002.63281 422.652803,1002.62032 L422.652803,1002.62032 Z M433.978209,1004.59029 C433.349251,1004.49034 432.924392,1003.8906 433.028524,1003.2742 C433.120161,1002.64114 433.715796,1002.22049 434.336423,1002.32045 C434.965381,1002.42457 435.39024,1003.00765 435.286108,1003.64071 C435.194472,1004.1988 434.715464,1004.60279 434.161482,1004.60279 C434.094837,1004.60279 434.036523,1004.59029 433.978209,1004.59029 L433.978209,1004.59029 Z M445.341103,1006.28539 C444.712145,1006.20626 444.27479,1005.62318 444.35393,1004.99428 C444.445567,1004.36956 445.020376,1003.92808 445.653499,1004.01971 C446.282457,1004.11134 446.719812,1004.68609 446.628175,1005.31498 C446.54487,1005.88556 446.061697,1006.29788 445.491053,1006.29788 C445.445235,1006.29788 445.386921,1006.29788 445.341103,1006.28539 L445.341103,1006.28539 Z M456.737319,1007.73059 C456.108361,1007.66395 455.662675,1007.0892 455.72932,1006.45615 C455.795964,1005.82726 456.370774,1005.38162 456.999731,1005.44825 C457.620359,1005.53155 458.07854,1006.09381 458.011895,1006.7227 C457.941086,1007.30994 457.437086,1007.74309 456.862277,1007.74309 C456.816459,1007.74309 456.783137,1007.73059 456.737319,1007.73059 L456.737319,1007.73059 Z M468.171022,1008.91341 C467.525403,1008.8551 467.067222,1008.29285 467.125536,1007.66395 C467.18385,1007.0309 467.741998,1006.57693 468.375121,1006.63107 C469.004079,1006.68938 469.466425,1007.23914 469.408111,1007.86803 C469.349797,1008.46777 468.858294,1008.91341 468.262658,1008.91341 L468.171022,1008.91341 Z M479.613056,1009.82968 C478.979933,1009.78386 478.509256,1009.2341 478.546743,1008.60521 C478.588396,1007.97215 479.142379,1007.4932 479.771337,1007.53484 C480.40446,1007.58482 480.883468,1008.13458 480.837649,1008.76348 C480.791831,1009.37154 480.287832,1009.82968 479.692196,1009.82968 L479.613056,1009.82968 Z M491.088412,1010.48356 C490.446959,1010.44607 489.963786,1009.91297 489.988777,1009.27992 C490.0221,1008.65102 490.563587,1008.15957 491.192544,1008.18873 C491.821502,1008.21371 492.313006,1008.75098 492.279683,1009.38404 C492.258857,1010.00044 491.742362,1010.48356 491.13423,1010.48356 L491.088412,1010.48356 Z M502.563769,1010.87505 C501.934811,1010.86256 501.430811,1010.33362 501.439142,1009.70473 C501.464134,1009.05918 501.993125,1008.56773 502.622083,1008.58022 C503.25104,1008.59272 503.75504,1009.11749 503.734213,1009.74638 C503.721717,1010.37944 503.205222,1010.87505 502.58876,1010.87505 L502.563769,1010.87505 Z M512.906168,1009.85467 C512.906168,1009.22577 513.422663,1008.70517 514.051621,1008.70517 C514.684744,1008.70517 515.201239,1009.22577 515.201239,1009.85467 C515.201239,1010.48356 514.684744,1011 514.051621,1011 C513.422663,1011 512.906168,1010.48356 512.906168,1009.85467 L512.906168,1009.85467 Z" id="Fill-1"></path>
                <path d="M196.59403,915.400848 C240.825713,950.424699 290.099973,977.695497 343.044964,996.456641 C397.823242,1015.87046 455.341057,1025.71039 514.002079,1025.71039 L514.002079,1028.00097 C455.079159,1028.00097 397.303603,1018.11531 342.280055,998.614194 C289.093952,979.765749 239.603521,952.378552 195.172298,917.19673 L196.59403,915.400848 Z M1027.38325,514.638229 C1027.38325,583.803254 1013.83081,650.900676 987.095697,714.066334 C974.245393,744.420226 958.341428,773.702951 939.824194,801.096602 C921.48561,828.224538 900.417427,853.733266 877.217913,876.916981 C854.018399,900.100695 828.492286,921.15453 801.341708,939.480625 C773.933543,957.985248 744.635017,973.878382 714.256283,986.719934 C651.047579,1013.43269 583.904429,1026.98005 514.692269,1026.98005 L514.692269,1026.69773 C583.867038,1026.69773 650.972795,1013.15867 714.144108,986.454218 C744.506223,973.62097 773.788131,957.73614 801.183832,939.243972 C828.313636,920.926181 853.827285,899.888953 877.01849,876.717694 C900.20554,853.546435 921.257105,828.050161 939.58738,800.934682 C958.096304,773.557638 973.987805,744.295672 986.8298,713.950083 C1013.54829,650.821792 1027.09658,583.765887 1027.09658,514.638229 L1027.38325,514.638229 Z M13.4607319,620.834666 C25.4623171,677.342585 46.8589776,731.048595 77.0604035,780.464444 C106.675676,828.928309 143.90678,871.908915 187.718594,908.213164 L186.259448,909.971631 C142.252249,873.509411 104.854861,830.337577 75.1065604,781.657541 C44.7721069,732.025522 23.2798327,678.07424 11.220048,621.308579 L13.4607319,620.834666 Z M58.2577814,276.09188 L60.2864526,277.151949 C22.3444823,349.681461 2.29056926,431.581153 2.29056926,513.996329 C2.29056926,546.147601 5.29200484,578.323816 11.2117337,609.639505 L8.96273561,610.063532 C3.01806403,578.606501 0,546.288944 0,513.996329 C0,431.211168 20.1453696,348.945648 58.2577814,276.09188 Z M948.470271,239.226418 C1000.49654,321.325652 1028,416.336943 1028,513.996329 L1025.70943,513.996329 C1025.70943,416.773442 998.330685,322.182021 946.537214,240.452772 L948.470271,239.226418 Z M314.647725,40.0872406 L315.537347,42.1949074 C209.917578,86.6762383 121.192315,166.543092 65.6990137,267.075057 L63.6952852,265.969259 C119.433856,164.988324 208.558202,84.7681139 314.647725,40.0872406 Z M673.510504,25.2296446 C782.82179,60.8770664 878.252476,133.464778 942.234602,229.627596 L940.330644,230.895522 C876.631202,135.160889 781.620384,62.8974334 672.799638,27.4079827 L673.510504,25.2296446 Z M514.002079,-1.13686838e-13 C564.585829,-1.13686838e-13 614.558485,7.32902677 662.527411,21.7833808 L661.866431,23.9741902 C614.109516,9.58219325 564.361345,2.28642355 514.002079,2.28642355 C449.113702,2.28642355 385.884013,14.267283 326.067314,37.9005882 L325.227578,35.7679786 C385.306175,12.0349022 448.822704,-1.13686838e-13 513.997921,-1.13686838e-13 L514.002079,-1.13686838e-13 Z" id="Fill-7"></path>
            </g>
        </g>
    </g>
</svg>