<svg xmlns="http://www.w3.org/2000/svg" width="88" height="86" viewBox="0 0 88 86">
  <defs>
    <linearGradient id="count-overlay-a" x1="50%" x2="50%" y1="1.502%" y2="97.946%">
      <stop offset="0%" stop-color="#FFD85E"/>
      <stop offset="100%" stop-color="#D08F03"/>
    </linearGradient>
    <linearGradient id="count-overlay-b" x1="50%" x2="50%" y1="1.502%" y2="97.946%">
      <stop offset="0%" stop-color="#FFD85E"/>
      <stop offset="100%" stop-color="#D08F03"/>
    </linearGradient>
  </defs>
  <g fill="none" transform="translate(.429)">
    <path fill="url(#count-overlay-a)" d="M43.5714286,0 C67.3196728,0 86.5714286,19.2517558 86.5714286,43 C86.5714286,66.7482442 67.3196728,86 43.5714286,86 C19.8231843,86 0.571428571,66.7482442 0.571428571,43 C0.571428571,19.2517558 19.8231843,0 43.5714286,0 Z M43.5714286,4 C22.0323233,4 4.57142857,21.4608948 4.57142857,43 C4.57142857,64.5391052 22.0323233,82 43.5714286,82 C65.1105338,82 82.5714286,64.5391052 82.5714286,43 C82.5714286,21.4608948 65.1105338,4 43.5714286,4 Z"/>
    <path fill="url(#count-overlay-a)" fill-opacity=".4" d="M43.5714286,7 C63.4536796,7 79.5714286,23.117749 79.5714286,43 C79.5714286,62.882251 63.4536796,79 43.5714286,79 C23.6891776,79 7.57142857,62.882251 7.57142857,43 C7.57142857,23.117749 23.6891776,7 43.5714286,7 Z M43.5714286,9 C24.7937471,9 9.57142857,24.2223185 9.57142857,43 C9.57142857,61.7776815 24.7937471,77 43.5714286,77 C62.3491101,77 77.5714286,61.7776815 77.5714286,43 C77.5714286,24.2223185 62.3491101,9 43.5714286,9 Z"/>
    <path fill="url(#count-overlay-b)" fill-opacity=".4" d="M43.5714285,12 L50.6844136,34.0554292 L73.8584065,34.0047776 L55.0804801,47.5851308 L62.2898103,69.6092556 L43.5714285,55.9469463 L24.8530467,69.6092556 L32.0623769,47.5851308 L13.2844505,34.0047776 L36.4584434,34.0554292 L43.5714285,12 Z M49.2290139,36.058615 L43.5714286,18.515 L37.9138431,36.058615 L19.4804286,36.018 L34.4172631,46.8199819 L28.6824286,64.337 L43.5714285,53.4708724 L58.4594286,64.337 L52.7255939,46.8199819 L67.6614286,36.018 L49.2290139,36.058615 Z"/>
  </g>
</svg>
