<svg xmlns="http://www.w3.org/2000/svg" width="72" height="47" viewBox="0 0 72 47">
  <g fill="#63ADF2">
    <circle cx="40.062" cy="27.385" r="6.303"/>
    <path d="M69.7584898,8.47467597 L10.5057967,8.47467597 C9.34441585,8.47467597 8.40463732,9.4144545 8.40463732,10.5758353 L8.40463732,44.1943846 C8.40463732,45.3557654 9.34441585,46.2955439 10.5057967,46.2955439 L69.7584898,46.2955439 C70.9198706,46.2955439 71.8596491,45.3557654 71.8596491,44.1943846 L71.8596491,10.5758353 C71.8596491,9.4144545 70.9198706,8.47467597 69.7584898,8.47467597 Z M23.2528299,37.8909066 L19.0505113,37.8909066 C17.8891305,37.8909066 16.9493519,36.9511281 16.9493519,35.7897473 C16.9493519,34.6283665 17.8891305,33.6885879 19.0505113,33.6885879 L23.2528299,33.6885879 C24.4142107,33.6885879 25.3539893,34.6283665 25.3539893,35.7897473 C25.3539893,36.9511281 24.4142107,37.8909066 23.2528299,37.8909066 Z M40.0621046,37.8909066 C34.2694885,37.8909066 29.5563079,33.1777261 29.5563079,27.3851099 C29.5563079,21.5924938 34.2694885,16.8793133 40.0621046,16.8793133 C45.8547207,16.8793133 50.5679012,21.5924938 50.5679012,27.3851099 C50.5679012,33.1777261 45.8547207,37.8909066 40.0621046,37.8909066 Z M61.0736979,21.081632 L56.8713792,21.081632 C55.7099984,21.081632 54.7702199,20.1418534 54.7702199,18.9804726 C54.7702199,17.8190918 55.7099984,16.8793133 56.8713792,16.8793133 L61.0736979,16.8793133 C62.2350787,16.8793133 63.1748572,17.8190918 63.1748572,18.9804726 C63.1748572,20.1418534 62.2350787,21.081632 61.0736979,21.081632 Z"/>
    <path fill-opacity=".4" d="M4.20231866,10.5758353 C4.20231866,7.09995746 7.02991881,4.27235731 10.5057967,4.27235731 L63.1748572,4.27235731 L63.1748572,2.17119798 C63.1748572,1.00981717 62.2350787,0.0700386444 61.0736979,0.0700386444 L2.10115933,0.0700386444 C0.93977853,0.0700386444 0,1.00981717 0,2.17119798 L0,35.7897473 C0,36.9511281 0.93977853,37.8909066 2.10115933,37.8909066 L4.20231866,37.8909066 L4.20231866,10.5758353 Z"/>
  </g>
</svg>
