<svg xmlns="http://www.w3.org/2000/svg" width="72" height="72" viewBox="0 0 72 72">
  <g fill="none" fill-rule="evenodd">
    <g fill="#63ADF2">
      <path fill-opacity=".4" d="M64.0914907,47.1059551 L57.9744274,44.6723829 C59.0944236,41.8911574 59.6638422,38.9465141 59.6638422,35.9227641 C59.6638422,22.9253232 49.024925,12.3458413 35.9544647,12.3458413 L35.9544647,5.80080173 C52.6591557,5.80080173 66.2446049,19.3103546 66.2446049,35.9227641 C66.2446049,39.782339 65.5223644,43.5451122 64.0914907,47.1059551 L64.0914907,47.1059551 Z M10.6289432,52.4623123 C7.37676729,47.5472873 5.6559507,41.8276639 5.66325448,35.9186006 C5.66325448,29.0290305 8.06341917,22.2914286 12.4240773,16.9527664 L17.5394244,21.078806 C14.0768567,25.3183012 12.2450872,30.4519105 12.2450872,35.9227641 C12.2450872,40.5463433 13.5869892,45.0210769 16.1294853,48.8629569 L10.6289432,52.4623123 Z"/>
      <path d="M62.0568015 61.6928124C61.6674197 62.080019 61.269664 62.4588985 60.8666747 62.8252875L52.5232264 53.7019936C55.4854594 51.033183 57.7610404 47.464013 58.9229056 43.6179696L70.7980055 47.1600767C69.1546466 52.617399 66.1306569 57.6417161 62.0568015 61.6928124M34.4576474 71.4810898C28.1260053 71.1969301 22.004755 69.2078127 16.7501934 65.7323217L23.6208991 55.4682258C26.9965886 57.7019496 30.9385565 58.9822292 35.0186922 59.1654237L34.4576474 71.4810898zM68.3113704 18.104331L57.3825103 23.9322057C56.3462521 22.0076227 55.0252847 20.2433349 53.4551965 18.6809773 52.1446963 17.3736348 50.6803274 16.2369962 49.1008188 15.2970836L55.4670028 4.71760171C57.9236673 6.17795325 60.1992484 7.94640462 62.2278023 9.96883017 64.6509716 12.3784623 66.6994133 15.1180526 68.3113704 18.104331M12.1374646 39.4197082L1.42505353 41.5523898C.318845547 36.1876036.711876908 30.6315739 2.55709457 25.4779712L12.8663256 29.0445253C11.6752376 32.3681731 11.4224428 35.95648 12.1374646 39.4197082M30.2532291 13.3017188C26.3164948 14.2791031 22.709479 16.3119374 19.8226103 19.1826783L11.0552382 10.464286C15.535223 6.00932901 21.1372974 2.85338754 27.2564542 1.33995123L30.2532291 13.3017188z"/>
    </g>
    <circle cx="36" cy="36" r="16" stroke="#63ADF2" stroke-width="4"/>
  </g>
</svg>
