<svg xmlns="http://www.w3.org/2000/svg" width="72" height="72" viewBox="0 0 72 72">
  <g fill="#63ADF2">
    <path d="M16.9268772,52.5278596 L16.9268772,69.9818947 C16.9268772,71.0218947 17.8700351,71.8654035 19.0321404,71.8654035 L39.1275789,71.8654035 L39.1275789,35.944 L33.5107368,35.944 L16.9268772,52.5278596 Z"/>
    <polygon fill-opacity=".4" points="43.338 35.944 49.695 35.944 49.695 71.865 43.338 71.865"/>
    <path d="M69.7562105 35.944L53.9049825 35.944 53.9049825 71.8654035 69.7562105 71.8654035C70.9183158 71.8654035 71.8614737 71.0218947 71.8614737 69.9818947L71.8614737 37.8275088C71.8614737 36.7875088 70.9184561 35.944 69.7562105 35.944L69.7562105 35.944zM49.6917895 10.8324211L43.7128421 4.85487719C42.8917895 4.03242105 41.5584561 4.03242105 40.736 4.85487719L34.3309474 11.2602105C34.0312982 1.43803509 27.3847018-2.67073684 22.9090526 1.80392982 19.9531228 4.7594386 18.8300351 10.9087719 20.0075789 14.9322105 17.6307368 15.6119298 15.6694737 17.488 14.9487719 19.9890526 10.9578947 18.8165614 4.78203509 19.914807 1.81010526 22.8861754-2.69263158 27.3879298 1.504 34.0214737 11.2829474 34.3093333L4.86947368 40.7229474C4.04701754 41.544 4.04701754 42.8773333 4.86947368 43.6997895L10.8470175 49.6773333C11.6701754 50.5004912 13.0004211 50.5007719 13.8238596 49.6773333L49.6919298 13.8106667C50.5142456 12.9882105 50.5142456 11.6548772 49.6917895 10.8324211L49.6917895 10.8324211zM11.8551579 30.1076491C7.64912281 30.1076491 4.23157895 28.3294035 4.22905151 26.898807 4.22694737 25.6718596 7.17936842 23.7317895 11.7898947 23.7317895 12.9365614 23.7317895 14.0449123 24.0461754 15.0957193 24.538386 15.6777544 26.1619649 16.5549474 26.9914386 17.3512982 27.7872281 15.7263158 28.8832281 13.5031579 30.1076491 11.8551579 30.1076491zM27.9094737 17.4470175C27.0197895 16.5578947 26.2207719 15.6795789 24.5550877 15.0801404 24.0258246 13.9475088 23.7564912 12.8529123 23.7540758 11.8175439 23.7473684 8.20407018 24.8982456 5.76898246 25.8858947 4.78161404 26.5219649 4.14568421 26.9595789 4.22470175 26.9209825 4.22470175 28.1928421 4.22680702 30.1214035 7.26694737 30.1298377 11.8446316 30.1343158 13.9782456 28.9900351 16.0071579 27.9094737 17.4470175z"/>
    <path fill-opacity=".4" d="M45.7675789,26.9390877 L49.4026667,31.7082105 L56.5226667,31.7082105 L56.5226667,28.5376842 C56.5226667,27.3755789 57.4644211,26.4324211 58.6279298,26.4324211 C59.7900351,26.4324211 60.733193,27.3755789 60.733193,28.5376842 L60.733193,31.7082105 L67.7970526,31.7082105 L71.4307368,26.9390877 C72.0567018,26.1180351 71.9949474,24.9643509 71.2847719,24.2162807 L66.0005614,18.6373333 C65.6033684,18.2162807 65.050386,17.9790877 64.4721404,17.9790877 L52.8482807,17.9790877 C52.2784561,17.9790877 51.7324912,18.2106667 51.3367018,18.6190877 L45.930386,24.1980351 C45.2061754,24.9461053 45.136,26.1110175 45.7675789,26.9390877 Z"/>
  </g>
</svg>
