<svg xmlns="http://www.w3.org/2000/svg" width="17" height="12" viewBox="0 0 17 12">
  <path fill="#5DAEF1" d="M8.500334,0.240075 C11.348679,0.240075 14.042402,1.988574 16.329303,4.541534 L16.329303,4.541534 L16.406688,4.63422 L16.481017,4.73667 C16.925533,5.39819 16.871714,6.291483 16.329161,6.899168 C14.042402,9.451969 11.348679,11.200468 8.500334,11.200468 C5.651441,11.200468 2.955698,9.450187 0.671415,6.897166 C0.073025,6.226035 0.073025,5.212608 0.671565,4.54131 C2.958267,1.988574 5.65199,0.240075 8.500334,0.240075 Z M8.500334,1.120749 C6.370297,1.120749 3.896757,2.257266 1.327459,5.128556 C1.028197,5.465781 1.028197,5.972862 1.327103,6.309688 C3.896684,9.182877 6.370046,10.319794 8.500334,10.319794 C10.630622,10.319794 13.103984,9.182877 15.673233,6.310061 C15.971302,5.97305 15.971302,5.467493 15.673709,5.131017 C13.103984,2.257666 10.630622,1.120749 8.500334,1.120749 Z M8.500334,2.42437 C10.251575,2.42437 11.674656,3.893204 11.674656,5.699664 C11.674656,7.506125 10.251575,8.974959 8.500334,8.974959 C6.749093,8.974959 5.326012,7.506125 5.326012,5.699664 C5.326012,3.893204 6.749093,2.42437 8.500334,2.42437 Z M8.500334,3.370987 C7.27131,3.370987 6.272629,4.416998 6.272629,5.701242 C6.272629,6.985486 7.27131,8.02992 8.500334,8.02992 L8.500334,8.02992 C9.729358,8.028342 10.728039,6.983908 10.728039,5.699664 C10.728039,4.415421 9.729358,3.370987 8.500334,3.370987 Z"/>
</svg>
