<svg xmlns="http://www.w3.org/2000/svg" width="70" height="72" viewBox="0 0 70 72">
  <g fill="#63ADF2">
    <path fill-opacity=".4" d="M64.2733155,8.61492923 L59.8381348,6.90161133 C59.2113648,6.65991211 58.489563,6.88018795 58.1314087,7.44873047 C57.062439,9.14227298 55.1947632,10.1453247 53.2337036,10.1453247 C52.5393676,10.1453247 51.8340454,10.0195313 51.1473999,9.75476081 C48.5354004,8.74566647 47.0720215,6.05017097 47.520813,3.39202884 C47.6350708,2.71582031 47.2774657,2.05004883 46.6375122,1.80285637 C45.3966064,1.32330319 43.4646606,0.577331578 42.2166137,0.0950317031 C41.5684204,-0.155456578 40.8383789,0.102722203 40.4818726,0.699829031 C39.8177491,1.81329342 38.8729249,2.69110111 37.7770386,3.27832031 C38.2313233,4.20172116 39.1860352,4.83673092 40.2874145,4.81860352 C42.6236572,4.78015144 44.5039673,6.74725345 44.5039673,9.08349609 L44.5039673,14.2168579 L60.3643798,20.3433837 C61.4624633,20.7674561 62.0090332,22.0012207 61.5844117,23.0993042 C61.2581176,23.9447022 60.4511719,24.4632569 59.5958863,24.4632569 C59.340454,24.4632569 59.0811767,24.4171142 58.8284913,24.3193359 L44.5039673,18.7860718 L44.5039673,23.6315918 C45.3845215,22.9839477 46.6880493,23.548645 46.7649536,24.6912231 L47.2027587,31.1605225 C47.2368164,31.6642456 47.534546,32.1124878 47.9855347,32.3393555 L53.468811,35.0958251 C54.5377808,35.6336059 54.5103149,37.1694946 53.4226684,37.6682739 L47.4515992,40.4071656 C47.0308227,40.5999757 46.7303468,40.984497 46.644104,41.4393311 L45.5289917,47.3362426 C45.4191285,47.918518 44.996704,48.31073 44.5039673,48.4464111 L44.5039673,55.9143676 L46.2941895,56.605957 C47.3768921,57.0245361 47.9772949,58.2242431 47.5927734,59.3195801 C47.282959,60.2028809 46.4573364,60.7472535 45.5806274,60.7472535 C45.3251953,60.7472535 45.065918,60.7011109 44.8132324,60.6033325 L44.5039673,60.4835816 L44.5039673,62.9066163 C44.5039673,65.2461548 42.6231079,67.2182007 40.2835694,67.1830445 C38.749878,67.1599731 37.4946899,68.4008789 37.4946899,69.9290772 C37.4946899,70.2866821 37.4501953,70.6333008 37.3672485,70.9650879 L39.8018188,71.9055176 C40.4544067,72.1576538 41.1844483,71.8912353 41.5437012,71.2913819 C42.8214111,69.1578368 45.1290894,67.888916 47.5554199,67.888916 C48.0146484,67.888916 48.4771728,67.9345093 48.9385986,68.027893 C49.6181031,68.1657715 50.2981567,67.7955322 50.5480957,67.1489868 L69.0177613,19.3320923 C69.2660523,18.6899414 69.0023804,17.9730835 68.4107665,17.6209718 C65.8630371,16.1037598 64.5424805,13.1209718 65.1324462,10.2156372 C65.2692261,9.54052734 64.9154663,8.86322025 64.2733155,8.61492923 L64.2733155,8.61492923 Z"/>
    <path d="M33.5159913,4.04736328 C33.4412843,3.79193119 33.3803101,3.52990716 33.3341675,3.26348873 C33.2155152,2.57739258 32.6288453,2.07202148 31.9328613,2.07202148 L27.1939087,2.07202148 C26.5078125,2.07202148 25.9332275,2.56420898 25.7964477,3.23602298 C25.2575684,5.87713627 22.9213257,7.86456295 20.1209106,7.86456295 C17.3204956,7.86456295 14.9837036,5.87713627 14.4453735,3.23602298 C14.3080445,2.56420898 13.7334594,2.07202148 13.0479126,2.07202148 L8.32983398,2.07202148 C7.63439934,2.07202148 7.02685547,2.56585697 6.91040039,3.25140384 C6.66375736,4.70819095 5.96722416,6.01171875 4.96966556,7.01531986 C3.96441647,8.02551263 2.65319831,8.73083503 1.18707272,8.98077389 C0.506469656,9.09722897 0,9.67291256 0,10.3639527 L0,61.6146241 C0,62.3018188 0.488891531,62.902771 1.16674805,63.0159301 C2.6081543,63.2576294 3.90069577,63.9387817 4.90100091,64.9176636 C5.9309692,65.9251098 6.65167233,67.2473145 6.90710456,68.7288208 C7.02575691,69.4171142 7.60858158,69.9285278 8.30676263,69.9285278 L13.0281372,69.9285278 C13.706543,69.9285278 14.3069458,69.4588624 14.4393311,68.7930908 C14.5711671,68.1322632 14.8150634,67.5115356 15.1506958,66.9528809 C15.5473023,66.2920532 16.0713501,65.7174683 16.6893311,65.262085 C17.5506593,64.6276245 18.5943603,64.2266235 19.7270508,64.1508179 C19.8572387,64.1420288 19.9879761,64.1359863 20.1203613,64.1359863 C21.3903809,64.1359863 22.5637207,64.5457764 23.5184327,65.2384644 C24.1303711,65.6828613 24.6516723,66.2426148 25.0504761,66.8875122 C25.4487305,67.5318603 25.7250367,68.2602539 25.8453368,69.0402832 C25.8898316,69.329773 25.9134522,69.6264038 25.9134522,69.9285278 L31.932312,69.9285278 C32.6260986,69.9285278 33.2155152,69.4264527 33.3325195,68.7425538 C33.4967652,67.782898 33.856018,66.8902587 34.3679809,66.105835 C35.4127808,64.503479 37.0942383,63.3548585 39.0536499,63.0197754 C39.7380981,62.902771 40.2412719,62.3139038 40.2412719,61.6195679 L40.2412719,10.3815308 C40.2412719,9.68719486 39.7391968,9.09777825 39.0552978,8.98132331 C36.4037476,8.52923587 34.2608642,6.58685306 33.5159913,4.04736328 Z M34.3487548,56.5609132 C33.9741211,57.1712036 33.3023071,57.579895 32.5332641,57.579895 L7.70800781,57.579895 C6.53082272,57.579895 5.57666016,56.6257324 5.57666016,55.4485473 C5.57666016,54.2713624 6.53082272,53.3171997 7.70800781,53.3171997 L32.5332641,53.3171997 C33.7104492,53.3171997 34.6646118,54.2713624 34.6646118,55.4485473 C34.6646118,55.8566895 34.5481567,56.2368164 34.3487548,56.5609132 Z M27.3361816,39.0432129 L28.4205322,44.9461671 C28.6320191,46.0942383 27.4493408,46.9962158 26.3973999,46.4891968 L20.7399902,43.7623902 C20.348877,43.5734253 19.892395,43.5734253 19.5007324,43.7623902 L13.843872,46.4891968 C13.5802001,46.6166382 13.2561035,46.6880493 13.000122,46.6567383 C12.2349243,46.5622559 11.6625367,45.8069458 11.8201905,44.9461671 L12.9050903,39.0432129 C12.9885864,38.5883789 12.8468628,38.12146 12.5238648,37.7896728 L7.94091797,33.0836792 C7.10595703,32.2261962 7.63385006,30.7836914 8.82476803,30.6672363 L14.9326172,30.0717773 C15.4352417,30.0228882 15.8741454,29.7119751 16.0878296,29.2543945 L18.8267212,23.376709 C19.0739136,22.847168 19.5644531,22.5752563 20.0637817,22.5560303 C20.6010132,22.5351562 21.1486816,22.8070679 21.4140015,23.376709 L24.1534423,29.2543945 C24.3665772,29.7119751 24.8054809,30.0228882 25.3081055,30.0717773 L31.4159546,30.6672363 C31.4313355,30.6688843 31.4456176,30.6732788 31.4609985,30.6749267 C32.5541382,30.8150024 33.0639038,32.0806274 32.4255981,32.9342652 C32.387146,32.9853516 27.7168579,37.7896728 27.7168579,37.7896728 C27.3944093,38.12146 27.2526855,38.5883789 27.3361816,39.0432129 L27.3361816,39.0432129 Z M32.5332641,18.6833496 L7.70800781,18.6833496 C6.53082272,18.6833496 5.57666016,17.729187 5.57666016,16.552002 C5.57666016,15.3753663 6.53082272,14.4206543 7.70800781,14.4206543 L32.5332641,14.4206543 C33.7104492,14.4206543 34.6646118,15.3753663 34.6646118,16.552002 C34.6646118,17.729187 33.7104492,18.6833496 32.5332641,18.6833496 Z"/>
  </g>
</svg>
