<svg xmlns="http://www.w3.org/2000/svg" width="10" height="12" viewBox="0 0 10 12">
  <path fill="#63ADF2" fill-rule="evenodd" d="M117,607 L116.792,609.5 L119.792,609.5 L120,607 L122,607 L121.792,609.5 L123,609.5 L123,611.5 L121.625,611.5 L121.375,614.5 L123,614.5 L123,616.5 L121.208,616.5 L121,619 L119,619 L119.208,616.5 L116.208,616.5 L116,619 L114,619 L114.208,616.5 L113,616.5 L113,614.5 L114.375,614.5 L114.625,611.5 L113,611.5 L113,609.5 L114.792,609.5 L115,607 L117,607 Z M119.625,611.5 L116.625,611.5 L116.375,614.5 L119.375,614.5 L119.625,611.5 Z" transform="translate(-113 -607)"/>
</svg>
