<svg xmlns="http://www.w3.org/2000/svg" width="14" height="14" viewBox="0 0 14 14">
  <path fill="#B1BBCA" fill-opacity=".5" d="M31.2,38 C31.6,38 31.82,37.8 31.9,37.5 L32.7,34.8 L35.5,34.8 L34.7,37.5 C34.62,37.8 34.7,38 35,38 L36.4,38 C36.8,38 37.02,37.8 37.1,37.5 L37.9,34.8 L39.8,34.8 C40.1,34.8 40.3,34.6 40.3,34.3 L40.3,33.2 C40.3,32.9 40.1,32.7 39.8,32.7 L38.4,32.7 L39.4,29.3 L41.3,29.3 C41.6,29.3 41.8,29.1 41.8,28.8 L41.8,27.7 C41.8,27.4 41.6,27.2 41.3,27.2 L39.9,27.2 L40.7,24.5 C40.78,24.2 40.7,24 40.4,24 L39,24 C38.6,24 38.38,24.2 38.3,24.5 L37.5,27.2 L34.7,27.2 L35.5,24.5 C35.58,24.2 35.5,24 35.2,24 L33.8,24 C33.4,24 33.18,24.2 33.1,24.5 L32.3,27.2 L30.4,27.2 C30.1,27.2 29.9,27.4 29.9,27.7 L29.9,28.8 C29.9,29.1 30.1,29.3 30.4,29.3 L31.8,29.3 L30.8,32.7 L28.9,32.7 C28.6,32.7 28.4,32.9 28.4,33.2 L28.4,34.3 C28.4,34.6 28.6,34.8 28.9,34.8 L30.3,34.8 L29.5,37.5 C29.42,37.8 29.5,38 29.8,38 L31.2,38 Z M36,32.7 L33.2,32.7 L34.2,29.3 L37,29.3 L36,32.7 Z" transform="translate(-28 -24)"/>
</svg>
