<svg xmlns="http://www.w3.org/2000/svg" width="365" height="363" viewBox="0 0 365 363">
  <defs>
    <linearGradient id="overlay_banner-a" x1="50%" x2="50%" y1="0%" y2="100%">
      <stop offset="0%" stop-color="#63ADF2"/>
      <stop offset="100%" stop-color="#63ADF2" stop-opacity="0"/>
    </linearGradient>
  </defs>
  <path fill="url(#overlay_banner-a)" d="M978.381639,21.2472885 L809.603861,-48.6861221 C805.375806,-50.4375296 800.623333,-50.438389 796.396139,-48.6861221 L627.618361,21.2472885 C621.190167,23.911353 617,30.1744826 617,37.1208158 L617,122.13455 C617,239.192683 687.894417,344.4894 796.491722,388.725761 C800.662944,390.424746 805.336194,390.424746 809.508278,388.725761 C918.103861,344.49026 989,239.193542 989,122.13455 L989,37.1208158 C989,30.1744826 984.810694,23.911353 978.381639,21.2472885 Z M954,122.209136 C954,221.626943 895.465909,313.147648 802.5,354 C712.018347,314.238887 651,224.321128 651,122.209136 L651,48.7389512 L802.5,-14 L954,48.7389512 L954,122.209136 Z M783.43943,179.644764 L857.56145,106.017282 C864.295583,99.328001 875.21419,99.3271445 881.949185,106.017282 C888.68418,112.707419 888.683318,123.553304 881.948323,130.242585 L795.633297,215.982718 C788.89744,222.673712 777.978833,222.671142 771.245562,215.982718 L723.051246,168.109395 C716.316251,161.419258 716.316251,150.573373 723.051246,143.884092 C729.786241,137.194811 740.704848,137.193955 747.438981,143.884092 L783.43943,179.644764 Z" opacity=".1" transform="rotate(12 491 -2798.482)"/>
</svg>
