<svg xmlns="http://www.w3.org/2000/svg" width="1080" height="300" viewBox="0 0 1080 300">
  <g fill="none" fill-rule="evenodd">
    <g fill="#293240" transform="translate(722 15)">
      <path d="M24,36 L0,6 L0,0 L28,35 L28,85 L36,90 L36,180 L28,185 L28,235 L0,270 L0,264 L24,234 L24,36 Z M6,105 L14,110 L14,160 L6,165 L6,105 Z M36,126 L44,135 L36,144 L36,126 Z" transform="matrix(-1 0 0 1 44 0)"/>
      <path d="M346,36 L322,6 L322,1.13686838e-13 L350,35 L350,85 L358,90 L358,180 L350,185 L350,235 L322,270 L322,264 L346,234 L346,36 Z M336,110 L336,160 L328,165 L328,105 L336,110 Z"/>
    </g>
    <g stroke="#293240" stroke-width="4" transform="translate(687 114)">
      <polyline points="0 19 19 0 44 0"/>
      <polyline points="0 72 19 53 44 53" transform="matrix(1 0 0 -1 0 125)"/>
    </g>
    <path fill="#293240" d="M587.652661,288.195912 C596.710832,285.080651 605.457976,281.068927 613.733222,276.247844 C613.889732,275.302725 614.04099,274.361085 614.181878,273.425401 C614.496137,271.338502 614.771624,269.274973 615.009215,267.236663 C615.369052,267.028803 615.707236,266.786559 616.051962,266.554972 L619.147095,264.459616 C619.83103,263.988063 620.533529,263.542633 621.202243,263.050499 L623.19489,261.554357 L625.188553,260.059777 L626.185602,259.312771 C626.515682,259.060885 626.827515,258.785873 627.149485,258.523629 L630.985331,255.343232 L631.465383,254.945606 C631.623193,254.811512 631.772744,254.666634 631.926789,254.527859 L632.844961,253.685835 L634.68232,252.00335 L636.520976,250.321853 L638.272372,248.550132 L640.024351,246.779407 L640.901202,245.894464 L641.338762,245.451215 L641.753522,244.986884 L645.077635,241.275182 L645.908591,240.347221 L646.691672,239.378118 L648.25885,237.441475 L649.827037,235.505679 L650.219299,235.021836 L650.587215,234.519354 L651.321168,233.512408 L654.259152,229.48746 L656.995155,225.320906 C657.444201,224.62202 657.920872,223.940884 658.34762,223.227913 L659.605573,221.075634 L660.864536,218.924202 C661.27633,218.20251 661.7278,217.50303 662.092014,216.754913 L664.389271,212.327625 L664.966706,211.222238 C665.155504,210.852335 665.314275,210.467418 665.490857,210.091196 L666.525359,207.821663 L667.561731,205.5534 C667.731853,205.174379 667.913312,204.799827 668.074676,204.416887 L668.533221,203.257729 L670.371275,198.622632 C670.697582,197.857433 670.93064,197.058088 671.205877,196.274357 L672.006197,193.913968 L672.807945,191.553565 C673.060811,190.762468 673.267653,189.957079 673.500445,189.159738 C673.947682,187.559652 674.420854,185.966185 674.850611,184.361831 L675.968638,179.504633 C676.380031,177.893448 676.624285,176.247948 676.925399,174.614208 L677.363752,172.161008 C677.432515,171.751348 677.520606,171.345081 677.573481,170.932996 L677.730535,169.697041 L678.362317,164.752477 C678.424922,164.341588 678.442314,163.925689 678.477878,163.511907 L678.573838,162.269233 L678.767335,159.784299 C678.82516,158.955574 678.912302,158.128719 678.946961,157.298637 L679.017195,154.806848 L679.088997,152.314758 L679.125616,151.069064 C679.140158,150.653906 679.11468,150.238406 679.111211,149.822987 L679.010994,144.83779 C679.014767,144.006138 678.923542,143.178229 678.875171,142.348491 L678.704213,139.861234 L678.533108,137.37355 L678.241068,134.896852 L677.950885,132.419995 C677.848545,131.59519 677.777885,130.765946 677.622459,129.948638 C679.009376,128.432983 680.390683,126.872648 681.764096,125.267941 C682.378441,124.550223 682.990228,123.820238 683.601241,123.084544 C682.284191,116.103163 680.462211,109.216519 678.14622,102.498541 C671.906716,84.4075474 662.096065,67.5504259 649.40654,53.2169612 C643.06711,46.0476782 636.016795,39.5066905 628.394391,33.7200421 C626.806489,32.5137689 625.192369,31.3423251 623.556426,30.2025255 C620.597113,30.9989571 617.663004,31.9239196 614.841441,32.8558374 C613.471062,31.9110724 612.013662,31.104744 610.581574,30.2588785 L608.429012,28.9969814 L607.353011,28.3654586 C606.988352,28.1650584 606.615849,27.980023 606.247544,27.7863738 L601.817959,25.4836832 C601.447003,25.2962039 601.084987,25.0889192 600.706056,24.9178064 L599.570638,24.3994531 L597.300509,23.3620253 L595.030792,22.3230217 L594.463576,22.0631974 C594.273481,21.978933 594.077803,21.9075829 593.885197,21.8292015 L592.725521,21.369383 L588.088771,19.5253747 C586.524706,18.9612784 584.942453,18.4483717 583.370753,17.9057836 C582.582542,17.6411571 581.799037,17.3617665 581.007373,17.1086052 L578.608752,16.4268008 C572.242804,14.4925648 565.700626,13.2016539 559.128118,12.2371553 L554.183102,11.600783 L549.212484,11.2096038 C547.557653,11.0419388 545.894286,11.0289863 544.233353,10.9752806 L541.741726,10.9002979 C541.326475,10.8920165 540.91103,10.8651582 540.495508,10.8709156 L539.249127,10.8966383 L534.264122,10.9903576 C532.60461,11.0731217 530.947358,11.2081713 529.288644,11.3126508 L528.044876,11.3961172 C527.630151,11.4247028 527.21519,11.444287 526.803195,11.5015729 L524.326934,11.7905922 L521.850084,12.077902 L520.611795,12.2209125 L519.38171,12.4244422 L514.462073,13.2371253 C514.050527,13.2964078 513.645326,13.3886444 513.239226,13.4768878 L512.020477,13.7396213 L509.582676,14.2635191 C508.772097,14.4447069 507.953929,14.5969538 507.148737,14.8013865 L504.739167,15.4424967 L502.329296,16.0820378 L501.124283,16.4012374 C500.724594,16.5150027 500.331124,16.6495755 499.934537,16.7730301 L495.181488,18.2808683 C494.983791,18.3450196 494.784466,18.4037553 494.588096,18.4717529 L494.003981,18.6888473 L492.835464,19.1228958 L490.497699,19.9895705 C489.720449,20.2833502 488.934828,20.5556277 488.163892,20.8656407 L485.87088,21.8440863 L483.577566,22.8209627 L482.430187,23.308693 C482.047873,23.471459 481.680183,23.6662444 481.304447,23.8432406 L476.816407,26.0143051 L476.255146,26.2852082 L475.70745,26.5822813 L474.613368,27.1788446 L472.424335,28.3708361 C471.696064,28.7706307 470.961244,29.1590531 470.23749,29.5670947 L468.109428,30.8638462 L465.98035,32.159035 C465.270999,32.5915237 464.552645,33.0103764 463.87481,33.4913053 C461.916489,32.8627099 459.919404,32.2581991 457.885572,31.6794691 C456.979536,31.4223708 456.063969,31.1695056 455.144329,30.9235383 C450.963747,33.895489 446.938787,37.0859355 443.096937,40.485904 C435.934717,46.8178012 429.401574,53.8605553 423.622982,61.4763721 C417.842378,69.0912072 412.818454,77.2776561 408.620181,85.8657235 C404.443168,94.4641685 401.090826,103.466242 398.654257,112.713461 C396.215677,121.959699 394.6927,131.448511 394.116987,140.995245 C393.654729,148.591288 393.799499,156.221695 394.531774,163.795897 C395.323246,164.332602 396.114084,164.86331 396.903654,165.382025 C398.669432,166.542196 400.42988,167.657113 402.183575,168.727503 C402.223755,169.141294 402.291624,169.55154 402.363054,169.961047 L402.568513,171.190902 L402.978001,173.651357 C403.119727,174.470507 403.237344,175.293883 403.398184,176.109568 L403.926056,178.547484 L404.452359,180.9857 L404.71501,182.204741 C404.804129,182.610788 404.924612,183.009396 405.027844,183.412025 L406.312967,188.233128 L406.473159,188.835591 L406.662136,189.430069 L407.041085,190.618444 L407.798416,192.995628 C408.053612,193.786997 408.293995,194.58322 408.561441,195.370616 L409.431983,197.708874 L410.300956,200.047432 L410.734588,201.217005 C410.873441,201.609298 411.055273,201.984183 411.213056,202.369011 L413.172171,206.957891 C413.480342,207.731046 413.875567,208.464945 414.229824,209.217234 L415.318051,211.462 L416.408554,213.705744 L417.604112,215.895918 L418.798101,218.086393 C419.198416,218.814957 419.57913,219.55528 420.027887,220.255954 L422.6237,224.516921 C423.040793,225.237326 423.525457,225.913942 423.988968,226.604046 L425.388308,228.669416 L426.785939,230.735374 L428.28103,232.731969 L429.77811,234.727402 L430.526223,235.725265 L430.901269,236.223259 L431.300276,236.702736 L434.485361,240.541907 C443.165673,250.616132 453.253758,259.48949 464.452459,266.677841 L466.538112,268.047118 L468.689407,269.310884 C470.12852,270.145251 471.552198,271.006916 473.002395,271.821457 L477.432541,274.122999 L478.539407,274.699213 L479.093057,274.987603 L479.660692,275.246566 L481.931101,276.28342 L484.201098,277.321849 C484.957297,277.668949 485.709173,278.02638 486.48907,278.316094 L491.12652,280.158666 C491.513685,280.310695 491.897794,280.471184 492.287455,280.615901 L493.468522,281.016496 L495.829958,281.819124 L498.190981,282.623327 L498.781452,282.824483 C498.979191,282.887953 499.180384,282.939959 499.380355,282.998121 L500.579521,283.338953 C501.722596,286.088552 502.947294,288.908563 504.284825,291.667071 C513.086162,293.902618 522.096003,295.314038 531.157532,295.869922 C550.255152,297.053649 569.567477,294.412854 587.652661,288.195912 Z M685.069633,188.269707 C682.568445,197.761911 679.12725,207.001048 674.842076,215.821446 C670.535782,224.631178 665.379911,233.033655 659.446344,240.849994 C653.514936,248.667743 646.807534,255.89805 639.455266,262.397355 C624.755711,275.407635 607.46615,285.455699 588.908639,291.837674 C570.350252,298.217799 550.530602,300.929058 530.926168,299.714036 C521.125156,299.112445 511.382043,297.538212 501.887964,295.024574 C492.393194,292.513085 483.149881,289.061596 474.324957,284.766877 C465.510388,280.450911 457.102141,275.285824 449.279182,269.343695 C441.454955,263.403435 434.21704,256.688409 427.709278,249.328903 C414.682947,234.615279 404.615723,217.314797 398.213079,198.749991 C391.812718,180.184877 389.079443,160.362704 390.273007,140.759499 C390.863373,130.959385 392.426881,121.218095 394.930367,111.727013 C397.431415,102.235096 400.87275,92.995671 405.157784,84.1755609 C409.464218,75.3655413 414.619949,66.9633511 420.553656,59.1467249 C426.484924,51.3292639 433.192179,44.0985287 440.544734,37.5993648 C455.244289,24.589084 472.53385,14.5410207 491.091361,8.15904571 C509.650036,1.77906064 529.469258,-0.932051865 549.073692,0.28297048 C558.874844,0.884274806 568.617957,2.45850696 578.111896,4.97243265 C587.606666,7.48392104 596.849979,10.9354101 605.674903,15.2301291 C614.489472,19.5460958 622.897719,24.7111825 630.720678,30.6533119 C638.545045,36.5932845 645.78296,43.3083099 652.290582,50.6681034 C665.316913,65.3817277 675.384565,82.6820624 681.786921,101.246729 C688.187282,119.811842 690.920557,139.634016 689.726993,159.237221 C689.13634,169.037194 687.572979,178.778912 685.069633,188.269707 Z"/>
    <g fill="#293240" transform="translate(0 15)">
      <path d="M338,36 L314,6 L314,0 L342,35 L342,85 L350,90 L350,180 L342,185 L342,235 L314,270 L314,264 L338,234 L338,36 Z M320,105 L328,110 L328,160 L320,165 L320,105 Z M350,126 L358,135 L350,144 L350,126 Z"/>
      <path d="M24,36 L0,6 L0,0 L28,35 L28,85 L36,90 L36,180 L28,185 L28,235 L0,270 L0,264 L24,234 L24,36 Z M14,110 L14,160 L6,165 L6,105 L14,110 Z" transform="matrix(-1 0 0 1 36 0)"/>
    </g>
    <g stroke="#293240" stroke-width="4" transform="matrix(-1 0 0 1 393 114)">
      <polyline points="0 19 19 0 44 0"/>
      <polyline points="0 72 19 53 44 53" transform="matrix(1 0 0 -1 0 125)"/>
    </g>
  </g>
</svg>
