<svg xmlns="http://www.w3.org/2000/svg" width="66" height="63" viewBox="0 0 66 63">
  <g fill="none" fill-rule="evenodd" transform="translate(1 1)">
    <path stroke="#63ADF2" stroke-linejoin="round" stroke-width="2" d="M34.529,15.348625 L35.874125,16.69375 L43.784375,24.603875 C46.6335,27.4505 50.823375,28.573375 54.72,27.533125 L54.72,27.533125 L56.556125,27.042875 L59.513,38.078 L57.673375,38.569125 C53.885375,39.58025 49.876875,39.596375 46.080625,38.61575 C44.713625,38.2625 43.387625,37.7795 42.11675,37.181625 L42.11675,37.181625 L36.670625,42.62775 L39.698625,49.937875 L30.52675,53.737125 L26.664875,44.41375 L22.12875,48.949875 L19.024,45.845125 L11.082375,60.96025 L0,49.877875 L11.5285,38.349375 L34.529,15.348625 Z M32.731125,25.056875 L21.2365,36.5515 L23.9265,39.2415 L35.421125,27.746875 L32.731125,25.056875 Z M37.11175,33.966625 L34.263,36.815375 L35.09475,38.823375 L38.713375,35.20475 C38.162125,34.817 37.62825,34.403375 37.11175,33.966625 L37.11175,33.966625 Z M56.722375,0.03975 L59.143375,2.460875 L61.31,0.29425 L64,2.984375 L51.701875,15.2825 L50.356875,16.627625 L45.77225,21.212 L38.752375,14.192 L44.681875,8.262375 L49.01175,12.5925 L56.453375,5.150875 L54.032375,2.729875 L56.722375,0.03975 Z"/>
    <path fill="#63ADF2" d="M15.2426407,7.29289322 C15.633165,6.90236893 16.26633,6.90236893 16.6568542,7.29289322 C17.0473785,7.68341751 17.0473785,8.31658249 16.6568542,8.70710678 L12.4142136,12.9497475 L16.6568542,17.1923882 C17.0473785,17.5829124 17.0473785,18.2160774 16.6568542,18.6066017 C16.26633,18.997126 15.633165,18.997126 15.2426407,18.6066017 L10.2928932,13.6568542 C9.90236893,13.26633 9.90236893,12.633165 10.2928932,12.2426407 L15.2426407,7.29289322 Z" transform="matrix(-1 0 0 1 26.95 0)"/>
    <line x1="1" x2="15" y1="13" y2="13" stroke="#63ADF2" stroke-linecap="round" stroke-width="2"/>
  </g>
</svg>
