<svg xmlns="http://www.w3.org/2000/svg" xmlns:xlink="http://www.w3.org/1999/xlink" width="64" height="64" viewBox="0 0 64 64">
  <defs>
    <circle id="howto-4-a" cx="32" cy="32" r="25.333"/>
    <mask id="howto-4-b" width="50.667" height="50.667" x="0" y="0" fill="#fff" maskContentUnits="userSpaceOnUse" maskUnits="objectBoundingBox">
      <use xlink:href="#howto-4-a"/>
    </mask>
  </defs>
  <g fill="none" fill-rule="evenodd">
    <g stroke="#63ADF2">
      <circle cx="32" cy="32" r="31" stroke-width="2"/>
      <use stroke-dasharray="109 1000" stroke-width="4" mask="url(#howto-4-b)" transform="matrix(1 0 0 -1 0 64)" xlink:href="#howto-4-a"/>
    </g>
    <path fill="#63ADF2" fill-rule="nonzero" d="M26.48,30.96 C29.14,30.96 30.12,29.98 30.12,27.46 L30.12,25.5 C30.12,22.98 29.14,22 26.48,22 L25.64,22 C22.98,22 22,22.98 22,25.5 L22,27.46 C22,29.98 22.98,30.96 25.64,30.96 L26.48,30.96 Z M28.02,41.6 C28.3,41.6 28.44,41.46 28.58,41.18 L37.26,22.42 C37.4,22.14 37.26,22 36.98,22 L35.3,22 C35.02,22 34.88,22.14 34.74,22.42 L26.06,41.18 C25.92,41.46 26.06,41.6 26.34,41.6 L28.02,41.6 Z M26.48,29 L25.64,29 C24.66,29 24.1,28.44 24.1,27.46 L24.1,25.5 C24.1,24.52 24.66,23.96 25.64,23.96 L26.48,23.96 C27.46,23.96 28.02,24.52 28.02,25.5 L28.02,27.46 C28.02,28.44 27.46,29 26.48,29 Z M37.68,41.6 C40.34,41.6 41.32,40.62 41.32,38.1 L41.32,36.14 C41.32,33.62 40.34,32.64 37.68,32.64 L36.84,32.64 C34.18,32.64 33.2,33.62 33.2,36.14 L33.2,38.1 C33.2,40.62 34.18,41.6 36.84,41.6 L37.68,41.6 Z M37.68,39.64 L36.84,39.64 C35.86,39.64 35.3,39.08 35.3,38.1 L35.3,36.14 C35.3,35.16 35.86,34.6 36.84,34.6 L37.68,34.6 C38.66,34.6 39.22,35.16 39.22,36.14 L39.22,38.1 C39.22,39.08 38.66,39.64 37.68,39.64 Z"/>
  </g>
</svg>
