<svg xmlns="http://www.w3.org/2000/svg" width="54" height="56" viewBox="0 0 54 56">
  <path fill="none" stroke="#63ADF2" stroke-width="2" d="M135.567346,62.2053163 C135.693781,62.3019738 135.842998,62.3854504 135.97399,62.4821076 C136.292926,62.7120351 136.631227,62.9317106 136.969527,63.1528509 C137.434264,63.4706484 137.906973,63.7708717 138.40702,64.0535214 C138.774936,64.2570877 139.153104,64.4547955 139.538106,64.6525038 C140.058656,64.917579 140.590597,65.172403 141.140762,65.4184398 C141.548546,65.5971092 141.959746,65.7713854 142.381198,65.9368743 C142.955284,66.165337 143.543038,66.3776905 144.145601,66.5812564 C144.584138,66.7291716 145.022676,66.8756217 145.472605,67.0132854 C146.100226,67.1992776 146.741516,67.3676953 147.393059,67.528791 C147.847543,67.6430226 148.314557,67.7631118 148.780433,67.8656273 C149.470703,68.0150066 150.191727,68.138025 150.892249,68.2581142 C151.349011,68.3357332 151.794383,68.4236035 152.261398,68.4895061 C153.067852,68.6008085 153.880001,68.6784272 154.701263,68.753117 C155.102211,68.7897295 155.494048,68.8424517 155.900692,68.8702774 C157.134293,68.9566832 158.387258,69.0050118 159.65617,69.0050118 C160.925082,69.0050118 162.178047,68.9566832 163.411648,68.8702774 C163.820571,68.8424517 164.212407,68.7897295 164.615634,68.753117 C165.434617,68.6784272 166.251323,68.6008085 167.048665,68.4895061 C167.517957,68.4236035 167.967885,68.332804 168.4349,68.2551854 C169.147951,68.1350962 169.85075,68.0150066 170.534186,67.8685561 C171.023981,67.7631118 171.489856,67.6400934 171.956871,67.522933 C172.584492,67.3647665 173.212114,67.2022064 173.82265,67.0191434 C174.29422,66.8697641 174.741871,66.7262424 175.208885,66.5695403 C175.782971,66.3718321 176.349083,66.1711951 176.900388,65.9515195 C177.348038,65.7772434 177.78202,65.5912512 178.211445,65.4023302 C178.733134,65.1694738 179.237737,64.9292951 179.734367,64.6774002 C180.14215,64.4665116 180.546516,64.2570877 180.936075,64.034483 C181.409923,63.7650141 181.857574,63.492616 182.300668,63.1923926 C182.652637,62.9580719 183.017136,62.7237511 183.352019,62.4821076 C183.478455,62.3883793 183.625394,62.3049026 183.749551,62.2111743 C184.648269,63.1528509 185.214381,64.5206981 185.321453,66.0057061 C185.032131,68.149741 184.0047,70.0111266 182.523923,71.0684989 C177.913011,75.3419238 169.147951,78 159.651614,78 C158.463575,78 157.297178,77.9575291 156.130782,77.8769812 C148.032071,77.3102182 140.81613,74.8088441 136.769053,71.053854 C135.300806,69.995017 134.282487,68.1394894 134,66.0057061 C134.103654,64.5192337 134.668628,63.1499217 135.567346,62.2053163 Z M135.567346,47.2010746 C135.693781,47.2977321 135.842998,47.3812087 135.97399,47.4778659 C136.292926,47.7077934 136.631227,47.9274689 136.969527,48.1486092 C137.434264,48.4664066 137.906973,48.76663 138.40702,49.0492797 C138.774936,49.252846 139.153104,49.4505538 139.538106,49.648262 C140.058656,49.9133373 140.590597,50.1681613 141.140762,50.4141981 C141.548546,50.5928675 141.959746,50.7671437 142.381198,50.9326326 C142.955284,51.1610953 143.543038,51.3734488 144.145601,51.5770147 C144.584138,51.7249299 145.022676,51.87138 145.472605,52.0090437 C146.100226,52.1950359 146.741516,52.3634536 147.393059,52.5245493 C147.847543,52.6387809 148.314557,52.7588701 148.780433,52.8613856 C149.470703,53.0107649 150.191727,53.1337833 150.892249,53.2538725 C151.349011,53.3314915 151.794383,53.4193618 152.261398,53.4852644 C153.067852,53.5965668 153.880001,53.6741854 154.701263,53.7488753 C155.102211,53.7854878 155.494048,53.83821 155.900692,53.8660357 C157.134293,53.9524415 158.387258,54.0007701 159.65617,54.0007701 C160.925082,54.0007701 162.178047,53.9524415 163.411648,53.8660357 C163.820571,53.83821 164.212407,53.7854878 164.615634,53.7488753 C165.434617,53.6741854 166.251323,53.5965668 167.048665,53.4852644 C167.517957,53.4193618 167.967885,53.3285623 168.4349,53.2509437 C169.147951,53.1308545 169.85075,53.0107649 170.534186,52.8643144 C171.023981,52.7588701 171.489856,52.6358517 171.956871,52.5186913 C172.584492,52.3605248 173.212114,52.1979647 173.82265,52.0149017 C174.29422,51.8655224 174.741871,51.7220007 175.208885,51.5652986 C175.782971,51.3675904 176.349083,51.1669534 176.900388,50.9472778 C177.348038,50.7730017 177.78202,50.5870095 178.211445,50.3980885 C178.733134,50.1652321 179.237737,49.9250533 179.734367,49.6731585 C180.14215,49.4622699 180.546516,49.252846 180.936075,49.0302412 C181.409923,48.7607724 181.857574,48.4883743 182.300668,48.1881509 C182.652637,47.9538302 183.017136,47.7195094 183.352019,47.4778659 C183.478455,47.3841376 183.625394,47.3006609 183.749551,47.2069326 C184.648269,48.1486092 185.214381,49.5164564 185.321453,51.0014644 C185.032131,53.1454993 184.0047,55.0068849 182.523923,56.0642571 C177.913011,60.3376821 169.147951,62.9957583 159.651614,62.9957583 C158.463575,62.9957583 157.297178,62.9532874 156.130782,62.8727395 C148.032071,62.3059765 140.81613,59.8046024 136.769053,56.0496123 C135.300806,54.9907753 134.282487,53.1352477 134,51.0014644 C134.103654,49.514992 134.668628,48.14568 135.567346,47.2010746 Z M159.660726,24 C174.356869,24 185.321453,30.3339828 185.321453,35.9972227 C185.032131,38.1412576 184.0047,40.0026432 182.523923,41.0600154 C177.913011,45.3334404 169.147951,47.9915166 159.651614,47.9915166 C158.463575,47.9915166 157.297178,47.9490457 156.130782,47.8684978 C148.032071,47.3017348 140.81613,44.8003607 136.769053,41.0453706 C135.300806,39.9865336 134.282487,38.131006 134,35.9972227 C134,30.3339828 144.964584,24 159.660726,24 Z" transform="translate(-133 -23)"/>
</svg>
