<svg xmlns="http://www.w3.org/2000/svg" width="82" height="82" viewBox="0 0 82 82">
  <defs>
    <linearGradient id="icon_add-a" x1="50%" x2="50%" y1="0%" y2="100%">
      <stop offset="0%" stop-color="#63ADF2"/>
      <stop offset="89.794%" stop-color="#4E9BE2"/>
      <stop offset="100%" stop-color="#3D71A2"/>
    </linearGradient>
  </defs>
  <g fill="none">
    <path fill="url(#icon_add-a)" d="M41,0 C18.3562628,0 0,18.3562628 0,41 C0,63.6437372 18.3562628,82 41,82 C63.6437372,82 82,63.6437372 82,41 C82,18.3562628 63.6437372,0 41,0 Z"/>
    <path fill="#05161B" d="M41.5,17 C44.037058,17 46.09375,19.056692 46.09375,21.59375 L46.09375,36.90625 L61.40625,36.90625 C63.943308,36.90625 66,38.962942 66,41.5 C66,44.037058 63.943308,46.09375 61.40625,46.09375 L46.09375,46.09375 L46.09375,61.40625 C46.09375,63.943308 44.037058,66 41.5,66 C38.962942,66 36.90625,63.943308 36.90625,61.40625 L36.90625,46.09375 L21.59375,46.09375 C19.056692,46.09375 17,44.037058 17,41.5 C17,38.962942 19.056692,36.90625 21.59375,36.90625 L36.90625,36.90625 L36.90625,21.59375 C36.90625,19.056692 38.962942,17 41.5,17 Z"/>
  </g>
</svg>
