<svg xmlns="http://www.w3.org/2000/svg" xmlns:xlink="http://www.w3.org/1999/xlink" width="82" height="82" viewBox="0 0 82 82">
  <defs>
    <linearGradient id="icon_remove-a" x1="50%" x2="50%" y1="0%" y2="100%">
      <stop offset="0%" stop-color="#FFD201"/>
      <stop offset="89.317%" stop-color="#F3B704"/>
      <stop offset="100%" stop-color="#EDC25E"/>
    </linearGradient>
    <linearGradient id="icon_remove-c" x1="50%" x2="50%" y1="0%" y2="100%">
      <stop offset="0%" stop-color="#63ADF2"/>
      <stop offset="89.794%" stop-color="#4E9BE2"/>
      <stop offset="100%" stop-color="#3D71A2"/>
    </linearGradient>
    <path id="icon_remove-b" d="M41,0 C18.3562627,0 0,18.3562627 0,41 C0,63.6437373 18.3562627,82 41,82 C63.6437373,82 82,63.6437373 82,41 C82,18.3562627 63.6437373,0 41,0 Z"/>
  </defs>
  <g fill="none">
    <use fill="url(#icon_remove-a)" xlink:href="#icon_remove-b"/>
    <use fill="url(#icon_remove-c)" xlink:href="#icon_remove-b"/>
    <path fill="#05161B" d="M57.6667441,23.3332559 C59.4444186,25.1109305 59.4444186,27.9931104 57.6667441,29.7707849 L46.937529,40.5 L57.6667441,51.2292151 C59.4444186,53.0068896 59.4444186,55.8890695 57.6667441,57.6667441 C55.8890695,59.4444186 53.0068896,59.4444186 51.2292151,57.6667441 L40.5,46.937529 L29.7707849,57.6667441 C27.9931104,59.4444186 25.1109305,59.4444186 23.3332559,57.6667441 C21.5555814,55.8890695 21.5555814,53.0068896 23.3332559,51.2292151 L34.062471,40.5 L23.3332559,29.7707849 C21.5555814,27.9931104 21.5555814,25.1109305 23.3332559,23.3332559 C25.1109305,21.5555814 27.9931104,21.5555814 29.7707849,23.3332559 L40.5,34.062471 L51.2292151,23.3332559 C53.0068896,21.5555814 55.8890695,21.5555814 57.6667441,23.3332559 Z"/>
  </g>
</svg>
