<?xml version="1.0" encoding="UTF-8"?>
<svg width="11px" height="12px" viewBox="0 0 11 12" version="1.1" xmlns="http://www.w3.org/2000/svg" xmlns:xlink="http://www.w3.org/1999/xlink">
    <!-- Generator: Sketch 64 (93537) - https://sketch.com -->
    <title>icon-coins</title>
    <desc>Created with Sketch.</desc>
    <g id="Page-1" stroke="none" stroke-width="1" fill="none" fill-rule="evenodd">
        <g id="icon-coins" fill="#3F4959" fill-rule="nonzero">
            <path d="M10.8330679,8.3889774 L10.8330679,9.5926516 C10.8330679,11.1694648 8.1127642,12 5.416534,12 C2.72030373,12 0,11.1694648 0,9.5926516 L0,9.5926516 L0,8.3889774 C0,9.9657906 2.72030373,10.7963258 5.416534,10.7963258 C8.1127642,10.7963258 10.8330679,9.9657906 10.8330679,8.3889774 L10.8330679,8.3889774 Z M10.8330679,5.9816289 L10.8330679,7.1853031 C10.8330679,8.7621164 8.1127642,9.5926516 5.416534,9.5926516 C2.72030373,9.5926516 0,8.7621164 0,7.1853031 L0,7.1853031 L0,5.9816289 C0,7.5584421 2.72030373,8.3889774 5.416534,8.3889774 C8.1127642,8.3889774 10.8330679,7.5584421 10.8330679,5.9816289 L10.8330679,5.9816289 Z M10.8330679,3.57428049 L10.8330679,4.77795471 C10.8330679,6.3547679 8.1127642,7.1853031 5.416534,7.1853031 C2.72030373,7.1853031 0,6.3547679 0,4.77795471 L0,4.77795471 L0,3.57428049 C0,5.1510937 2.72030373,5.9816289 5.416534,5.9816289 C8.1127642,5.9816289 10.8330679,5.1510937 10.8330679,3.57428049 L10.8330679,3.57428049 Z M0,2.37060628 C0,-0.79020209 10.8330679,-0.79020209 10.8330679,2.37060628 C10.8330679,3.95103052 8.1083507,4.77795471 5.416534,4.77795471 C2.7247172,4.77795471 0,3.95103052 0,2.37060628 Z" id="Path-6"></path>
        </g>
    </g>
</svg>