<svg xmlns="http://www.w3.org/2000/svg" width="42" height="42" viewBox="0 0 42 42">
  <g fill="none" fill-rule="evenodd">
    <circle cx="21" cy="21" r="19.5" stroke="#DB324D" stroke-width="3"/>
    <path fill="#DB324D" d="M28.0710678,13.9293398 C28.6568542,14.5151263 28.6568542,15.4648737 28.0710678,16.0506602 L23.1205924,21 L28.0710678,25.9501551 C28.6568542,26.5359415 28.6568542,27.485689 28.0710678,28.0714755 C27.4852814,28.6572619 26.5355339,28.6572619 25.9497475,28.0714755 L20.9995924,23.121 L16.0502525,28.0714755 C15.4644661,28.6572619 14.5147186,28.6572619 13.9289322,28.0714755 C13.3431458,27.485689 13.3431458,26.5359415 13.9289322,25.9501551 L18.8785924,21 L13.9289322,16.0506602 C13.3431458,15.4648737 13.3431458,14.5151263 13.9289322,13.9293398 C14.5147186,13.3435534 15.4644661,13.3435534 16.0502525,13.9293398 L20.9995924,18.879 L25.9497475,13.9293398 C26.5355339,13.3435534 27.4852814,13.3435534 28.0710678,13.9293398 Z"/>
  </g>
</svg>
