<svg xmlns="http://www.w3.org/2000/svg" width="165" height="78" viewBox="0 0 165 78">
  <path fill="#3F4959" fill-rule="evenodd" d="M98.9669477,15.4916974 L99.4192528,17.1797231 L100.263266,16.9535706 L100.037113,16.1095577 L119.675561,11.7520616 L119.901714,12.5960744 L135.093945,8.5253283 L140.670925,12.4586426 L155.863157,8.38789648 L156.585975,0.957335928 L159.118013,0.278878237 L160.927234,7.0309811 L164.303285,6.12637085 L164.981743,8.65840942 L141.349383,14.9906812 L141.575535,15.8346941 L122.16324,21.036203 L122.389392,21.8802159 L95.6677307,33.5633148 L95.4415781,32.7193019 L85.3134238,35.4331327 C90.4287239,45.5208887 98.0908494,51.6093207 108.2998,53.6984286 L104.261528,65.6358034 C90.6361276,62.0498364 80.6627037,52.9622739 74.3412566,38.373116 L70.9652052,39.2777263 L72.7417592,45.9079162 C72.8847011,46.4413823 72.5681186,46.9897192 72.0346525,47.132661 L65.5263755,48.8765486 C64.9929094,49.0194904 64.4445725,48.7029079 64.3016307,48.1694418 L63.881992,46.603329 C60.5867371,52.310878 59.4318131,59.2541475 60.4172198,67.4331376 L60.0379319,67.6001397 C58.3488982,68.312437 51.5985032,70.8137921 51.6903413,65.2484463 C51.7603131,61.0081829 52.0362384,56.4111977 52.5181171,51.4574907 L50.9956466,49.1516046 L50.0910363,45.7755532 C34.7184629,55.9253569 22.1794649,66.5220533 12.4740421,77.5656426 L0.912138005,58.048389 L0.912138005,58.048389 C9.27147006,50.9839248 18.2338756,46.1701614 27.7993547,43.607099 L31.8538638,45.2345273 L31.8538638,45.2345273 C36.0537289,42.9030299 40.9670377,40.9834392 46.5937901,39.4757555 L49.8486467,31.3667372 L49.8486467,31.3667372 L88.4470856,20.1197064 L87.9947805,18.4316807 L98.9669477,15.4916974 Z M65.2832678,41.7048071 L64.4392549,41.9309596 L65.7961703,46.9950368 L70.8602474,45.6381214 L69.5033321,40.5740442 L66.9712935,41.2525019 C67.5520309,43.4198436 68.3749215,44.4038432 69.4399652,44.2045008 L69.5639295,44.1762482 L69.790082,45.0202611 C68.1583238,45.4574894 66.7001427,44.4393611 65.4155387,41.9658763 L65.2832678,41.7048071 Z"/>
</svg>
