<svg xmlns="http://www.w3.org/2000/svg" width="56" height="64" viewBox="0 0 56 64">
  <g fill="none" fill-rule="evenodd" transform="translate(-4)">
    <path fill="#151B23" stroke="#63ADF2" stroke-width="2" d="M32,1.15470054 L5.28718708,16.5773503 L5.28718708,47.4226497 L32,62.8452995 L58.7128129,47.4226497 L58.7128129,16.5773503 L32,1.15470054 Z"/>
    <g fill="#63ADF2" fill-rule="nonzero" transform="translate(18 18)">
      <path d="M23,0 L28,0 L28,5 L8,25 L3,20 L23,0 Z M4.82842712,21 L7,23.1715729 L26,4.17157288 L26,2 L23.8284271,2 L4.82842712,21 Z"/>
      <path d="M18.5,13.5 L25,20 L20,25 L13.5,18.5 L14.915,17.086 L21,23.1715729 L23.1715729,21 L17.086,14.915 L18.5,13.5 Z M5,0 L15,10 L13.586,11.415 L4.17157288,2 L2,2 L2,4.17157288 L11.415,13.586 L10,15 L0,5 L0,0 L5,0 Z"/>
      <polygon points="1.707 27.707 6.707 22.707 5.293 21.293 .293 26.293"/>
      <polygon points="1.293 18.707 9.293 26.707 10.707 25.293 2.707 17.293"/>
      <polygon points="21.293 22.707 26.293 27.707 27.707 26.293 22.707 21.293"/>
      <polygon points="18.707 26.707 26.707 18.707 25.293 17.293 17.293 25.293"/>
    </g>
  </g>
</svg>
