<svg xmlns="http://www.w3.org/2000/svg" width="56" height="64" viewBox="0 0 56 64">
  <g fill="none" fill-rule="evenodd" transform="translate(-4)">
    <path fill="#151B23" stroke="#63ADF2" stroke-width="2" d="M32,1.15470054 L5.28718708,16.5773503 L5.28718708,47.4226497 L32,62.8452995 L58.7128129,47.4226497 L58.7128129,16.5773503 L32,1.15470054 Z"/>
    <circle cx="32" cy="32" r="13" stroke="#63ADF2" stroke-width="2"/>
    <rect width="26" height="2" x="19" y="31" fill="#63ADF2"/>
    <rect width="2" height="26" x="31" y="19" fill="#63ADF2"/>
    <path stroke="#63ADF2" stroke-width="2" d="M32,19 C36.6666667,23.3333333 39,27.6666667 39,32 C39,36.3333333 36.6666667,40.6666667 32,45"/>
    <path stroke="#63ADF2" stroke-width="2" d="M25,19 C29.6666667,23.3333333 32,27.6666667 32,32 C32,36.3333333 29.6666667,40.6666667 25,45" transform="matrix(-1 0 0 1 57 0)"/>
  </g>
</svg>
