<svg xmlns="http://www.w3.org/2000/svg" width="56" height="64" viewBox="0 0 56 64">
  <g fill="none" fill-rule="evenodd" stroke="#63ADF2" stroke-width="2" transform="translate(-4)">
    <path fill="#151B23" d="M32,1.15470054 L5.28718708,16.5773503 L5.28718708,47.4226497 L32,62.8452995 L58.7128129,47.4226497 L58.7128129,16.5773503 L32,1.15470054 Z"/>
    <path d="M23.2624365 10.5288436C23.1045867 10.6359369 22.9327774 10.7397848 22.7668741 10.8436328 22.5580185 10.9766879 22.3470153 11.0974112 22.1236633 11.2168363 21.9400421 11.3154919 21.7494411 11.4083058 21.5572296 11.501769 21.3231395 11.6134055 21.085291 11.7198496 20.8393891 11.8230486 20.6369762 11.9067759 20.4324158 11.9892053 20.2214126 12.0664422 19.9615511 12.1637996 19.6947098 12.2527193 19.4241102 12.3403411 19.2039797 12.4097894 18.9929765 12.4733963 18.7706982 12.5395993 18.4829177 12.6207305 18.1870836 12.692775 17.8912496 12.7628724 17.6711189 12.8147964 17.4515252 12.8693165 17.2206565 12.9160481 16.8985141 12.980953 16.5672444 13.0341752 16.2311427 13.0873972 16.011012 13.1217968 15.7989349 13.1620379 15.5777306 13.1912451 15.2018977 13.2405729 14.8169376 13.2749725 14.4309038 13.308074 14.2408398 13.3243002 14.0561448 13.347666 13.8633963 13.359998 13.2819293 13.398292 12.6913351 13.4197106 12.0932241 13.4197106 11.495113 13.4197106 10.9045188 13.398292 10.3230518 13.359998 10.1313772 13.347666 9.94668222 13.3243002 9.75769204 13.308074 9.3705842 13.2749725 8.98777174 13.2405729 8.60764376 13.1912451 8.38751322 13.1620379 8.17758375 13.123095 7.96228531 13.0886952 7.63208936 13.0354732 7.29222921 12.980953 6.96686536 12.9147501 6.74727169 12.8693165 6.52714101 12.8160945 6.31291644 12.7654686 6.00580726 12.694073 5.70353045 12.6194325 5.40769635 12.5370031 5.19561927 12.4759924 4.98891129 12.4110876 4.78220331 12.3455335 4.49818103 12.2553157 4.22113874 12.1612034 3.95053916 12.0599516 3.75188464 11.9866091 3.55806236 11.9093721 3.36585068 11.8301882 3.10652605 11.7211478 2.85579202 11.6082131 2.61042696 11.4907352 2.42895337 11.4031134 2.25070126 11.3154919 2.07728126 11.2252739 1.84158054 11.1000072 1.61876537 10.9669521 1.39970857 10.8261084 1.24024814 10.7281019 1.08078757 10.6307445.930454471 10.5288436.868710485 10.4860064.798376174 10.4490106.738779804 10.4061733.31516264 10.8248102.0488582917 11.4316716-3.55271368e-15 12.090457.133152174 13.0361222.613144353 13.8584681 1.30521348 14.327731 3.2128331 15.9918942 6.61411951 17.1004709 10.4315064 17.3516529 10.981296 17.3873507 11.5310856 17.4061733 12.0910764 17.4061733 16.5672444 17.4061733 20.6987202 16.2281482 22.8721073 14.3342214 23.5700824 13.8656077 24.0543697 13.0406656 24.1907433 12.090457 24.1402743 11.4323206 23.8734331 10.8261084 23.4498159 10.4087695 23.3912934 10.4503086 23.3220329 10.4873044 23.2624365 10.5288436zM23.2624365 18.9299656C23.1045867 19.0370589 22.9327774 19.1409069 22.7668741 19.2447548 22.5580185 19.3778099 22.3470153 19.4985332 22.1236633 19.6179584 21.9400421 19.7166139 21.7494411 19.8094279 21.5572296 19.902891 21.3231395 20.0145275 21.085291 20.1209717 20.8393891 20.2241706 20.6369762 20.3078979 20.4324158 20.3903273 20.2214126 20.4675642 19.9615511 20.5649216 19.6947098 20.6538413 19.4241102 20.7414631 19.2039797 20.8109114 18.9929765 20.8745184 18.7706982 20.9407213 18.4829177 21.0218525 18.1870836 21.093897 17.8912496 21.1639944 17.6711189 21.2159184 17.4515252 21.2704385 17.2206565 21.3171701 16.8985141 21.3820751 16.5672444 21.4352972 16.2311427 21.4885192 16.011012 21.5229188 15.7989349 21.5631599 15.5777306 21.5923671 15.2018977 21.6416949 14.8169376 21.6760945 14.4309038 21.7091961 14.2408398 21.7254223 14.0561448 21.748788 13.8633963 21.76112 13.2819293 21.799414 12.6913351 21.8208326 12.0932241 21.8208326 11.495113 21.8208326 10.9045188 21.799414 10.3230518 21.76112 10.1313772 21.748788 9.94668222 21.7254223 9.75769204 21.7091961 9.3705842 21.6760945 8.98777174 21.6416949 8.60764376 21.5923671 8.38751322 21.5631599 8.17758375 21.524217 7.96228531 21.4898172 7.63208936 21.4365952 7.29222921 21.3820751 6.96686536 21.3158721 6.74727169 21.2704385 6.52714101 21.2172166 6.31291644 21.1665906 6.00580726 21.0951951 5.70353045 21.0205545 5.40769635 20.9381251 5.19561927 20.8771144 4.98891129 20.8122096 4.78220331 20.7466555 4.49818103 20.6564377 4.22113874 20.5623254 3.95053916 20.4610737 3.75188464 20.3877311 3.55806236 20.3104941 3.36585068 20.2313102 3.10652605 20.1222698 2.85579202 20.0093351 2.61042696 19.8918572 2.42895337 19.8042355 2.25070126 19.7166139 2.07728126 19.626396 1.84158054 19.5011293 1.61876537 19.3680741 1.39970857 19.2272304 1.24024814 19.1292239 1.08078757 19.0318665.930454471 18.9299656.868710485 18.8871284.798376174 18.8501326.738779804 18.8072953.31516264 19.2259322.0488582917 19.8327936-3.55271368e-15 20.491579.133152174 21.4372442.613144353 22.2595901 1.30521348 22.728853 3.2128331 24.3930162 6.61411951 25.5015929 10.4315064 25.752775 10.981296 25.7884727 11.5310856 25.8072953 12.0910764 25.8072953 16.5672444 25.8072953 20.6987202 24.6292702 22.8721073 22.7353434 23.5700824 22.2667297 24.0543697 21.4417876 24.1907433 20.491579 24.1402743 19.8334427 23.8734331 19.2272304 23.4498159 18.8098915 23.3912934 18.8514307 23.3220329 18.8884264 23.2624365 18.9299656zM12.0953717 0C5.16823713 0 0 2.32210945 0 4.39831697.133152174 5.18058596.613144353 5.86084327 1.30521348 6.24902484 3.2128331 7.62564651 6.61411951 8.54267842 10.4315064 8.75046013 10.981296 8.77998988 11.5310856 8.7955602 12.0910764 8.7955602 16.5672444 8.7955602 20.6987202 7.82107954 22.8721073 6.25439381 23.5700824 5.86674925 24.0543697 5.18434432 24.1907433 4.39831697 24.1907433 2.32210945 19.0225062 0 12.0953717 0z" transform="translate(20 19)"/>
  </g>
</svg>
