<svg xmlns="http://www.w3.org/2000/svg" width="56" height="64" viewBox="0 0 56 64">
  <g fill="none" fill-rule="evenodd" transform="translate(-4)">
    <path fill="#151B23" stroke="#63ADF2" stroke-width="2" d="M32,1.15470054 L5.28718708,16.5773503 L5.28718708,47.4226497 L32,62.8452995 L58.7128129,47.4226497 L58.7128129,16.5773503 L32,1.15470054 Z"/>
    <g transform="translate(18 20)">
      <path stroke="#63ADF2" stroke-width="2" d="M1,23 L27,23 L27,3 C27,1.8954305 26.1045695,1 25,1 L3,1 C1.8954305,1 1,1.8954305 1,3 L1,23 Z"/>
      <rect width="24" height="2" x="2" y="8" fill="#63ADF2"/>
      <path stroke="#63ADF2" stroke-width="2" d="M12,9 L12,11 C12,12.1045695 12.8954305,13 14,13 C15.1045695,13 16,12.1045695 16,11 L16,9 L12,9 Z"/>
      <rect width="2" height="20" x="6" y="2" fill="#63ADF2"/>
      <rect width="2" height="20" x="20" y="2" fill="#63ADF2"/>
    </g>
  </g>
</svg>
